
<svg xmlns="http://www.w3.org/2000/svg" version="1.1" xmlns:xlink="http://www.w3.org/1999/xlink" preserveAspectRatio="none" x="0px" y="0px" width="1920px" height="1080px" viewBox="0 0 1920 1080">
<defs/>

<g id="Layer_2"/>

<g id="Layer_1"/>

<g id="Layer_3"/>

<g id="Layer_5"/>

<g id="Layer_4">
<g id="Layer_1" transform="matrix( 7.267364501953125, 0, 0, 7.267364501953125, 25.45,16.75) ">
<g>
<g>
<g>
<path fill="#000000" stroke="none" d="
M 252.15 14.85
Q 251.05 14.5 249.95 14.15 249.6 13.8 249.25 13.4 248.15 13.05 247.05 12.7 246.7 12.35 246.35 11.95 244.5 11.6 242.7 11.25 242.35 10.9 241.95 10.5 238.7 10.15 235.45 9.8 235.1 9.45 234.7 9.05 232.9 8.7 231.1 8.35 230.35 8.15 229.65 7.95 228.9 7.6 228.2 7.25 223.45 6.7 218.75 6.15 217.5 5.8 216.2 5.45 209.7 5.25 203.15 5.05 202.05 4.7 201 4.35 190.65 4 180.3 3.6 180.3 3.25 180.3 2.9 180.3 2.35 180.3 1.8 180.3 1.25 180.3 0.7 176.65 0.35 173.05 0 170.3 0 167.6 0 167.6 0.15 167.6 0.35 167.4 0.35 167.25 0.35 166.7 0.55 166.15 0.7 163.05 0.9 160 1.1 159.45 1.45 158.9 1.8 157.25 2.15 155.65 2.55 155.1 2.9 154.55 3.25 152.55 3.8 150.55 4.35 149.45 4.7 148.35 5.05 147.65 5.25 146.9 5.45 146.55 5.6 146.2 5.8 145.45 6.15 144.75 6.5 143.65 7.05 142.55 7.6 140.4 7.95 138.2 8.35 137.65 8.5 137.15 8.7 136.05 9.05 134.95 9.45 133.7 9.95 132.4 10.5 130.25 10.9 128.05 11.25 126.95 11.6 125.9 11.95 124.45 12.5 123 13.05 119.7 13.4 116.45 13.8 115.9 13.95 115.35 14.15 114.65 14.5 113.9 14.85 112.8 15.4 111.75 15.95 109 16.3 106.3 16.7 105.75 16.85 105.2 17.05 104.45 17.4 103.75 17.75 102.65 18.3 101.55 18.85 99.4 19.2 97.2 19.6 96.85 19.75 96.5 19.95 95.75 20.3 95.05 20.65 93.95 21.2 92.85 21.75 90.7 22.1 88.5 22.5 87.8 22.85 87.05 23.2 85.95 23.75 84.9 24.3 83.8 24.85 82.7 25.4 81.6 25.95 80.55 26.5 79.8 27 79.1 27.55 78.35 28.1 77.65 28.65 76.55 29 75.45 29.4 74 29.55 72.55 29.75 71.8 30.1 71.1 30.45 70 31 68.9 31.55 67.85 32.1 66.75 32.65 65.65 33.2 64.55 33.75 63.85 34.3 63.1 34.8 62.4 35.35 61.65 35.9 60.75 36.45 59.85 37 59.1 37.55 58.4 38.1 56.75 38.65 55.15 39.2 54.25 39.7 53.3 40.25 52.6 40.8 51.85 41.35 50.95 41.9 50.05 42.45 49.5 43 48.95 43.55 48.4 44.05 47.9 44.6 46.95 45.15 46.05 45.7 44.95 46.25 43.9 46.8 43.35 47.35 42.8 47.9 41.9 48.45 41 48.95 40.1 49.5 39.15 50.05 38.65 50.6 38.1 51.15 37.35 51.7 36.65 52.25 35 52.6 33.35 52.95 33.2 53.15 33 53.3 32.65 53.7 32.3 54.05 31.35 54.6 30.45 55.15 29.55 55.7 28.65 56.25 28.1 56.75 27.55 57.3 27 57.85 26.45 58.4 25.55 58.95 24.65 59.5 23.75 60.05 22.85 60.6 22.5 61.1 22.1 61.65 21.75 62.2 21.4 62.75 20.5 63.1 19.6 63.5 19.2 63.65 18.85 63.85 18.15 64.2 17.4 64.55 16.85 65.1 16.3 65.65 15.75 66.2 15.25 66.75 14.3 67.1 13.4 67.45 13.25 67.85 13.05 68.2 12.85 68.75 12.7 69.3 12.15 69.85 11.6 70.4 11.05 70.9 10.5 71.45 10.35 72 10.15 72.55 9.4 72.9 8.7 73.3 8.5 73.45 8.35 73.65 7.95 74 7.6 74.35 7.4 74.9 7.25 75.45 7.05 76 6.9 76.55 6.35 77.1 5.8 77.65 5.8 78.2 5.8 78.7 5.45 79.25 5.05 79.8 4.5 80.35 4 80.9 3.45 81.45 2.9 82 2.9 82.55 2.9 83.05 2.55 83.6 2.15 84.15 1.8 84.7 1.45 85.25 1.45 85.8 1.45 86.35 1.45 86.9 1.45 87.45 1.45 87.95 1.45 88.5 1.25 89.05 1.1 89.6 0.55 90.15 0 90.7 0 91.25 0 91.8 0 92.35 0 92.85 0 93.4 0 93.95 0 94.5 0 95.05 0 95.6 0 96.15 0 96.7 0 97.2 0 97.75 0 98.3 0 98.85 0 99.4 0 99.95 0 100.5 0 101.05 0 101.6 0 102.1 0 102.65 0 103.2 0 103.75 0 104.3 0 104.85 0 105.4 0 105.95 0.15 106.45 0.35 107 0.7 107.55 1.1 108.1 1.25 108.65 1.45 109.2 1.8 109.75 2.15 110.3 2.7 110.85 3.25 111.35 3.45 111.55 3.6 111.7 3.6 112.1 3.6 112.45 3.6 113 3.6 113.55 3.6 114.1 3.6 114.65 3.6 115.2 3.6 115.75 3.6 116.25 3.6 116.8 3.6 117.35 3.6 117.9 3.6 118.45 3.6 119 3.6 119.55 3.6 120.1 3.6 120.6 3.6 121.15 3.6 121.7 3.6 122.25 3.6 122.8 3.6 123.35 3.6 123.9 3.6 124.45 3.6 125 3.6 125.5 3.6 126.05 3.6 126.6 3.6 127.15 3.6 127.7 3.6 128.25 3.6 128.8 3.6 129.35 3.6 129.85 3.8 130.4 4 130.95 4.15 131.5 4.35 132.05 4.5 132.6 4.7 133.15 4.9 133.7 5.05 134.25 5.25 134.75 5.45 135.3 5.95 135.85 6.5 136.4 7.05 136.95 7.6 137.5 8.15 138.05 8.7 138.6 9.6 138.6 10.5 138.6 10.5 138.95 10.5 139.3 11.95 139.65 13.4 140.05 13.4 140.4 13.4 140.75 16.3 141.1 19.2 141.5 19.2 141.85 19.2 142.2 26.65 142.55 34.1 142.95 34.25 143.3 34.45 143.65 46.05 143.85 57.65 144 58.05 143.65 58.4 143.3 64.75 142.95 71.1 142.55 71.3 142.2 71.45 141.85 74.7 141.5 78 141.1 78 140.75 78 140.4 79.45 139.85 80.9 139.3 84 138.95 87.05 138.6 87.05 138.2 87.05 137.85 88.5 137.5 89.95 137.15 90.3 136.75 90.7 136.4 91.8 136.05 92.85 135.7 92.85 135.3 92.85 134.95 93.6 134.6 94.3 134.25 94.7 133.85 95.05 133.5 96.15 133.15 97.2 132.8 97.2 132.4 97.2 132.05 97.95 131.7 98.65 131.35 98.65 131.15 98.65 130.95 98.65 130.6 98.65 130.25 98.65 129.7 98.65 129.15 99.4 128.6 100.1 128.05 100.1 127.5 100.1 126.95 100.65 126.45 101.2 125.9 101.4 125.35 101.55 124.8 102.3 124.45 103 124.05 103 123.7 103 123.35 103.75 123 104.45 122.6 104.85 122.25 105.2 121.9 106.1 121.55 107 121.15 107.2 121 107.4 120.8 107.55 120.45 107.75 120.1 108.3 119.55 108.85 119 109 118.45 109.2 117.9 109.75 117.35 110.3 116.8 110.8 116.25 111.35 115.75 111.9 115.2 112.45 114.65 113.35 114.25 114.25 113.9 114.45 113.75 114.65 113.55 114.8 113.2 115 112.8 115.9 112.3 116.8 111.75 117.7 111.2 118.6 110.65 119.55 110.3 120.45 109.9 120.6 109.55 120.8 109.2 122.05 108.85 123.35 108.45 123.9 108.1 124.45 107.75 125.35 107.4 126.25 107 126.4 106.65 126.6 106.3 127.85 105.95 129.15 105.55 129.35 105.2 129.5 104.85 130.25 104.5 130.95 104.1 131.3 103.75 131.7 103.4 132.75 103.05 133.85 102.65 133.85 102.3 133.85 101.95 135.15 101.6 136.4 101.2 136.6 100.85 136.75 100.5 138.75 100.15 140.75 99.75 140.95 99.4 141.1 99.05 143.85 98.65 146.55 98.3 147.1 97.95 147.65 97.6 150 97.2 152.35 96.85 152.9 96.5 153.45 96.15 155.8 95.75 158.15 95.4 158.7 95.05 159.25 94.7 165.25 94.3 171.25 93.95 171.75 93.6 172.3 93.25 178.3 92.85 184.3 92.5 184.85 92.15 185.4 91.8 187 91.4 188.65 91.05 189.9 90.85 191.2 90.7 191.75 90.35 192.25 89.95 194.45 89.6 196.6 89.25 197.55 89.05 198.45 88.9 198.45 88.5 198.45 88.15 200.6 87.8 202.8 87.45 202.8 87.05 202.8 86.7 204.25 86.35 205.7 86 206.05 85.6 206.4 85.25 207.5 84.9 208.6 84.5 208.6 84.15 208.6 83.8 210.05 83.45 211.5 83.05 211.85 82.7 212.2 82.35 213.85 82.05 215.5 81.7 216.2 81.65 216.95 81.6 217.3 81.45 217.65 81.25 218.4 80.9 219.1 80.55 219.2 80.5 219.35 80.5 220.3 80.3 221.3 80.15 221.4 79.95 221.55 79.75 221.95 79.6 222.4 79.45 224 78.9 225.65 78.35 228.9 78 232.2 77.65 233.25 77.25 234.35 76.9 235.8 76.35 237.25 75.8 238 75.25 238.7 74.75 239.6 74.2 240.5 73.65 241.6 73.1 242.7 72.55 243.6 72 244.5 71.45 245.25 70.9 245.95 70.4 246.5 69.85 247.05 69.3 247.6 68.75 248.15 68.2 248.7 67.65 249.25 67.1 249.75 66.55 250.3 66 250.85 65.5 251.4 64.95 251.75 64.4 252.15 63.85 252.3 63.3 252.5 62.75 252.7 62.2 252.85 61.65 253.05 61.1 253.2 60.6 253.4 60.05 253.6 59.5 253.6 58.95 253.6 58.4 253.6 57.85 253.6 57.3 253.6 56.75 253.6 56.25 253.6 55.7 253.6 55.15 252.75 55.1 251.9 55.05 252.35 54.55 252.85 54.05 253.05 53.5 253.2 52.95 253.2 52.4 253.2 51.85 253.4 51.35 253.6 50.8 253.75 50.25 253.95 49.7 254.15 49.15 254.3 48.6 254.3 48.05 254.3 47.5 254.3 47 254.3 46.45 254.3 45.9 254.3 45.35 254.7 45 255.05 44.6 255.2 44.05 255.4 43.55 255.4 43 255.4 42.45 255.75 41.9 256.1 41.35 256.5 40.8 256.85 40.25 257.05 39.7 257.2 39.2 257.2 38.65 257.2 38.1 257.2 37.55 257.2 37 257.2 36.45 257.2 35.9 257.2 35.35 257.2 34.8 257.2 34.3 257.2 33.75 257.2 33.2 257.2 32.65 257.2 32.1 257.2 31.55 257.2 31 257.2 30.45 257.2 29.9 257.2 29.4 257.2 28.85 257.2 28.3 257.2 27.75 257.2 27.2 257.2 26.65 257.2 26.1 257.2 25.55 257.2 25.05 257.2 24.5 257.2 23.95 257.2 23.4 257.2 22.85 257.2 22.3 257.2 21.75 257.05 21.2 256.85 20.65 256.5 20.15 256.1 19.6 255.95 19.05 255.75 18.5 255.2 17.95 254.65 17.4 254.65 16.85 254.65 16.3 253.75 15.95 252.85 15.6 252.5 15.25 252.15 14.85
M 244.9 22.1
Q 245.25 22.5 245.6 22.85 246.5 23.4 247.4 23.95 247.6 24.5 247.8 25.05 248.15 25.55 248.5 26.1 248.7 26.65 248.85 27.2 249.75 27.75 250.7 28.3 250.7 28.85 250.7 29.4 250.7 29.9 250.7 30.45 250.7 31 250.7 31.55 250.7 32.1 250.7 32.65 250.7 33.2 250.7 33.75 250.7 34.3 250.7 34.8 250.15 35.35 249.6 35.9 249.6 36.45 249.6 37 249.6 37.55 249.6 38.1 249.25 38.65 248.85 39.2 248.5 39.7 248.15 40.25 247.6 40.8 247.05 41.35 246.85 41.9 246.7 42.45 246.7 43 246.7 43.55 245.95 44.05 245.25 44.6 245.25 45.15 245.25 45.7 245.25 46.25 245.25 46.8 244.9 47.35 244.5 47.9 243.95 48.45 243.45 48.95 242.9 49.5 242.35 50.05 241.8 50.6 241.25 51.15 240.5 51.7 239.8 52.25 238.7 52.8 237.6 53.3 236.15 53.7 234.7 54.05 234.15 54.4 233.65 54.8 232.7 55.15 231.8 55.5 231.8 55.7 231.8 55.85 231.45 56.25 231.1 56.6 230 57.15 228.9 57.7 226 58.05 223.1 58.4 223.1 58.75 223.1 59.15 220.2 59.5 217.3 59.85 216.75 60.2 216.2 60.6 213.15 60.95 210.05 61.3 209.5 61.65 208.95 62.05 204.4 62.4 199.9 62.75 199 63.1 198.1 63.5 183 63.85 167.95 64.2 167.25 64.55 166.5 64.95 161.6 65.3 156.7 65.65 156.15 66 155.65 66.4 152.55 66.75 149.45 67.1 148.9 67.45 148.35 67.85 144.4 68.2 140.4 68.55 140.05 68.9 139.65 69.3 137.85 69.65 136.05 70 135.65 70.4 135.3 70.75 132.75 71.1 130.25 71.45 129.85 71.85 129.5 72.2 127.7 72.55 125.9 72.9 125.5 73.3 125.15 73.65 124.25 74 123.35 74.35 123.35 74.55 123.35 74.75 123 75.1 122.6 75.45 121.5 75.8 120.45 76.2 120.45 76.55 120.45 76.9 119.15 77.25 117.9 77.65 117.7 77.8 117.55 78 117.35 78.35 117.15 78.7 116.65 79.25 116.1 79.8 115.35 80.15 114.65 80.55 114.25 80.9 113.9 81.25 112.8 81.6 111.75 82 111.35 82.35 111 82.7 109.9 83.05 108.85 83.45 108.3 83.8 107.75 84.15 106.85 84.5 105.9 84.9 105.4 85.25 104.85 85.6 103.95 86 103 86.35 102.5 86.7 101.95 87.05 100.85 87.45 99.75 87.8 99.4 88.15 99.05 88.5 97.95 88.9 96.85 89.25 96.5 89.6 96.15 89.95 94.5 90.35 92.85 90.7 92.85 91.05 92.85 91.4 91.4 91.8 89.95 92.15 89.4 92.5 88.85 92.85 87.95 93.25 87.05 93.6 86.9 93.8 86.7 93.95 86.35 94.3 85.95 94.7 85.25 95.25 84.5 95.75 82.9 96.15 81.25 96.5 80.7 96.85 80.15 97.2 79.25 97.6 78.35 97.95 78.15 98.15 78 98.3 77.25 98.65 76.55 99.05 76 99.6 75.45 100.15 74 100.5 72.55 100.85 72.35 101.05 72.2 101.2 71.8 101.6 71.45 101.95 70.75 102.5 70 103.05 68.4 103.4 66.75 103.75 66.4 104.1 66 104.5 64.95 104.85 63.85 105.2 63.5 105.4 63.1 105.55 62.4 105.95 61.65 106.3 60.75 106.85 59.85 107.4 58.95 107.75 58.05 108.1 57.5 108.45 56.95 108.85 55.5 109.2 54.05 109.55 53.3 109.9 52.6 110.3 51.7 110.65 50.8 111 50.25 111.35 49.7 111.75 48.25 112.1 46.8 112.45 46.05 112.8 45.35 113.2 44.45 113.55 43.5 113.9 43 114.25 42.45 114.65 41.55 115 40.6 115.35 40.1 115.75 39.55 116.1 36.45 116.45 33.35 116.8 32.8 117.2 32.3 117.55 29.2 117.7 26.1 117.9 26.1 117.55 26.1 117.2 23.55 116.65 21.05 116.1 20.5 115.55 19.95 115 19.4 114.45 18.85 113.9 18.3 113.35 17.75 112.8 16.85 112.3 15.95 111.75 15.4 111.2 14.85 110.65 14.5 110.1 14.15 109.55 13.6 109 13.05 108.45 12.3 108.1 11.6 107.75 11.05 107.4 10.5 107 10.5 106.45 10.5 105.95 10.5 105.4 10.5 104.85 10.5 104.3 10.5 103.75 10.5 103.2 10.5 102.65 10.5 102.1 10.5 101.6 10.5 101.05 10.5 100.5 10.5 99.95 10.5 99.4 10.5 98.85 10.5 98.3 10.5 97.75 10.5 97.2 10.5 96.7 10.5 96.15 10.5 95.6 10.5 95.05 8.95 94.95 7.4 94.9 7.15 94.85 6.95 94.85 7.1 94.4 7.25 93.95 7.25 93.4 7.25 92.85 7.25 92.35 7.25 91.8 7.25 91.25 7.25 90.7 7.8 90.15 8.35 89.6 8.5 89.05 8.7 88.5 8.9 87.95 9.05 87.45 9.6 86.9 10.15 86.35 10.7 85.8 11.25 85.25 11.4 84.7 11.6 84.15 11.8 83.6 11.95 83.05 12.3 82.55 12.7 82 12.85 81.45 13.05 80.9 13.4 80.35 13.75 79.8 14.85 79.45 15.95 79.1 15.95 78.9 15.95 78.7 15.95 78.35 15.95 78 16.3 77.45 16.7 76.9 17.2 76.35 17.75 75.8 18.15 75.25 18.5 74.75 18.85 74.2 19.2 73.65 20.1 73.1 21.05 72.55 21.55 72 22.1 71.45 22.65 70.9 23.2 70.4 24.1 69.85 25 69.3 25.55 68.75 26.1 68.2 26.85 67.65 27.55 67.1 28.3 66.55 29 66 30.1 65.5 31.2 64.95 31.9 64.4 32.65 63.85 33.2 63.3 33.75 62.75 34.25 62.2 34.8 61.65 35.9 61.1 37 60.6 37.7 60.05 38.45 59.5 40.25 58.95 42.05 58.4 42.8 57.85 43.5 57.3 44.05 56.75 44.6 56.25 45.5 55.7 46.45 55.15 47.15 54.6 47.9 54.05 48.6 53.5 49.35 52.95 49.5 52.4 49.7 51.85 50.4 51.35 51.15 50.8 52.05 50.25 52.95 49.7 54.05 49.15 55.15 48.6 56.2 48.05 57.3 47.5 58.05 47 58.75 46.45 59.5 45.9 60.2 45.35 60.95 44.8 61.65 44.25 62.55 43.7 63.5 43.15 64.75 42.8 66 42.45 66.75 42.1 67.45 41.7 68.2 41.15 68.9 40.65 69.65 40.1 70.35 39.55 71.45 39 72.55 38.45 73.65 37.9 74.7 37.35 75.8 36.8 76.9 36.25 78.7 35.9 80.55 35.55 81.25 35.35 82 35.2 82.7 34.8 83.45 34.45 84.15 33.9 84.9 33.35 85.6 32.85 86.35 32.3 87.4 31.75 88.5 31.2 89.6 30.65 90.7 30.1 91.8 29.55 92.85 29 95.05 28.65 97.2 28.3 97.6 28.1 97.95 27.95 98.65 27.55 99.4 27.2 100.5 26.65 101.55 26.1 103.75 25.75 105.9 25.4 106.3 25.2 106.65 25.05 107.4 24.65 108.1 24.3 109.2 23.75 110.3 23.2 113.2 22.85 116.1 22.5 116.45 22.3 116.8 22.1 117.55 21.75 118.25 21.4 119.35 20.85 120.45 20.3 122.25 19.95 124.05 19.6 124.95 19.4 125.9 19.2 126.25 19.05 126.6 18.85 127.35 18.5 128.05 18.15 129.5 17.6 130.95 17.05 133.5 16.7 136.05 16.3 136.4 16.15 136.75 15.95 137.5 15.6 138.2 15.25 139.65 14.7 141.1 14.15 144 13.6 146.9 13.05 147.3 13.4 147.65 13.8 150.2 13.95 152.75 14.15 154.7 13.95 156.7 13.8 158.7 13.6 160.7 13.4 167.25 13.25 173.75 13.05 174.5 12.85 175.2 12.7 175.95 12.5 176.65 12.35 184.85 12.35 193 12.35 194.1 12.7 195.15 13.05 202.25 13.4 209.3 13.8 210.4 14.15 211.5 14.5 215.85 14.85 220.2 15.25 220.75 15.6 221.3 15.95 224.75 16.5 228.2 17.05 231.45 17.4 234.7 17.75 235.1 18.15 235.45 18.5 237.25 18.85 239.05 19.2 239.45 19.6 239.8 19.95 240.9 20.3 241.95 20.65 242.35 21.05 242.7 21.4 243.8 21.75 244.9 22.1
M 243.6 59.3
Q 243.5 59.4 243.45 59.5 243.05 60.05 242.7 60.6 242.5 61.1 242.35 61.65 241.95 62.2 241.6 62.75 241.25 63.3 240.9 63.85 240.9 64.4 240.9 64.95 240.9 65.15 240.9 65.3 240.15 65.85 239.45 66.4 238.55 66.95 237.6 67.45 236.55 68 235.45 68.55 234.15 68.9 232.9 69.3 232.2 69.65 231.45 70 230 70.55 228.55 71.1 225.3 71.45 222 71.85 220.95 72.2 219.85 72.55 218.2 73.1 216.6 73.65 214.95 74.2 213.3 74.75 213 74.9 212.75 75.05 212.45 75.05 212.2 75.1 212.05 75.25 211.9 75.45 211.5 75.6 211.15 75.8 209.3 76.2 207.5 76.55 206.8 76.9 206.05 77.25 205.9 77.4 205.75 77.55 204.65 77.8 203.5 78 203.5 78.35 203.5 78.7 202.8 79.1 202.05 79.45 201.7 79.8 201.35 80.15 199.7 80.55 198.1 80.9 197.9 81.25 197.7 81.6 195.55 82.15 193.35 82.7 190.1 83.25 186.85 83.8 183.2 84.15 179.55 84.5 179.05 84.9 178.5 85.25 172.5 85.6 166.5 86 165.95 86.35 165.4 86.7 159.45 87.05 153.45 87.45 152.9 87.8 152.35 88.15 150 88.5 147.65 88.9 147.1 89.25 146.55 89.6 144.2 89.95 141.85 90.35 141.3 90.7 140.75 91.05 137.85 91.4 134.95 91.8 134.75 92.15 134.6 92.5 132.6 92.85 130.6 93.25 130.4 93.6 130.25 93.95 128.95 94.3 127.7 94.7 127.5 95.05 127.35 95.4 126.6 95.75 125.9 96.15 125.5 96.5 125.15 96.85 124.25 97.2 123.35 97.6 123.15 97.95 123 98.3 121.7 98.65 120.45 99.05 120.25 99.4 120.05 99.75 119.35 100.15 118.6 100.5 118.1 100.85 117.55 101.2 116.65 101.75 115.7 102.3 114.65 102.85 113.55 103.4 113.35 103.95 113.2 104.5 112.45 104.85 111.75 105.2 111.55 105.4 111.35 105.55 110.65 105.95 109.9 106.3 109.35 106.85 108.85 107.4 108.1 107.75 107.4 108.1 107 108.45 106.65 108.85 106.1 109.4 105.55 109.9 105 110.45 104.45 111 103.95 111.55 103.4 112.1 103.2 112.65 103 113.2 102.3 113.55 101.55 113.9 101.4 114.25 101.2 114.65 100.5 115 99.75 115.35 99.4 115.75 99.05 116.1 98.1 116.45 97.2 116.8 97.2 117.2 97.2 117.55 96.5 118.1 95.75 118.65 95.6 119.15 95.4 119.7 94.85 120.25 94.3 120.8 94.3 121.35 94.3 121.9 93.6 122.25 92.85 122.6 92.85 122.8 92.85 123 92.85 123.35 92.85 123.7 92.85 124.25 92.85 124.8 92.15 125.15 91.4 125.5 91.4 125.9 91.4 126.25 90.7 126.6 89.95 126.95 89.6 127.35 89.25 127.7 88.35 128.05 87.4 128.4 87.25 128.8 87.05 129.15 86.35 129.5 85.6 129.85 85.25 130.25 84.9 130.6 83.05 130.95 81.25 131.35 81.25 131.7 81.25 132.05 79.6 132.4 78 132.8 77.1 132.95 76.2 133.15 76 133.5 75.8 133.85 74.55 134.25 73.25 134.6 73.1 134.95 72.9 135.3 70 135.7 67.1 136.05 66.75 136.4 66.4 136.75 60.2 137.15 54.05 137.5 53.7 137.85 53.3 138.2 46.6 138.4 39.9 138.6 39.55 138.2 39.15 137.85 31.75 137.5 24.3 137.15 24.3 136.75 24.3 136.4 21.4 136.05 18.5 135.7 18.5 135.3 18.5 134.95 18.15 134.85 17.75 134.8 17.75 134.5 17.75 134.25 17.4 133.7 17.05 133.15 16.5 132.6 15.95 132.05 15.75 131.5 15.6 130.95 15.05 130.4 14.5 129.85 14.35 129.7 14.15 129.55 14.15 129.2 14.15 128.8 14.15 128.25 14.15 127.7 14.15 127.15 14.15 126.6 14.15 126.05 14.15 125.5 14.15 125 14.15 124.45 14.15 123.9 14.15 123.35 14.15 122.8 14.15 122.25 14.15 121.7 14.15 121.15 14.15 121 14.15 120.8 14.35 121 14.5 121.15 15.05 121.7 15.6 122.25 17.95 122.6 20.3 123 20.3 123.35 20.3 123.7 28.85 123.9 37.35 124.05 37.9 123.7 38.45 123.35 41.35 123 44.25 122.6 44.95 122.25 45.7 121.9 46.6 121.55 47.5 121.15 48.05 120.8 48.6 120.45 49.5 120.1 50.4 119.7 50.95 119.35 51.5 119 52.95 118.65 54.4 118.25 55.15 117.9 55.85 117.55 56.75 117.2 57.65 116.8 58.2 116.45 58.75 116.1 60.2 115.75 61.65 115.35 62.4 115 63.1 114.65 64 114.25 64.95 113.9 65.3 113.75 65.65 113.55 66 113.2 66.4 112.8 67.3 112.3 68.2 111.75 69.65 111.35 71.1 111 71.45 110.65 71.8 110.3 73.45 109.9 75.1 109.55 75.45 109.4 75.8 109.2 76.2 108.85 76.55 108.45 77.1 107.95 77.65 107.4 79.25 107 80.9 106.65 81.05 106.45 81.25 106.3 81.45 105.95 81.6 105.55 82.5 105 83.45 104.5 84.35 104.1 85.25 103.75 85.8 103.4 86.35 103.05 87.8 102.65 89.25 102.3 89.8 102.1 90.3 101.95 90.7 101.6 91.05 101.2 91.6 100.65 92.15 100.15 93.05 99.75 93.95 99.4 94.5 99.05 95.05 98.65 96.65 98.3 98.3 97.95 98.5 97.6 98.65 97.2 99.95 96.85 101.2 96.5 101.75 96.15 102.3 95.75 103.2 95.4 104.1 95.05 104.65 94.7 105.2 94.3 106.1 93.95 107 93.6 107.55 93.25 108.1 92.85 109 92.5 109.9 92.15 110.45 91.8 111 91.4 111.9 91.05 112.8 90.7 113.35 90.35 113.9 89.95 115 89.6 116.1 89.25 116.45 88.9 116.8 88.5 117.9 88.15 119 87.8 119.35 87.45 119.7 87.05 120.8 86.7 121.9 86.35 121.9 86 121.9 85.6 122.6 85.25 123.35 84.9 123.35 84.5 123.35 84.15 124.8 83.8 126.25 83.45 126.25 83.05 126.25 82.7 127.15 82.15 128.05 81.6 129.7 81.25 131.3 80.9 131.5 80.55 131.7 80.15 133.5 79.8 135.3 79.45 135.65 79.1 136.05 78.7 138.6 78.35 141.1 78 141.5 77.65 141.85 77.25 143.65 76.9 145.45 76.55 145.85 76.2 146.2 75.8 150.2 75.45 154.2 75.1 154.55 74.75 154.9 74.35 158 74 161.05 73.65 161.6 73.3 162.15 72.9 167.05 72.55 171.95 72.2 172.5 71.85 173.05 71.45 188.1 71.1 203.15 70.75 204.05 70.4 204.95 70 209.85 69.65 214.75 69.3 215.3 68.9 215.85 68.55 219.1 68.2 222.4 67.85 222.75 67.45 223.1 67.1 225.65 66.75 228.2 66.4 228.55 66 228.9 65.65 231.45 65.3 234 64.95 234 64.75 234 64.55 234.15 64.2 234.35 63.85 235.45 63.3 236.55 62.75 237.6 62.4 238.7 62.05 239.45 61.85 240.15 61.65 240.35 61.5 240.5 61.3 241.05 60.95 241.6 60.6 242.35 60.05 243.05 59.5 243.3 59.4 243.6 59.3
M 205.35 19.6
Q 205.35 19.75 205.35 19.95 203.35 19.95 201.35 19.95 200.25 20.3 199.15 20.65 198.6 21.2 198.1 21.75 197.35 21.95 196.6 22.1 193.2 22.1 189.75 22.1 189.55 22.3 189.35 22.5 189 22.65 188.65 22.85 186.3 23.05 183.95 23.2 183.75 23.55 183.55 23.95 181.55 24.3 179.55 24.65 179.4 25.05 179.2 25.4 178.5 25.75 177.75 26.1 177.4 26.5 177.05 26.85 175.95 27.2 174.85 27.55 174.85 27.95 174.85 28.3 174.85 28.85 174.85 29.4 174.85 29.9 174.85 30.45 174.85 31 174.85 31.55 174.85 32.1 174.85 32.65 174.85 33.2 174.85 33.75 174.85 34.3 174.85 34.8 175.4 35.35 175.95 35.9 176.5 36.45 177.05 37 177.4 37.55 177.75 38.1 177.75 38.65 177.75 39.2 179.05 39.55 180.3 39.9 180.3 40.25 180.3 40.65 181.95 41 183.55 41.35 183.95 41.7 184.3 42.1 186.3 42.45 188.3 42.8 189 43.15 189.75 43.55 200.45 43.7 211.15 43.9 211.7 43.55 212.2 43.15 214.6 42.8 216.95 42.45 217.5 42.1 218.05 41.7 220.4 41.35 222.75 41 222.95 40.65 223.1 40.25 223.85 39.7 224.55 39.2 224.75 38.65 224.9 38.1 224.9 37.55 224.9 37 224.9 36.45 224.9 35.9 224.9 35.35 224.9 34.8 224.9 34.3 224.9 33.75 224.9 33.2 224.9 32.65 224.9 32.1 224.9 31.55 224.9 31 224.9 30.45 224.9 29.9 224.9 29.4 224.75 28.85 224.55 28.3 224.2 27.75 223.85 27.2 223.3 26.65 222.75 26.1 222.4 25.55 222 25.05 221.85 24.5 221.65 23.95 220.75 23.4 219.85 22.85 218.55 22.5 217.3 22.1 216.95 21.75 216.6 21.4 214.75 21.05 212.95 20.65 212.6 20.3 212.2 19.95 208.8 19.75 205.35 19.6
M 214.05 28.65
Q 214.4 28.85 214.75 29 215.3 29.4 215.85 29.75 216.05 30.3 216.2 30.85 216.6 31.35 216.95 31.9 217.5 32.45 218.05 33 218.2 33.55 218.4 34.1 218.05 34.65 217.65 35.2 215.65 35.55 213.7 35.9 213.15 36.25 212.6 36.65 210.25 37 207.85 37.35 207.35 37.7 206.8 38.1 201.15 38.25 195.55 38.45 194.45 38.1 193.35 37.7 191.55 37.35 189.75 37 189.2 36.65 188.65 36.25 187.2 35.9 185.75 35.55 185.55 35.2 185.4 34.8 184.1 34.45 182.85 34.1 182.5 33.75 182.1 33.35 181.55 32.85 181 32.3 181.2 31.75 181.4 31.2 182.3 30.85 183.2 30.45 183.4 30.1 183.55 29.75 185.55 29.4 187.55 29 187.75 28.85 187.9 28.65 187.9 28.3 187.9 27.95 190.1 27.55 192.25 27.2 192.45 26.85 192.65 26.5 194.65 26.1 196.6 25.75 198.45 25.55 200.25 25.4 200.25 25.2 200.25 25.05 200.8 25.05 201.35 25.05 203.35 25.2 205.35 25.4 205.9 25.55 206.4 25.75 206.8 26.1 207.15 26.5 208.95 26.85 210.75 27.2 211.15 27.55 211.5 27.95 212.75 28.3 214.05 28.65 Z"/>

<path fill="#43290F" stroke="none" d="
M 243.45 59.5
Q 243.5 59.4 243.6 59.3 243.3 59.4 243.05 59.5 242.35 60.05 241.6 60.6 241.05 60.95 240.5 61.3 240.35 61.5 240.15 61.65 239.45 61.85 238.7 62.05 237.6 62.4 236.55 62.75 235.45 63.3 234.35 63.85 234.15 64.2 234 64.55 234 64.75 234 64.95 231.45 65.3 228.9 65.65 228.55 66 228.2 66.4 225.65 66.75 223.1 67.1 222.75 67.45 222.4 67.85 219.1 68.2 215.85 68.55 215.3 68.9 214.75 69.3 209.85 69.65 204.95 70 204.05 70.4 203.15 70.75 188.1 71.1 173.05 71.45 172.5 71.85 171.95 72.2 167.05 72.55 162.15 72.9 161.6 73.3 161.05 73.65 158 74 154.9 74.35 154.55 74.75 154.2 75.1 150.2 75.45 146.2 75.8 145.85 76.2 145.45 76.55 143.65 76.9 141.85 77.25 141.5 77.65 141.1 78 138.6 78.35 136.05 78.7 135.65 79.1 135.3 79.45 133.5 79.8 131.7 80.15 131.5 80.55 131.3 80.9 129.7 81.25 128.05 81.6 127.15 82.15 126.25 82.7 126.25 83.05 126.25 83.45 124.8 83.8 123.35 84.15 123.35 84.5 123.35 84.9 122.6 85.25 121.9 85.6 121.9 86 121.9 86.35 120.8 86.7 119.7 87.05 119.35 87.45 119 87.8 117.9 88.15 116.8 88.5 116.45 88.9 116.1 89.25 115 89.6 113.9 89.95 113.35 90.35 112.8 90.7 111.9 91.05 111 91.4 110.45 91.8 109.9 92.15 109 92.5 108.1 92.85 107.55 93.25 107 93.6 106.1 93.95 105.2 94.3 104.65 94.7 104.1 95.05 103.2 95.4 102.3 95.75 101.75 96.15 101.2 96.5 99.95 96.85 98.65 97.2 98.5 97.6 98.3 97.95 96.65 98.3 95.05 98.65 94.5 99.05 93.95 99.4 93.05 99.75 92.15 100.15 91.6 100.65 91.05 101.2 90.7 101.6 90.3 101.95 89.8 102.1 89.25 102.3 87.8 102.65 86.35 103.05 85.8 103.4 85.25 103.75 84.35 104.1 83.45 104.5 82.5 105 81.6 105.55 81.45 105.95 81.25 106.3 81.05 106.45 80.9 106.65 79.25 107 77.65 107.4 77.1 107.95 76.55 108.45 76.2 108.85 75.8 109.2 75.45 109.4 75.1 109.55 73.45 109.9 71.8 110.3 71.45 110.65 71.1 111 69.65 111.35 68.2 111.75 67.3 112.3 66.4 112.8 66 113.2 65.65 113.55 65.3 113.75 64.95 113.9 64 114.25 63.1 114.65 62.4 115 61.65 115.35 60.2 115.75 58.75 116.1 58.2 116.45 57.65 116.8 56.75 117.2 55.85 117.55 55.15 117.9 54.4 118.25 52.95 118.65 51.5 119 50.95 119.35 50.4 119.7 49.5 120.1 48.6 120.45 48.05 120.8 47.5 121.15 46.6 121.55 45.7 121.9 44.95 122.25 44.25 122.6 41.35 123 38.45 123.35 37.9 123.7 37.35 124.05 28.85 123.9 20.3 123.7 20.3 123.35 20.3 123 17.95 122.6 15.6 122.25 15.05 121.7 14.5 121.15 14.35 121 14.15 120.8 14.15 121 14.15 121.15 14.15 121.7 14.15 122.25 14.15 122.8 14.15 123.35 14.15 123.9 14.15 124.45 14.15 125 14.15 125.5 14.15 126.05 14.15 126.6 14.15 127.15 14.15 127.7 14.15 128.25 14.15 128.8 14.15 129.2 14.15 129.55 14.35 129.7 14.5 129.85 15.05 130.4 15.6 130.95 15.75 131.5 15.95 132.05 16.5 132.6 17.05 133.15 17.4 133.7 17.75 134.25 17.75 134.5 17.75 134.8 18.15 134.85 18.5 134.95 18.5 135.3 18.5 135.7 21.4 136.05 24.3 136.4 24.3 136.75 24.3 137.15 31.75 137.5 39.15 137.85 39.55 138.2 39.9 138.6 46.6 138.4 53.3 138.2 53.7 137.85 54.05 137.5 60.2 137.15 66.4 136.75 66.75 136.4 67.1 136.05 70 135.7 72.9 135.3 73.1 134.95 73.25 134.6 74.55 134.25 75.8 133.85 76 133.5 76.2 133.15 77.1 132.95 78 132.8 79.6 132.4 81.25 132.05 81.25 131.7 81.25 131.35 83.05 130.95 84.9 130.6 85.25 130.25 85.6 129.85 86.35 129.5 87.05 129.15 87.25 128.8 87.4 128.4 88.35 128.05 89.25 127.7 89.6 127.35 89.95 126.95 90.7 126.6 91.4 126.25 91.4 125.9 91.4 125.5 92.15 125.15 92.85 124.8 92.85 124.25 92.85 123.7 92.85 123.35 92.85 123 92.85 122.8 92.85 122.6 93.6 122.25 94.3 121.9 94.3 121.35 94.3 120.8 94.85 120.25 95.4 119.7 95.6 119.15 95.75 118.65 96.5 118.1 97.2 117.55 97.2 117.2 97.2 116.8 98.1 116.45 99.05 116.1 99.4 115.75 99.75 115.35 100.5 115 101.2 114.65 101.4 114.25 101.55 113.9 102.3 113.55 103 113.2 103.2 112.65 103.4 112.1 103.95 111.55 104.45 111 105 110.45 105.55 109.9 106.1 109.4 106.65 108.85 107 108.45 107.4 108.1 108.1 107.75 108.85 107.4 109.35 106.85 109.9 106.3 110.65 105.95 111.35 105.55 111.55 105.4 111.75 105.2 112.45 104.85 113.2 104.5 113.35 103.95 113.55 103.4 114.65 102.85 115.7 102.3 116.65 101.75 117.55 101.2 118.1 100.85 118.6 100.5 119.35 100.15 120.05 99.75 120.25 99.4 120.45 99.05 121.7 98.65 123 98.3 123.15 97.95 123.35 97.6 124.25 97.2 125.15 96.85 125.5 96.5 125.9 96.15 126.6 95.75 127.35 95.4 127.5 95.05 127.7 94.7 128.95 94.3 130.25 93.95 130.4 93.6 130.6 93.25 132.6 92.85 134.6 92.5 134.75 92.15 134.95 91.8 137.85 91.4 140.75 91.05 141.3 90.7 141.85 90.35 144.2 89.95 146.55 89.6 147.1 89.25 147.65 88.9 150 88.5 152.35 88.15 152.9 87.8 153.45 87.45 159.45 87.05 165.4 86.7 165.95 86.35 166.5 86 172.5 85.6 178.5 85.25 179.05 84.9 179.55 84.5 183.2 84.15 186.85 83.8 190.1 83.25 193.35 82.7 195.55 82.15 197.7 81.6 197.9 81.25 198.1 80.9 199.7 80.55 201.35 80.15 201.7 79.8 202.05 79.45 202.8 79.1 203.5 78.7 203.5 78.35 203.5 78 204.65 77.8 205.75 77.55 205.9 77.4 206.05 77.25 206.8 76.9 207.5 76.55 209.3 76.2 211.15 75.8 211.5 75.6 211.9 75.45 212.05 75.25 212.2 75.1 212.45 75.05 212.75 75.05 213 74.9 213.3 74.75 214.95 74.2 216.6 73.65 218.2 73.1 219.85 72.55 220.95 72.2 222 71.85 225.3 71.45 228.55 71.1 230 70.55 231.45 70 232.2 69.65 232.9 69.3 234.15 68.9 235.45 68.55 236.55 68 237.6 67.45 238.55 66.95 239.45 66.4 240.15 65.85 240.9 65.3 240.9 65.15 240.9 64.95 240.9 64.4 240.9 63.85 241.25 63.3 241.6 62.75 241.95 62.2 242.35 61.65 242.5 61.1 242.7 60.6 243.05 60.05 243.45 59.5 Z"/>

<path fill="#663300" stroke="none" d="
M 245.6 22.85
Q 245.25 22.5 244.9 22.1 243.8 21.75 242.7 21.4 242.35 21.05 241.95 20.65 240.9 20.3 239.8 19.95 239.45 19.6 239.05 19.2 237.25 18.85 235.45 18.5 235.1 18.15 234.7 17.75 231.45 17.4 228.2 17.05 224.75 16.5 221.3 15.95 220.75 15.6 220.2 15.25 215.85 14.85 211.5 14.5 210.4 14.15 209.3 13.8 202.25 13.4 195.15 13.05 194.1 12.7 193 12.35 184.85 12.35 176.65 12.35 175.95 12.5 175.2 12.7 174.5 12.85 173.75 13.05 167.25 13.25 160.7 13.4 158.7 13.6 156.7 13.8 154.7 13.95 152.75 14.15 150.2 13.95 147.65 13.8 147.3 13.4 146.9 13.05 144 13.6 141.1 14.15 139.65 14.7 138.2 15.25 137.5 15.6 136.75 15.95 136.4 16.15 136.05 16.3 133.5 16.7 130.95 17.05 129.5 17.6 128.05 18.15 127.35 18.5 126.6 18.85 126.25 19.05 125.9 19.2 124.95 19.4 124.05 19.6 122.25 19.95 120.45 20.3 119.35 20.85 118.25 21.4 117.55 21.75 116.8 22.1 116.45 22.3 116.1 22.5 113.2 22.85 110.3 23.2 109.2 23.75 108.1 24.3 107.4 24.65 106.65 25.05 106.3 25.2 105.9 25.4 103.75 25.75 101.55 26.1 100.5 26.65 99.4 27.2 98.65 27.55 97.95 27.95 97.6 28.1 97.2 28.3 95.05 28.65 92.85 29 91.8 29.55 90.7 30.1 89.6 30.65 88.5 31.2 87.4 31.75 86.35 32.3 85.6 32.85 84.9 33.35 84.15 33.9 83.45 34.45 82.7 34.8 82 35.2 81.25 35.35 80.55 35.55 78.7 35.9 76.9 36.25 75.8 36.8 74.7 37.35 73.65 37.9 72.55 38.45 71.45 39 70.35 39.55 69.65 40.1 68.9 40.65 68.2 41.15 67.45 41.7 66.75 42.1 66 42.45 64.75 42.8 63.5 43.15 62.55 43.7 61.65 44.25 60.95 44.8 60.2 45.35 59.5 45.9 58.75 46.45 58.05 47 57.3 47.5 56.2 48.05 55.15 48.6 54.05 49.15 52.95 49.7 52.05 50.25 51.15 50.8 50.4 51.35 49.7 51.85 49.5 52.4 49.35 52.95 48.6 53.5 47.9 54.05 47.15 54.6 46.45 55.15 45.5 55.7 44.6 56.25 44.05 56.75 43.5 57.3 42.8 57.85 42.05 58.4 40.25 58.95 38.45 59.5 37.7 60.05 37 60.6 35.9 61.1 34.8 61.65 34.25 62.2 33.75 62.75 33.2 63.3 32.65 63.85 31.9 64.4 31.2 64.95 30.1 65.5 29 66 28.3 66.55 27.55 67.1 26.85 67.65 26.1 68.2 25.55 68.75 25 69.3 24.1 69.85 23.2 70.4 22.65 70.9 22.1 71.45 21.55 72 21.05 72.55 20.1 73.1 19.2 73.65 18.85 74.2 18.5 74.75 18.15 75.25 17.75 75.8 17.2 76.35 16.7 76.9 16.3 77.45 15.95 78 15.95 78.35 15.95 78.7 15.95 78.9 15.95 79.1 14.85 79.45 13.75 79.8 13.4 80.35 13.05 80.9 12.85 81.45 12.7 82 12.3 82.55 11.95 83.05 11.8 83.6 11.6 84.15 11.4 84.7 11.25 85.25 10.7 85.8 10.15 86.35 9.6 86.9 9.05 87.45 8.9 87.95 8.7 88.5 8.5 89.05 8.35 89.6 7.8 90.15 7.25 90.7 7.25 91.25 7.25 91.8 7.25 92.35 7.25 92.85 7.25 93.4 7.25 93.95 7.1 94.4 6.95 94.85 7.15 94.85 7.4 94.9 8.95 94.95 10.5 95.05 10.5 95.6 10.5 96.15 10.5 96.7 10.5 97.2 10.5 97.75 10.5 98.3 10.5 98.85 10.5 99.4 10.5 99.95 10.5 100.5 10.5 101.05 10.5 101.6 10.5 102.1 10.5 102.65 10.5 103.2 10.5 103.75 10.5 104.3 10.5 104.85 10.5 105.4 10.5 105.95 10.5 106.45 10.5 107 11.05 107.4 11.6 107.75 12.3 108.1 13.05 108.45 13.6 109 14.15 109.55 14.5 110.1 14.85 110.65 15.4 111.2 15.95 111.75 16.85 112.3 17.75 112.8 18.3 113.35 18.85 113.9 19.4 114.45 19.95 115 20.5 115.55 21.05 116.1 23.55 116.65 26.1 117.2 26.1 117.55 26.1 117.9 29.2 117.7 32.3 117.55 32.8 117.2 33.35 116.8 36.45 116.45 39.55 116.1 40.1 115.75 40.6 115.35 41.55 115 42.45 114.65 43 114.25 43.5 113.9 44.45 113.55 45.35 113.2 46.05 112.8 46.8 112.45 48.25 112.1 49.7 111.75 50.25 111.35 50.8 111 51.7 110.65 52.6 110.3 53.3 109.9 54.05 109.55 55.5 109.2 56.95 108.85 57.5 108.45 58.05 108.1 58.95 107.75 59.85 107.4 60.75 106.85 61.65 106.3 62.4 105.95 63.1 105.55 63.5 105.4 63.85 105.2 64.95 104.85 66 104.5 66.4 104.1 66.75 103.75 68.4 103.4 70 103.05 70.75 102.5 71.45 101.95 71.8 101.6 72.2 101.2 72.35 101.05 72.55 100.85 74 100.5 75.45 100.15 76 99.6 76.55 99.05 77.25 98.65 78 98.3 78.15 98.15 78.35 97.95 79.25 97.6 80.15 97.2 80.7 96.85 81.25 96.5 82.9 96.15 84.5 95.75 85.25 95.25 85.95 94.7 86.35 94.3 86.7 93.95 86.9 93.8 87.05 93.6 87.95 93.25 88.85 92.85 89.4 92.5 89.95 92.15 91.4 91.8 92.85 91.4 92.85 91.05 92.85 90.7 94.5 90.35 96.15 89.95 96.5 89.6 96.85 89.25 97.95 88.9 99.05 88.5 99.4 88.15 99.75 87.8 100.85 87.45 101.95 87.05 102.5 86.7 103 86.35 103.95 86 104.85 85.6 105.4 85.25 105.9 84.9 106.85 84.5 107.75 84.15 108.3 83.8 108.85 83.45 109.9 83.05 111 82.7 111.35 82.35 111.75 82 112.8 81.6 113.9 81.25 114.25 80.9 114.65 80.55 115.35 80.15 116.1 79.8 116.65 79.25 117.15 78.7 117.35 78.35 117.55 78 117.7 77.8 117.9 77.65 119.15 77.25 120.45 76.9 120.45 76.55 120.45 76.2 121.5 75.8 122.6 75.45 123 75.1 123.35 74.75 123.35 74.55 123.35 74.35 124.25 74 125.15 73.65 125.5 73.3 125.9 72.9 127.7 72.55 129.5 72.2 129.85 71.85 130.25 71.45 132.75 71.1 135.3 70.75 135.65 70.4 136.05 70 137.85 69.65 139.65 69.3 140.05 68.9 140.4 68.55 144.4 68.2 148.35 67.85 148.9 67.45 149.45 67.1 152.55 66.75 155.65 66.4 156.15 66 156.7 65.65 161.6 65.3 166.5 64.95 167.25 64.55 167.95 64.2 183 63.85 198.1 63.5 199 63.1 199.9 62.75 204.4 62.4 208.95 62.05 209.5 61.65 210.05 61.3 213.15 60.95 216.2 60.6 216.75 60.2 217.3 59.85 220.2 59.5 223.1 59.15 223.1 58.75 223.1 58.4 226 58.05 228.9 57.7 230 57.15 231.1 56.6 231.45 56.25 231.8 55.85 231.8 55.7 231.8 55.5 232.7 55.15 233.65 54.8 234.15 54.4 234.7 54.05 236.15 53.7 237.6 53.3 238.7 52.8 239.8 52.25 240.5 51.7 241.25 51.15 241.8 50.6 242.35 50.05 242.9 49.5 243.45 48.95 243.95 48.45 244.5 47.9 244.9 47.35 245.25 46.8 245.25 46.25 245.25 45.7 245.25 45.15 245.25 44.6 245.95 44.05 246.7 43.55 246.7 43 246.7 42.45 246.85 41.9 247.05 41.35 247.6 40.8 248.15 40.25 248.5 39.7 248.85 39.2 249.25 38.65 249.6 38.1 249.6 37.55 249.6 37 249.6 36.45 249.6 35.9 250.15 35.35 250.7 34.8 250.7 34.3 250.7 33.75 250.7 33.2 250.7 32.65 250.7 32.1 250.7 31.55 250.7 31 250.7 30.45 250.7 29.9 250.7 29.4 250.7 28.85 250.7 28.3 249.75 27.75 248.85 27.2 248.7 26.65 248.5 26.1 248.15 25.55 247.8 25.05 247.6 24.5 247.4 23.95 246.5 23.4 245.6 22.85
M 205.35 19.95
Q 205.35 19.75 205.35 19.6 208.8 19.75 212.2 19.95 212.6 20.3 212.95 20.65 214.75 21.05 216.6 21.4 216.95 21.75 217.3 22.1 218.55 22.5 219.85 22.85 220.75 23.4 221.65 23.95 221.85 24.5 222 25.05 222.4 25.55 222.75 26.1 223.3 26.65 223.85 27.2 224.2 27.75 224.55 28.3 224.75 28.85 224.9 29.4 224.9 29.9 224.9 30.45 224.9 31 224.9 31.55 224.9 32.1 224.9 32.65 224.9 33.2 224.9 33.75 224.9 34.3 224.9 34.8 224.9 35.35 224.9 35.9 224.9 36.45 224.9 37 224.9 37.55 224.9 38.1 224.75 38.65 224.55 39.2 223.85 39.7 223.1 40.25 222.95 40.65 222.75 41 220.4 41.35 218.05 41.7 217.5 42.1 216.95 42.45 214.6 42.8 212.2 43.15 211.7 43.55 211.15 43.9 200.45 43.7 189.75 43.55 189 43.15 188.3 42.8 186.3 42.45 184.3 42.1 183.95 41.7 183.55 41.35 181.95 41 180.3 40.65 180.3 40.25 180.3 39.9 179.05 39.55 177.75 39.2 177.75 38.65 177.75 38.1 177.4 37.55 177.05 37 176.5 36.45 175.95 35.9 175.4 35.35 174.85 34.8 174.85 34.3 174.85 33.75 174.85 33.2 174.85 32.65 174.85 32.1 174.85 31.55 174.85 31 174.85 30.45 174.85 29.9 174.85 29.4 174.85 28.85 174.85 28.3 174.85 27.95 174.85 27.55 175.95 27.2 177.05 26.85 177.4 26.5 177.75 26.1 178.5 25.75 179.2 25.4 179.4 25.05 179.55 24.65 181.55 24.3 183.55 23.95 183.75 23.55 183.95 23.2 186.3 23.05 188.65 22.85 189 22.65 189.35 22.5 189.55 22.3 189.75 22.1 193.2 22.1 196.6 22.1 197.35 21.95 198.1 21.75 198.6 21.2 199.15 20.65 200.25 20.3 201.35 19.95 203.35 19.95 205.35 19.95 Z"/>

<path fill="#FFFFFF" stroke="none" d="
M 214.75 29
Q 214.4 28.85 214.05 28.65 212.75 28.3 211.5 27.95 211.15 27.55 210.75 27.2 208.95 26.85 207.15 26.5 206.8 26.1 206.4 25.75 205.9 25.55 205.35 25.4 203.35 25.2 201.35 25.05 200.8 25.05 200.25 25.05 200.25 25.2 200.25 25.4 198.45 25.55 196.6 25.75 194.65 26.1 192.65 26.5 192.45 26.85 192.25 27.2 190.1 27.55 187.9 27.95 187.9 28.3 187.9 28.65 187.75 28.85 187.55 29 185.55 29.4 183.55 29.75 183.4 30.1 183.2 30.45 182.3 30.85 181.4 31.2 181.2 31.75 181 32.3 181.55 32.85 182.1 33.35 182.5 33.75 182.85 34.1 184.1 34.45 185.4 34.8 185.55 35.2 185.75 35.55 187.2 35.9 188.65 36.25 189.2 36.65 189.75 37 191.55 37.35 193.35 37.7 194.45 38.1 195.55 38.45 201.15 38.25 206.8 38.1 207.35 37.7 207.85 37.35 210.25 37 212.6 36.65 213.15 36.25 213.7 35.9 215.65 35.55 217.65 35.2 218.05 34.65 218.4 34.1 218.2 33.55 218.05 33 217.5 32.45 216.95 31.9 216.6 31.35 216.2 30.85 216.05 30.3 215.85 29.75 215.3 29.4 214.75 29 Z"/>
</g>
</g>
</g>
</g>
</g>
</svg>
