
<svg xmlns="http://www.w3.org/2000/svg" version="1.1" xmlns:xlink="http://www.w3.org/1999/xlink" preserveAspectRatio="none" x="0px" y="0px" width="1920px" height="1080px" viewBox="0 0 1920 1080">
<defs/>

<g id="Layer_2"/>

<g id="Layer_1"/>

<g id="Layer_3"/>

<g id="Layer_5"/>

<g id="Layer_4">
<g id="Layer_1" transform="matrix( 7.53314208984375, 0, 0, 7.53314208984375, 17.25,48.1) ">
<g>
<g>
<g>
<path fill="#000000" stroke="none" d="
M 247.45 49.3
Q 247.45 48.75 247.45 48.25 247.45 47.7 247.45 47.15 247.45 46.6 247.45 46.05 247.25 45.5 247.05 44.95 246.55 44.4 246 43.9 245.45 43.35 244.9 42.8 241.95 42.6 239 42.5 238.85 42.1 238.75 41.7 238.35 41.15 238 40.6 237.45 40.05 236.9 39.5 236.35 39 235.8 38.45 235.45 37.9 235.1 37.35 234.95 37.1 234.75 36.85 234.75 36.35 234.75 35.9 234.75 35.35 234.75 34.8 234.75 34.25 234.75 33.7 234.55 33.15 234.35 32.65 233.85 32.1 233.3 31.55 233.3 31 233.3 30.45 232.4 30.1 231.45 29.75 231.1 29.35 230.75 29 230.4 28.45 230 27.9 229.3 27.55 228.55 27.2 228.55 26.8 228.55 26.45 227.1 26.1 225.65 25.75 225.1 25.35 224.6 25 223.65 24.65 222.75 24.3 222.2 23.9 221.7 23.55 220.75 23.2 219.85 22.85 219.85 22.45 219.85 22.1 218.4 21.75 216.95 21.4 216.95 21 216.95 20.65 214.8 20.3 212.6 19.95 212.05 19.55 211.5 19.2 204.25 18.85 197 18.5 196.3 18.1 195.55 17.75 189.75 17.4 183.95 17.05 183.2 16.65 182.5 16.3 173.6 16.1 164.7 15.95 164.15 16.3 163.65 16.65 157.65 16.85 151.65 17.05 151.65 16.85 151.65 16.65 151.45 16.3 151.3 15.95 150.75 15.4 150.2 14.85 149.5 14.5 148.75 14.15 148.2 13.75 147.65 13.4 146.4 12.85 145.15 12.3 144.6 11.75 144.05 11.2 143.5 10.7 142.95 10.15 142.95 9.6 142.95 9.05 142.05 8.7 141.15 8.3 140.95 8.15 140.75 7.95 140.4 7.6 140.05 7.25 139.5 6.7 138.95 6.15 138.05 5.8 137.15 5.4 137.15 5.05 137.15 4.7 134.95 4.35 132.8 3.95 132.8 3.6 132.8 3.25 131.35 2.9 129.9 2.5 129.9 2.15 129.9 1.8 127.7 1.45 125.55 1.05 125.55 0.7 125.55 0.35 117.55 0.15 109.55 0 109.55 0.15 109.55 0.35 109.2 0.5 108.85 0.7 107.05 1.05 105.2 1.45 105.05 1.6 104.85 1.8 104.3 2.15 103.75 2.5 103.4 3.05 103.05 3.6 102.3 4.15 101.6 4.7 101.25 5.25 100.85 5.8 100.85 6.35 100.85 6.85 100.85 7.4 100.85 7.95 100.7 8.5 100.5 9.05 99.95 9.6 99.4 10.15 99.4 10.7 99.4 11.2 99.4 11.75 99.4 12.3 99.4 12.85 99.4 13.4 99.4 13.95 99.4 14.5 99.4 15.05 99.4 15.6 99.4 16.1 99.4 16.65 99.4 17.2 99.4 17.75 99.4 18.3 99.4 18.85 99.4 19.4 99.4 19.95 99.4 20.5 99.4 21 99.4 21.55 99.4 22.1 99.4 22.65 99.4 23.2 99.4 23.75 99.4 24.3 99.6 24.85 99.8 25.35 99.95 25.9 100.15 26.45 100.25 26.6 100.35 26.75 100.25 26.8 100.15 26.85 99.6 27.2 99.05 27.55 97.95 28.1 96.85 28.65 95.4 29 93.95 29.35 93.45 29.75 92.9 30.1 92 30.45 91.05 30.8 90.7 31 90.35 31.2 89.6 31.55 88.9 31.9 88 32.45 87.1 33 86.15 33.35 85.25 33.7 84.9 33.9 84.55 34.1 83.8 34.45 83.1 34.8 82.35 35.35 81.65 35.9 80.9 36.45 80.2 37 79.1 37.35 78 37.7 76.55 37.9 75.1 38.05 74.75 38.25 74.4 38.45 73.65 38.8 72.95 39.15 71.85 39.7 70.75 40.25 69.65 40.8 68.55 41.35 67.5 41.9 66.4 42.45 65.3 42.95 64.2 43.5 63.3 44.05 62.4 44.6 60.75 44.95 59.15 45.35 58.8 45.5 58.4 45.7 57.7 46.05 56.95 46.4 55.7 46.95 54.45 47.5 52.8 48.05 51.15 48.6 50.05 48.95 49 49.3 48.25 49.5 47.55 49.7 47 50.05 46.45 50.4 44.8 50.75 43.2 51.15 42.65 51.5 42.1 51.85 41.2 52.2 40.3 52.6 39.75 52.95 39.2 53.3 37.55 53.65 35.9 54.05 35.55 54.4 35.2 54.75 33.55 55.1 31.95 55.5 31.4 55.85 30.85 56.2 29.05 56.55 27.2 56.95 26.85 57.3 26.5 57.65 25.4 58.05 24.3 58.4 23.95 58.75 23.6 59.1 21.75 59.5 19.95 59.85 19.6 60.2 19.25 60.55 18.15 60.95 17.05 61.3 16.7 61.65 16.35 62 15.25 62.4 14.15 62.75 14.15 63.1 14.15 63.45 13.45 63.85 12.7 64.2 12.7 64.55 12.7 64.9 12.7 65.45 12.7 66 12.7 66.55 12.7 67.1 12.7 67.65 12.7 68.2 12.7 68.75 12.7 69.25 12.7 69.8 12.7 70.35 13.45 70.9 14.15 71.45 14.35 72 14.5 72.55 15.05 73.1 15.6 73.65 16.15 74.15 16.7 74.7 17.8 75.1 18.85 75.45 19.25 75.8 19.6 76.15 20.5 76.5 21.4 76.8 21.4 77.2 21.4 77.6 21.4 78.15 21.4 78.7 21.4 79.25 21.4 79.8 21.4 80.35 21.4 80.9 20.85 81.45 20.3 81.95 20.3 82.5 20.3 83.05 20.3 83.6 20.3 84.15 18.85 84.7 17.4 85.25 10.7 85.6 4 85.95 4 86.15 4 86.3 3.8 86.7 3.65 87.05 2.75 87.4 1.8 87.8 1.65 88.15 1.45 88.5 0.75 88.85 0 89.25 0 89.4 0 89.6 0 89.95 0 90.3 0 90.85 0 91.4 0 91.95 0 92.5 0 93.05 0 93.6 0 94.1 0 94.65 0.75 95.05 1.45 95.4 1.45 95.75 1.45 96.1 2.35 96.5 3.25 96.85 3.65 97.2 4 97.55 5.1 97.95 6.15 98.3 6.35 98.5 6.55 98.65 6.9 99 7.25 99.4 7.8 99.95 8.35 100.45 10 100.85 11.6 101.2 11.6 101.55 11.6 101.9 12.5 102.3 13.45 102.65 13.8 103 14.15 103.4 22.85 103.55 31.55 103.75 31.75 103.6 31.95 103.5 31.95 103.8 31.95 104.1 31.75 104.65 31.55 105.2 31 105.75 30.5 106.3 30.5 106.8 30.5 107.35 30.5 107.9 30.5 108.45 30.5 109 30.5 109.55 30.5 110.1 30.5 110.65 30.5 111.2 30.5 111.7 30.5 112.25 30.5 112.8 30.5 113.35 30.5 113.9 30.5 114.45 30.5 115 32.45 115.1 34.45 115.2 34.45 115.65 34.45 116.05 34.45 116.6 34.45 117.15 34.45 117.7 34.45 118.25 38.85 118.6 43.2 119 43.2 119.35 43.2 119.7 45.15 120.05 47.15 120.45 47.35 120.8 47.55 121.15 49 121.5 50.45 121.9 51 122.25 51.5 122.6 52.6 122.95 53.7 123.35 54.05 123.7 54.45 124.05 56.25 124.4 58.05 124.8 58.4 125.15 58.8 125.5 60.6 125.85 62.4 126.25 62.75 126.6 63.15 126.95 65.15 127.3 67.1 127.7 67.85 128.05 68.55 128.4 91.6 128.75 114.65 129.15 115 129.5 115.4 129.85 117.9 130.2 120.45 130.6 128.8 130.6 137.15 130.6 137.5 130.2 137.85 129.85 141.3 129.7 144.75 129.5 145.1 129.85 145.5 130.2 153.65 130.4 161.8 130.6 162.2 130.2 162.55 129.85 164.55 129.7 166.55 129.5 166.7 129.85 166.9 130.2 171.6 130.4 176.35 130.6 176.7 130.2 177.05 129.85 178.85 129.5 180.7 129.15 182.15 129.15 183.6 129.15 186.5 128.95 189.4 128.75 189.4 128.25 189.4 127.7 189.4 127.65 189.4 127.6 190.3 127.65 191.2 127.7 191.75 127.3 192.3 126.95 193.2 126.4 194.1 125.85 194.45 125.6 194.8 125.4 196.05 125.45 197.35 125.5 197.35 125.15 197.35 124.8 197.35 124.25 197.35 123.7 197.35 123.15 197.35 122.6 197.35 122.05 197.35 121.5 197.35 120.95 197.35 120.45 197.35 119.9 197.35 119.35 197.55 118.8 197.75 118.25 197.75 118 197.75 117.8 198.1 117.85 198.45 117.9 198.8 118.45 199.2 119 199.35 119.5 199.55 120.05 205.35 120.25 211.15 120.45 211.35 120.2 211.6 120 212.1 120.05 212.6 120.05 212.9 119.75 213.25 119.45 214.4 119.2 215.5 119 215.5 118.6 215.5 118.25 216.4 117.7 217.3 117.15 217.85 116.6 218.4 116.05 219.15 115.55 219.85 115 220.05 114.45 220.2 113.9 220.2 113.35 220.2 112.8 220.75 112.25 221.3 111.7 221.85 111.2 222.4 110.65 222.6 110.1 222.75 109.55 222.75 109 222.75 108.45 222.75 107.9 222.75 107.35 222.75 107.3 222.75 107.25 222.95 106.95 223.15 106.65 223.3 106.1 223.5 105.55 223.5 105 223.5 104.45 223.5 104.25 223.5 104.1 223.85 103.55 224.2 103 224.2 102.45 224.2 101.9 224.2 101.4 224.2 100.85 224.2 100.3 224.2 99.75 224.2 99.2 224.2 98.65 224.2 98.1 224.2 97.55 224.2 97.05 224.2 96.5 224.2 95.95 224.2 95.4 224.2 94.85 224.2 94.3 224.2 93.75 224.2 93.2 224.2 92.65 224.2 92.15 224.2 91.6 224.2 91.05 223.65 90.5 223.15 89.95 222.2 89.4 221.3 88.85 220.25 88.8 219.15 88.75 219.15 88.6 219.15 88.5 219.15 87.95 219.15 87.4 219.15 86.85 219.15 86.3 219.15 85.8 219.15 85.25 219.15 84.7 219.15 84.15 220.75 83.8 222.4 83.4 222.4 83.25 222.4 83.05 224.75 82.9 227.1 82.7 227.1 82.35 227.1 81.95 228.55 81.6 230 81.25 230 80.9 230 80.5 232.2 80.15 234.35 79.8 234.35 79.45 234.35 79.05 235.8 78.7 237.3 78.35 237.3 78 237.3 77.6 240.2 77.25 243.1 76.9 243.1 76.55 243.1 76.15 244.55 75.8 246 75.45 246 75.1 246 74.7 247.45 74.35 248.9 74 248.9 73.65 248.9 73.25 249.6 72.7 250.35 72.15 250.35 71.65 250.35 71.1 250.35 70.55 250.35 70 250.35 69.45 250.35 68.9 250.35 68.35 250.35 67.8 250.35 67.3 250.35 66.75 250.35 66.2 250.35 65.65 249.95 65.1 249.6 64.55 249.25 64 248.9 63.45 248.7 62.9 248.5 62.4 248.15 61.85 247.8 61.3 247.6 60.75 247.45 60.2 247.45 59.65 247.45 59.1 247.45 58.55 247.45 58.05 247.45 57.5 247.45 56.95 247.45 56.4 247.45 55.85 247.45 55.3 247.45 54.75 247.45 54.2 247.45 53.65 247.3 53.3 247.2 53 247.3 52.8 247.45 52.6 247.45 52.05 247.45 51.5 247.45 50.95 247.45 50.4 247.45 49.85 247.45 49.3
M 216.6 30.1
Q 217.7 30.45 218.75 30.8 219.15 31.2 219.5 31.55 221.15 31.9 222.75 32.25 222.75 32.65 222.75 33 223.5 33.55 224.2 34.1 224.75 34.65 225.3 35.15 225.65 35.7 226.05 36.25 226.4 36.8 226.75 37.35 226.75 37.9 226.75 38.45 226.75 39 226.75 39.5 226.75 40.05 226.75 40.6 226.75 41.15 226.75 41.7 226.55 42.25 226.4 42.8 226.05 43.35 225.65 43.9 224.75 44.25 223.85 44.6 223.85 44.8 223.85 44.95 223.5 45.35 223.15 45.7 222.75 46.25 222.4 46.8 221.7 47.15 220.95 47.5 220.4 47.85 219.85 48.25 218.75 48.75 217.7 49.3 217.15 49.85 216.6 50.4 216.25 50.95 215.85 51.5 214.25 51.85 212.6 52.2 212.6 52.6 212.6 52.95 211.9 53.3 211.15 53.65 210.6 53.85 210.05 54.05 210.05 54.4 210.05 54.75 208.6 55.1 207.15 55.5 206.8 55.85 206.45 56.2 204.25 56.75 202.1 57.3 201.7 57.85 201.35 58.4 198.8 58.75 196.3 59.1 196.3 59.3 196.3 59.5 196.3 59.7 196.3 59.95 195.6 59.9 194.85 59.85 194.45 60.2 194.1 60.55 193.9 61.1 193.75 61.65 193 62 192.3 62.4 191.95 62.75 191.55 63.1 191.2 63.65 190.85 64.2 190.65 64.75 190.45 65.3 190.1 65.85 189.75 66.35 189.55 66.9 189.4 67.45 188.65 67.8 187.95 68.2 187.55 68.55 187.2 68.9 186.85 69.45 186.5 70 186.3 70.55 186.1 71.1 185.75 71.65 185.4 72.15 185.2 72.7 185.05 73.25 184.3 73.8 183.6 74.35 183.6 74.9 183.6 75.45 183.6 76 183.6 76.55 183.6 77.05 183.6 77.6 183.6 78.15 183.6 78.7 183.6 79.25 183.6 79.8 183.6 80.35 183.6 80.9 183.05 81.45 182.5 81.95 182.5 82.5 182.5 83.05 182.5 83.6 182.5 84.15 182.5 84.7 182.5 85.25 181.75 85.8 181.05 86.3 173.6 86.5 166.15 86.7 165.6 86.3 165.1 85.95 158.55 85.6 152 85.25 151.3 84.85 150.55 84.5 143.85 84.15 137.15 83.8 136.05 83.4 134.95 83.05 128.8 82.7 122.65 82.35 121.55 81.95 120.45 81.6 112.85 81.25 105.2 80.9 104.15 80.5 103.05 80.15 96.35 79.8 89.6 79.45 88.35 79.05 87.1 78.7 80.9 78.35 74.75 78 73.1 77.6 71.5 77.25 67.3 76.9 63.15 76.55 62.05 76.15 60.95 75.8 54.6 75.45 48.25 75.1 47.35 74.7 46.45 74.35 40.3 74 34.1 73.65 33.55 73.25 33 72.9 29.95 72.35 26.85 71.8 26.65 71.75 26.5 71.7 26.5 71.2 26.5 70.7 26.5 70.2 26.5 69.65 26.5 69.1 26.5 68.55 26.5 68 26.5 67.45 26.5 66.9 26.5 66.35 26.5 65.85 26.5 65.3
L 26.5 65.25
Q 27.4 65.1 28.3 64.9 28.5 64.55 28.65 64.2 29.95 63.85 31.2 63.45 31.4 63.1 31.55 62.75 33.4 62.4 35.2 62 35.55 61.65 35.9 61.3 37.75 60.95 39.55 60.55 39.9 60.2 40.3 59.85 41.9 59.5 43.55 59.1 44.1 58.75 44.65 58.4 45.55 58.05 46.45 57.65 47 57.3 47.55 56.95 49 56.55 50.45 56.2 51.15 55.85 51.9 55.5 52.8 55.1 53.7 54.75 54.6 54.4 55.5 54.05 56.8 53.65 58.05 53.3 58.6 53.15 59.15 52.95 59.85 52.6 60.6 52.2 61.7 51.7 62.75 51.15 64.6 50.75 66.4 50.4 66.95 50.25 67.5 50.05 67.85 49.7 68.2 49.3 69.1 48.75 70.05 48.25 71.1 47.7 72.2 47.15 73.3 46.6 74.4 46.05 75.45 45.5 76.55 44.95 77.65 44.4 78.75 43.9 80.55 43.5 82.35 43.15 83.1 42.95 83.8 42.8 84.15 42.6 84.55 42.45 85.1 42.05 85.65 41.7 86.35 41.15 87.1 40.6 88 40.05 88.9 39.5 90.15 39.15 91.45 38.8 91.8 38.6 92.15 38.45 92.5 38.05 92.9 37.7 93.8 37.15 94.7 36.6 95.95 36.25 97.25 35.9 97.8 35.55 98.3 35.15 99.25 34.8 100.15 34.45 100.15 34.25 100.15 34.1 100.5 33.7 100.85 33.35 101.75 33 102.7 32.65 103.2 32.25 103.75 31.9 104.65 31.35 105.6 30.8 106.1 30.25 106.65 29.75 107.75 29.35 108.85 29 109.4 28.8 109.95 28.65 110.85 28.45 111.75 28.3 111.75 27.9 111.75 27.55 111.75 27 111.75 26.45 111.75 25.9 111.75 25.35 111.75 24.85 111.75 24.3 109.2 24.1 106.65 23.9 106.65 23.55 106.65 23.2 106.65 22.65 106.65 22.1 106.5 21.55 106.3 21 105.95 20.5 105.6 19.95 105.4 19.4 105.2 18.85 105.2 18.3 105.2 17.75 105.2 17.2 105.2 16.65 105.4 16.1 105.6 15.6 105.95 15.05 106.3 14.5 106.5 13.95 106.65 13.4 106.65 12.85 106.65 12.3 106.85 11.75 107.05 11.2 107.6 10.7 108.1 10.15 108.65 9.6 109.2 9.05 109.75 8.5 110.3 7.95 112.1 7.6 113.9 7.25 114.3 6.85 114.65 6.5 117.2 6.35 119.75 6.15 119.75 6.5 119.75 6.85 121.9 7.25 124.1 7.6 124.1 7.95 124.1 8.3 125.55 8.7 127 9.05 127 9.4 127 9.75 129.15 10.15 131.35 10.5 131.35 10.85 131.35 11.2 132.25 11.6 133.15 11.95 133.35 12.15 133.5 12.3 133.9 12.7 134.25 13.05 134.8 13.6 135.35 14.15 136.25 14.65 137.15 15.2 137.3 15.75 137.5 16.3 138.05 16.85 138.6 17.4 139.15 17.95 139.7 18.5 140.75 18.85 141.85 19.2 142.2 19.55 142.6 19.95 143.5 20.3 144.4 20.65 144.4 20.85 144.4 21 144.6 21.4 144.75 21.75 145.3 22.3 145.85 22.85 157.3 23 168.7 23.2 169.25 22.85 169.8 22.45 173.25 22.3 176.7 22.1 177.05 22.45 177.4 22.85 183.6 23.2 189.75 23.55 190.1 23.9 190.45 24.3 198.1 24.65 205.7 25 206.1 25.35 206.45 25.75 208.8 26.1 211.15 26.45 211.15 26.8 211.15 27.2 212.6 27.55 214.05 27.9 214.05 28.3 214.05 28.65 214.95 29 215.85 29.35 216.25 29.75 216.6 30.1
M 200.65 63.05
Q 200.85 63.05 201 63.1 203.55 62.9 206.1 62.75 208.6 62.4 211.15 62 211.35 61.65 211.5 61.3 213.35 60.75 215.15 60.2 216.6 59.85 218.05 59.5 218.25 59.1 218.4 58.75 219.85 58.4 221.3 58.05 221.7 57.65 222.05 57.3 222.95 56.75 223.85 56.2 224.95 55.85 226.05 55.5 226.4 55.1 226.75 54.75 227.65 54.4 228.55 54.05 228.75 53.85 228.95 53.65 229.1 53.3 229.3 52.95 229.85 52.4 230.4 51.85 231.1 51.5 231.85 51.15 232 50.95 232.2 50.75 232.4 50.6 232.55 50.4 233.1 50.95 233.65 51.5 234 52.05 234.35 52.6 233.85 53.15 233.3 53.65 233.1 54.2 232.9 54.75 232.9 55.3 232.9 55.85 232.2 56.2 231.45 56.55 231.45 56.95 231.45 57.3 230.75 57.65 230 58.05 230 58.4 230 58.75 229.1 59.1 228.2 59.5 228 59.85 227.85 60.2 226.05 60.55 224.2 60.95 224.2 61.3 224.2 61.65 223.5 62 222.75 62.4 222.75 62.55 222.75 62.75 222.6 63.1 222.4 63.45 220.6 63.85 218.75 64.2 218.4 64.55 218.05 64.9 216.95 65.3 215.85 65.65 214.6 65.85 213.35 66 213.35 66.35 213.35 66.75 211.9 67.1 210.45 67.45 210.45 67.8 210.45 68.2 209.7 68.55 209 68.9 209 69.25 209 69.65 208.25 70 207.55 70.35 207.55 70.7 207.55 71.1 206.8 71.65 206.1 72.15 205.55 72.7 205 73.25 204.8 73.8 204.6 74.35 204.6 74.9 204.6 75.45 203.9 76 203.15 76.55 203.15 77.05 203.15 77.6 203.15 78.15 203.15 78.7 203.15 79.25 203.15 79.8 202.45 80.35 201.7 80.9 201.7 81.45 201.7 81.95 201.7 82.5 201.7 83.05 201.7 83.6 201.7 84.15 201 84.7 200.25 85.25 199.75 85.8 199.2 86.3 199 86.85 198.8 87.4 198.8 87.95 198.8 88.5 198.1 88.85 197.35 89.25 197.35 89.6 197.35 89.95 197.35 90.5 197.35 91.05 196.8 91.6 196.3 92.15 196.1 92.65 195.9 93.2 195.9 93.75 195.9 94.3 195.2 94.65 194.45 95.05 194.45 95.4 194.45 95.75 193.75 96.1 193 96.5 193 96.85 193 97.2 192.3 97.55 191.55 97.95 191.55 98.3 191.55 98.65 189.4 99 187.2 99.4 187.2 99.75 187.2 100.1 185.75 100.45 184.3 100.85 184.3 101.2 184.3 101.55 184.3 101.75 184.3 101.9 183.95 101.75 183.6 101.55 179.95 101.4 176.35 101.2 176.15 100.85 175.95 100.45 169.6 100.1 163.25 99.75 163.25 99.4 163.25 99 153.1 98.65 142.95 98.3 142.4 97.95 141.85 97.55 125.55 97.2 109.2 96.85 108.3 96.5 107.4 96.1 101.25 95.75 95.05 95.4 93.95 95.05 92.9 94.65 87.45 94.3 82 93.95 80.9 93.6 79.8 93.2 76.55 92.85 73.3 92.5 72.2 92.15 71.1 91.75 67.85 91.4 64.6 91.05 63.5 90.7 62.4 90.3 59.85 89.95 57.35 89.6 56.25 89.25 55.15 88.85 51.15 88.5 47.15 88.15 46.1 87.8 45 87.4 40.3 86.85 35.55 86.3 32.65 85.95 29.75 85.6 29.55 85.25 29.4 84.85 29.05 84.85 28.65 84.8 28.65 84.35 28.65 83.8 28.65 83.25 28.65 82.7 27.55 82.6 26.5 82.5 26.5 82.05 26.5 81.6 26.5 81.05 26.5 80.5 26.5 79.95 26.5 79.45 26.5 79 26.5 78.6 26.85 78.65 27.2 78.7 27.6 79.05 27.95 79.45 34.3 79.8 40.65 80.15 41.35 80.5 42.1 80.9 49 81.45 55.9 81.95 56.95 82.35 58.05 82.7 62.4 83.05 66.75 83.4 68.2 83.8 69.65 84.15 75.85 84.5 82 84.85 83.25 85.25 84.55 85.6 91.25 85.95 97.95 86.3 99.05 86.7 100.15 87.05 107.75 87.4 115.4 87.8 116.45 88.15 117.55 88.5 123.35 88.7 129.15 88.85 129.9 89.25 130.6 89.6 137.7 89.95 144.75 90.3 145.1 90.7 145.5 91.05 152.4 91.4 159.25 91.75 159.65 92.15 160 92.5 173.25 92.65 186.5 92.85 186.5 92.5 186.5 92.15 186.85 91.6 187.2 91.05 187.4 90.5 187.55 89.95 187.55 89.4 187.55 88.85 187.55 88.3 187.55 87.8 187.95 87.25 188.3 86.7 188.85 86.15 189.4 85.6 189.4 85.05 189.4 84.5 189.4 83.95 189.4 83.4 189.4 82.9 189.4 82.35 189.4 81.8 189.4 81.25 189.55 80.7 189.75 80.15 190.3 79.6 190.85 79.05 191 78.5 191.2 78 191.55 77.45 191.95 76.9 192.1 76.35 192.3 75.8 192.65 75.25 193 74.7 194.1 74.35 195.2 74 195.2 73.65 195.2 73.25 195.35 72.7 195.55 72.15 195.9 71.65 196.3 71.1 196.45 70.55 196.65 70 197 69.45 197.35 68.9 198.45 68.35 199.55 67.8 199.55 67.3 199.55 66.75 199.9 66.2 200.25 65.65 200.45 65.1 200.65 64.55 200.65 64 200.65 63.45 200.65 63.25 200.65 63.05
M 201.7 95.75
Q 201.7 95.2 201.7 94.65 202.1 94.1 202.45 93.6 202.8 93.05 203.15 92.5 203.15 91.95 203.15 91.4 203.9 91.05 204.6 90.7 204.6 90.3 204.6 89.95 205.15 89.4 205.7 88.85 205.9 88.3 206.1 87.8 206.1 87.25 206.1 86.7 206.1 86.15 206.1 85.6 206.6 85.05 207.15 84.5 207.35 83.95 207.55 83.4 207.55 82.9 207.55 82.35 207.55 81.8 207.55 81.25 208.25 80.9 209 80.5 209 80.35 209 80.15 209 79.8 209 79.45 209 78.9 209 78.35 209.7 78 210.45 77.6 210.45 77.25 210.45 76.9 211.15 76.55 211.9 76.15 211.9 75.8 211.9 75.45 212.6 75.1 213.35 74.7 213.35 74.35 213.35 74 214.05 73.65 214.8 73.25 214.8 72.9 214.8 72.55 216.25 72 217.7 71.45 220.05 71.1 222.4 70.7 222.75 70.35 223.15 70 225.1 69.45 227.1 68.9 228.4 68.55 229.65 68.2 229.85 67.8 230 67.45 231.45 67.1 232.9 66.75 233.3 66.35 233.65 66 234.55 65.65 235.45 65.3 235.65 64.9 235.8 64.55 236.55 64.2 237.3 63.85 237.3 63.45 237.3 63.1 238 62.75 238.75 62.4 238.75 62.2 238.75 62 238.75 61.65 238.75 61.3 238.75 60.75 238.75 60.2 239.25 59.65 239.8 59.1 240 58.55 240.2 58.05 240.2 57.5 240.2 56.95 240.2 56.6 240.2 56.2 240.95 56.25 241.65 56.3 241.65 56.45 241.65 56.55 241.65 57.1 241.65 57.65 241.65 58.2 241.65 58.75 241.65 59.3 241.65 59.85 241.65 60.4 241.65 60.95 241.65 61.45 241.65 62 241.65 62.55 241.65 63.1 241.65 63.65 241.65 64.2 241.65 64.75 241.65 65.3 241.65 65.85 241.65 66.35 242 66.9 242.35 67.45 241.25 67.8 240.2 68.2 240.2 68.55 240.2 68.9 238.9 69.25 237.65 69.65 237.45 70 237.3 70.35 234.35 70.7 231.45 71.1 231.45 71.45 231.45 71.8 230 72.15 228.55 72.55 228.55 72.9 228.55 73.25 226.4 73.65 224.2 74 224.2 74.35 224.2 74.7 222.75 75.1 221.3 75.45 221.3 75.6 221.3 75.8 221.15 76.15 220.95 76.55 219.15 76.9 217.3 77.25 217.3 77.45 217.3 77.6 217.3 78 217.3 78.35 215.35 78.7 213.35 79.05 213.35 79.25 213.35 79.45 213.35 79.8 213.35 80.15 213.35 80.7 213.35 81.25 213.35 81.8 213.35 82.35 213.35 82.9 213.35 83.4 213.35 83.95 213.35 84.5 213.35 85.05 213.35 85.6 213.5 86.15 213.7 86.7 214.05 87.25 214.4 87.8 214.6 88.3 214.8 88.85 214.8 89.4 214.8 89.95 214.8 90.5 214.8 91.05 214.8 91.6 214.8 92.15 214.8 92.65 214.8 93.2 214.8 93.75 214.8 94.3 215 94.5 215.15 94.65 214.95 95.2 214.8 95.75 214.4 96.3 214.05 96.85 214.05 97.4 214.05 97.95 214.05 98.5 214.05 99 214.05 99.55 214.05 100.1 214.05 100.65 214.05 101.2 213.7 101.75 213.35 102.3 212.8 102.85 212.25 103.4 211.7 103.9 211.15 104.45 211.15 105 211.15 105.55 210.95 106.1 210.8 106.65 210.45 107.2 210.05 107.75 209.35 108.25 208.6 108.8 207.9 109.35 207.15 109.9 206.45 110.45 205.7 111 205 111.55 204.25 112.1 204.25 112.65 204.25 113.15 204.25 113.7 204.25 114.25 204.25 114.8 204.25 115.35 204.25 115.9 204.25 116.45 204.25 116.65 204.25 116.8 203.35 116.8 202.45 116.8 201.55 116.45 200.65 116.05 200.65 115.7 200.65 115.35 199.2 115.2 197.75 115.1 197.75 115.05 197.75 115 197.55 114.45 197.35 113.9 195.2 113.7 193 113.55 193 113.65 193 113.8 192.1 113.5 191.2 113.15 188.85 113.15 186.5 113.15 186.45 113.2 186.4 113.25 186.1 113.2 185.75 113.15 185.2 113.35 184.65 113.55 184.6 113.6 184.6 113.65 182.3 113.75 179.95 113.9 179.6 114.25 179.25 114.6 175.8 114.8 172.35 115 171.95 114.6 171.6 114.25 170 113.9 168.35 113.55 168.15 113.15 168 112.8 163.8 112.65 159.65 112.45 159.1 112.8 158.55 113.15 156.9 113.55 155.3 113.9 154.9 114.25 154.55 114.6 148.95 114.8 143.3 115 138.4 114.8 133.5 114.6 133.15 114.25 132.8 113.9 130.45 113.55 128.05 113.15 127.55 112.8 127 112.45 123.35 112.1 119.75 111.7 119.55 111.35 119.35 111 116.45 110.65 113.55 110.25 113 109.9 112.45 109.55 103.95 109.35 95.4 109.2 94.9 109.55 94.35 109.9 91.25 110.25 88.15 110.65 87.8 111 87.45 111.35 84.9 111.7 82.35 112.1 81.8 112.45 81.25 112.8 79.8 113.35 78.35 113.9 77.65 114.25 76.9 114.6 76.35 114.45 75.85 114.25 74.9 113.9 74 113.55 73.45 113.15 72.95 112.8 72.2 112.45 71.5 112.1 71.3 111.9 71.1 111.7 70.95 111.35 70.75 111 70.2 110.45 69.65 109.9 68.95 109.55 68.2 109.2 67.65 108.8 67.1 108.45 66.2 108.1 65.3 107.75 64.95 107.55 64.6 107.35 64.05 107 63.5 106.65 62.95 106.1 62.4 105.55 61.7 105.2 60.95 104.85 60.4 104.45 59.85 104.1 59.15 103.75 58.4 103.4 58.25 103 58.05 102.65 57.7 102.1 57.35 101.55 56.95 101 56.6 100.45 56.6 99.95 56.6 99.4 56.6 98.85 56.6 98.3 48.05 98.2 39.55 98.1 39.55 98 39.55 97.95 37 97.75 34.45 97.55 34.45 97.75 34.45 97.95 34.3 97.95 34.1 97.95 33.95 97.95 33.75 97.95 33.7 97.95 33.7 98 31.35 98 29.05 97.95 28.5 98.3 27.95 98.65 23.4 98.85 18.85 99 18.5 98.85 18.15 98.65 17.6 98.3 17.05 97.95 16.5 97.4 15.95 96.85 14.5 96.5 13.05 96.1 12.7 95.95 12.35 95.75 12 95.4 11.6 95.05 11.05 94.5 10.55 93.95 9.25 93.4 8 92.85 7.8 92.3 7.6 91.75 14.15 91.4 20.7 91.05 21.25 90.85 21.75 90.7 21.75 90.3 21.75 89.95 22.65 89.7 23.6 89.45 23.95 89.55 24.3 89.6 24.3 89.75 24.3 89.95 24.3 90.3 24.3 90.7 27.4 91.05 30.5 91.4 30.65 91.6 30.85 91.75 31.55 92.15 32.3 92.5 35.75 92.85 39.2 93.2 39.9 93.6 40.65 93.95 45 94.3 49.35 94.65 50.05 95.05 50.8 95.4 53.85 95.9 56.9 96.45 57.1 96.45 57.35 96.5 58.4 96.85 59.5 97.2 62.75 97.55 66.05 97.95 67.1 98.3 68.2 98.65 71.5 99 74.75 99.4 75.85 99.75 76.9 100.1 82.35 100.45 87.8 100.85 88.9 101.2 90 101.55 95.8 101.75 101.6 101.9 102.3 102.3 103.05 102.65 119.55 103 136.05 103.4 136.4 103.75 136.8 104.1 147.1 104.45 157.45 104.85 157.45 105.2 157.45 105.55 164 105.9 170.5 106.3 170.5 106.65 170.5 107 177.4 107 184.3 107 184.65 106.45 185.05 105.9 185.4 105.4 185.7 104.9 188.65 105.05 191.55 105.2 191.55 104.85 191.55 104.45 193.55 104.1 195.55 103.75 195.75 103.4 195.9 103 196.65 102.65 197.35 102.3 197.35 102.1 197.35 101.9 197.55 101.55 197.75 101.2 198.25 100.65 198.8 100.1 199.55 99.75 200.25 99.4 200.25 99.2 200.25 99 200.25 98.65 200.25 98.3 200.25 97.75 200.25 97.2 201 96.85 201.7 96.5 201.7 96.1 201.7 95.75
M 162.2 118.25
Q 162.55 118.05 162.9 117.9 163.25 117.5 163.65 117.15 163.8 117.5 164 117.9 165.6 118.25 167.25 118.6 167.45 119 167.6 119.35 174.9 119.5 182.15 119.7 182.15 120.25 182.15 120.8 182.15 121.35 182.15 121.9 182.15 122.4 182.15 122.95 181.4 123.15 180.7 123.35 169.05 123.35 157.45 123.35 157.1 123.7 156.75 124.05 154 124.25 151.3 124.4 150.95 124.05 150.55 123.7 141.7 123.5 132.8 123.35 132.45 123.7 132.05 124.05 125.9 124.05 119.75 124.05 96.7 123.7 73.65 123.35 72.95 122.95 72.2 122.6 70.2 122.25 68.2 121.9 67.85 121.5 67.5 121.15 65.65 120.8 63.85 120.45 63.5 120.05 63.15 119.7 61.3 119.35 59.5 119 59.15 118.6 58.8 118.25 57.7 117.9 56.6 117.5 56.05 117.15 55.5 116.8 54.05 116.45 52.6 116.05 52.45 115.7 52.25 115.35 50.25 115 48.25 114.6 48.1 114.25 47.9 113.9 43.7 113.55 39.55 113.15 39.55 113 39.55 112.8 39.7 112.65 39.9 112.45 40.65 112.1 41.35 111.7 41.35 111.55 41.35 111.35 41.35 111 41.35 110.65 41.35 110.1 41.35 109.55 41.35 109 41.35 108.45 41.35 107.9 41.35 107.35 41.35 106.8 41.35 106.3 41.35 105.75 41.35 105.2 41.35 104.65 41.35 104.1 41.35 103.55 41.35 103 41.35 102.95 41.3 102.9 46.8 102.75 52.25 102.65 52.25 103 52.25 103.4 52.25 103.9 52.25 104.45 52.45 105 52.6 105.55 52.95 106.1 53.35 106.65 53.5 107.2 53.7 107.75 54.6 108.1 55.5 108.45 55.7 108.65 55.9 108.8 56.4 109.2 56.95 109.55 57.5 110.1 58.05 110.65 58.95 111 59.85 111.35 60.25 111.7 60.6 112.1 61.85 112.65 63.15 113.15 64.05 113.7 64.95 114.25 65.3 114.8 65.65 115.35 66.2 115.9 66.75 116.45 67.65 116.8 68.55 117.15 68.95 117.5 69.3 117.9 70.4 118.25 71.5 118.6 71.85 119 72.2 119.35 76.9 119.35 81.65 119.35 83.65 119 85.65 118.6 86.15 118.25 86.7 117.9 89.25 117.5 91.8 117.15 92.15 116.8 92.5 116.45 95.6 116.05 98.7 115.7 99.25 115.35 99.8 115 103.6 114.8 107.4 114.6 107.75 115 108.1 115.35 111.2 115.7 114.3 116.05 114.3 116.45 114.3 116.8 118.1 117.15 121.9 117.5 122.25 117.9 122.65 118.25 125.15 118.6 127.7 119 128.05 119.35 128.45 119.7 135.85 119.9 143.3 120.05 150.75 119.9 158.2 119.7 158.55 119.35 158.9 119 160.55 118.6 162.2 118.25
M 160.75 65.3
Q 160.55 64.75 160.35 64.2 157.45 64 154.55 63.85 154.55 64 154.55 64.2 154.55 64.55 154.55 64.9 154.55 65.45 154.55 66 154.55 66.55 154.55 67.1 154.55 67.65 154.55 68.2 154.55 68.75 154.55 69.25 157.45 69.45 160.35 69.65 160.55 69.45 160.75 69.25 160.75 68.9 160.75 68.55 160.75 68 160.75 67.45 160.75 66.9 160.75 66.35 160.75 65.85 160.75 65.3
M 99.05 55.5
Q 99.05 54.95 99.05 54.4 96.5 54.2 93.95 54.05 93.95 54.2 93.95 54.4 93.95 54.6 93.95 54.75 93.95 55.1 93.95 55.5 93.95 56.05 93.95 56.55 93.95 57.1 93.95 57.65 93.95 58.2 93.95 58.75 96.5 58.75 99.05 58.75 99.05 58.2 99.05 57.65 99.05 57.1 99.05 56.55 99.05 56.05 99.05 55.5
M 111.4 42.45
Q 111.4 42.6 111.4 42.8 111.4 42.95 111.4 43.15 111.4 43.5 111.4 43.9 111.4 44.4 111.4 44.95 111.4 45.5 111.4 46.05 111.4 46.6 111.4 47.15 113.9 47.15 116.45 47.15 116.45 46.6 116.45 46.05 116.45 45.5 116.45 44.95 116.45 44.4 116.45 43.9 116.45 43.35 116.45 42.8 113.9 42.6 111.4 42.45
M 133.5 31.2
Q 133.5 30.8 133.5 30.45 133.5 29.9 133.5 29.35 133.5 28.8 133.5 28.3 133.5 27.75 133.5 27.2 131.35 27 129.15 26.85 129.15 27 129.15 27.2 129.15 27.35 129.15 27.55 129.15 28.1 129.15 28.65 129.15 29.2 129.15 29.75 129.15 30.25 129.15 30.8 131.35 31 133.5 31.2
M 183.2 34.45
Q 183.2 34.65 183.2 34.8 183.2 35 183.2 35.15 183.2 35.7 183.2 36.25 183.2 36.8 183.2 37.35 183.2 37.9 183.2 38.45 183.2 39 183.2 39.5 183.2 40.05 183.2 40.6 186.5 40.8 189.75 40.95 189.75 40.6 189.75 40.25 189.75 39.7 189.75 39.15 189.75 38.6 189.75 38.05 189.75 37.55 189.75 37 189.75 36.45 189.75 35.9 189.75 35.35 189.75 34.8 186.5 34.65 183.2 34.45
M 178.5 42.8
Q 178.5 42.45 178.5 42.05 178.5 41.5 178.5 40.95 178.5 40.45 178.5 39.9 178.5 39.35 178.5 38.8 176.35 38.6 174.15 38.45 174.15 38.6 174.15 38.8 174.15 39 174.15 39.15 174.15 39.7 174.15 40.25 174.15 40.8 174.15 41.35 174.15 41.9 174.15 42.45 176.35 42.6 178.5 42.8 Z"/>

<path fill="#A6713B" stroke="none" d="
M 162.9 117.9
Q 162.55 118.05 162.2 118.25 160.55 118.6 158.9 119 158.55 119.35 158.2 119.7 150.75 119.9 143.3 120.05 135.85 119.9 128.45 119.7 128.05 119.35 127.7 119 125.15 118.6 122.65 118.25 122.25 117.9 121.9 117.5 118.1 117.15 114.3 116.8 114.3 116.45 114.3 116.05 111.2 115.7 108.1 115.35 107.75 115 107.4 114.6 103.6 114.8 99.8 115 99.25 115.35 98.7 115.7 95.6 116.05 92.5 116.45 92.15 116.8 91.8 117.15 89.25 117.5 86.7 117.9 86.15 118.25 85.65 118.6 83.65 119 81.65 119.35 76.9 119.35 72.2 119.35 71.85 119 71.5 118.6 70.4 118.25 69.3 117.9 68.95 117.5 68.55 117.15 67.65 116.8 66.75 116.45 66.2 115.9 65.65 115.35 65.3 114.8 64.95 114.25 64.05 113.7 63.15 113.15 61.85 112.65 60.6 112.1 60.25 111.7 59.85 111.35 58.95 111 58.05 110.65 57.5 110.1 56.95 109.55 56.4 109.2 55.9 108.8 55.7 108.65 55.5 108.45 54.6 108.1 53.7 107.75 53.5 107.2 53.35 106.65 52.95 106.1 52.6 105.55 52.45 105 52.25 104.45 52.25 103.9 52.25 103.4 52.25 103 52.25 102.65 46.8 102.75 41.3 102.9 41.35 102.95 41.35 103 41.35 103.55 41.35 104.1 41.35 104.65 41.35 105.2 41.35 105.75 41.35 106.3 41.35 106.8 41.35 107.35 41.35 107.9 41.35 108.45 41.35 109 41.35 109.55 41.35 110.1 41.35 110.65 41.35 111 41.35 111.35 41.35 111.55 41.35 111.7 40.65 112.1 39.9 112.45 39.7 112.65 39.55 112.8 39.55 113 39.55 113.15 43.7 113.55 47.9 113.9 48.1 114.25 48.25 114.6 50.25 115 52.25 115.35 52.45 115.7 52.6 116.05 54.05 116.45 55.5 116.8 56.05 117.15 56.6 117.5 57.7 117.9 58.8 118.25 59.15 118.6 59.5 119 61.3 119.35 63.15 119.7 63.5 120.05 63.85 120.45 65.65 120.8 67.5 121.15 67.85 121.5 68.2 121.9 70.2 122.25 72.2 122.6 72.95 122.95 73.65 123.35 96.7 123.7 119.75 124.05 125.9 124.05 132.05 124.05 132.45 123.7 132.8 123.35 141.7 123.5 150.55 123.7 150.95 124.05 151.3 124.4 154 124.25 156.75 124.05 157.1 123.7 157.45 123.35 169.05 123.35 180.7 123.35 181.4 123.15 182.15 122.95 182.15 122.4 182.15 121.9 182.15 121.35 182.15 120.8 182.15 120.25 182.15 119.7 174.9 119.5 167.6 119.35 167.45 119 167.25 118.6 165.6 118.25 164 117.9 163.8 117.5 163.65 117.15 163.25 117.5 162.9 117.9
M 201 63.1
Q 200.85 63.05 200.65 63.05 200.65 63.25 200.65 63.45 200.65 64 200.65 64.55 200.45 65.1 200.25 65.65 199.9 66.2 199.55 66.75 199.55 67.3 199.55 67.8 198.45 68.35 197.35 68.9 197 69.45 196.65 70 196.45 70.55 196.3 71.1 195.9 71.65 195.55 72.15 195.35 72.7 195.2 73.25 195.2 73.65 195.2 74 194.1 74.35 193 74.7 192.65 75.25 192.3 75.8 192.1 76.35 191.95 76.9 191.55 77.45 191.2 78 191 78.5 190.85 79.05 190.3 79.6 189.75 80.15 189.55 80.7 189.4 81.25 189.4 81.8 189.4 82.35 189.4 82.9 189.4 83.4 189.4 83.95 189.4 84.5 189.4 85.05 189.4 85.6 188.85 86.15 188.3 86.7 187.95 87.25 187.55 87.8 187.55 88.3 187.55 88.85 187.55 89.4 187.55 89.95 187.4 90.5 187.2 91.05
L 186.5 92.85
Q 173.25 92.65 160 92.5 159.65 92.15 159.25 91.75 152.4 91.4 145.5 91.05 145.1 90.7 144.75 90.3 137.7 89.95 130.6 89.6 129.9 89.25 129.15 88.85 123.35 88.7 117.55 88.5 116.45 88.15 115.4 87.8 107.75 87.4 100.15 87.05 99.05 86.7 97.95 86.3 91.25 85.95 84.55 85.6 83.25 85.25 82 84.85 75.85 84.5 69.65 84.15 68.2 83.8 66.75 83.4 62.4 83.05 58.05 82.7 56.95 82.35 55.9 81.95 49 81.45 42.1 80.9 41.35 80.5 40.65 80.15 34.3 79.8 27.95 79.45
L 26.5 80.5
Q 26.5 81.05 26.5 81.6 26.5 82.05 26.5 82.5 27.55 82.6 28.65 82.7 28.65 83.25 28.65 83.8 28.65 84.35 28.65 84.8 29.05 84.85 29.4 84.85 29.55 85.25 29.75 85.6 32.65 85.95 35.55 86.3 40.3 86.85 45 87.4 46.1 87.8 47.15 88.15 51.15 88.5 55.15 88.85 56.25 89.25 57.35 89.6 59.85 89.95 62.4 90.3 63.5 90.7 64.6 91.05 67.85 91.4 71.1 91.75 72.2 92.15 73.3 92.5 76.55 92.85 79.8 93.2 80.9 93.6 82 93.95 87.45 94.3 92.9 94.65 93.95 95.05 95.05 95.4 101.25 95.75 107.4 96.1 108.3 96.5 109.2 96.85 125.55 97.2 141.85 97.55 142.4 97.95 142.95 98.3 153.1 98.65 163.25 99 163.25 99.4 163.25 99.75 169.6 100.1 175.95 100.45 176.15 100.85 176.35 101.2 179.95 101.4 183.6 101.55 183.95 101.75 184.3 101.9 184.3 101.75 184.3 101.55 184.3 101.2 184.3 100.85 185.75 100.45 187.2 100.1 187.2 99.75 187.2 99.4 189.4 99 191.55 98.65 191.55 98.3 191.55 97.95 192.3 97.55 193 97.2 193 96.85 193 96.5 193.75 96.1 194.45 95.75 194.45 95.4 194.45 95.05 195.2 94.65 195.9 94.3 195.9 93.75 195.9 93.2 196.1 92.65 196.3 92.15 196.8 91.6 197.35 91.05 197.35 90.5 197.35 89.95 197.35 89.6 197.35 89.25 198.1 88.85 198.8 88.5 198.8 87.95 198.8 87.4 199 86.85 199.2 86.3 199.75 85.8 200.25 85.25 201 84.7 201.7 84.15 201.7 83.6 201.7 83.05 201.7 82.5 201.7 81.95 201.7 81.45 201.7 80.9 202.45 80.35 203.15 79.8 203.15 79.25 203.15 78.7 203.15 78.15 203.15 77.6 203.15 77.05 203.15 76.55 203.9 76 204.6 75.45 204.6 74.9 204.6 74.35 204.8 73.8 205 73.25 205.55 72.7 206.1 72.15 206.8 71.65 207.55 71.1 207.55 70.7 207.55 70.35 208.25 70 209 69.65 209 69.25 209 68.9 209.7 68.55 210.45 68.2 210.45 67.8 210.45 67.45 211.9 67.1 213.35 66.75 213.35 66.35 213.35 66 214.6 65.85 215.85 65.65 216.95 65.3 218.05 64.9 218.4 64.55 218.75 64.2 220.6 63.85 222.4 63.45 222.6 63.1 222.75 62.75 222.75 62.55 222.75 62.4 223.5 62 224.2 61.65 224.2 61.3 224.2 60.95 226.05 60.55 227.85 60.2 228 59.85 228.2 59.5 229.1 59.1 230 58.75 230 58.4 230 58.05 230.75 57.65 231.45 57.3 231.45 56.95 231.45 56.55 232.2 56.2 232.9 55.85 232.9 55.3 232.9 54.75 233.1 54.2 233.3 53.65 233.85 53.15 234.35 52.6 234 52.05 233.65 51.5 233.1 50.95 232.55 50.4 232.4 50.6 232.2 50.75 232 50.95 231.85 51.15 231.1 51.5 230.4 51.85 229.85 52.4 229.3 52.95 229.1 53.3 228.95 53.65 228.75 53.85 228.55 54.05 227.65 54.4 226.75 54.75 226.4 55.1 226.05 55.5 224.95 55.85 223.85 56.2 222.95 56.75 222.05 57.3 221.7 57.65 221.3 58.05 219.85 58.4 218.4 58.75 218.25 59.1 218.05 59.5 216.6 59.85 215.15 60.2 213.35 60.75 211.5 61.3 211.35 61.65 211.15 62 208.6 62.4 206.1 62.75 203.55 62.9 201 63.1 Z"/>

<path fill="#33CC99" stroke="none" d="
M 201.7 94.65
Q 201.7 95.2 201.7 95.75 201.7 96.1 201.7 96.5 201 96.85 200.25 97.2 200.25 97.75 200.25 98.3 200.25 98.65 200.25 99 200.25 99.2 200.25 99.4 199.55 99.75 198.8 100.1 198.25 100.65 197.75 101.2 197.55 101.55 197.35 101.9 197.35 102.1 197.35 102.3 196.65 102.65 195.9 103 195.75 103.4 195.55 103.75 193.55 104.1 191.55 104.45 191.55 104.85 191.55 105.2 188.65 105.05 185.7 104.9 185.4 105.4 185.05 105.9 184.65 106.45 184.3 107 177.4 107 170.5 107 170.5 106.65 170.5 106.3 164 105.9 157.45 105.55 157.45 105.2 157.45 104.85 147.1 104.45 136.8 104.1 136.4 103.75 136.05 103.4 119.55 103 103.05 102.65 102.3 102.3 101.6 101.9 95.8 101.75 90 101.55 88.9 101.2 87.8 100.85 82.35 100.45 76.9 100.1 75.85 99.75 74.75 99.4 71.5 99 68.2 98.65 67.1 98.3 66.05 97.95 62.75 97.55 59.5 97.2 58.4 96.85 57.35 96.5 57.1 96.45 56.9 96.45 53.85 95.9 50.8 95.4 50.05 95.05 49.35 94.65 45 94.3 40.65 93.95 39.9 93.6 39.2 93.2 35.75 92.85 32.3 92.5 31.55 92.15 30.85 91.75 30.65 91.6 30.5 91.4 27.4 91.05 24.3 90.7 24.3 90.3 24.3 89.95 24.3 89.75 24.3 89.6 23.95 89.55 23.6 89.45 22.65 89.7 21.75 89.95 21.75 90.3 21.75 90.7 21.25 90.85 20.7 91.05 14.15 91.4 7.6 91.75 7.8 92.3 8 92.85 9.25 93.4 10.55 93.95 11.05 94.5 11.6 95.05 12 95.4 12.35 95.75 12.7 95.95 13.05 96.1 14.5 96.5 15.95 96.85 16.5 97.4 17.05 97.95 17.6 98.3 18.15 98.65 18.5 98.85 18.85 99 23.4 98.85 27.95 98.65 28.5 98.3 29.05 97.95 31.35 98 33.7 98 33.7 97.95 33.75 97.95 33.95 97.95 34.1 97.95 34.3 97.95 34.45 97.95 34.45 97.75 34.45 97.55 37 97.75 39.55 97.95 39.55 98 39.55 98.1 48.05 98.2 56.6 98.3 56.6 98.85 56.6 99.4 56.6 99.95 56.6 100.45 56.95 101 57.35 101.55 57.7 102.1 58.05 102.65 58.25 103 58.4 103.4 59.15 103.75 59.85 104.1 60.4 104.45 60.95 104.85 61.7 105.2 62.4 105.55 62.95 106.1 63.5 106.65 64.05 107 64.6 107.35 64.95 107.55 65.3 107.75 66.2 108.1 67.1 108.45 67.65 108.8 68.2 109.2 68.95 109.55 69.65 109.9 70.2 110.45 70.75 111 70.95 111.35 71.1 111.7 71.3 111.9 71.5 112.1 72.2 112.45 72.95 112.8 73.45 113.15 74 113.55 74.9 113.9 75.85 114.25 76.35 114.45 76.9 114.6 77.65 114.25 78.35 113.9 79.8 113.35 81.25 112.8 81.8 112.45 82.35 112.1 84.9 111.7 87.45 111.35 87.8 111 88.15 110.65 91.25 110.25 94.35 109.9 94.9 109.55 95.4 109.2 103.95 109.35 112.45 109.55 113 109.9 113.55 110.25 116.45 110.65 119.35 111 119.55 111.35 119.75 111.7 123.35 112.1 127 112.45 127.55 112.8 128.05 113.15 130.45 113.55 132.8 113.9 133.15 114.25 133.5 114.6 138.4 114.8 143.3 115 148.95 114.8 154.55 114.6 154.9 114.25 155.3 113.9 156.9 113.55 158.55 113.15 159.1 112.8 159.65 112.45 163.8 112.65 168 112.8 168.15 113.15 168.35 113.55 170 113.9 171.6 114.25 171.95 114.6 172.35 115 175.8 114.8 179.25 114.6 179.6 114.25 179.95 113.9 182.3 113.75 184.6 113.65 184.6 113.6 184.65 113.55 185.2 113.35 185.75 113.15 186.1 113.2 186.4 113.25 186.45 113.2 186.5 113.15 188.85 113.15 191.2 113.15 192.1 113.5 193 113.8 193 113.65 193 113.55 195.2 113.7 197.35 113.9 197.55 114.45 197.75 115 197.75 115.05 197.75 115.1 199.2 115.2 200.65 115.35 200.65 115.7 200.65 116.05 201.55 116.45 202.45 116.8 203.35 116.8 204.25 116.8 204.25 116.65 204.25 116.45 204.25 115.9 204.25 115.35 204.25 114.8 204.25 114.25 204.25 113.7 204.25 113.15 204.25 112.65 204.25 112.1 205 111.55 205.7 111 206.45 110.45 207.15 109.9 207.9 109.35 208.6 108.8 209.35 108.25 210.05 107.75 210.45 107.2 210.8 106.65 210.95 106.1 211.15 105.55 211.15 105 211.15 104.45 211.7 103.9 212.25 103.4 212.8 102.85 213.35 102.3 213.7 101.75 214.05 101.2 214.05 100.65 214.05 100.1 214.05 99.55 214.05 99 214.05 98.5 214.05 97.95 214.05 97.4 214.05 96.85 214.4 96.3 214.8 95.75 214.95 95.2 215.15 94.65 215 94.5 214.8 94.3 214.8 93.75 214.8 93.2 214.8 92.65 214.8 92.15 214.8 91.6 214.8 91.05 214.8 90.5 214.8 89.95 214.8 89.4 214.8 88.85 214.6 88.3 214.4 87.8 214.05 87.25 213.7 86.7 213.5 86.15 213.35 85.6 213.35 85.05 213.35 84.5 213.35 83.95 213.35 83.4 213.35 82.9 213.35 82.35 213.35 81.8 213.35 81.25 213.35 80.7 213.35 80.15 213.35 79.8 213.35 79.45 213.35 79.25 213.35 79.05 215.35 78.7 217.3 78.35 217.3 78 217.3 77.6 217.3 77.45 217.3 77.25 219.15 76.9 220.95 76.55 221.15 76.15 221.3 75.8 221.3 75.6 221.3 75.45 222.75 75.1 224.2 74.7 224.2 74.35 224.2 74 226.4 73.65 228.55 73.25 228.55 72.9 228.55 72.55 230 72.15 231.45 71.8 231.45 71.45 231.45 71.1 234.35 70.7 237.3 70.35 237.45 70 237.65 69.65 238.9 69.25 240.2 68.9 240.2 68.55 240.2 68.2 241.25 67.8 242.35 67.45 242 66.9 241.65 66.35 241.65 65.85 241.65 65.3 241.65 64.75 241.65 64.2 241.65 63.65 241.65 63.1 241.65 62.55 241.65 62 241.65 61.45 241.65 60.95 241.65 60.4 241.65 59.85 241.65 59.3 241.65 58.75 241.65 58.2 241.65 57.65 241.65 57.1 241.65 56.55 241.65 56.45 241.65 56.3 240.95 56.25 240.2 56.2 240.2 56.6 240.2 56.95 240.2 57.5 240.2 58.05 240 58.55 239.8 59.1 239.25 59.65 238.75 60.2 238.75 60.75 238.75 61.3 238.75 61.65 238.75 62 238.75 62.2 238.75 62.4 238 62.75 237.3 63.1 237.3 63.45 237.3 63.85 236.55 64.2 235.8 64.55 235.65 64.9 235.45 65.3 234.55 65.65 233.65 66 233.3 66.35 232.9 66.75 231.45 67.1 230 67.45 229.85 67.8 229.65 68.2 228.4 68.55 227.1 68.9 225.1 69.45 223.15 70 222.75 70.35 222.4 70.7 220.05 71.1 217.7 71.45 216.25 72 214.8 72.55 214.8 72.9 214.8 73.25 214.05 73.65 213.35 74 213.35 74.35 213.35 74.7 212.6 75.1 211.9 75.45 211.9 75.8 211.9 76.15 211.15 76.55 210.45 76.9 210.45 77.25 210.45 77.6 209.7 78 209 78.35 209 78.9 209 79.45 209 79.8 209 80.15 209 80.35 209 80.5 208.25 80.9 207.55 81.25 207.55 81.8 207.55 82.35 207.55 82.9 207.55 83.4 207.35 83.95 207.15 84.5 206.6 85.05 206.1 85.6 206.1 86.15 206.1 86.7 206.1 87.25 206.1 87.8 205.9 88.3 205.7 88.85 205.15 89.4 204.6 89.95 204.6 90.3 204.6 90.7 203.9 91.05 203.15 91.4 203.15 91.95 203.15 92.5 202.8 93.05 202.45 93.6 202.1 94.1 201.7 94.65 Z"/>

<path fill="#FFCC99" stroke="none" d="
M 218.75 30.8
Q 217.7 30.45 216.6 30.1 216.25 29.75 215.85 29.35 214.95 29 214.05 28.65 214.05 28.3 214.05 27.9 212.6 27.55 211.15 27.2 211.15 26.8 211.15 26.45 208.8 26.1 206.45 25.75 206.1 25.35 205.7 25 198.1 24.65 190.45 24.3 190.1 23.9 189.75 23.55 183.6 23.2 177.4 22.85 177.05 22.45 176.7 22.1 173.25 22.3 169.8 22.45 169.25 22.85 168.7 23.2 157.3 23 145.85 22.85 145.3 22.3 144.75 21.75 144.6 21.4 144.4 21 144.4 20.85 144.4 20.65 143.5 20.3 142.6 19.95 142.2 19.55 141.85 19.2 140.75 18.85 139.7 18.5 139.15 17.95 138.6 17.4 138.05 16.85 137.5 16.3 137.3 15.75 137.15 15.2 136.25 14.65 135.35 14.15 134.8 13.6 134.25 13.05 133.9 12.7 133.5 12.3 133.35 12.15 133.15 11.95 132.25 11.6 131.35 11.2 131.35 10.85 131.35 10.5 129.15 10.15 127 9.75 127 9.4 127 9.05 125.55 8.7 124.1 8.3 124.1 7.95 124.1 7.6 121.9 7.25 119.75 6.85 119.75 6.5 119.75 6.15 117.2 6.35 114.65 6.5 114.3 6.85 113.9 7.25 112.1 7.6 110.3 7.95 109.75 8.5 109.2 9.05 108.65 9.6 108.1 10.15 107.6 10.7 107.05 11.2 106.85 11.75 106.65 12.3 106.65 12.85 106.65 13.4 106.5 13.95 106.3 14.5 105.95 15.05 105.6 15.6 105.4 16.1 105.2 16.65 105.2 17.2 105.2 17.75 105.2 18.3 105.2 18.85 105.4 19.4 105.6 19.95 105.95 20.5 106.3 21 106.5 21.55 106.65 22.1 106.65 22.65 106.65 23.2 106.65 23.55 106.65 23.9 109.2 24.1 111.75 24.3 111.75 24.85 111.75 25.35 111.75 25.9 111.75 26.45 111.75 27 111.75 27.55 111.75 27.9 111.75 28.3 110.85 28.45 109.95 28.65 109.4 28.8 108.85 29 107.75 29.35 106.65 29.75 106.1 30.25 105.6 30.8 104.65 31.35 103.75 31.9 103.2 32.25 102.7 32.65 101.75 33 100.85 33.35 100.5 33.7 100.15 34.1 100.15 34.25 100.15 34.45 99.25 34.8 98.3 35.15 97.8 35.55 97.25 35.9 95.95 36.25 94.7 36.6 93.8 37.15 92.9 37.7 92.5 38.05 92.15 38.45 91.8 38.6 91.45 38.8 90.15 39.15 88.9 39.5 88 40.05 87.1 40.6 86.35 41.15 85.65 41.7 85.1 42.05 84.55 42.45 84.15 42.6 83.8 42.8 83.1 42.95 82.35 43.15 80.55 43.5 78.75 43.9 77.65 44.4 76.55 44.95 75.45 45.5 74.4 46.05 73.3 46.6 72.2 47.15 71.1 47.7 70.05 48.25 69.1 48.75 68.2 49.3 67.85 49.7 67.5 50.05 66.95 50.25 66.4 50.4 64.6 50.75 62.75 51.15 61.7 51.7 60.6 52.2 59.85 52.6 59.15 52.95 58.6 53.15 58.05 53.3 56.8 53.65 55.5 54.05 54.6 54.4 53.7 54.75 52.8 55.1 51.9 55.5 51.15 55.85 50.45 56.2 49 56.55 47.55 56.95 47 57.3 46.45 57.65 45.55 58.05 44.65 58.4 44.1 58.75 43.55 59.1 41.9 59.5 40.3 59.85 39.9 60.2 39.55 60.55 37.75 60.95 35.9 61.3 35.55 61.65 35.2 62 33.4 62.4 31.55 62.75 31.4 63.1 31.2 63.45 29.95 63.85 28.65 64.2 28.5 64.55 28.3 64.9 27.4 65.1 26.5 65.25
L 26.5 65.3
Q 26.5 65.85 26.5 66.35 26.5 66.9 26.5 67.45 26.5 68 26.5 68.55 26.5 69.1 26.5 69.65 26.5 70.2 26.5 70.7 26.5 71.2 26.5 71.7 26.65 71.75 26.85 71.8 29.95 72.35 33 72.9 33.55 73.25 34.1 73.65 40.3 74 46.45 74.35 47.35 74.7 48.25 75.1 54.6 75.45 60.95 75.8 62.05 76.15 63.15 76.55 67.3 76.9 71.5 77.25 73.1 77.6 74.75 78 80.9 78.35 87.1 78.7 88.35 79.05 89.6 79.45 96.35 79.8 103.05 80.15 104.15 80.5 105.2 80.9 112.85 81.25 120.45 81.6 121.55 81.95 122.65 82.35 128.8 82.7 134.95 83.05 136.05 83.4 137.15 83.8 143.85 84.15 150.55 84.5 151.3 84.85 152 85.25 158.55 85.6 165.1 85.95 165.6 86.3 166.15 86.7 173.6 86.5 181.05 86.3 181.75 85.8 182.5 85.25 182.5 84.7 182.5 84.15 182.5 83.6 182.5 83.05 182.5 82.5 182.5 81.95 183.05 81.45 183.6 80.9 183.6 80.35 183.6 79.8 183.6 79.25 183.6 78.7 183.6 78.15 183.6 77.6 183.6 77.05 183.6 76.55 183.6 76 183.6 75.45 183.6 74.9 183.6 74.35 184.3 73.8 185.05 73.25 185.2 72.7 185.4 72.15 185.75 71.65 186.1 71.1 186.3 70.55 186.5 70 186.85 69.45 187.2 68.9 187.55 68.55 187.95 68.2 188.65 67.8 189.4 67.45 189.55 66.9 189.75 66.35 190.1 65.85 190.45 65.3 190.65 64.75 190.85 64.2 191.2 63.65 191.55 63.1 191.95 62.75 192.3 62.4 193 62 193.75 61.65 193.9 61.1 194.1 60.55 194.45 60.2 194.85 59.85 195.6 59.9 196.3 59.95 196.3 59.7 196.3 59.5 196.3 59.3 196.3 59.1 198.8 58.75 201.35 58.4 201.7 57.85 202.1 57.3 204.25 56.75 206.45 56.2 206.8 55.85 207.15 55.5 208.6 55.1 210.05 54.75 210.05 54.4 210.05 54.05 210.6 53.85 211.15 53.65 211.9 53.3 212.6 52.95 212.6 52.6 212.6 52.2 214.25 51.85 215.85 51.5 216.25 50.95 216.6 50.4 217.15 49.85 217.7 49.3 218.75 48.75 219.85 48.25 220.4 47.85 220.95 47.5 221.7 47.15 222.4 46.8 222.75 46.25 223.15 45.7 223.5 45.35 223.85 44.95 223.85 44.8 223.85 44.6 224.75 44.25 225.65 43.9 226.05 43.35 226.4 42.8 226.55 42.25 226.75 41.7 226.75 41.15 226.75 40.6 226.75 40.05 226.75 39.5 226.75 39 226.75 38.45 226.75 37.9 226.75 37.35 226.4 36.8 226.05 36.25 225.65 35.7 225.3 35.15 224.75 34.65 224.2 34.1 223.5 33.55 222.75 33 222.75 32.65 222.75 32.25 221.15 31.9 219.5 31.55 219.15 31.2 218.75 30.8
M 178.5 42.05
Q 178.5 42.45 178.5 42.8 176.35 42.6 174.15 42.45 174.15 41.9 174.15 41.35 174.15 40.8 174.15 40.25 174.15 39.7 174.15 39.15 174.15 39 174.15 38.8 174.15 38.6 174.15 38.45 176.35 38.6 178.5 38.8 178.5 39.35 178.5 39.9 178.5 40.45 178.5 40.95 178.5 41.5 178.5 42.05
M 183.2 34.8
Q 183.2 34.65 183.2 34.45 186.5 34.65 189.75 34.8 189.75 35.35 189.75 35.9 189.75 36.45 189.75 37 189.75 37.55 189.75 38.05 189.75 38.6 189.75 39.15 189.75 39.7 189.75 40.25 189.75 40.6 189.75 40.95 186.5 40.8 183.2 40.6 183.2 40.05 183.2 39.5 183.2 39 183.2 38.45 183.2 37.9 183.2 37.35 183.2 36.8 183.2 36.25 183.2 35.7 183.2 35.15 183.2 35 183.2 34.8
M 133.5 30.45
Q 133.5 30.8 133.5 31.2 131.35 31 129.15 30.8 129.15 30.25 129.15 29.75 129.15 29.2 129.15 28.65 129.15 28.1 129.15 27.55 129.15 27.35 129.15 27.2 129.15 27 129.15 26.85 131.35 27 133.5 27.2 133.5 27.75 133.5 28.3 133.5 28.8 133.5 29.35 133.5 29.9 133.5 30.45
M 111.4 42.8
Q 111.4 42.6 111.4 42.45 113.9 42.6 116.45 42.8 116.45 43.35 116.45 43.9 116.45 44.4 116.45 44.95 116.45 45.5 116.45 46.05 116.45 46.6 116.45 47.15 113.9 47.15 111.4 47.15 111.4 46.6 111.4 46.05 111.4 45.5 111.4 44.95 111.4 44.4 111.4 43.9 111.4 43.5 111.4 43.15 111.4 42.95 111.4 42.8
M 99.05 54.4
Q 99.05 54.95 99.05 55.5 99.05 56.05 99.05 56.55 99.05 57.1 99.05 57.65 99.05 58.2 99.05 58.75 96.5 58.75 93.95 58.75 93.95 58.2 93.95 57.65 93.95 57.1 93.95 56.55 93.95 56.05 93.95 55.5 93.95 55.1 93.95 54.75 93.95 54.6 93.95 54.4 93.95 54.2 93.95 54.05 96.5 54.2 99.05 54.4
M 160.35 64.2
Q 160.55 64.75 160.75 65.3 160.75 65.85 160.75 66.35 160.75 66.9 160.75 67.45 160.75 68 160.75 68.55 160.75 68.9 160.75 69.25 160.55 69.45 160.35 69.65 157.45 69.45 154.55 69.25 154.55 68.75 154.55 68.2 154.55 67.65 154.55 67.1 154.55 66.55 154.55 66 154.55 65.45 154.55 64.9 154.55 64.55 154.55 64.2 154.55 64 154.55 63.85 157.45 64 160.35 64.2 Z"/>
</g>
</g>
</g>
</g>
</g>
</svg>
