
<svg xmlns="http://www.w3.org/2000/svg" version="1.1" xmlns:xlink="http://www.w3.org/1999/xlink" preserveAspectRatio="none" x="0px" y="0px" width="1920px" height="1080px" viewBox="0 0 1920 1080">
<defs/>

<g id="Layer_2"/>

<g id="Layer_1"/>

<g id="Layer_3"/>

<g id="Layer_5"/>

<g id="Layer_4">
<g id="Layer_1" transform="matrix( 6.4320068359375, 0, 0, 6.4320068359375, 363.45,17.4) ">
<g>
<g>
<g>
<path fill="#000000" stroke="none" d="
M 185.2 110.5
Q 185.2 110 185.2 109.5 181.75 109.3 178.3 109.15 178.3 109.3 178.3 109.5 177.8 109.5 177.3 109.5 177.3 109.8 177.3 110.15 176.6 110.5 175.9 110.85 175.4 111.2 174.85 111.55 172.8 111.9 170.75 112.25 170.55 112.6 170.4 112.9 168.15 113.25 165.9 113.6 165.6 113.95 165.25 114.3 162.85 114.8 160.4 115.35 158.2 115.65 155.95 116 155.75 116.35 155.6 116.7 154.4 116.9 153.2 117.05 152.5 116.7 151.8 116.35 151.65 116.2 151.45 116 152.85 116 154.2 116 154.55 115.5 154.9 115 155.1 114.45 155.25 113.95 155.45 113.45 155.6 112.9 155.6 112.4 155.6 111.9 155.6 111.35 155.6 110.85 155.75 110.35 155.95 109.8 155.95 109.3 155.95 108.8 156.1 108.25 156.3 107.75 156.45 107.25 156.65 106.7 157 106.2 157.3 105.7 157.5 105.2 157.65 104.65 157.65 104.15 157.65 103.65 157.85 103.1 158 102.6 158.2 102.1 158.35 101.55 158.35 101.05 158.35 100.55 158.5 100 158.7 99.5 158.7 99 158.7 98.45 158.7 97.95 158.7 97.45 158.7 96.9 158.7 96.4 158.7 95.9 158.7 95.35 158.7 95.3 158.7 95.2 158.9 94.95 159.05 94.7 159.2 94.15 159.4 93.65 159.4 93.15 159.4 92.6 159.55 92.1 159.75 91.6 159.75 91.05 159.75 90.55 159.75 90.05 159.75 89.5 159.9 89 160.05 88.5 160.25 87.95 160.4 87.45 160.75 86.95 161.1 86.4 161.1 85.9 161.1 85.4 161.1 84.85 161.1 84.35 161.1 83.85 161.1 83.3 161.1 82.8 161.1 82.3 161.1 81.75 161.1 81.25 161.1 80.75 161.1 80.2 161.1 79.7 161.1 79.2 161.1 78.65 161.1 78.15 161.1 77.65 161.1 77.1 161.1 76.6 161.1 76.1 161.1 75.55 161.1 75.05 161.1 74.55 161.1 74.05 161.1 73.5 161.1 73 161.1 72.5 161.1 71.95 161.1 71.45 161.1 70.95 161.1 70.4 161.1 69.9 161.1 69.4 161.1 68.85 161.1 68.35 161.1 67.85 161.1 67.3 161.1 66.8 161.1 66.3 161.1 65.75 160.95 65.25 160.75 64.75 160.75 64.55 160.75 64.4 160.75 64.05 160.75 63.7
L 160.75 63.35
Q 160.75 63 160.75 62.65
L 160.75 62.3
Q 160.75 62 160.75 61.65 160.75 61.5 160.75 61.3 160.75 60.75 160.75 60.25 160.75 59.75 160.75 59.2 160.75 58.7 160.75 58.2 160.4 57.7 160.05 57.15 159.9 56.65 159.75 56.15 159.75 55.6 159.75 55.1 159.75 54.6 159.75 54.05 159.55 53.55 159.4 53.05 159.2 52.5 159.05 52 158.85 51.5 158.7 50.95 158.5 50.45 158.35 49.95 158.2 49.4 158 48.9 157.5 48.4 157 47.85 156.45 47.35 155.95 46.85 155.75 46.3 155.6 45.8 155.6 45.3 155.6 44.75 155.45 44.25 155.25 43.75 155.1 43.2 154.9 42.7 154.75 42.2 154.55 41.65 154.55 41.15 154.55 40.65 154.4 40.1 154.2 39.6 154.05 39.1 153.9 38.55 153.55 38.05 153.2 37.55 153 37 152.85 36.5 152.5 36 152.15 35.45 152 34.95 151.8 34.45 151.8 33.95 151.8 33.4 151.8 32.9 151.8 32.4 151.65 31.85 151.45 31.35 151.1 30.85 150.8 30.3 150.6 29.8 150.45 29.3 150.1 28.75 149.75 28.25 149.25 27.75 148.7 27.2 148.35 26.7 148.05 26.2 147.85 25.65 147.7 25.15 147.5 24.65 147.35 24.1 147.15 23.6 147 23.1 146.8 22.55 146.65 22.05 146.5 21.55 146.3 21 145.95 20.5 145.6 20 145.25 19.45 144.95 18.95 144.6 18.45 144.25 17.9 143.7 17.4 143.2 16.9 142.7 16.35 142.2 15.85 141.65 15.35 141.15 14.8 140.65 14.3 140.1 13.8 139.6 13.25 139.1 12.75 138.55 12.25 138.05 11.75 137.55 11.2 137 10.7 136.5 10.2 136 9.65 135.45 9.15 134.95 8.65 134.1 8.3 133.25 7.95 132.9 7.75 132.55 7.6 132 7.25 131.5 6.9 130.65 6.4 129.8 5.85 128.75 5.55 127.7 5.2 127.05 4.85 126.35 4.5 125.3 4.15 124.3 3.8 123.6 3.45 122.9 3.1 121.2 2.8 119.45 2.45 118.25 2.1 117.05 1.75 113.95 1.4 110.85 1.05 110.5 0.7 110.15 0.35 97.75 0.2 85.4 0 85.4 0.2 85.4 0.35 85.05 0.35 84.7 0.35 84.35 0.7 84 1.05 79.7 1.4 75.4 1.75 74.35 2.1 73.35 2.45 70.75 2.8 68.15 3.1 67.85 3.45 67.5 3.8 65.95 4.15 64.4 4.5 63.7 4.85 63 5.2 62.15 5.55 61.3 5.85 60.95 6.2 60.6 6.55 59.75 6.9 58.9 7.25 58.55 7.4 58.2 7.6 57.85 7.95 57.5 8.3 56.8 8.65 56.1 8.95 55.95 9.15 55.8 9.3 55.1 9.65 54.4 10 53.35 10.5 52.35 11.05 50.8 11.4 49.25 11.75 48.7 12.05 48.2 12.4 47.2 12.95 46.15 13.45 45.8 13.95 45.45 14.5 45.1 15 44.75 15.5 43.9 15.85 43.05 16.2 42.85 16.55 42.7 16.9 42 17.25 41.3 17.6 41.15 17.75 41 17.9 40.65 18.25 40.3 18.6 39.75 19.15 39.25 19.65 38.4 20 37.55 20.35 37 20.65 36.5 21 36.15 21.55 35.8 22.05 35.3 22.55 34.8 23.1 34.1 23.6 33.4 24.1 33.25 24.65 33.05 25.15 32.55 25.65 32.05 26.2 31.5 26.7 31 27.2 30.5 27.75 29.95 28.25 29.45 28.75 28.95 29.3 27.9 29.8 26.85 30.3 26.7 30.85 26.5 31.35 26.5 31.85 26.5 32.4 26.2 32.9 25.85 33.4 25.65 33.95 25.5 34.45 25.15 34.95 24.8 35.45 24.3 36 23.75 36.5 23.25 37 22.75 37.55 22.2 38.05 21.7 38.55 21.55 39.1 21.35 39.6 21.2 40.1 21 40.65 20.5 41.15 20 41.65 19.45 42.2 18.95 42.7 18.8 43.2 18.6 43.75 17.9 44.25 17.25 44.75 17.05 45.3 16.9 45.8 16.55 46.3 16.2 46.85 16.05 47.35 15.85 47.85 15.85 48.4 15.85 48.9 15.5 49.4 15.15 49.95 15 50.45 14.8 50.95 14.65 51.5 14.5 52 13.95 52.5 13.45 53.05 13.45 53.55 13.45 54.05 13.1 54.6 12.75 55.1 12.4 55.6 12.05 56.15 11.55 56.65 11.05 57.15 10.85 57.7 10.7 58.2 10.7 58.7 10.7 59.2 10.5 59.75 10.35 60.25 9.85 60.75 9.3 61.3 9.3 61.8 9.3 62.3 9.3 62.85 9.3 63.35 8.6 63.85 7.95 64.4 7.95 64.9 7.95 65.4 7.95 65.95 7.95 66.45 7.95 66.95 7.95 67.5 7.75 68 7.6 68.5 7.1 69.05 6.55 69.55 6.55 70.05 6.55 70.6 6.55 71.1 6.55 71.6 6.55 72.15 6.55 72.65 6.55 73.15 6.55 73.7 6.55 74.2 6.55 74.7 6.2 75.25 5.85 75.75 5.55 76.25 5.2 76.8 5.2 77.3 5.2 77.8 5.2 78.35 5.2 78.85 5.2 79.35 5.2 79.9 5.2 80.4 5.2 80.9 5.2 81.45 5.2 81.95 5.2 82.45 5.2 82.95 5.2 83.5 5.2 84 5.2 84.5 5.2 85.05 5.2 85.55 5.2 86.05 5.2 86.6 5.2 87.1 5.35 87.6 5.55 88.15 5.55 88.65 5.55 89.15 5.55 89.7 5.55 90.2 5.55 90.7 5.55 91.25 5.55 91.75 5.55 92.25 5.55 92.8 5.55 93.3 5.55 93.8 5.55 94.35 5.55 94.85 5.55 95.35 5.7 95.9 5.85 96.4 6.2 96.9 6.55 97.45 6.75 97.95 6.9 98.45 6.9 99 6.9 99.5 6.9 100 6.9 100.55 7.1 101.05 7.25 101.55 7.75 102.1 8.3 102.6 8.3 103.1 8.3 103.65 8.45 104.15 8.6 104.65 8.95 105.2 9.3 105.7 9.5 106.2 9.65 106.7 9.65 107.25 9.65 107.75 9.65 108.25 9.65 108.8 10 109.3 10.35 109.8 10.7 110.35 11.05 110.85 11.2 111.35 11.4 111.9 11.4 112.4 11.4 112.9 11.4 113.45 11.4 113.95 11.4 114.45 11.4 115 11.4 115.5 11.4 116 11.4 116.55 11.4 117.05 11.4 117.55 11.4 118.1 11.55 118.6 11.7 119.1 12.25 119.65 12.75 120.15 13.45 120.5 14.15 120.85 14.15 121.2 14.15 121.55 14.5 122.05 14.8 122.55 15.15 123.05 15.5 123.6 15.7 124.1 15.85 124.6 16.2 125.15 16.55 125.65 16.65 125.95 16.8 126.35 16.65 126.35 16.55 126.35 16.55 126.7 16.55 127.05 13.8 127.4 11.05 127.7 10.7 128.05 10.35 128.4 9.3 128.75 8.3 129.1 7.95 129.45 7.6 129.8 6.75 130.15 5.85 130.45 5.7 130.8 5.55 131.15 4.85 131.5 4.15 131.85 3.8 132.2 3.45 132.55 2.95 133.05 2.45 133.55 1.9 134.1 1.4 134.6 0.9 135.1 0.35 135.65 0.2 136.15 0 136.65 0 137.2 0 137.7 0 138.2 0 138.75 0 139.25 0 139.75 0 140.3 0 140.8 0 141.3 0 141.85 0 142.35 0 142.85 0 143.4 0 143.9 0.7 144.25 1.4 144.6 1.4 144.95 1.4 145.3 2.25 145.6 3.1 145.95 3.45 146.3 3.8 146.65 11.4 146.8 18.95 147 19.45 146.65 20 146.3 23.75 145.95 27.55 145.6 27.9 145.3 28.25 144.95 33.4 144.6 38.55 144.25 38.9 143.9 39.25 143.55 43.4 143.4 47.5 143.2 50.8 143.2 54.05 143.2 54.4 142.85 54.75 142.5 57 142.35 59.2 142.2 59.55 142.5 59.9 142.85 60.75 143.2 61.65 143.55 61.65 143.9 61.65 144.25 63 144.6 64.4 144.95 64.4 145.3 64.4 145.6 64.75 146.15 65.05 146.65 65.4 147.15 65.75 147.7 65.95 148.2 66.1 148.7 66.6 149.25 67.15 149.75 67.5 150.25 67.85 150.8 68.35 151.3 68.85 151.8 69.4 152.35 69.9 152.85 70.4 153.35 70.95 153.9 71.95 154.2 73 154.55 73.15 154.75 73.35 154.9 73.85 155.25 74.35 155.6 74.9 156.1 75.4 156.65 76.8 157 78.15 157.3 78.15 157.65 78.15 158 79 158.35 79.85 158.7 80.2 159.05 80.55 159.4 81.6 159.75 82.65 160.1 82.95 160.4 83.3 160.75 85.05 161.1 86.75 161.45 87.1 161.8 87.45 162.15 93.45 162.3 99.5 162.5 99.85 162.15 100.2 161.8 100.7 161.3 101.2 160.75 101.55 160.25 101.9 159.75 102.25 159.2 102.6 158.7 103.1 158.2 103.6 157.65 103.8 157.15 103.95 156.65 104.3 156.1 104.65 155.6 104.85 155.1 105 154.55 105.35 154.05 105.7 153.55 106.2 153 106.7 152.5 107.25 152 107.75 151.45 108.25 150.95 108.8 150.45 109.3 149.9 109.8 149.4 110.85 149.05 111.9 148.7 112.25 148.35 112.55 148.05 114.1 147.7 115.65 147.35 116.2 147 116.7 146.65 118.1 146.5 119.45 146.3 119.45 146.65 119.45 147 121.5 147.35 123.6 147.7 123.6 148.05 123.6 148.35 124.95 148.7 126.35 149.05 126.35 149.4 126.35 149.75 127.9 150.25 129.45 150.8 130.65 151.15 131.85 151.45 132 151.8 132.2 152.15 133.55 152.5 134.95 152.85 134.95 153.2 134.95 153.55 143.2 153.55 151.45 153.55 152.15 153 152.85 152.5 153 152 153.2 151.45 154.05 150.95 154.9 150.45 155.45 149.9 155.95 149.4 156.45 148.9 157 148.35 157.3 147.85 157.65 147.35 158 146.8 158.35 146.3 158.7 145.8 159.05 145.3 159.05 144.75 159.05 144.25 159.75 143.9 160.4 143.55 160.4 143.2 160.4 142.85 160.4 142.35 160.4 141.85 160.4 141.3 160.4 140.8 160.4 140.3 160.4 139.75 160.4 139.25 160.4 138.75 160.4 138.2 160.4 137.7 160.4 137.2 160.4 136.65 160.4 136.15 160.4 135.65 160.05 135.1 159.75 134.6 159.2 134.1 158.7 133.55 158.7 133.05 158.7 132.55 158.7 132 158.7 131.5 158.7 131 158.7 130.45 158.85 129.95 159.05 129.45 163.15 129.1 167.3 128.75 167.45 128.4 167.65 128.05 169.7 127.7 171.8 127.4 172.1 127.05 172.45 126.7 173.5 126.35 174.55 126 174.85 125.65 175.2 125.3 176.25 124.95 177.3 124.6 177.65 124.3 177.95 123.95 178.5 123.4 179 122.9 179.85 122.4 180.75 121.85 181.25 121.35 181.75 120.85 182.25 120.3 182.8 119.8 183.3 119.3 183.8 118.75 184 118.25 184.15 117.75 184.7 117.2 185.2 116.7 185.35 116.2 185.55 115.65 185.55 115.15 185.55 114.65 185.55 114.1 185.55 113.6 185.55 113.1 185.55 112.6 185.35 112.05 185.2 111.55 185.2 111.05 185.2 110.5
M 162.85 119.8
Q 163.15 119.45 163.5 119.1 165.75 118.75 168 118.45 168.5 118.1 169 117.75 171.25 117.4 173.5 117.05 173.65 116.7 173.85 116.35 175.2 116.35 176.6 116.35 175.9 116.7 175.2 117.05 175.05 117.2 174.85 117.4 174.35 117.75 173.85 118.1 173.5 118.6 173.15 119.1 172.3 119.45 171.45 119.8 170.9 120.15 170.4 120.5 169.35 120.85 168.35 121.2 168 121.55 167.65 121.85 165.4 122.2 163.15 122.55 163 122.9 162.85 123.25 158.85 123.6 154.9 123.95 154.75 124.1 154.55 124.3 154.55 124.6 154.55 124.95 153.35 125.5 152.15 126 152.15 126.5 152.15 127.05 152.15 127.55 152.15 128.05 152.15 128.6 152.15 129.1 152.15 129.6 152.15 130.15 152.35 130.65 152.5 131.15 152.65 131.7 152.85 132.2 153.35 132.7 153.9 133.25 154.55 133.75 155.25 134.25 155.25 134.8 155.25 135.3 155.25 135.8 155.25 136.35 155.25 136.85 155.25 137.35 155.75 137.85 156.3 138.4 155.75 138.9 155.25 139.4 155.1 139.95 154.9 140.45 154.9 140.95 154.9 141.5 154.2 141.85 153.55 142.2 153.55 142.5 153.55 142.85 153.35 143.4 153.2 143.9 151.8 144.25 150.45 144.6 150.45 144.75 150.45 144.95 150.1 145.3 149.75 145.6 148.7 146.15 147.7 146.65 147 147.15 146.3 147.7 143.4 147.85 140.45 148.05 140.45 147.7 140.45 147.35 139.1 147 137.7 146.65 137.55 146.3 137.35 145.95 136.15 145.45 134.95 144.95 134.25 144.4 133.55 143.9 132.9 143.4 132.2 142.85 131.15 142.5 130.15 142.2 129.95 141.85 129.8 141.5 127.7 141.15 125.65 140.8 125.5 140.45 125.3 140.1 118.45 139.95 111.55 139.75 110.85 140.1 110.15 140.45 108.6 140.8 107.05 141.15 106.7 141.5 106.4 141.85 105.15 142.35 103.95 142.85 103.45 143.4 102.95 143.9 102.4 144.4 101.9 144.95 101.4 145.45 100.85 145.95 100.35 146.5 99.85 147 99.3 147.5 98.8 148.05 98.8 148.55 98.8 149.05 98.45 149.6 98.1 150.1 97.75 150.6 97.45 151.15 96.9 151.65 96.4 152.15 96.2 152.7 96.05 153.2 95.7 153.7 95.35 154.2 94.85 154.75 94.35 155.25 93.65 155.25 92.95 155.25 91.25 154.9 89.5 154.55 89.15 154.2 88.8 153.9 87.95 153.55 87.1 153.2 86.75 153 86.4 152.85 85.9 152.5 85.4 152.15 84.85 151.65 84.35 151.15 83.15 150.8 81.95 150.45 81.75 150.1 81.6 149.75 80.9 149.4 80.2 149.05 79.7 148.7 79.2 148.35 78.35 148.05 77.45 147.7 76.95 147.35 76.45 147 75.9 146.5 75.4 145.95 74.9 145.45 74.35 144.95 73.85 144.4 73.35 143.9 73.15 143.4 73 142.85 72.45 142.35 71.95 141.85 71.8 141.3 71.6 140.8 71.1 140.3 70.6 139.75 70.6 139.25 70.6 138.75 69.4 138.4 68.15 138.05 68 137.7 67.85 137.35 66.95 137 66.1 136.65 65.75 136.35 65.4 136 57.35 135.8 49.25 135.65 49.05 135.8 48.9 136 48.4 136.35 47.85 136.65 41.3 137 34.8 137.35 34.25 137.7 33.75 138.05 28.6 138.4 23.45 138.75 23.1 139.1 22.75 139.4 19.1 139.75 15.5 140.1 14.8 140.45 14.15 140.8 11.9 140.95 9.65 141.15 9.3 140.95 8.95 140.8 8.45 140.45 7.95 140.1 7.95 139.6 7.95 139.1 8.45 138.55 8.95 138.05 9.85 137.7 10.7 137.35 10.85 137 11.05 136.65 11.7 136.35 12.4 136 12.75 135.65 13.1 135.3 14.15 134.95 15.15 134.6 15.5 134.25 15.85 133.9 18.8 133.55 21.7 133.25 21.9 132.9 22.05 132.55 23.1 132.2 24.1 131.85 24.1 131.7 24.1 131.5 24.65 131.15 25.15 130.8 25.5 130.3 25.85 129.8 25.85 129.25 25.85 128.75 25.85 128.25 25.85 127.7 25.85 127.2 25.85 126.7 25.85 126.15 25.85 125.65 23.6 125.65 21.35 125.65 21.35 125.5 21.35 125.3 21.35 124.8 21.35 124.3 21.35 123.75 21.35 123.25 21.2 122.75 21 122.2 20.65 121.7 20.35 121.2 20.15 120.65 20 120.15 19.65 119.65 19.3 119.1 19.1 118.6 18.95 118.1 18.95 117.55 18.95 117.05 18.95 116.55 18.95 116 18.25 115.65 17.55 115.35 17.55 115.15 17.55 115 17.4 114.65 17.25 114.3 16.7 113.8 16.2 113.25 16.2 112.75 16.2 112.25 16.2 111.7 16.2 111.2 16.2 110.7 16.2 110.15 16.2 109.65 16.2 109.15 16.2 108.6 16.2 108.1 16.2 107.6 16.2 107.05 16.05 106.55 15.85 106.05 15.5 105.5 15.15 105 15.15 104.5 15.15 103.95 15.15 103.45 15.15 102.95 15.15 102.4 15.15 101.9 15.15 101.4 15.15 100.85 15 100.35 14.8 99.85 14.3 99.3 13.8 98.8 13.8 98.3 13.8 97.8 13.8 97.25 13.8 96.75 13.25 96.25 12.75 95.7 12.6 95.2 12.4 94.7 12.4 94.15 12.4 93.65 12.4 93.15 12.4 92.6 12.25 92.1 12.05 91.6 11.55 91.05 11.05 90.55 11.05 90.05 11.05 89.5 11.05 89 11.05 88.5 11.05 87.95 11.05 87.45 11.2 86.95 11.4 86.4 11.4 85.9 11.4 85.4 11.4 84.85 11.4 84.35 11.4 83.85 11.4 83.3 11.55 82.8 11.7 82.3 12.05 81.75 12.4 81.25 12.6 80.75 12.75 80.2 12.75 79.7 12.75 79.2 12.75 78.65 12.75 78.15 12.75 77.65 12.75 77.1 12.75 76.6 12.75 76.1 13.1 75.55 13.45 75.05 13.8 74.55 14.15 74.05 14.15 73.5 14.15 73 14.15 72.5 14.15 71.95 14.15 71.45 14.15 70.95 14.65 70.4 15.15 69.9 15.35 69.4 15.5 68.85 15.5 68.35 15.5 67.85 15.85 67.3 16.2 66.8 16.55 66.3 16.9 65.75 16.9 65.25 16.9 64.75 17.05 64.2 17.25 63.7 17.75 63.2 18.25 62.65 18.45 62.15 18.6 61.65 18.95 61.1 19.3 60.6 19.45 60.1 19.65 59.55 20 59.05 20.35 58.55 20.65 58 21 57.5 21 57 21 56.45 21.7 55.95 22.4 55.45 22.55 54.9 22.75 54.4 23.1 53.9 23.45 53.35 23.75 52.85 24.1 52.35 24.65 51.8 25.15 51.3 25.3 50.8 25.5 50.3 25.85 49.75 26.2 49.25 26.7 48.75 27.2 48.2 27.55 47.7 27.9 47.2 28.05 46.65 28.25 46.15 28.6 45.65 28.95 45.1 29.45 44.6 29.95 44.1 30.5 43.55 31 43.05 31.5 42.55 32.05 42 32.2 41.5 32.35 41 33.05 40.8 33.75 40.65 33.75 40.45 33.75 40.3 33.9 39.8 34.1 39.25 34.25 38.75 34.45 38.25 35.3 37.7 36.15 37.2 36.7 36.7 37.2 36.15 37.7 35.65 38.25 35.15 38.75 34.6 39.25 34.1 39.75 33.6 40.3 33.05 41.15 32.55 42 32.05 43.05 31.7 44.1 31.35 44.1 31.15 44.1 31 44.1 30.65 44.1 30.3 44.4 29.8 44.75 29.3 45.8 28.95 46.85 28.6 47 28.4 47.2 28.25 47.5 27.9 47.85 27.55 48.4 27.05 48.9 26.55 49.75 26.2 50.6 25.85 50.8 25.5 50.95 25.15 51.65 24.8 52.35 24.45 52.7 24.1 53.05 23.75 53.9 23.25 54.75 22.75 55.6 22.4 56.45 22.05 57 21.7 57.5 21.35 59.05 21 60.6 20.65 60.95 20.5 61.3 20.35 61.8 20 62.3 19.65 63.35 19.15 64.4 18.6 65.25 18.25 66.1 17.9 66.6 17.9 67.15 17.9 67.3 17.75 67.5 17.6 68.5 17.25 69.55 16.9 69.9 16.55 70.25 16.2 71.1 15.85 71.95 15.5 72.45 15.15 73 14.8 74.7 14.5 76.45 14.15 76.8 13.8 77.1 13.45 79.7 12.95 82.3 12.4 83.5 12.05 84.7 11.75 89 11.4 93.3 11.05 96.55 10.85 99.85 10.7 100.2 11.05 100.55 11.4 103.6 11.7 106.7 12.05 107.6 12.4 108.45 12.75 110.5 13.1 112.55 13.45 113.25 13.8 113.95 14.15 115 14.5 116 14.8 116.55 15.15 117.05 15.5 118.25 15.85 119.45 16.2 119.8 16.35 120.15 16.55 120.65 16.9 121.2 17.25 121.85 17.75 122.55 18.25 123.6 18.6 124.6 18.95 124.95 19.3 125.3 19.65 125.85 20.15 126.35 20.65 126.85 21.2 127.35 21.7 127.9 22.2 128.4 22.75 128.9 23.25 129.45 23.75 129.95 24.3 130.45 24.8 131 25.3 131.5 25.85 132 26.35 132.55 26.85 133.05 27.4 133.55 27.9 134.1 28.4 134.6 28.95 135.45 29.45 136.3 29.95 136.65 30.5 137 31 137 31.5 137 32.05 137.2 32.55 137.35 33.05 137.7 33.6 138.05 34.1 138.05 34.6 138.05 35.15 138.2 35.65 138.4 36.15 138.9 36.7 139.4 37.2 139.95 37.7 140.45 38.25 140.65 38.75 140.8 39.25 140.95 39.8 141.15 40.3 141.65 40.8 142.2 41.35 142.5 41.85 142.85 42.35 142.85 42.9 142.85 43.4 143.05 43.9 143.2 44.4 143.55 44.95 143.9 45.45 144.05 45.95 144.25 46.5 144.6 47 144.95 47.5 145.1 48.05 145.25 48.55 145.45 49.05 145.6 49.6 145.6 50.1 145.6 50.6 145.95 51.15 146.3 51.65 146.65 52.15 147 52.7 147.15 53.2 147.35 53.7 147.35 54.25 147.35 54.75 147.85 55.25 148.35 55.8 148.9 56.3 149.4 56.8 149.75 57.35 150.1 57.85 150.1 58.35 150.1 58.9 150.25 59.4 150.45 59.9 150.8 60.45 151.1 60.95 151.3 61.45 151.45 62 151.65 62.5 151.8 63 151.8 63.55 151.8 64.05 152.35 64.55 152.85 65.1 152.85 65.2 152.9 65.25 152.85 65.35 152.85 65.4 152.85 65.95 152.85 66.45 152.85 66.8 152.85 67.15 152.5 67.65 152.15 68.15 152.15 68.7 152.15 69.2 152.15 69.7 152.15 70.25 152.15 70.75 152.15 71.25 152.15 71.8 152.15 72.3 152.15 72.8 152.15 73.35 152 73.85 151.8 74.35 151.65 74.9 151.45 75.4 151.1 75.9 150.8 76.45 150.8 76.95 150.8 77.45 150.8 78 150.8 78.5 150.8 79 150.8 79.55 150.6 80.05 150.45 80.55 150.25 81.1 150.1 81.6 149.9 82.1 149.75 82.65 149.75 83.15 149.75 83.65 149.75 84.2 149.75 84.7 149.75 85.2 149.75 85.75 149.75 86.25 149.75 86.75 149.4 87.3 149.05 87.8 148.7 88.3 148.35 88.85 148.35 89.35 148.35 89.85 148.35 90.4 148.35 90.9 148.35 91.1 148.35 91.25 148.05 91.75 147.7 92.25 147.6 92.5 147.55 92.8 147.45 92.85 147.35 92.95 147.2 93.3 147.1 93.7 146.85 94 146.65 94.35 146.5 94.85 146.3 95.35 145.95 95.9 145.6 96.4 145.45 96.9 145.25 97.45 144.95 97.95 144.6 98.45 144.6 99 144.6 99.5 144.6 100 144.6 100.55 144.4 101.05 144.25 101.55 144.05 102.1 143.9 102.6 143.9 103.1 143.9 103.65 143.9 104.15 143.9 104.65 143.9 105.2 143.9 105.7 143.9 106.2 143.9 106.7 143.9 107.25 143.9 107.75 143.9 108.25 143.9 108.8 143.9 109.3 143.9 109.8 143.9 110.35 143.9 110.85 143.9 111.35 143.9 111.9 144.25 112.4 144.6 112.9 144.75 112.9 144.95 112.95 144.95 113.1 144.95 113.25 144.95 113.8 144.95 114.3 144.95 114.8 144.95 115.35 144.95 115.85 144.95 116.35 144.95 116.9 144.95 117.4 144.95 117.9 144.95 118.45 145.1 118.95 145.25 119.45 145.8 120 146.3 120.5 146.65 121 147 121.55 150.1 121.7 153.2 121.85 156.3 121.7 159.4 121.55 159.4 121.35 159.4 121.2 159.75 120.85 160.05 120.5 161.45 120.15 162.85 119.8
M 56.45 29.95
Q 56.45 29.65 56.45 29.3 55.8 29.6 55.1 29.95 55.1 30.3 55.1 30.65 53.9 31 52.7 31.35 52.5 31.7 52.35 32.05 51.65 32.4 50.95 32.7 50.6 33.05 50.25 33.4 49.25 33.75 48.2 34.1 48.2 34.45 48.2 34.8 47.5 35.15 46.85 35.45 46.5 35.8 46.15 36.15 45.65 36.7 45.1 37.2 44.6 37.7 44.1 38.25 43.55 38.75 43.05 39.25 42.55 39.8 42 40.3 41 40.65 39.95 41 39.95 41.35 39.95 41.65 39.25 42 38.55 42.35 38.55 42.7 38.55 43.05 37.9 43.4 37.2 43.75 37.2 44.1 37.2 44.4 36.5 44.95 35.8 45.45 35.65 45.95 35.45 46.5 35.15 47 34.8 47.5 34.6 48.05 34.45 48.55 33.75 48.9 33.05 49.25 33.05 49.6 33.05 49.95 33.05 50.45 33.05 50.95 32.7 51.5 32.35 52 32.2 52.5 32.05 53.05 31.35 53.55 30.65 54.05 30.65 54.6 30.65 55.1 30.65 55.6 30.65 56.15 30.15 56.65 29.6 57.15 29.1 57.7 28.6 58.2 28.4 58.7 28.25 59.2 28.25 59.75 28.25 60.25 27.55 60.6 26.85 60.95 26.85 61.3 26.85 61.65 26.85 62.15 26.85 62.65 26.5 63.2 26.2 63.7 26 64.2 25.85 64.75 25.5 65.25 25.15 65.75 24.95 66.3 24.8 66.8 24.8 67.3 24.8 67.85 24.8 68.35 24.8 68.85 24.45 69.4 24.1 69.9 23.95 70.4 23.75 70.95 23.75 71.45 23.75 71.95 23.75 72.5 23.75 73 23.75 73.5 23.75 74.05 23.25 74.55 22.75 75.05 22.75 75.55 22.75 76.1 22.75 76.6 22.75 77.1 22.75 77.65 22.75 78.15 22.75 78.65 22.75 79.2 22.75 79.7 22.75 80.2 22.75 80.75 22.75 81.25 22.75 81.75 22.75 82.3 22.75 82.8 22.75 83.3 22.75 83.85 22.75 84.35 22.75 84.85 22.75 85.4 22.9 85.9 23.1 86.4 23.1 86.95 23.1 87.45 23.1 87.95 23.1 88.5 23.25 89 23.45 89.5 23.45 90.05 23.45 90.55 23.45 91.05 23.45 91.6 23.6 92.1 23.75 92.6 23.75 93.15 23.75 93.65 23.75 94.15 23.75 94.7 23.95 95.2 24.1 95.7 24.1 96.25 24.1 96.75 24.1 97.25 24.1 97.8 24.1 98.3 24.1 98.8 24.3 99.3 24.45 99.85 24.45 100.35 24.45 100.85 24.45 101.4 24.45 101.9 24.45 102.4 24.45 102.95 24.65 103.45 24.8 103.95 24.8 104.5 24.8 105 25.65 105.35 26.5 105.7 26.5 105.85 26.5 106.05 26.5 106.4 26.5 106.7 26.7 107.25 26.85 107.75 27.4 108.25 27.9 108.8 28.05 109.3 28.25 109.8 30.15 110 32.05 110.15 32.05 110 32.05 109.8 32.05 109.5 32.05 109.15 32.05 108.6 32.05 108.1 32.05 107.6 32.05 107.05 31.85 106.55 31.7 106.05 31.5 105.5 31.35 105 31.35 104.5 31.35 103.95 31.35 103.45 31.35 102.95 31.35 102.4 31.35 101.9 31.35 101.4 31.35 100.85 31 100.35 30.65 99.85 30.85 99.3 31 98.8 31 98.3 31 97.8 31 97.25 31 96.75 31 96.25 31 95.7 31 95.2 31 94.7 31.15 94.15 31.35 93.65 31.35 93.15 31.35 92.6 31.5 92.1 31.7 91.6 31.7 91.05 31.7 90.55 31.7 90.05 31.7 89.5 31.85 89 32.05 88.5 32.05 87.95 32.05 87.45 32.05 86.95 32.05 86.4 32.05 85.9 32.05 85.4 32.55 84.85 33.05 84.35 33.4 83.85 33.75 83.3 33.75 82.8 33.75 82.3 33.9 81.75 34.1 81.25 34.25 80.75 34.45 80.2 34.8 79.7 35.15 79.2 35.3 78.65 35.45 78.15 35.8 77.65 36.15 77.1 36.7 76.6 37.2 76.1 37.7 75.55 38.25 75.05 38.55 74.55 38.9 74.05 39.6 73.5 40.3 73 40.45 72.5 40.65 71.95 40.8 71.45 41 70.95 41.5 70.4 42 69.9 42.85 69.55 43.75 69.2 43.75 68.85 43.75 68.5 43.75 68 43.75 67.5 44.4 67.15 45.1 66.8 45.1 66.45 45.1 66.1 45.3 65.6 45.45 65.1 45.95 64.55 46.5 64.05 47 63.55 47.5 63 47.85 62.5 48.2 62 48.55 61.45 48.9 60.95 49.25 60.45 49.6 59.9 49.95 59.4 50.25 58.9 50.8 58.35 51.3 57.85 51.8 57.35 52.35 56.8 53.05 56.45 53.7 56.15 53.7 55.8 53.7 55.45 54.6 55.1 55.45 54.75 55.6 54.4 55.8 54.05 56.3 53.55 56.8 53.05 57.35 52.5 57.85 52 58.35 51.5 58.9 50.95 59.4 50.45 59.9 49.95 60.95 49.6 62 49.25 62 49 62 48.75 61.65 48.5 61.3 48.2 61.3 47.7 61.3 47.2 61.3 46.65 61.3 46.15 61.3 45.65 61.3 45.1 61.3 44.6 61.3 44.1 61.3 43.75 61.3 43.4 60.6 43.05 59.9 42.7 59.9 42.2 59.9 41.65 59.9 41.15 59.9 40.65 59.9 40.1 59.9 39.6 59.2 39.1 58.55 38.55 58.35 38.05 58.2 37.55 58.2 37.2 58.2 36.85 57.5 36.5 56.8 36.15 56.8 35.65 56.8 35.15 56.65 34.6 56.45 34.1 56.45 33.6 56.45 33.05 56.45 32.55 56.45 32.05 56.45 31.5 56.45 31 56.45 30.5 56.45 29.95
M 81.25 29.95
Q 81.25 29.45 81.25 28.95 81.25 28.4 81.25 27.9 81.25 27.4 81.25 26.85 81.25 26.35 81.25 25.85 81.25 25.3 81.25 24.8 73.7 24.65 66.1 24.45 66.1 24.65 66.1 24.8 66.1 25 66.1 25.15 65.45 25.25 64.75 25.4 64.75 25.45 64.75 25.5 64.75 26 64.75 26.55 64.75 27.05 64.75 27.55 64.9 28.05 65.05 28.6 65.4 29.1 65.75 29.6 65.75 30.15 65.75 30.65 65.95 31.15 66.1 31.7 66.45 32.2 66.8 32.7 66.8 33.25 66.8 33.75 66.8 34.25 66.8 34.8 66.8 35.15 66.8 35.45 66.8 35.65 66.8 35.8 67.5 36.15 68.15 36.5 68.15 37 68.15 37.55 68.15 38.05 68.15 38.55 68.15 39.1 68.15 39.6 68.15 40.1 68.15 40.65 68.15 41 68.15 41.35 68.85 41.65 69.55 42 69.55 42.55 69.55 43.05 69.55 43.4 69.55 43.75 69.9 43.4 70.25 43.05 70.95 42.7 71.6 42.35 71.95 42 72.3 41.65 73.85 41.35 75.4 41 75.55 40.65 75.75 40.3 77.65 39.95 79.55 39.6 79.7 39.25 79.85 38.9 80.55 38.55 81.25 38.25 81.25 38.05 81.25 37.9 81.25 37.55 81.25 37.2 81.25 36.7 81.25 36.15 81.25 35.65 81.25 35.15 81.25 34.6 81.25 34.1 81.25 33.6 81.25 33.05 81.25 32.55 81.25 32.05 81.25 31.5 81.25 31 81.25 30.5 81.25 29.95 Z"/>

<path fill="#FF99FF" stroke="none" d="
M 163.5 119.1
Q 163.15 119.45 162.85 119.8 161.45 120.15 160.05 120.5 159.75 120.85 159.4 121.2 159.4 121.35 159.4 121.55 156.3 121.7 153.2 121.85 150.1 121.7 147 121.55 146.65 121 146.3 120.5 145.8 120 145.25 119.45 145.1 118.95 144.95 118.45 144.95 117.9 144.95 117.4 144.95 116.9 144.95 116.35 144.95 115.85 144.95 115.35 144.95 114.8 144.95 114.3 144.95 113.8 144.95 113.25 144.95 113.1 144.95 112.95 144.75 112.9 144.6 112.9 144.25 112.4 143.9 111.9 143.9 111.35 143.9 110.85 143.9 110.35 143.9 109.8 143.9 109.3 143.9 108.8 143.9 108.25 143.9 107.75 143.9 107.25 143.9 106.7 143.9 106.2 143.9 105.7 143.9 105.2 143.9 104.65 143.9 104.15 143.9 103.65 143.9 103.1 143.9 102.6 144.05 102.1 144.25 101.55 144.4 101.05 144.6 100.55 144.6 100 144.6 99.5 144.6 99 144.6 98.45 144.95 97.95 145.25 97.45 145.45 96.9 145.6 96.4 145.95 95.9 146.3 95.35 146.5 94.85 146.65 94.35 146.85 94 147.1 93.7 147.2 93.3 147.35 92.95 147.45 92.85 147.55 92.8 147.6 92.5 147.7 92.25 148.05 91.75 148.35 91.25 148.35 91.1 148.35 90.9 148.35 90.4 148.35 89.85 148.35 89.35 148.35 88.85 148.7 88.3 149.05 87.8 149.4 87.3 149.75 86.75 149.75 86.25 149.75 85.75 149.75 85.2 149.75 84.7 149.75 84.2 149.75 83.65 149.75 83.15 149.75 82.65 149.9 82.1 150.1 81.6 150.25 81.1 150.45 80.55 150.6 80.05 150.8 79.55 150.8 79 150.8 78.5 150.8 78 150.8 77.45 150.8 76.95 150.8 76.45 151.1 75.9 151.45 75.4 151.65 74.9 151.8 74.35 152 73.85 152.15 73.35 152.15 72.8 152.15 72.3 152.15 71.8 152.15 71.25 152.15 70.75 152.15 70.25 152.15 69.7 152.15 69.2 152.15 68.7 152.15 68.15 152.5 67.65 152.85 67.15 152.85 66.8 152.85 66.45 152.85 65.95 152.85 65.4 152.85 65.35 152.9 65.25 152.85 65.2 152.85 65.1 152.35 64.55 151.8 64.05 151.8 63.55 151.8 63 151.65 62.5 151.45 62 151.3 61.45 151.1 60.95 150.8 60.45 150.45 59.9 150.25 59.4 150.1 58.9 150.1 58.35 150.1 57.85 149.75 57.35 149.4 56.8 148.9 56.3 148.35 55.8 147.85 55.25 147.35 54.75 147.35 54.25 147.35 53.7 147.15 53.2 147 52.7 146.65 52.15 146.3 51.65 145.95 51.15 145.6 50.6 145.6 50.1 145.6 49.6 145.45 49.05 145.25 48.55 145.1 48.05 144.95 47.5 144.6 47 144.25 46.5 144.05 45.95 143.9 45.45 143.55 44.95 143.2 44.4 143.05 43.9 142.85 43.4 142.85 42.9 142.85 42.35 142.5 41.85 142.2 41.35 141.65 40.8 141.15 40.3 140.95 39.8 140.8 39.25 140.65 38.75 140.45 38.25 139.95 37.7 139.4 37.2 138.9 36.7 138.4 36.15 138.2 35.65 138.05 35.15 138.05 34.6 138.05 34.1 137.7 33.6 137.35 33.05 137.2 32.55 137 32.05 137 31.5 137 31 136.65 30.5 136.3 29.95 135.45 29.45 134.6 28.95 134.1 28.4 133.55 27.9 133.05 27.4 132.55 26.85 132 26.35 131.5 25.85 131 25.3 130.45 24.8 129.95 24.3 129.45 23.75 128.9 23.25 128.4 22.75 127.9 22.2 127.35 21.7 126.85 21.2 126.35 20.65 125.85 20.15 125.3 19.65 124.95 19.3 124.6 18.95 123.6 18.6 122.55 18.25 121.85 17.75 121.2 17.25 120.65 16.9 120.15 16.55 119.8 16.35 119.45 16.2 118.25 15.85 117.05 15.5 116.55 15.15 116 14.8 115 14.5 113.95 14.15 113.25 13.8 112.55 13.45 110.5 13.1 108.45 12.75 107.6 12.4 106.7 12.05 103.6 11.7 100.55 11.4 100.2 11.05 99.85 10.7 96.55 10.85 93.3 11.05 89 11.4 84.7 11.75 83.5 12.05 82.3 12.4 79.7 12.95 77.1 13.45 76.8 13.8 76.45 14.15 74.7 14.5 73 14.8 72.45 15.15 71.95 15.5 71.1 15.85 70.25 16.2 69.9 16.55 69.55 16.9 68.5 17.25 67.5 17.6 67.3 17.75 67.15 17.9 66.6 17.9 66.1 17.9 65.25 18.25 64.4 18.6 63.35 19.15 62.3 19.65 61.8 20 61.3 20.35 60.95 20.5 60.6 20.65 59.05 21 57.5 21.35 57 21.7 56.45 22.05 55.6 22.4 54.75 22.75 53.9 23.25 53.05 23.75 52.7 24.1 52.35 24.45 51.65 24.8 50.95 25.15 50.8 25.5 50.6 25.85 49.75 26.2 48.9 26.55 48.4 27.05 47.85 27.55 47.5 27.9 47.2 28.25 47 28.4 46.85 28.6 45.8 28.95 44.75 29.3 44.4 29.8 44.1 30.3 44.1 30.65 44.1 31 44.1 31.15 44.1 31.35 43.05 31.7 42 32.05 41.15 32.55 40.3 33.05 39.75 33.6 39.25 34.1 38.75 34.6 38.25 35.15 37.7 35.65 37.2 36.15 36.7 36.7 36.15 37.2 35.3 37.7 34.45 38.25 34.25 38.75 34.1 39.25 33.9 39.8 33.75 40.3 33.75 40.45 33.75 40.65 33.05 40.8 32.35 41 32.2 41.5 32.05 42 31.5 42.55 31 43.05 30.5 43.55 29.95 44.1 29.45 44.6 28.95 45.1 28.6 45.65 28.25 46.15 28.05 46.65 27.9 47.2 27.55 47.7 27.2 48.2 26.7 48.75 26.2 49.25 25.85 49.75 25.5 50.3 25.3 50.8 25.15 51.3 24.65 51.8 24.1 52.35 23.75 52.85 23.45 53.35 23.1 53.9 22.75 54.4 22.55 54.9 22.4 55.45 21.7 55.95 21 56.45 21 57 21 57.5 20.65 58 20.35 58.55 20 59.05 19.65 59.55 19.45 60.1 19.3 60.6 18.95 61.1 18.6 61.65 18.45 62.15 18.25 62.65 17.75 63.2 17.25 63.7 17.05 64.2 16.9 64.75 16.9 65.25 16.9 65.75 16.55 66.3 16.2 66.8 15.85 67.3 15.5 67.85 15.5 68.35 15.5 68.85 15.35 69.4 15.15 69.9 14.65 70.4 14.15 70.95 14.15 71.45 14.15 71.95 14.15 72.5 14.15 73 14.15 73.5 14.15 74.05 13.8 74.55 13.45 75.05 13.1 75.55 12.75 76.1 12.75 76.6 12.75 77.1 12.75 77.65 12.75 78.15 12.75 78.65 12.75 79.2 12.75 79.7 12.75 80.2 12.6 80.75 12.4 81.25 12.05 81.75 11.7 82.3 11.55 82.8 11.4 83.3 11.4 83.85 11.4 84.35 11.4 84.85 11.4 85.4 11.4 85.9 11.4 86.4 11.2 86.95 11.05 87.45 11.05 87.95 11.05 88.5 11.05 89 11.05 89.5 11.05 90.05 11.05 90.55 11.55 91.05 12.05 91.6 12.25 92.1 12.4 92.6 12.4 93.15 12.4 93.65 12.4 94.15 12.4 94.7 12.6 95.2 12.75 95.7 13.25 96.25 13.8 96.75 13.8 97.25 13.8 97.8 13.8 98.3 13.8 98.8 14.3 99.3 14.8 99.85 15 100.35 15.15 100.85 15.15 101.4 15.15 101.9 15.15 102.4 15.15 102.95 15.15 103.45 15.15 103.95 15.15 104.5 15.15 105 15.5 105.5 15.85 106.05 16.05 106.55 16.2 107.05 16.2 107.6 16.2 108.1 16.2 108.6 16.2 109.15 16.2 109.65 16.2 110.15 16.2 110.7 16.2 111.2 16.2 111.7 16.2 112.25 16.2 112.75 16.2 113.25 16.7 113.8 17.25 114.3 17.4 114.65 17.55 115 17.55 115.15 17.55 115.35 18.25 115.65 18.95 116 18.95 116.55 18.95 117.05 18.95 117.55 18.95 118.1 19.1 118.6 19.3 119.1 19.65 119.65 20 120.15 20.15 120.65 20.35 121.2 20.65 121.7 21 122.2 21.2 122.75 21.35 123.25 21.35 123.75 21.35 124.3 21.35 124.8 21.35 125.3 21.35 125.5 21.35 125.65 23.6 125.65 25.85 125.65 25.85 126.15 25.85 126.7 25.85 127.2 25.85 127.7 25.85 128.25 25.85 128.75 25.85 129.25 25.85 129.8 25.5 130.3 25.15 130.8 24.65 131.15 24.1 131.5 24.1 131.7 24.1 131.85 23.1 132.2 22.05 132.55 21.9 132.9 21.7 133.25 18.8 133.55 15.85 133.9 15.5 134.25 15.15 134.6 14.15 134.95 13.1 135.3 12.75 135.65 12.4 136 11.7 136.35 11.05 136.65 10.85 137 10.7 137.35 9.85 137.7 8.95 138.05 8.45 138.55 7.95 139.1 7.95 139.6 7.95 140.1 8.45 140.45 8.95 140.8 9.3 140.95 9.65 141.15 11.9 140.95 14.15 140.8 14.8 140.45 15.5 140.1 19.1 139.75 22.75 139.4 23.1 139.1 23.45 138.75 28.6 138.4 33.75 138.05 34.25 137.7 34.8 137.35 41.3 137 47.85 136.65 48.4 136.35 48.9 136 49.05 135.8 49.25 135.65 57.35 135.8 65.4 136 65.75 136.35 66.1 136.65 66.95 137 67.85 137.35 68 137.7 68.15 138.05 69.4 138.4 70.6 138.75 70.6 139.25 70.6 139.75 71.1 140.3 71.6 140.8 71.8 141.3 71.95 141.85 72.45 142.35 73 142.85 73.15 143.4 73.35 143.9 73.85 144.4 74.35 144.95 74.9 145.45 75.4 145.95 75.9 146.5 76.45 147 76.95 147.35 77.45 147.7 78.35 148.05 79.2 148.35 79.7 148.7 80.2 149.05 80.9 149.4 81.6 149.75 81.75 150.1 81.95 150.45 83.15 150.8 84.35 151.15 84.85 151.65 85.4 152.15 85.9 152.5 86.4 152.85 86.75 153 87.1 153.2 87.95 153.55 88.8 153.9 89.15 154.2 89.5 154.55 91.25 154.9 92.95 155.25 93.65 155.25 94.35 155.25 94.85 154.75 95.35 154.2 95.7 153.7 96.05 153.2 96.2 152.7 96.4 152.15 96.9 151.65 97.45 151.15 97.75 150.6 98.1 150.1 98.45 149.6 98.8 149.05 98.8 148.55 98.8 148.05 99.3 147.5 99.85 147 100.35 146.5 100.85 145.95 101.4 145.45 101.9 144.95 102.4 144.4 102.95 143.9 103.45 143.4 103.95 142.85 105.15 142.35 106.4 141.85 106.7 141.5 107.05 141.15 108.6 140.8 110.15 140.45 110.85 140.1 111.55 139.75 118.45 139.95 125.3 140.1 125.5 140.45 125.65 140.8 127.7 141.15 129.8 141.5 129.95 141.85 130.15 142.2 131.15 142.5 132.2 142.85 132.9 143.4 133.55 143.9 134.25 144.4 134.95 144.95 136.15 145.45 137.35 145.95 137.55 146.3 137.7 146.65 139.1 147 140.45 147.35 140.45 147.7 140.45 148.05 143.4 147.85 146.3 147.7 147 147.15 147.7 146.65 148.7 146.15 149.75 145.6 150.1 145.3 150.45 144.95 150.45 144.75 150.45 144.6 151.8 144.25 153.2 143.9 153.35 143.4 153.55 142.85 153.55 142.5 153.55 142.2 154.2 141.85 154.9 141.5 154.9 140.95 154.9 140.45 155.1 139.95 155.25 139.4 155.75 138.9 156.3 138.4 155.75 137.85 155.25 137.35 155.25 136.85 155.25 136.35 155.25 135.8 155.25 135.3 155.25 134.8 155.25 134.25 154.55 133.75 153.9 133.25 153.35 132.7 152.85 132.2 152.65 131.7 152.5 131.15 152.35 130.65 152.15 130.15 152.15 129.6 152.15 129.1 152.15 128.6 152.15 128.05 152.15 127.55 152.15 127.05 152.15 126.5 152.15 126 153.35 125.5 154.55 124.95 154.55 124.6 154.55 124.3 154.75 124.1 154.9 123.95 158.85 123.6 162.85 123.25 163 122.9 163.15 122.55 165.4 122.2 167.65 121.85 168 121.55 168.35 121.2 169.35 120.85 170.4 120.5 170.9 120.15 171.45 119.8 172.3 119.45 173.15 119.1 173.5 118.6 173.85 118.1 174.35 117.75 174.85 117.4 175.05 117.2 175.2 117.05 175.9 116.7 176.6 116.35 175.2 116.35 173.85 116.35 173.65 116.7 173.5 117.05 171.25 117.4 169 117.75 168.5 118.1 168 118.45 165.75 118.75 163.5 119.1
M 81.25 28.95
Q 81.25 29.45 81.25 29.95 81.25 30.5 81.25 31 81.25 31.5 81.25 32.05 81.25 32.55 81.25 33.05 81.25 33.6 81.25 34.1 81.25 34.6 81.25 35.15 81.25 35.65 81.25 36.15 81.25 36.7 81.25 37.2 81.25 37.55 81.25 37.9 81.25 38.05 81.25 38.25 80.55 38.55 79.85 38.9 79.7 39.25 79.55 39.6 77.65 39.95 75.75 40.3 75.55 40.65 75.4 41 73.85 41.35 72.3 41.65 71.95 42 71.6 42.35 70.95 42.7 70.25 43.05 69.9 43.4 69.55 43.75 69.55 43.4 69.55 43.05 69.55 42.55 69.55 42 68.85 41.65 68.15 41.35 68.15 41 68.15 40.65 68.15 40.1 68.15 39.6 68.15 39.1 68.15 38.55 68.15 38.05 68.15 37.55 68.15 37 68.15 36.5 67.5 36.15 66.8 35.8 66.8 35.65 66.8 35.45 66.8 35.15 66.8 34.8 66.8 34.25 66.8 33.75 66.8 33.25 66.8 32.7 66.45 32.2 66.1 31.7 65.95 31.15 65.75 30.65 65.75 30.15 65.75 29.6 65.4 29.1 65.05 28.6 64.9 28.05 64.75 27.55 64.75 27.05 64.75 26.55 64.75 26 64.75 25.5 64.75 25.45 64.75 25.4 65.45 25.25 66.1 25.15 66.1 25 66.1 24.8 66.1 24.65 66.1 24.45 73.7 24.65 81.25 24.8 81.25 25.3 81.25 25.85 81.25 26.35 81.25 26.85 81.25 27.4 81.25 27.9 81.25 28.4 81.25 28.95
M 56.45 29.3
Q 56.45 29.65 56.45 29.95 56.45 30.5 56.45 31 56.45 31.5 56.45 32.05 56.45 32.55 56.45 33.05 56.45 33.6 56.45 34.1 56.65 34.6 56.8 35.15 56.8 35.65 56.8 36.15 57.5 36.5 58.2 36.85 58.2 37.2 58.2 37.55 58.35 38.05 58.55 38.55 59.2 39.1 59.9 39.6 59.9 40.1 59.9 40.65 59.9 41.15 59.9 41.65 59.9 42.2 59.9 42.7 60.6 43.05 61.3 43.4 61.3 43.75 61.3 44.1 61.3 44.6 61.3 45.1 61.3 45.65 61.3 46.15 61.3 46.65 61.3 47.2 61.3 47.7 61.3 48.2 61.65 48.5 62 48.75 62 49 62 49.25 60.95 49.6 59.9 49.95 59.4 50.45 58.9 50.95 58.35 51.5 57.85 52 57.35 52.5 56.8 53.05 56.3 53.55 55.8 54.05 55.6 54.4 55.45 54.75 54.6 55.1 53.7 55.45 53.7 55.8 53.7 56.15 53.05 56.45 52.35 56.8 51.8 57.35 51.3 57.85 50.8 58.35 50.25 58.9 49.95 59.4 49.6 59.9 49.25 60.45 48.9 60.95 48.55 61.45 48.2 62 47.85 62.5 47.5 63 47 63.55 46.5 64.05 45.95 64.55 45.45 65.1 45.3 65.6 45.1 66.1 45.1 66.45 45.1 66.8 44.4 67.15 43.75 67.5 43.75 68 43.75 68.5 43.75 68.85 43.75 69.2 42.85 69.55 42 69.9 41.5 70.4 41 70.95 40.8 71.45 40.65 71.95 40.45 72.5 40.3 73 39.6 73.5 38.9 74.05 38.55 74.55 38.25 75.05 37.7 75.55 37.2 76.1 36.7 76.6 36.15 77.1 35.8 77.65 35.45 78.15 35.3 78.65 35.15 79.2 34.8 79.7 34.45 80.2 34.25 80.75 34.1 81.25 33.9 81.75 33.75 82.3 33.75 82.8 33.75 83.3 33.4 83.85 33.05 84.35 32.55 84.85 32.05 85.4 32.05 85.9 32.05 86.4 32.05 86.95 32.05 87.45 32.05 87.95 32.05 88.5 31.85 89 31.7 89.5 31.7 90.05 31.7 90.55 31.7 91.05 31.7 91.6 31.5 92.1 31.35 92.6 31.35 93.15 31.35 93.65 31.15 94.15 31 94.7 31 95.2 31 95.7 31 96.25 31 96.75 31 97.25 31 97.8 31 98.3 31 98.8 30.85 99.3 30.65 99.85 31 100.35 31.35 100.85 31.35 101.4 31.35 101.9 31.35 102.4 31.35 102.95 31.35 103.45 31.35 103.95 31.35 104.5 31.35 105 31.5 105.5 31.7 106.05 31.85 106.55 32.05 107.05 32.05 107.6 32.05 108.1 32.05 108.6 32.05 109.15 32.05 109.5 32.05 109.8 32.05 110 32.05 110.15 30.15 110 28.25 109.8 28.05 109.3 27.9 108.8 27.4 108.25 26.85 107.75 26.7 107.25 26.5 106.7 26.5 106.4 26.5 106.05 26.5 105.85 26.5 105.7 25.65 105.35 24.8 105 24.8 104.5 24.8 103.95 24.65 103.45 24.45 102.95 24.45 102.4 24.45 101.9 24.45 101.4 24.45 100.85 24.45 100.35 24.45 99.85 24.3 99.3 24.1 98.8 24.1 98.3 24.1 97.8 24.1 97.25 24.1 96.75 24.1 96.25 24.1 95.7 23.95 95.2 23.75 94.7 23.75 94.15 23.75 93.65 23.75 93.15 23.75 92.6 23.6 92.1 23.45 91.6 23.45 91.05 23.45 90.55 23.45 90.05 23.45 89.5 23.25 89 23.1 88.5 23.1 87.95 23.1 87.45 23.1 86.95 23.1 86.4 22.9 85.9 22.75 85.4 22.75 84.85 22.75 84.35 22.75 83.85 22.75 83.3 22.75 82.8 22.75 82.3 22.75 81.75 22.75 81.25 22.75 80.75 22.75 80.2 22.75 79.7 22.75 79.2 22.75 78.65 22.75 78.15 22.75 77.65 22.75 77.1 22.75 76.6 22.75 76.1 22.75 75.55 22.75 75.05 23.25 74.55 23.75 74.05 23.75 73.5 23.75 73 23.75 72.5 23.75 71.95 23.75 71.45 23.75 70.95 23.95 70.4 24.1 69.9 24.45 69.4 24.8 68.85 24.8 68.35 24.8 67.85 24.8 67.3 24.8 66.8 24.95 66.3 25.15 65.75 25.5 65.25 25.85 64.75 26 64.2 26.2 63.7 26.5 63.2 26.85 62.65 26.85 62.15 26.85 61.65 26.85 61.3 26.85 60.95 27.55 60.6 28.25 60.25 28.25 59.75 28.25 59.2 28.4 58.7 28.6 58.2 29.1 57.7 29.6 57.15 30.15 56.65 30.65 56.15 30.65 55.6 30.65 55.1 30.65 54.6 30.65 54.05 31.35 53.55 32.05 53.05 32.2 52.5 32.35 52 32.7 51.5 33.05 50.95 33.05 50.45 33.05 49.95 33.05 49.6 33.05 49.25 33.75 48.9 34.45 48.55 34.6 48.05 34.8 47.5 35.15 47 35.45 46.5 35.65 45.95 35.8 45.45 36.5 44.95 37.2 44.4 37.2 44.1 37.2 43.75 37.9 43.4 38.55 43.05 38.55 42.7 38.55 42.35 39.25 42 39.95 41.65 39.95 41.35 39.95 41 41 40.65 42 40.3 42.55 39.8 43.05 39.25 43.55 38.75 44.1 38.25 44.6 37.7 45.1 37.2 45.65 36.7 46.15 36.15 46.5 35.8 46.85 35.45 47.5 35.15 48.2 34.8 48.2 34.45 48.2 34.1 49.25 33.75 50.25 33.4 50.6 33.05 50.95 32.7 51.65 32.4 52.35 32.05 52.5 31.7 52.7 31.35 53.9 31 55.1 30.65 55.1 30.3 55.1 29.95 55.8 29.6 56.45 29.3 Z"/>
</g>
</g>
</g>
</g>
</g>
</svg>
