
<svg xmlns="http://www.w3.org/2000/svg" version="1.1" xmlns:xlink="http://www.w3.org/1999/xlink" preserveAspectRatio="none" x="0px" y="0px" width="1920px" height="1080px" viewBox="0 0 1920 1080">
<defs/>

<g id="Layer_2"/>

<g id="Layer_1"/>

<g id="Layer_3"/>

<g id="Layer_5"/>

<g id="Layer_4">
<g id="Layer_1" transform="matrix( 1.451263427734375, 0, 0, 1.451263427734375, 0.55,303.2) ">
<g>
<g>
<g>
<path fill="#FF0000" stroke="none" d="
M 1312.95 326.3
L 1312.95 0 10.75 0 10.75 326.3 1312.95 326.3
M 1290.65 11.2
L 1290.65 123.75 993.35 123.75 993.35 11.2 1290.65 11.2
M 1290.65 310.5
L 993.35 310.5 993.35 142.5 1290.65 142.5 1290.65 310.5
M 970.4 11.2
L 970.4 123.75 673.1 123.75 673.1 11.2 970.4 11.2
M 648.4 11.2
L 648.4 123.75 351.1 123.75 351.1 11.2 648.4 11.2
M 970.4 310.5
L 673.1 310.5 673.1 142.5 970.4 142.5 970.4 310.5
M 648.4 142.5
L 648.4 310.5 351.1 310.5 351.1 142.5 648.4 142.5
M 326.4 11.2
L 326.4 123.75 29.1 123.75 29.1 11.2 326.4 11.2
M 326.4 142.5
L 326.4 310.5 29.1 310.5 29.1 142.5 326.4 142.5 Z"/>

<path fill="#FFFF00" stroke="none" d="
M 326.4 310.5
L 326.4 142.5 29.1 142.5 29.1 310.5 326.4 310.5
M 326.4 123.75
L 326.4 11.2 29.1 11.2 29.1 123.75 326.4 123.75
M 85 37.9
L 96.55 37.9
Q 107.8 37.9 111.75 38.9 115.7 39.95 117.75 42.3 119.8 44.65 120.3 47.55 120.85 50.4 120.85 58.85
L 120.85 79.7
Q 120.85 87.75 120.1 90.45 119.35 93.15 117.45 94.7 115.6 96.2 112.8 96.8 110.05 97.4 104.5 97.4
L 85 97.4 85 37.9
M 126.6 37.9
L 142.05 37.9 142.05 97.4 126.6 97.4 126.6 37.9
M 166.1 47.55
Q 165.55 46.7 164.25 46.7 162.85 46.7 162.15 47.85 161.45 49 161.45 51.3 161.45 54.25 162.25 55.8 163 57.3 166.6 59.4 176.95 65.55 179.65 69.5 182.3 73.45 182.3 82.2 182.3 88.55 180.85 91.55 179.35 94.55 175.1 96.65 170.8 98.65 165.15 98.65 158.95 98.65 154.55 96.3 150.15 93.95 148.8 90.3 147.45 86.65 147.45 79.95
L 147.45 76.1 161.8 76.1 161.8 83.3
Q 161.8 86.65 162.45 87.6 163 88.6 164.55 88.6 166.1 88.6 166.9 87.35 167.6 86.15 167.6 83.75 167.6 78.5 166.2 76.9 164.7 75.25 158.95 71.5 153.15 67.65 151.3 65.95 149.4 64.2 148.2 61.15 146.95 58.1 146.95 53.35 146.95 46.5 148.7 43.35 150.45 40.2 154.35 38.45 158.25 36.65 163.75 36.65 169.8 36.65 174.05 38.6 178.3 40.5 179.65 43.5 181.05 46.45 181.05 53.55
L 181.05 55.9 166.65 55.9 166.65 51.5
Q 166.65 48.4 166.1 47.55
M 207.2 37.9
L 222.7 37.9 222.7 97.4 207.2 97.4 207.2 72.4 202.55 72.4 202.55 97.4 187.1 97.4 187.1 37.9 202.55 37.9 202.55 59.15 207.2 59.15 207.2 37.9
M 255.9 37.9
L 264.65 37.9 264.65 97.4 249.8 97.4 249.8 65.5
Q 249.8 58.6 249.45 57.2 249.15 55.8 247.65 55.1 246.15 54.35 241 54.35
L 239.55 54.35 239.55 47.4
Q 250.3 45.1 255.9 37.9
M 103.9 48.6
Q 103 48.05 100.45 48.05
L 100.45 87.2
Q 103.8 87.2 104.6 85.9 105.35 84.55 105.35 78.6
L 105.1 50.25
Q 104.85 49.15 103.9 48.6
M 648.4 310.5
L 648.4 142.5 351.1 142.5 351.1 310.5 648.4 310.5
M 673.1 310.5
L 970.4 310.5 970.4 142.5 673.1 142.5 673.1 310.5
M 648.4 123.75
L 648.4 11.2 351.1 11.2 351.1 123.75 648.4 123.75
M 408.4 37.9
L 419.95 37.9
Q 431.2 37.9 435.15 38.9 439.1 39.95 441.15 42.3 443.2 44.65 443.7 47.55 444.25 50.4 444.25 58.85
L 444.25 79.7
Q 444.25 87.75 443.5 90.45 442.75 93.15 440.85 94.7 439 96.2 436.2 96.8 433.45 97.4 427.9 97.4
L 408.4 97.4 408.4 37.9
M 450 37.9
L 465.45 37.9 465.45 97.4 450 97.4 450 37.9
M 489.5 47.55
Q 488.95 46.7 487.65 46.7 486.25 46.7 485.55 47.85 484.85 49 484.85 51.3 484.85 54.25 485.65 55.8 486.4 57.3 490 59.4 500.35 65.55 503.05 69.5 505.7 73.45 505.7 82.2 505.7 88.55 504.25 91.55 502.75 94.55 498.5 96.65 494.2 98.65 488.55 98.65 482.35 98.65 477.95 96.3 473.55 93.95 472.2 90.3 470.85 86.65 470.85 79.95
L 470.85 76.1 485.2 76.1 485.2 83.3
Q 485.2 86.65 485.85 87.6 486.4 88.6 487.95 88.6 489.5 88.6 490.3 87.35 491 86.15 491 83.75 491 78.5 489.6 76.9 488.1 75.25 482.35 71.5 476.55 67.65 474.7 65.95 472.8 64.2 471.6 61.15 470.35 58.1 470.35 53.35 470.35 46.5 472.1 43.35 473.85 40.2 477.75 38.45 481.65 36.65 487.15 36.65 493.2 36.65 497.45 38.6 501.7 40.5 503.05 43.5 504.45 46.45 504.45 53.55
L 504.45 55.9 490.05 55.9 490.05 51.5
Q 490.05 48.4 489.5 47.55
M 580.55 36.75
Q 589.4 36.75 593.95 41.15 598.5 45.5 598.5 52.25 598.5 57.35 595.9 63.05 593.4 68.75 580.9 87.25
L 597.15 87.25 597.15 97.4 564.5 97.4 564.5 88.9
Q 579 65.15 581.75 59.55 584.5 53.85 584.5 50.7 584.5 48.3 583.7 47.1 582.85 45.9 581.15 45.9 579.45 45.9 578.65 47.2 577.8 48.55 577.8 52.45
L 577.8 58.15 564.5 58.15 564.5 55.95
Q 564.5 50.95 565 48.1 565.5 45.2 567.55 42.4 569.55 39.6 572.8 38.15 576.05 36.75 580.55 36.75
M 530.6 37.9
L 546.1 37.9 546.1 97.4 530.6 97.4 530.6 72.4 525.95 72.4 525.95 97.4 510.5 97.4 510.5 37.9 525.95 37.9 525.95 59.15 530.6 59.15 530.6 37.9
M 427.3 48.6
Q 426.4 48.05 423.85 48.05
L 423.85 87.2
Q 427.2 87.2 428 85.9 428.75 84.55 428.75 78.6
L 428.5 50.25
Q 428.25 49.15 427.3 48.6
M 970.4 123.75
L 970.4 11.2 673.1 11.2 673.1 123.75 970.4 123.75
M 861 37.9
L 876.5 37.9 876.5 97.4 861 97.4 861 72.4 856.35 72.4 856.35 97.4 840.9 97.4 840.9 37.9 856.35 37.9 856.35 59.15 861 59.15 861 37.9
M 827.85 38.6
Q 832.1 40.5 833.45 43.5 834.85 46.45 834.85 53.55
L 834.85 55.9 820.45 55.9 820.45 51.5
Q 820.45 48.4 819.9 47.55 819.35 46.7 818.05 46.7 816.65 46.7 815.95 47.85 815.25 49 815.25 51.3 815.25 54.25 816.05 55.8 816.8 57.3 820.4 59.4 830.75 65.55 833.45 69.5 836.1 73.45 836.1 82.2 836.1 88.55 834.65 91.55 833.15 94.55 828.9 96.65 824.6 98.65 818.95 98.65 812.75 98.65 808.35 96.3 803.95 93.95 802.6 90.3 801.25 86.65 801.25 79.95
L 801.25 76.1 815.6 76.1 815.6 83.3
Q 815.6 86.65 816.25 87.6 816.8 88.6 818.35 88.6 819.9 88.6 820.7 87.35 821.4 86.15 821.4 83.75 821.4 78.5 820 76.9 818.5 75.25 812.75 71.5 806.95 67.65 805.1 65.95 803.2 64.2 802 61.15 800.75 58.1 800.75 53.35 800.75 46.5 802.5 43.35 804.25 40.2 808.15 38.45 812.05 36.65 817.55 36.65 823.6 36.65 827.85 38.6
M 771.55 42.3
Q 773.6 44.65 774.1 47.55 774.65 50.4 774.65 58.85
L 774.65 79.7
Q 774.65 87.75 773.9 90.45 773.15 93.15 771.25 94.7 769.4 96.2 766.6 96.8 763.85 97.4 758.3 97.4
L 738.8 97.4 738.8 37.9 750.35 37.9
Q 761.6 37.9 765.55 38.9 769.5 39.95 771.55 42.3
M 780.4 37.9
L 795.85 37.9 795.85 97.4 780.4 97.4 780.4 37.9
M 914.65 46.9
Q 914 45.9 912.65 45.9 911.1 45.9 910.55 46.95 909.95 48 909.95 51.4
L 909.95 56.3 895.1 56.3 895.1 51.2
Q 895.1 42.7 899 39.7 902.9 36.7 911.4 36.7 922 36.7 925.8 40.85 929.6 45 929.6 52.4 929.6 57.4 928.25 59.6 926.85 61.85 923.45 63.7 926.85 64.85 928.5 67.4 930.15 70 930.15 79.55 930.15 86.65 928.55 90.55 926.9 94.5 922.95 96.5 918.95 98.6 912.75 98.6 905.7 98.6 901.7 96.2 897.65 93.85 896.4 90.4 895.1 86.95 895.1 78.45
L 895.1 73.75 909.95 73.75 909.95 83.45
Q 909.95 87.3 910.45 88.35 910.9 89.4 912.45 89.4 914.2 89.4 914.75 88.05 915.3 86.75 915.3 81.15
L 915.3 77.05
Q 915.3 73.6 914.5 72.05 913.75 70.45 912.25 69.95 910.75 69.45 906.4 69.4
L 906.4 60.75
Q 911.7 60.75 912.95 60.35 914.2 59.95 914.75 58.6 915.3 57.2 915.3 54.3
L 915.3 51
Q 915.3 47.9 914.65 46.9
M 757.7 48.6
Q 756.8 48.05 754.25 48.05
L 754.25 87.2
Q 757.6 87.2 758.4 85.9 759.15 84.55 759.15 78.6
L 758.9 50.25
Q 758.65 49.15 757.7 48.6
M 993.35 310.5
L 1290.65 310.5 1290.65 142.5 993.35 142.5 993.35 310.5
M 1290.65 123.75
L 1290.65 11.2 993.35 11.2 993.35 123.75 1290.65 123.75
M 1226.4 37.9
L 1246.1 37.9 1246.1 76.75 1250.3 76.75 1250.3 86.9 1246.1 86.9 1246.1 97.4 1231.25 97.4 1231.25 86.9 1213.6 86.9 1213.6 76.75 1226.4 37.9
M 1181.25 37.9
L 1196.75 37.9 1196.75 97.4 1181.25 97.4 1181.25 72.4 1176.6 72.4 1176.6 97.4 1161.15 97.4 1161.15 37.9 1176.6 37.9 1176.6 59.15 1181.25 59.15 1181.25 37.9
M 1148.1 38.6
Q 1152.35 40.5 1153.7 43.5 1155.1 46.45 1155.1 53.55
L 1155.1 55.9 1140.7 55.9 1140.7 51.5
Q 1140.7 48.4 1140.15 47.55 1139.6 46.7 1138.3 46.7 1136.9 46.7 1136.2 47.85 1135.5 49 1135.5 51.3 1135.5 54.25 1136.3 55.8 1137.05 57.3 1140.65 59.4 1151 65.55 1153.7 69.5 1156.35 73.45 1156.35 82.2 1156.35 88.55 1154.9 91.55 1153.4 94.55 1149.15 96.65 1144.85 98.65 1139.2 98.65 1133 98.65 1128.6 96.3 1124.2 93.95 1122.85 90.3 1121.5 86.65 1121.5 79.95
L 1121.5 76.1 1135.85 76.1 1135.85 83.3
Q 1135.85 86.65 1136.5 87.6 1137.05 88.6 1138.6 88.6 1140.15 88.6 1140.95 87.35 1141.65 86.15 1141.65 83.75 1141.65 78.5 1140.25 76.9 1138.75 75.25 1133 71.5 1127.2 67.65 1125.35 65.95 1123.45 64.2 1122.25 61.15 1121 58.1 1121 53.35 1121 46.5 1122.75 43.35 1124.5 40.2 1128.4 38.45 1132.3 36.65 1137.8 36.65 1143.85 36.65 1148.1 38.6
M 1100.65 37.9
L 1116.1 37.9 1116.1 97.4 1100.65 97.4 1100.65 37.9
M 1085.8 38.9
Q 1089.75 39.95 1091.8 42.3 1093.85 44.65 1094.35 47.55 1094.9 50.4 1094.9 58.85
L 1094.9 79.7
Q 1094.9 87.75 1094.15 90.45 1093.4 93.15 1091.5 94.7 1089.65 96.2 1086.85 96.8 1084.1 97.4 1078.55 97.4
L 1059.05 97.4 1059.05 37.9 1070.6 37.9
Q 1081.85 37.9 1085.8 38.9
M 1077.95 48.6
Q 1077.05 48.05 1074.5 48.05
L 1074.5 87.2
Q 1077.85 87.2 1078.65 85.9 1079.4 84.55 1079.4 78.6
L 1079.15 50.25
Q 1078.9 49.15 1077.95 48.6
M 1224.7 76.75
L 1231.25 76.75 1231.25 51.45 1224.7 76.75 Z"/>

<path fill="#000000" stroke="none" d="
M 264.65 37.9
L 255.9 37.9
Q 250.3 45.1 239.55 47.4
L 239.55 54.35 241 54.35
Q 246.15 54.35 247.65 55.1 249.15 55.8 249.45 57.2 249.8 58.6 249.8 65.5
L 249.8 97.4 264.65 97.4 264.65 37.9
M 222.7 37.9
L 207.2 37.9 207.2 59.15 202.55 59.15 202.55 37.9 187.1 37.9 187.1 97.4 202.55 97.4 202.55 72.4 207.2 72.4 207.2 97.4 222.7 97.4 222.7 37.9
M 164.25 46.7
Q 165.55 46.7 166.1 47.55 166.65 48.4 166.65 51.5
L 166.65 55.9 181.05 55.9 181.05 53.55
Q 181.05 46.45 179.65 43.5 178.3 40.5 174.05 38.6 169.8 36.65 163.75 36.65 158.25 36.65 154.35 38.45 150.45 40.2 148.7 43.35 146.95 46.5 146.95 53.35 146.95 58.1 148.2 61.15 149.4 64.2 151.3 65.95 153.15 67.65 158.95 71.5 164.7 75.25 166.2 76.9 167.6 78.5 167.6 83.75 167.6 86.15 166.9 87.35 166.1 88.6 164.55 88.6 163 88.6 162.45 87.6 161.8 86.65 161.8 83.3
L 161.8 76.1 147.45 76.1 147.45 79.95
Q 147.45 86.65 148.8 90.3 150.15 93.95 154.55 96.3 158.95 98.65 165.15 98.65 170.8 98.65 175.1 96.65 179.35 94.55 180.85 91.55 182.3 88.55 182.3 82.2 182.3 73.45 179.65 69.5 176.95 65.55 166.6 59.4 163 57.3 162.25 55.8 161.45 54.25 161.45 51.3 161.45 49 162.15 47.85 162.85 46.7 164.25 46.7
M 142.05 37.9
L 126.6 37.9 126.6 97.4 142.05 97.4 142.05 37.9
M 96.55 37.9
L 85 37.9 85 97.4 104.5 97.4
Q 110.05 97.4 112.8 96.8 115.6 96.2 117.45 94.7 119.35 93.15 120.1 90.45 120.85 87.75 120.85 79.7
L 120.85 58.85
Q 120.85 50.4 120.3 47.55 119.8 44.65 117.75 42.3 115.7 39.95 111.75 38.9 107.8 37.9 96.55 37.9
M 100.45 48.05
Q 103 48.05 103.9 48.6 104.85 49.15 105.1 50.25
L 105.35 78.6
Q 105.35 84.55 104.6 85.9 103.8 87.2 100.45 87.2
L 100.45 48.05
M 546.1 37.9
L 530.6 37.9 530.6 59.15 525.95 59.15 525.95 37.9 510.5 37.9 510.5 97.4 525.95 97.4 525.95 72.4 530.6 72.4 530.6 97.4 546.1 97.4 546.1 37.9
M 593.95 41.15
Q 589.4 36.75 580.55 36.75 576.05 36.75 572.8 38.15 569.55 39.6 567.55 42.4 565.5 45.2 565 48.1 564.5 50.95 564.5 55.95
L 564.5 58.15 577.8 58.15 577.8 52.45
Q 577.8 48.55 578.65 47.2 579.45 45.9 581.15 45.9 582.85 45.9 583.7 47.1 584.5 48.3 584.5 50.7 584.5 53.85 581.75 59.55 579 65.15 564.5 88.9
L 564.5 97.4 597.15 97.4 597.15 87.25 580.9 87.25
Q 593.4 68.75 595.9 63.05 598.5 57.35 598.5 52.25 598.5 45.5 593.95 41.15
M 487.65 46.7
Q 488.95 46.7 489.5 47.55 490.05 48.4 490.05 51.5
L 490.05 55.9 504.45 55.9 504.45 53.55
Q 504.45 46.45 503.05 43.5 501.7 40.5 497.45 38.6 493.2 36.65 487.15 36.65 481.65 36.65 477.75 38.45 473.85 40.2 472.1 43.35 470.35 46.5 470.35 53.35 470.35 58.1 471.6 61.15 472.8 64.2 474.7 65.95 476.55 67.65 482.35 71.5 488.1 75.25 489.6 76.9 491 78.5 491 83.75 491 86.15 490.3 87.35 489.5 88.6 487.95 88.6 486.4 88.6 485.85 87.6 485.2 86.65 485.2 83.3
L 485.2 76.1 470.85 76.1 470.85 79.95
Q 470.85 86.65 472.2 90.3 473.55 93.95 477.95 96.3 482.35 98.65 488.55 98.65 494.2 98.65 498.5 96.65 502.75 94.55 504.25 91.55 505.7 88.55 505.7 82.2 505.7 73.45 503.05 69.5 500.35 65.55 490 59.4 486.4 57.3 485.65 55.8 484.85 54.25 484.85 51.3 484.85 49 485.55 47.85 486.25 46.7 487.65 46.7
M 465.45 37.9
L 450 37.9 450 97.4 465.45 97.4 465.45 37.9
M 419.95 37.9
L 408.4 37.9 408.4 97.4 427.9 97.4
Q 433.45 97.4 436.2 96.8 439 96.2 440.85 94.7 442.75 93.15 443.5 90.45 444.25 87.75 444.25 79.7
L 444.25 58.85
Q 444.25 50.4 443.7 47.55 443.2 44.65 441.15 42.3 439.1 39.95 435.15 38.9 431.2 37.9 419.95 37.9
M 423.85 48.05
Q 426.4 48.05 427.3 48.6 428.25 49.15 428.5 50.25
L 428.75 78.6
Q 428.75 84.55 428 85.9 427.2 87.2 423.85 87.2
L 423.85 48.05
M 912.65 45.9
Q 914 45.9 914.65 46.9 915.3 47.9 915.3 51
L 915.3 54.3
Q 915.3 57.2 914.75 58.6 914.2 59.95 912.95 60.35 911.7 60.75 906.4 60.75
L 906.4 69.4
Q 910.75 69.45 912.25 69.95 913.75 70.45 914.5 72.05 915.3 73.6 915.3 77.05
L 915.3 81.15
Q 915.3 86.75 914.75 88.05 914.2 89.4 912.45 89.4 910.9 89.4 910.45 88.35 909.95 87.3 909.95 83.45
L 909.95 73.75 895.1 73.75 895.1 78.45
Q 895.1 86.95 896.4 90.4 897.65 93.85 901.7 96.2 905.7 98.6 912.75 98.6 918.95 98.6 922.95 96.5 926.9 94.5 928.55 90.55 930.15 86.65 930.15 79.55 930.15 70 928.5 67.4 926.85 64.85 923.45 63.7 926.85 61.85 928.25 59.6 929.6 57.4 929.6 52.4 929.6 45 925.8 40.85 922 36.7 911.4 36.7 902.9 36.7 899 39.7 895.1 42.7 895.1 51.2
L 895.1 56.3 909.95 56.3 909.95 51.4
Q 909.95 48 910.55 46.95 911.1 45.9 912.65 45.9
M 795.85 37.9
L 780.4 37.9 780.4 97.4 795.85 97.4 795.85 37.9
M 774.1 47.55
Q 773.6 44.65 771.55 42.3 769.5 39.95 765.55 38.9 761.6 37.9 750.35 37.9
L 738.8 37.9 738.8 97.4 758.3 97.4
Q 763.85 97.4 766.6 96.8 769.4 96.2 771.25 94.7 773.15 93.15 773.9 90.45 774.65 87.75 774.65 79.7
L 774.65 58.85
Q 774.65 50.4 774.1 47.55
M 754.25 48.05
Q 756.8 48.05 757.7 48.6 758.65 49.15 758.9 50.25
L 759.15 78.6
Q 759.15 84.55 758.4 85.9 757.6 87.2 754.25 87.2
L 754.25 48.05
M 833.45 43.5
Q 832.1 40.5 827.85 38.6 823.6 36.65 817.55 36.65 812.05 36.65 808.15 38.45 804.25 40.2 802.5 43.35 800.75 46.5 800.75 53.35 800.75 58.1 802 61.15 803.2 64.2 805.1 65.95 806.95 67.65 812.75 71.5 818.5 75.25 820 76.9 821.4 78.5 821.4 83.75 821.4 86.15 820.7 87.35 819.9 88.6 818.35 88.6 816.8 88.6 816.25 87.6 815.6 86.65 815.6 83.3
L 815.6 76.1 801.25 76.1 801.25 79.95
Q 801.25 86.65 802.6 90.3 803.95 93.95 808.35 96.3 812.75 98.65 818.95 98.65 824.6 98.65 828.9 96.65 833.15 94.55 834.65 91.55 836.1 88.55 836.1 82.2 836.1 73.45 833.45 69.5 830.75 65.55 820.4 59.4 816.8 57.3 816.05 55.8 815.25 54.25 815.25 51.3 815.25 49 815.95 47.85 816.65 46.7 818.05 46.7 819.35 46.7 819.9 47.55 820.45 48.4 820.45 51.5
L 820.45 55.9 834.85 55.9 834.85 53.55
Q 834.85 46.45 833.45 43.5
M 876.5 37.9
L 861 37.9 861 59.15 856.35 59.15 856.35 37.9 840.9 37.9 840.9 97.4 856.35 97.4 856.35 72.4 861 72.4 861 97.4 876.5 97.4 876.5 37.9
M 1091.8 42.3
Q 1089.75 39.95 1085.8 38.9 1081.85 37.9 1070.6 37.9
L 1059.05 37.9 1059.05 97.4 1078.55 97.4
Q 1084.1 97.4 1086.85 96.8 1089.65 96.2 1091.5 94.7 1093.4 93.15 1094.15 90.45 1094.9 87.75 1094.9 79.7
L 1094.9 58.85
Q 1094.9 50.4 1094.35 47.55 1093.85 44.65 1091.8 42.3
M 1074.5 48.05
Q 1077.05 48.05 1077.95 48.6 1078.9 49.15 1079.15 50.25
L 1079.4 78.6
Q 1079.4 84.55 1078.65 85.9 1077.85 87.2 1074.5 87.2
L 1074.5 48.05
M 1116.1 37.9
L 1100.65 37.9 1100.65 97.4 1116.1 97.4 1116.1 37.9
M 1153.7 43.5
Q 1152.35 40.5 1148.1 38.6 1143.85 36.65 1137.8 36.65 1132.3 36.65 1128.4 38.45 1124.5 40.2 1122.75 43.35 1121 46.5 1121 53.35 1121 58.1 1122.25 61.15 1123.45 64.2 1125.35 65.95 1127.2 67.65 1133 71.5 1138.75 75.25 1140.25 76.9 1141.65 78.5 1141.65 83.75 1141.65 86.15 1140.95 87.35 1140.15 88.6 1138.6 88.6 1137.05 88.6 1136.5 87.6 1135.85 86.65 1135.85 83.3
L 1135.85 76.1 1121.5 76.1 1121.5 79.95
Q 1121.5 86.65 1122.85 90.3 1124.2 93.95 1128.6 96.3 1133 98.65 1139.2 98.65 1144.85 98.65 1149.15 96.65 1153.4 94.55 1154.9 91.55 1156.35 88.55 1156.35 82.2 1156.35 73.45 1153.7 69.5 1151 65.55 1140.65 59.4 1137.05 57.3 1136.3 55.8 1135.5 54.25 1135.5 51.3 1135.5 49 1136.2 47.85 1136.9 46.7 1138.3 46.7 1139.6 46.7 1140.15 47.55 1140.7 48.4 1140.7 51.5
L 1140.7 55.9 1155.1 55.9 1155.1 53.55
Q 1155.1 46.45 1153.7 43.5
M 1196.75 37.9
L 1181.25 37.9 1181.25 59.15 1176.6 59.15 1176.6 37.9 1161.15 37.9 1161.15 97.4 1176.6 97.4 1176.6 72.4 1181.25 72.4 1181.25 97.4 1196.75 97.4 1196.75 37.9
M 1246.1 37.9
L 1226.4 37.9 1213.6 76.75 1213.6 86.9 1231.25 86.9 1231.25 97.4 1246.1 97.4 1246.1 86.9 1250.3 86.9 1250.3 76.75 1246.1 76.75 1246.1 37.9
M 1231.25 76.75
L 1224.7 76.75 1231.25 51.45 1231.25 76.75 Z"/>
</g>
</g>
</g>
</g>
</g>
</svg>
