
<svg xmlns="http://www.w3.org/2000/svg" version="1.1" xmlns:xlink="http://www.w3.org/1999/xlink" preserveAspectRatio="none" x="0px" y="0px" width="1920px" height="1080px" viewBox="0 0 1920 1080">
<defs/>

<g id="Layer_2"/>

<g id="Layer_1"/>

<g id="Layer_3"/>

<g id="Layer_5"/>

<g id="Layer_4">
<g id="Layer_1" transform="matrix( 1.64923095703125, 0, 0, 1.64923095703125, 518.45,171) ">
<g>
<g>
<g>
<path fill="#666666" stroke="none" d="
M 392 195.2
Q 391.4 195.9 390.9 196.65 390.55 197.35 390.15 198.1 390.15 198.8 390.15 199.55 390.15 200.3 390.15 201 389.8 201.75 389.45 202.45 389.1 203.2 388.75 203.95 388.75 204.65 388.75 205.4 388.75 206.1 388.75 206.85 388.5 207.6 388.35 208.3 387.65 209.05 386.95 209.75 386.95 210.5 386.95 211.2 386.7 211.95 386.55 212.7 386 213.4 385.5 214.15 385.3 214.85 385.1 215.6 384.75 216.35 384.4 217.05 384.05 217.8 383.7 218.5 383.5 219.25 383.3 220 382.95 220.7 382.6 221.45 382.4 222.15 382.25 222.9 382.05 223.6 381.9 224.35 381.3 225.15 380.8 225.8 380.8 226.55 380.8 227.25 380.45 228 380.05 228.8 379.7 229.45 379.35 230.25 379 230.9 378.65 231.7 378.05 232.45 377.55 233.15 377.55 233.9 377.55 234.6 376.85 235.35 376.1 236.05 376.1 236.8 376.1 237.55 375.9 238.25 375.75 239 375.25 239.7 374.65 240.45 373.8 241.2 372.85 241.9 372.5 242.65 372.15 243.35 371.6 244.1 371.05 244.8 370.9 245 370.7 245.3 370.7 245.55 370.7 245.75 370.7 246.5 370.7 247.2 370.2 247.95 369.6 248.75 368.9 249.2 368.2 249.7 367.8 250.2 367.45 250.65 367.3 251.4 367.1 252.1 366.55 252.85 366 253.6 365.85 254.3 365.65 255.05 365.15 255.75 364.55 256.5 364.05 257.2 363.5 257.95 362.95 258.7 362.4 259.4 362.4 260.15 362.4 260.85 361.7 261.6 360.95 262.35 360.45 263.05 359.9 263.8 359.5 264.5 359.15 265.25 359.15 265.7 359.15 266.25 359.15 266.45 359.15 266.7 358.45 267.2 357.7 267.7 357.35 268.4 357 269.15 356.65 269.35 356.3 269.6 355.9 270.1 355.55 270.6 355.2 271.35 354.9 272.05 354.3 272.8 353.75 273.55 353.45 274.25 353 275 352.5 275.7 352 276.45 351.45 277.2 350.85 277.9 350.35 278.65 349.85 279.35 349.25 280.1 348.75 280.8 348.2 281.55 347.65 282.3 347.3 283 346.95 283.75 346.2 284.45 345.5 285.2 344.95 285.95 344.4 286.65 343.85 287.4 343.35 288.1 342.75 288.85 342.25 289.6 341.7 290.3 341.15 291.05 340.25 291.75 339.35 292.5 338.45 293.2 337.55 293.95 336.85 294.7 336.1 295.4 335.4 296.15 334.7 296.85 333.75 297.6 332.9 298.35 331.8 299.05 330.7 299.8 330 300.5 329.25 301.25 328.35 302 327.45 302.7 326.75 303.45 326 304.15 325.15 304.9 324.2 305.6 323.35 306.35 322.4 307.1 320.95 307.8 319.55 308.55 318.65 309.25 317.75 310 317.2 310.75 316.65 311.45 315.2 312.2 313.75 312.9 312.9 313.65 311.95 314.35 310.85 315.1 309.8 315.9 309.3 316.55 308.7 317.35 308.2 317.8 307.65 318.3 307.45 318.55 307.25 318.8 305.4 318.6 303.55 318.5 275.45 335.65 242.1 335.65 180.2 335.65 136.45 276.5 92.65 217.4 92.65 133.85 92.65 86.75 106.55 47.4 106.55 46.8 106.55 46.3 106.8 45.55 106.95 44.85 107.15 44.1 107.3 43.35 107.5 42.65 107.65 41.9 108 41.2 108.4 40.45 108.6 39.7 108.75 39 109.1 38.25 109.45 37.55 109.65 36.8 109.8 36 110.2 35.35 110.55 34.55 110.9 33.9 111.25 33.1 111.45 32.45 111.6 31.65 111.85 30.9 112 30.2 112 29.45 112 28.8 112.2 28 112.35 27.25 112.5404296875 26.8693359375 112.7 26.45 59.6712890625 10.6767578125 0 0
L 0 535.55 535.55 535.55
Q 517.8751953125 320.675390625 393.05 188.55 392.886328125 188.9505859375 392.7 189.35 392.35 190.05 392 190.8 392 191.55 392 192.25 392 193 392 193.7 392 194.45 392 195.2
M 67.2 364.1
Q 75.25 364.1 80.5 366.1 85.75 368.1 87.4 371.1 89.05 374.1 89.05 380.4
L 89.05 384.65 70.8 384.65 70.8 376.85
Q 70.8 373.45 70.25 372.55 69.65 371.75 67.65 371.75 65.4 371.75 64.8 372.75 64.2 373.8 64.2 377.2
L 64.2 398.15
Q 64.2 401.4 64.8 402.4 65.4 403.4 67.5 403.4 69.55 403.4 70.2 402.4 70.8 401.4 70.8 397.7
L 70.8 392.05 89.05 392.05 89.05 393.8
Q 89.05 400.8 87.5 403.75 85.95 406.65 80.7 408.85 75.45 411.05 67.75 411.05 59.75 411.05 54.55 409.2 49.35 407.3 47.65 404.05 45.95 400.7 45.95 394.1
L 45.95 380.95
Q 45.95 376.05 46.5 373.65 47 371.2 49.6 368.95 52.15 366.7 56.75 365.4 61.3 364.1 67.2 364.1
M 105.6 365.35
Q 110.05 364.1 116 364.1 121.6 364.1 126.1 365.3 130.6 366.45 133.3 368.85 136.05 371.2 136.55 374 137.05 376.75 137.05 383.7
L 137.05 391.45
Q 137.05 398.2 136.6 401.05 136.1 403.85 133.5 406.2 130.85 408.55 126.4 409.8 121.9 411.05 116 411.05 110.35 411.05 105.9 409.9 101.4 408.7 98.7 406.3 95.95 403.95 95.45 401.15 94.9 398.4 94.9 391.45
L 94.9 383.7
Q 94.9 376.95 95.45 374.1 95.9 371.3 98.55 368.95 101.15 366.6 105.6 365.35
M 144.45 369.2
Q 146.5 366.8 151.05 365.45 155.65 364.1 162.15 364.1 169.25 364.1 174.25 365.6 179.25 367.05 180.9 369.3 182.5 371.55 182.5 376.9
L 182.5 378.7 165.55 378.7 165.55 375.35
Q 165.55 373 164.9 372.35 164.25 371.75 162.75 371.75 161.1 371.75 160.3 372.6 159.4 373.45 159.4 375.2 159.4 377.45 160.4 378.6 161.3 379.75 165.55 381.35 177.7 386 180.85 389 184 391.95 184 398.6 184 403.4 182.25 405.7 180.5 407.95 175.5 409.5 170.45 411.05 163.8 411.05 156.5 411.05 151.35 409.25 146.15 407.5 144.55 404.75 142.95 401.95 142.95 396.9
L 142.95 393.95 159.85 393.95 159.85 399.45
Q 159.85 401.95 160.6 402.7 161.3 403.4 163.1 403.4 164.9 403.4 165.85 402.5 166.7 401.6 166.7 399.8 166.7 395.8 165 394.55 163.25 393.35 156.5 390.5 149.7 387.6 147.5 386.3 145.25 384.95 143.85 382.65 142.35 380.35 142.35 376.75 142.35 371.6 144.45 369.2
M 360.55 374.05
L 360.55 382.6 371.95 382.6 371.95 391.2 360.55 391.2 360.55 401.1 373.95 401.1 373.95 410.1 342.35 410.1 342.35 365.05 372.7 365.05 372.7 374.05 360.55 374.05
M 402 390.65
Q 401.05 389.8 397.3 389.8
L 397.3 410.1 379.1 410.1 379.1 365.05 392 365.05
Q 404.9 365.05 409.45 365.7 414 366.35 416.9 368.95 419.75 371.6 419.75 377.35 419.75 382.6 417.75 384.4 415.7 386.25 409.75 386.6 415.15 387.45 417 388.9 418.85 390.35 419.35 391.55 419.75 392.75 419.75 398.2
L 419.75 410.1 402.85 410.1 402.85 395.15
Q 402.85 391.5 402 390.65
M 197.3 374.05
L 186.5 374.05 186.5 365.05 226.35 365.05 226.35 374.05 215.5 374.05 215.5 410.1 197.3 410.1 197.3 374.05
M 230.15 391.7
L 230.15 365.05 248.35 365.05 248.35 398.85
Q 248.35 401.8 248.85 402.6 249.35 403.4 250.85 403.4 252.6 403.4 253.1 402.55 253.6 401.6 253.6 398.25
L 253.6 365.05 271.8 365.05 271.8 395.15
Q 271.8 400.3 271.3 402.35 270.75 404.4 268.2 406.6 265.65 408.8 261.5 409.95 257.3 411.05 251.65 411.05 245.35 411.05 240.55 409.7 235.75 408.35 233.35 406.25 231 404.1 230.55 401.7 230.15 399.35 230.15 391.7
M 307.2 386.1
L 311.35 365.05 335.05 365.05 335.05 410.1 319.15 410.1 319.15 379.7 312.75 410.1 301.45 410.1 294.8 380.4 294.75 410.1 278.85 410.1 278.85 365.05 302.4 365.05 307.2 386.1
M 290.75 437.4
L 314.45 437.4 314.45 482.45 298.55 482.45 298.55 452.05 292.15 482.45 280.85 482.45 274.2 452.75 274.15 482.45 258.25 482.45 258.25 437.4 281.8 437.4 286.6 458.45 290.75 437.4
M 253.85 473.45
L 253.85 482.45 224.55 482.45 224.55 437.4 242.75 437.4 242.75 473.45 253.85 473.45
M 321.7 482.45
L 321.7 437.4 352.05 437.4 352.05 446.4 339.9 446.4 339.9 454.95 351.3 454.95 351.3 463.55 339.9 463.55 339.9 473.45 353.3 473.45 353.3 482.45 321.7 482.45
M 163.85 437.4
L 194.7 437.4 194.7 446.4 182.05 446.4 182.05 454.95 193.3 454.95 193.3 463.55 182.05 463.55 182.05 482.45 163.85 482.45 163.85 437.4
M 199.05 482.45
L 199.05 437.4 217.25 437.4 217.25 482.45 199.05 482.45
M 130.15 437.4
L 148.35 437.4 148.35 473.45 159.45 473.45 159.45 482.45 130.15 482.45 130.15 437.4
M 81.5 437.4
L 99.7 437.4 99.7 471.2
Q 99.7 474.15 100.2 474.95 100.7 475.75 102.2 475.75 103.95 475.75 104.45 474.9 104.95 473.95 104.95 470.6
L 104.95 437.4 123.15 437.4 123.15 467.5
Q 123.15 472.65 122.65 474.7 122.1 476.75 119.55 478.95 117 481.15 112.85 482.3 108.65 483.4 103 483.4 96.7 483.4 91.9 482.05 87.1 480.7 84.7 478.6 82.35 476.45 81.9 474.05 81.5 471.7 81.5 464.05
L 81.5 437.4
M 46.5 437.4
L 77.35 437.4 77.35 446.4 64.7 446.4 64.7 454.95 75.95 454.95 75.95 463.55 64.7 463.55 64.7 482.45 46.5 482.45 46.5 437.4
M 414.15 482.45
L 414.15 446.4 403.35 446.4 403.35 437.4 443.2 437.4 443.2 446.4 432.35 446.4 432.35 482.45 414.15 482.45
M 383.95 437.4
L 399.15 437.4 399.15 482.45 383.2 482.45 373.7 461.95 373.7 482.45 358.5 482.45 358.5 437.4 373.7 437.4 383.95 457.7 383.95 437.4
M 401.7 373.45
Q 400.45 372.75 397.3 372.75
L 397.3 382.75
Q 400.4 382.75 401.65 382.25 402.85 381.7 402.85 378.7
L 402.85 376.25
Q 402.85 374.1 401.7 373.45
M 118.85 376.65
Q 118.85 373.5 118.35 372.6 117.75 371.75 116.1 371.75 114.65 371.75 113.9 372.45 113.15 373.15 113.15 376.65
L 113.15 397.65
Q 113.15 401.6 113.65 402.5 114.15 403.4 115.95 403.4 117.8 403.4 118.35 402.35 118.85 401.3 118.85 397.35
L 118.85 376.65 Z"/>

<path fill="#000000" stroke="none" d="
M 399.15 437.4
L 383.95 437.4 383.95 457.7 373.7 437.4 358.5 437.4 358.5 482.45 373.7 482.45 373.7 461.95 383.2 482.45 399.15 482.45 399.15 437.4
M 414.15 446.4
L 414.15 482.45 432.35 482.45 432.35 446.4 443.2 446.4 443.2 437.4 403.35 437.4 403.35 446.4 414.15 446.4
M 77.35 437.4
L 46.5 437.4 46.5 482.45 64.7 482.45 64.7 463.55 75.95 463.55 75.95 454.95 64.7 454.95 64.7 446.4 77.35 446.4 77.35 437.4
M 99.7 437.4
L 81.5 437.4 81.5 464.05
Q 81.5 471.7 81.9 474.05 82.35 476.45 84.7 478.6 87.1 480.7 91.9 482.05 96.7 483.4 103 483.4 108.65 483.4 112.85 482.3 117 481.15 119.55 478.95 122.1 476.75 122.65 474.7 123.15 472.65 123.15 467.5
L 123.15 437.4 104.95 437.4 104.95 470.6
Q 104.95 473.95 104.45 474.9 103.95 475.75 102.2 475.75 100.7 475.75 100.2 474.95 99.7 474.15 99.7 471.2
L 99.7 437.4
M 148.35 437.4
L 130.15 437.4 130.15 482.45 159.45 482.45 159.45 473.45 148.35 473.45 148.35 437.4
M 199.05 437.4
L 199.05 482.45 217.25 482.45 217.25 437.4 199.05 437.4
M 194.7 437.4
L 163.85 437.4 163.85 482.45 182.05 482.45 182.05 463.55 193.3 463.55 193.3 454.95 182.05 454.95 182.05 446.4 194.7 446.4 194.7 437.4
M 321.7 437.4
L 321.7 482.45 353.3 482.45 353.3 473.45 339.9 473.45 339.9 463.55 351.3 463.55 351.3 454.95 339.9 454.95 339.9 446.4 352.05 446.4 352.05 437.4 321.7 437.4
M 253.85 482.45
L 253.85 473.45 242.75 473.45 242.75 437.4 224.55 437.4 224.55 482.45 253.85 482.45
M 314.45 437.4
L 290.75 437.4 286.6 458.45 281.8 437.4 258.25 437.4 258.25 482.45 274.15 482.45 274.2 452.75 280.85 482.45 292.15 482.45 298.55 452.05 298.55 482.45 314.45 482.45 314.45 437.4
M 311.35 365.05
L 307.2 386.1 302.4 365.05 278.85 365.05 278.85 410.1 294.75 410.1 294.8 380.4 301.45 410.1 312.75 410.1 319.15 379.7 319.15 410.1 335.05 410.1 335.05 365.05 311.35 365.05
M 230.15 365.05
L 230.15 391.7
Q 230.15 399.35 230.55 401.7 231 404.1 233.35 406.25 235.75 408.35 240.55 409.7 245.35 411.05 251.65 411.05 257.3 411.05 261.5 409.95 265.65 408.8 268.2 406.6 270.75 404.4 271.3 402.35 271.8 400.3 271.8 395.15
L 271.8 365.05 253.6 365.05 253.6 398.25
Q 253.6 401.6 253.1 402.55 252.6 403.4 250.85 403.4 249.35 403.4 248.85 402.6 248.35 401.8 248.35 398.85
L 248.35 365.05 230.15 365.05
M 186.5 374.05
L 197.3 374.05 197.3 410.1 215.5 410.1 215.5 374.05 226.35 374.05 226.35 365.05 186.5 365.05 186.5 374.05
M 397.3 389.8
Q 401.05 389.8 402 390.65 402.85 391.5 402.85 395.15
L 402.85 410.1 419.75 410.1 419.75 398.2
Q 419.75 392.75 419.35 391.55 418.85 390.35 417 388.9 415.15 387.45 409.75 386.6 415.7 386.25 417.75 384.4 419.75 382.6 419.75 377.35 419.75 371.6 416.9 368.95 414 366.35 409.45 365.7 404.9 365.05 392 365.05
L 379.1 365.05 379.1 410.1 397.3 410.1 397.3 389.8
M 397.3 372.75
Q 400.45 372.75 401.7 373.45 402.85 374.1 402.85 376.25
L 402.85 378.7
Q 402.85 381.7 401.65 382.25 400.4 382.75 397.3 382.75
L 397.3 372.75
M 360.55 382.6
L 360.55 374.05 372.7 374.05 372.7 365.05 342.35 365.05 342.35 410.1 373.95 410.1 373.95 401.1 360.55 401.1 360.55 391.2 371.95 391.2 371.95 382.6 360.55 382.6
M 151.05 365.45
Q 146.5 366.8 144.45 369.2 142.35 371.6 142.35 376.75 142.35 380.35 143.85 382.65 145.25 384.95 147.5 386.3 149.7 387.6 156.5 390.5 163.25 393.35 165 394.55 166.7 395.8 166.7 399.8 166.7 401.6 165.85 402.5 164.9 403.4 163.1 403.4 161.3 403.4 160.6 402.7 159.85 401.95 159.85 399.45
L 159.85 393.95 142.95 393.95 142.95 396.9
Q 142.95 401.95 144.55 404.75 146.15 407.5 151.35 409.25 156.5 411.05 163.8 411.05 170.45 411.05 175.5 409.5 180.5 407.95 182.25 405.7 184 403.4 184 398.6 184 391.95 180.85 389 177.7 386 165.55 381.35 161.3 379.75 160.4 378.6 159.4 377.45 159.4 375.2 159.4 373.45 160.3 372.6 161.1 371.75 162.75 371.75 164.25 371.75 164.9 372.35 165.55 373 165.55 375.35
L 165.55 378.7 182.5 378.7 182.5 376.9
Q 182.5 371.55 180.9 369.3 179.25 367.05 174.25 365.6 169.25 364.1 162.15 364.1 155.65 364.1 151.05 365.45
M 116 364.1
Q 110.05 364.1 105.6 365.35 101.15 366.6 98.55 368.95 95.9 371.3 95.45 374.1 94.9 376.95 94.9 383.7
L 94.9 391.45
Q 94.9 398.4 95.45 401.15 95.95 403.95 98.7 406.3 101.4 408.7 105.9 409.9 110.35 411.05 116 411.05 121.9 411.05 126.4 409.8 130.85 408.55 133.5 406.2 136.1 403.85 136.6 401.05 137.05 398.2 137.05 391.45
L 137.05 383.7
Q 137.05 376.75 136.55 374 136.05 371.2 133.3 368.85 130.6 366.45 126.1 365.3 121.6 364.1 116 364.1
M 118.35 372.6
Q 118.85 373.5 118.85 376.65
L 118.85 397.35
Q 118.85 401.3 118.35 402.35 117.8 403.4 115.95 403.4 114.15 403.4 113.65 402.5 113.15 401.6 113.15 397.65
L 113.15 376.65
Q 113.15 373.15 113.9 372.45 114.65 371.75 116.1 371.75 117.75 371.75 118.35 372.6
M 80.5 366.1
Q 75.25 364.1 67.2 364.1 61.3 364.1 56.75 365.4 52.15 366.7 49.6 368.95 47 371.2 46.5 373.65 45.95 376.05 45.95 380.95
L 45.95 394.1
Q 45.95 400.7 47.65 404.05 49.35 407.3 54.55 409.2 59.75 411.05 67.75 411.05 75.45 411.05 80.7 408.85 85.95 406.65 87.5 403.75 89.05 400.8 89.05 393.8
L 89.05 392.05 70.8 392.05 70.8 397.7
Q 70.8 401.4 70.2 402.4 69.55 403.4 67.5 403.4 65.4 403.4 64.8 402.4 64.2 401.4 64.2 398.15
L 64.2 377.2
Q 64.2 373.8 64.8 372.75 65.4 371.75 67.65 371.75 69.65 371.75 70.25 372.55 70.8 373.45 70.8 376.85
L 70.8 384.65 89.05 384.65 89.05 380.4
Q 89.05 374.1 87.4 371.1 85.75 368.1 80.5 366.1
M 253.75 48.05
Q 252.6 47.5 251.35 47 244.3 47 237.15 47 237.15 47.2 237.15 47.5 236.35 47.5 235.6 47.5 235.2 47.8 234.8 48.05 234.2 48.55 233.6 49.15 232.8 49.9 232 50.7 231.4 51.5 230.85 52.3 230.45 53.15 230.05 53.9 229.6 54.7 229.25 55.5 228.85 56.3 228.45 57.15 228.3 57.9 228.05 58.7 227.9 59.5 227.65 60.3 227.65 61.15 227.65 61.9 227.65 62.7 227.65 63.5 227.65 64.3 227.65 65.15 227.65 65.9 227.65 66.7 227.65 67.5 227.65 68.3 227.65 69.15 227.65 69.9 227.575390625 70.0705078125 227.5 70.25 227.2146484375 70.8705078125 226.9 71.5 226.3 72.3 225.7 73.15 225.35 73.9 224.9 74.7 224.5 75.5 224.1 76.35 223.95 77.15 223.7 77.9 223.55 78.7 223.3 79.5 223.1 80.35 222.95 81.15 222.95 81.95 222.95 82.7 222.55 83.5 222.15 84.35 221.95 85.15 221.75 85.95 221.55 86.7 221.35 87.5 221.15 88.35 221 89.15 221 89.95 221 90.7 221 91.5 221 92.35 221 93.15 221 93.95 220.75 94.7 220.55 95.5 220.55 96.35 220.55 97.15 220.55 97.95 220.55 98.7 220.55 99.5 220.55 100.35 220.55 101.15 220.55 101.95 220.55 102.7 220.55 103.5 220.55 104.35 220.55 105.15 220.55 105.95 220.55 106.7 220.55 107.5 220.55 108.35 220.55 109.15 220.55 109.95 220.75 110.7 221 111.55 221.15 112.35 221.35 113.15 221.55 113.95 221.75 114.75 222.15 115.55 222.55 116.35 222.55 117.15 222.55 117.95 222.7 118.75 222.95 119.55 223.55 120.35 224.1 121.15 224.9 121.95 225.7 122.75 226.9 123.55 228.05 124.35 229.85 124.85 231.65 125.45 232.4 125.95 233.2 126.5 239.95 126.8 246.6 127 247.25 126.8 247.85 126.5 249.2 126.2 250.6 125.95 251.6 125.45 252.6 124.85 253.75 124.1 254.95 123.3 256.7 122.5 258.5 121.65 259.9 120.85 261.3 120.1 262.25 119.3 263.25 118.5 263.85 117.65 264.4 116.85 265 116.1 265.65 115.3 266.2 114.5 266.8 113.65 267.35 112.85 267.95 112.05 268.6 111.3 269.15 110.5 269.35 109.65 269.55 108.85 270 108.05 270.35 107.3 270.55 106.5 270.75 105.65 271.15 104.85 271.55 104.05 271.7 103.3 271.95 102.5 272.15 101.65 272.3 100.85 272.3 100.05 272.3 99.3 272.3 98.5 272.3 97.65 272.3 96.85 272.3 96.05 272.3 95.3 272.3 94.5 272.3 94.1953125 272.3 93.9 272.3 93.36328125 272.3 92.85 272.3 92.05 272.3 91.3 272.3 90.5 272.3 89.65 272.3 88.85 272.3 88.05 272.3 87.3 272.3 86.45 272.3 85.65 272.3 84.85 272.3 84.05 272.3 83.3 272.3 82.45 272.3 81.65 272.3 80.85 272.3 80.05 272.3 79.3 272.3 78.45 272.3 77.65 272.3 76.85 272.15 76.05 271.95 75.2 271.7 74.45 271.55 73.65 271.3 72.85 271.15 72.05 270.75 71.2 270.35 70.45 270.15 69.65 270 68.85 269.55 68.05 269.15 67.2 268.95 66.45 268.75 65.65 268.35 64.85 267.95 64.05 267.8 63.2 267.6 62.45 266.95 61.65 266.4 60.85 265.8 60.05 265.2 59.2 264.8 58.45 264.4 57.65 264 56.85 263.6 56.05 262.85 55.2 262.05 54.45 261.3 53.65 260.45 52.85 259.5 52.05 258.5 51.2 257.3 50.45 256.1 49.65 254.95 48.85 253.75 48.05
M 250.6 65.15
Q 251.35 65.9 252.2 66.7 253 67.5 253.75 68.3 254.3 69.15 254.95 69.9 255.95 70.7 256.95 71.5 257.5 72.3 258.1 73.15 258.5 73.9 258.9 74.7 259.3 75.5 259.65 76.35 259.9 77.15 260.05 77.9 260.45 78.7 260.9 79.5 261.05 80.35 261.3 81.15 261.65 81.95 262.05 82.7 262.25 83.5 262.45 84.35 262.85 85.15 263.25 85.95 263.45 86.7 263.6 87.5 263.6 88.239453125 263.6 88.95 263.6 89.04609375 263.6 89.15 263.45 89.95 263.25 90.7 263 91.5 262.85 92.35 262.45 93.15 262.05 93.95 261.85 94.7 261.65 95.5 261.3 96.35 260.9 97.15 260.65 97.95 260.45 98.7 259.9 99.5 259.3 100.35 258.65 101.15 258.1 101.95 257.5 102.7 256.95 103.5 256.3 104.35 255.7 105.15 255.15 105.95 254.55 106.7 253.55 107.5 252.6 108.35 251.2 109.15 249.8 109.95 248 110.7 246.25 111.55 245.05 112.35 243.9 113.15 242.65 113.95 241.5 114.75 240.5 114.75 239.55 114.75 236.15 113.95 232.8 113.15 232 112.35 231.25 111.55 230.65 110.7 230.05 109.95 229.6 109.15 229.25 108.35 228.85 107.5 228.45 106.7 228.05 105.95 227.65 105.15 227.45 104.35 227.3 103.5 227.05 102.7 226.9 101.95 226.9 101.15 226.9 100.35 226.9 99.5 226.9 98.7 226.9 97.95 226.9 97.15 226.9 96.35 226.9 95.5 226.9 94.7 226.9 93.95 227.3 93.15 227.65 92.35 227.9 91.5 228.05 90.7 228.05 89.95 228.05 89.15 228.05 88.35 228.05 87.5 228.05 86.7 228.05 85.95 228.3 85.15 228.45 84.35 228.65 83.5 228.85 82.7 229.25 81.95 229.6 81.15 229.85 80.35 230.05 79.5 230.05 78.7 230.05 77.9 230.65 77.15 231.25 76.35 231.65 75.5 232 74.7 232.4 73.9 232.8 73.15 232.8875 73.026171875 232.95 72.9 233.480078125 72.1833984375 233.95 71.5 234.35 70.7 234.8 69.9 235.75 69.15 236.75 68.3 237.55 67.5 238.3 66.7 239.15 65.9 239.95 65.15 240.7 64.3 241.5 63.5 242.3 62.7 243.05 61.9 243.3 61.65 243.5 61.35 244.65 61.65 245.85 61.9 247 62.7 248.25 63.5 249.4 64.3 250.6 65.15
M 298.4 31.5
Q 297.8 32.3 297.25 33.05 296.6 33.9 296 34.7 295.6 35.5 295.25 36.3 294.85 37.05 294.45 37.9 294.3 38.7 294.05 39.5 293.45 40.3 292.9 41.05 292.65 41.9 292.5 42.7 292.3 43.5 292.05 44.3 291.9 45.15 291.65 45.9 291.25 46.7 290.9 47.5 290.7 48.3 290.5 49.15 290.5 49.9 290.5 50.7 290.5 51.5 290.5 52.3 290.5 53.15 290.5 53.9 290.3 54.7 290.1 55.5 290.1 56.3 290.1 57.15 290.1 57.9 290.1 58.7 290.1 59.5 290.1 60.3 290.1 61.15 290.1 61.9 290.1 62.7 290.1 63.5 290.1 64.3 290.1 65.15 290.1 65.9 290.1 66.7 290.1 67.5 290.1 68.3 290.1 69.15 290.1 69.9 290.5 70.7 290.9 71.5 291.25 72.3 291.65 73.15 291.9 73.9 292.05 74.7 293.05 75.5 294.05 76.35 295.25 76.85 296.4 77.35 297 77.9 297.65 78.45 304.55 78.45 311.45 78.45 312.6 77.9 313.8 77.35 315 77.15 316.2 76.85 316.8 76.35 317.35 75.8 317.6 75 317.75 74.2 318.35 73.35 318.9 72.55 319.95 71.8 320.95 71 321.55 70.2 322.1 69.35 322.3 68.55 322.5 67.8 322.9 67 323.25 66.2 323.25 65.35 323.25 64.55 323.25 63.8 323.25 63 323.25 62.2 323.25 61.35 323.25 60.55 323.25 59.8 323.25 59 323.25 58.2 323.25 57.35 323.25 56.55 323.25 55.8 323.25 55 323.25 54.15 323.25 53.35 323.25 52.55 323.25 51.8 323.25 51 323.25 50.15 323.25 49.35 323.25 48.55 323.25 47.8 323.25 47 322.9 46.15 322.5 45.35 322.3 44.55 322.1 43.75 321.7 43 321.3 42.15 321.15 41.35 320.95 40.55 320.55 39.75 320.15 39 319.95 38.15 319.75 37.35 319.35 36.55 318.9 35.75 318.75 35 318.55 34.15 317.95 33.35 317.35 32.55 316.35 31.75 315.4 31 314.65 30.15 313.8 29.35 312.45 28.85 311.05 28.3 309.05 28.3 307.1 28.3 307.1 28.55 307.1 28.85 307.1 29.05 307.1 29.35 307.1 29.9 307.1 30.4 307.1 31.2 307.1 32 307.1 32.85 307.1 33.65 307.65 34.4 308.3 35.2 308.5 36 308.65 36.85 309.3 37.65 309.9 38.4 310.05 39.2 310.3 40.05 310.85 40.85 311.45 41.65 311.85 42.4 312.25 43.2 312.6 44.05 313 44.85 313.25 45.65 313.4 46.45 313.8 47.2 314.2 48.05 314.4 48.85 314.65 49.65 315 50.45 315.4 51.2 315.6 52.05 315.8 52.85 316.2 53.65 316.6 54.45 316.8 55.2 316.95 56.05 316.95 56.85 316.95 57.65 316.6 58.45 316.2 59.2 315.95 60.05 315.8 60.85 315.2 61.65 314.65 62.45 313.65 63.2 312.6 64.05 312 64.85 311.45 65.65 311.25 66.45 311.05 67.2 309.65 67.8 308.3 68.3 307.5 68.55 306.7 68.85 305.7 69.15 304.7 69.35 303.75 69.15 302.75 68.85 301.6 68.3 300.35 67.8 299.95 67.5 299.6 67.2 298.95 66.7 298.4 66.2 298.2 65.35 298 64.55 297.65 63.8 297.25 63 296.85 62.2 296.4 61.35 296.4 60.55 296.4 59.8 296.4 59 296.4 58.2 296.4 57.35 296.4 56.55 296.4 55.8 296.4 55 296.85 54.15 297.25 53.35 297.4 52.55 297.65 51.8 297.65 51 297.65 50.15 297.65 49.35 297.65 48.55 297.8 47.8 298 47 298.4 46.15 298.8 45.35 299.2 44.55 299.6 43.75 299.95 43 300.35 42.15 300.75 41.35 301.2 40.55 301.75 39.75 302.35 39 303 38.15 303.55 37.35 304.15 36.55 304.7 35.75 304.95 35 305.1 34.15 305.1 33.35 305.1 32.55 305.1 31.75 305.1 31 305.1 30.15 305.1 29.35 302.75 29.05 300.35 28.85 299.95 29.35 299.6 29.9 298.95 30.7 298.4 31.5
M 353.7 160.65
Q 353.7 159.85 353.7 159 352.55 158.8 351.35 158.5 351.15 158.8 350.95 159 350.35 159.6 349.75 160.1 349.2 160.95 348.6 161.7 347.65 162.5 346.6 163.3 345.85 164.1 345 164.95 344.45 165.7 343.85 166.5 343.45 167.3 343.05 168.1 342.05 168.95 341.05 169.7 340.25 170.5 339.5 171.3 338.5 172.1 337.55 172.95 336.15 173.7 334.75 174.5 333.75 175.3 332.8 176.1 331.6 176.95 330.4 177.7 329.4 178.5 328.45 179.3 327.45 180.15 326.45 180.95 325.65 181.7 324.9 182.5 323.9 183.3 322.9 184.15 321.7 184.65 320.55 185.15 320.15 185.45 319.75 185.75 318.75 186.25 317.75 186.8 316.35 187.6 315 188.4 313.65 189.15 312.25 190 311.05 190.5 309.9 191.1 308.5 191.3 307.1 191.6 305.95 192.15 304.7 192.65 303.3 193.15 301.95 193.75 301.35 194 300.75 194.3 299.95 194.5 299.2 194.8 298.4 195.1 297.65 195.3 296.85 195.6 296 195.85 295.25 196.15 294.45 196.4 293.65 196.65 292.9 196.95 292.3 197.15 291.65 197.45 290.9 197.75 290.1 198 289.3 198.3 288.55 198.5 287.7 198.8 286.95 199.1 286.35 199.3 285.75 199.6 284.95 199.85 284.2 200.15 283.6 200.4 282.95 200.65 282.2 200.95 281.4 201.2 280.8 201.45 280.25 201.75 279.45 202 278.6 202.3 277.3 202.5 275.9 202.8 274.5 203.1 273.1 203.3 272.3 203.3 271.55 203.3 270 203.1 268.35 202.8 265.2 202.5 262.05 202.3 255.7 202 249.4 201.75 247.85 201.45 246.25 201.2 243.05 200.95 239.95 200.65 238.3 200.4 236.75 200.15 235.35 199.85 233.95 199.6 232.65 199.3 231.25 199.1 229.85 198.8 228.45 198.5 227.9 198.3 227.3 198 226.5 197.75 225.7 197.45 225.1 197.15 224.5 196.95 223.7 196.65 222.95 196.4 222.3 196.15 221.75 195.85 221 195.6 220.15 195.3 219.6 195.1 218.95 194.8 217.8 194.3 216.65 193.75 215.4 192.95 214.25 192.15 213.05 191.3 211.85 190.5 210.5 189.75 209.1 188.95 207.7 188.15 206.3 187.3 205.15 186.5 204 185.75 203 184.95 201.95 184.15 200.95 183.3 200 182.5 199 181.7 198 180.95 197.05 180.15 196.05 179.3 195.05 178.5 194.05 177.7 193.3 176.95 192.5 176.1 191.5 175.3 190.55 174.5 189.7 173.7 188.95 172.95 188.35 172.1 187.75 171.3 187.15 170.5 186.6 169.7 186.2 168.95 185.8 168.1 185.2 167.3 184.6 166.5 184 165.7 183.4 164.95 183 164.1 182.65 163.3 182.25 162.5 181.85 161.7 181.25 160.95 180.7 160.1 180.25 159.3 179.85 158.5 179.3 157.7 178.65 156.95 178.3 156.1 177.9 155.3 177.5 154.5 177.1 153.7 176.7 152.95 176.35 152.1 176.1 151.3 175.9 150.5 175.5 149.7 175.1 148.85 174.7 148.1 174.3 147.3 174.1 146.5 173.95 145.7 173.55 144.85 173.15 144.1 172.95 143.3 172.75 142.5 172.35 141.7 172 140.85 171.55 140.1 171.15 139.3 170.75 138.5 170.35 137.7 170.2 136.85 170 136.1 169.8 135.3 169.6 134.5 169.35 133.7 169.2 132.85 168.95 132.1 168.8 131.3 168.6 130.5 168.4 129.7 168.2 128.85 168 128.1 167.8 127.3 167.65 126.5 167.2 125.65 166.8 124.85 166.65 124.1 166.4 123.3 166.4 122.5 166.4 121.65 166.25 120.85 166 120.1 165.85 119.3 165.65 118.5 165.45 117.65 165.25 116.85 165.25 116.1 165.25 115.3 164.85 114.5 164.45 113.65 164.25 112.85 164.05 112.05 163.85 111.3 163.65 110.5 163.45 109.65 163.3 108.85 163.3 108.05 163.3 107.3 163.3 106.5 163.3 105.65 163.3 104.85 163.3 104.05 163.3 103.3 163.3 102.5 163.3 101.65 163.3 100.85 163.45 100.05 163.65 99.3 163.85 98.5 164.05 97.65 164.25 96.85 164.45 96.05 164.45 95.3 164.45 94.5 164.45 93.65 164.45 92.85 164.45 92.05 164.45 91.3 164.45 90.5 164.45 89.65 163.45 89.55 162.45 89.45 162.45 88.75 162.45 88.05 162.45 87.3 162.45 86.45 162.45 85.65 162.45 84.85 162.45 84.05 162.45 83.3 162.45 82.45 162.45 81.65 162.45 80.85 162.45 80.05 162.45 79.3 162.45 78.45 162.45 77.65 162.45 76.85 160.5 76.55 158.55 76.35 158.55 76.55 158.55 76.85 158.55 77.35 158.55 77.9 158.55 78.7 158.55 79.5 158.55 80.35 158.55 81.15 158.55 81.95 158.55 82.7 158.55 83.5 158.55 84.35 158.55 85.15 158.55 85.95 158.55 86.7 158.55 87.5 158.3 88.35 158.1 89.15 158.1 89.95 158.1 90.7 158.1 91.5 158.1 92.35 158.1 93.15 158.1 93.95 158.1 94.7 158.1 95.5 158.1 96.35 158.1 97.15 158.1 97.65 158.1 98.2 158.1 98.5 158.1 98.7
L 158.1 99.8
Q 158.1 100.1 158.1 100.35 158.1 100.85 158.1 101.4 157.95 102.2 157.7 103 157.7 103.8 157.7 104.6 157.7 105.4 157.7 106.2 157.7 107 157.7 107.8 157.7 108.65 157.7 109.4 157.7 110.2 157.7 111 157.7 111.8 157.7 112.65 157.7 113.4 157.7 114.2 157.7 115 157.7 115.8 157.7 116.65 157.7 117.45 157.7 118.2 157.7 119 157.7 119.8 157.7 120.65 157.55 121.45 157.3 122.2 157.3 123 157.3 123.8 157.3 124.65 157.3 125.45 157.3 126.2 157.3 127 157.3 127.8 157.3 128.65 157.3 129.45 157.3 130.2 157.3 131 157.3 131.8 157.3 132.65 157.3 133.45 157.3 134.2 157.3 135 157.3 135.8 157.3 136.65 157.3 137.45 157.3 138.2 157.3 139 157.3 139.8 157.3 140.65 157.3 141.45 157.3 142.2 157.3 143 157.3 143.8 157.3 144.65 157.3 145.45 157.3 146.2 157.3 147 157.3 147.85 157.3 148.65 157.3 149.45 157.3 150.25 157.3 151 157.3 151.85 157.3 152.65 157.3 153.45 157.3 154.25 157.3 155 157.3 155.85 157.3 156.65 157.3 157.45 157.3 158.25 157.3 159 157.3 159.85 157.3 160.65 157.3 161.45 157.3 162.25 157.3 163 157.3 163.85 157.3 164.65 157.3 165.45 157.3 166.25 157.3 167 157.3 167.85 157.3 168.65 157.3 169.45 157.3 170.25 157.55 171 157.7 171.85 157.95 172.65 158.1 173.45 158.1 174.25 158.1 175 158.3 175.85 158.55 176.65 158.55 177.45 158.55 178.25 158.55 179 158.55 179.85 158.55 180.65 158.55 181.45 158.55 182.25 158.55 183.05 158.55 183.85 158.55 184.65 158.7 185.45 158.95 186.25 158.95 187.1 158.95 187.85 158.95 188.65 158.95 189.45 159.1 190.25 159.35 191.1 159.35 191.85 159.35 192.65 159.5 193.45 159.7 194.3 159.7 195.1 159.7 195.85 159.9 196.65 160.1 197.45 160.3 198.3 160.5 199.1 160.5 199.85 160.5 200.65 160.65 201.45 160.9 202.3 160.9 203.1 160.9 203.85 161.1 204.65 161.3 205.45 161.5 206.3 161.65 207.1 161.9 207.85 162.05 208.65 162.3 209.45 162.45 210.3 162.45 211.1 162.45 211.85 162.65 212.65 162.85 213.45 163.05 214.3 163.3 215.1 163.45 215.85 163.65 216.65 163.65 217.45 163.65 218.3 163.85 219.1 164.05 219.9 164.25 220.65 164.45 221.45 164.65 222.3 164.85 223.1 164.85 223.9 164.85 224.65 165 225.45 165.25 226.3 165.25 227.1 165.25 227.9 165.45 228.65 165.65 229.45 165.85 230.3 166 231.1 166.25 231.9 166.4 232.65 166.65 233.5 166.8 234.3 166.8 235.1 166.8 235.9 167 236.65 167.2 237.5 167.4 238.3 167.65 239.1 167.8 239.9 168 240.65 168.4 241.5 168.8 242.3 168.95 243.1 169.2 243.9 169.35 244.65 169.6 245.5 170 246.3 170.35 247.1 170.6 247.9 170.75 248.65 171.15 249.5 171.55 250.3 172 251.1 172.35 251.9 172.75 252.65 173.15 253.5 173.55 254.3 173.95 255.1 174.1 255.9 174.3 256.75 174.7 257.5 175.1 258.3 175.5 259.1 175.9 259.9 176.35 260.75 176.7 261.5 177.1 262.3 177.5 263.1 177.65 263.9 177.9 264.75 178.3 265.5 178.65 266.3 179.05 267.1 179.45 267.9 179.85 268.75 180.25 269.5 180.7 270.3 181 271.1 181.25 271.9 181.45 272.75 181.85 273.5 182.25 274.3 182.65 275.1 183 275.9 183.4 276.75 183.8 277.5 184.2 278.3 184.6 279.1 184.8 279.9 184.95 280.75 185.35 281.5 185.8 282.3 186.2 283.1 186.6 283.95 187 284.75 187.35 285.5 188 286.3 188.55 287.1 188.95 287.95 189.3 288.75 189.95 289.55 190.55 290.3 191.1 291.1 191.7 291.95 192.35 292.75 192.9 293.55 193.5 294.3 194.05 295.1 194.65 295.95 195.3 296.75 196.05 297.55 196.85 298.3 197.65 299.1 198.4 299.95 199.25 300.75 200 301.55 200.65 302.3 201.2 303.1 201.95 303.95 202.75 304.75 203.75 305.55 204.75 306.3 205.75 307.1 206.7 307.95 207.95 308.75 209.1 309.55 210.65 310.3 212.3 311.1 213.85 311.95 215.4 312.75 217 313.25 218.6 313.8 219.75 314.1 221 314.3 222.15 314.6 223.3 314.9 224.9 315.4 226.5 315.95 227.9 316.45 229.25 317 230.25 317.25 231.25 317.55 232.4 317.8 233.6 318.1 242.9 318.1 252.2 318.1 253.15 317.8 254.15 317.55 255.15 317.25 256.1 317 257.1 316.75 258.1 316.45 259.3 316.25 260.45 315.95 261.45 315.4 262.45 314.9 264.25 314.1 266 313.25 267.6 312.45 269.15 311.65 270.35 310.9 271.55 310.1 272.55 309.25 273.5 308.45 274.5 307.65 275.5 306.9 276.45 306.1 277.45 305.25 278.45 304.45 279.45 303.65 280.25 302.9 281 302.1 281.8 301.25 282.6 300.45 283.6 299.65 284.6 298.9 285.35 298.05 286.15 297.25 286.95 296.45 287.7 295.65 288.3 294.9 288.95 294.05 289.5 293.25 290.1 292.45 290.7 291.65 291.25 290.9 291.9 290.05 292.5 289.25 293.05 288.45 293.65 287.65 294.3 286.85 294.85 286.05 295.25 285.25 295.6 284.45 296 283.65 296.4 282.8 296.85 282.05 297.25 281.25 297.65 280.45 298 279.65 298.4 278.8 298.8 278.05 299.2 277.25 299.6 276.45 299.8 275.65 299.95 274.8 300.35 274.05 300.75 273.25 301.2 272.45 301.6 271.65 301.95 270.8 302.35 270.05 302.75 269.25 303.15 268.45 303.55 267.65 303.95 266.8 304.3 266.05 304.7 265.25 305.1 264.45 305.55 263.65 305.95 262.8 306.3 262.05 306.5 261.25 306.7 260.45 307.1 259.65 307.5 258.8 307.65 258.05 307.9 257.25 308.3 256.45 308.65 255.65 309.05 254.8 309.45 254 309.65 253.25 309.9 252.45 310.3 251.65 310.65 250.8 310.85 250 311.05 249.25 311.05 248.45 311.05 247.6 311.25 246.8 311.45 246 311.6 245.25 311.85 244.45 312 243.6 312.25 242.8 312.25 242 312.25 241.25 312.45 240.45 312.6 239.6 312.6 238.8 312.6 238 312.6 237.25 312.6 236.45 312.6 236.2 312.6 235.9 313 235.1 313.4 234.3 313.8 233.5 314.2 232.65 314.65 231.9 315 231.1 315.4 230.3 315.8 229.45 316.2 228.65 316.6 227.9 317.2 227.1 317.75 226.3 317.95 225.45 318.15 224.65 318.55 223.9 318.9 223.1 319.15 222.3 319.35 221.45 319.75 220.65 320.15 219.9 320.55 219.1 320.95 218.3 321.3 217.45 321.7 216.65 322.1 215.85 322.5 215.1 322.9 214.3 323.25 213.45 323.9 212.65 324.5 211.85 325.05 211.1 325.65 210.3 326.3 209.45 326.85 208.65 327.25 207.85 327.6 207.1 328.05 206.3 328.45 205.45 329 204.65 329.6 203.85 330 203.1 330.4 202.3 330.8 201.45 331.2 200.65 331.2 199.85 331.2 199.1 331.2 198.3 331.2 197.45 331.2 197.05 331.2 196.65 331.6 196.25 331.95 195.85 332.8 195.1 333.6 194.3 334.35 193.45 335.15 192.65 335.95 191.85 336.7 191.1 337.15 190.25 337.55 189.45 338.3 188.65 339.1 187.85 339.7 187.1 340.25 186.25 340.9 185.45 341.5 184.65 342.3 183.85 343.05 183.05 343.85 182.25 344.6 181.45 345.25 180.65 345.85 179.85 346.4 179 347 178.25 347.4 177.45 347.8 176.65 348.2 175.85 348.6 175 349.2 174.25 349.75 173.45 349.95 172.65 350.2 171.85 350.6 171 350.95 170.25 351.15 169.45 351.35 168.65 351.75 167.85 352.15 167 352.3 166.25 352.55 165.45 352.75 164.65 352.95 163.85 353.15 163 353.3 162.25 353.55 161.45 353.7 160.65
M 163.65 145.7
Q 163.65 145.4 163.65 145.15 164.05 145.95 164.45 146.8 164.45 147.55 164.45 148.35 164.65 149.15 164.85 149.95 165 150.8 165.25 151.6 165.65 152.35 166 153.15 166.25 153.95 166.4 154.8 166.8 155.6 167.2 156.35 167.4 157.15 167.65 157.95 168 158.8 168.4 159.6 168.8 160.35 169.2 161.15 169.35 162 169.6 162.8 170 163.6 170.35 164.35 170.75 165.15 171.15 166 171.35 166.8 171.55 167.6 171.75 168.35 172 169.15 172.35 170 172.75 170.8 173.3 171.6 173.95 172.35 174.3 173.15 174.7 174 175.1 174.8 175.5 175.6 176.1 176.35 176.7 177.15 177.3 178 177.9 178.8 178.3 179.6 178.65 180.35 179.3 181.15 179.85 182 180.45 182.8 181 183.6 181.65 184.4 182.25 185.15 182.65 186 183 186.8 183.65 187.6 184.2 188.4 185.2 189.15 186.2 190 187.15 190.8 188.15 191.6 189.15 192.4 190.15 193.15 191.1 194 192.1 194.8 193.1 195.6 194.05 196.4 195.05 197.15 196.05 198 197.25 198.8 198.4 199.6 199.25 200.4 200 201.2 200.8 202 201.6 202.8 202.75 203.6 204 204.4 205.15 205.2 206.3 206 207.95 206.8 209.5 207.6 210.9 208.15 212.3 208.65 212.85 208.95 213.45 209.2 214.25 209.45 215 209.75 215.65 210 216.2 210.3 217 210.5 217.8 210.8 218.35 211.1 218.95 211.3 220.35 211.6 221.75 211.85 223.1 212.15 224.5 212.45 225.9 212.65 227.3 212.95 228.85 213.2 230.45 213.45 231.8 213.75 233.2 214 233.95 214.3 234.8 214.5 235.35 214.8 236 215.1 237.55 215.3 239.15 215.6 240.7 215.85 242.3 216.15 248.65 216.45 254.95 216.65 258.1 216.95 261.3 217.2 262.85 217.45 264.4 217.75 272.55 217.75 280.65 217.75 282 217.45 283.35 217.2 284.75 216.95 286.15 216.65 287.55 216.45 288.95 216.15 289.7 215.85 290.5 215.6 291.1 215.3 291.65 215.1 292.5 214.8 293.3 214.5 293.85 214.3 294.45 214 295.25 213.75 296 213.45 296.6 213.2 297.25 212.95 298 212.65 298.8 212.45 299.6 212.15 300.35 211.85 301.2 211.6 301.95 211.3 302.55 211.1 303.15 210.8 303.95 210.5 304.7 210.3 305.55 210 306.3 209.75 307.1 209.45 307.9 209.2 308.65 208.95 309.45 208.65 310.3 208.4 311.05 208.15 311.6 207.85 312.25 207.6 312.55 207.5 312.85 207.45 312.7 207.8 312.6 208.15 312.6 208.95 312.6 209.75 312.45 210.5 312.25 211.3 312 212.15 311.85 212.95 311.45 213.75 311.05 214.5 310.65 215.3 310.3 216.15 310.05 216.95 309.9 217.75 309.45 218.5 309.05 219.35 308.9 220.15 308.65 220.95 308.5 221.75 308.3 222.55 308.1 223.35 307.9 224.15 307.65 224.95 307.5 225.75 307.1 226.55 306.7 227.35 306.5 228.15 306.3 228.95 305.95 229.75 305.55 230.6 305.4 231 305.35 231.4 305 231.75 304.7 232.15 304.3 232.95 303.95 233.75 303.75 234.6 303.55 235.35 303.15 236.15 302.75 236.95 302.35 237.75 301.95 238.6 301.75 239.35 301.6 240.15 301.35 240.95 301.2 241.75 300.95 242.6 300.75 243.35 300.35 244.15 299.95 244.95 299.6 245.75 299.2 246.6 298.95 247.35 298.8 248.15 298.65 248.95 298.4 249.75 298.4 250.6 298.4 251.35 298 252.15 297.65 252.95 296.85 253.75 296 254.6 295.45 255.4 294.85 256.15 294.45 256.95 294.05 257.75 293.45 258.6 292.9 259.4 292.5 260.15 292.05 260.95 291.5 261.75 290.9 262.6 290.3 263.4 289.7 264.15 289.3 264.95 288.95 265.8 288.55 266.6 288.15 267.4 287.7 268.15 287.3 268.95 286.95 269.8 286.55 270.6 286.15 271.4 285.75 272.15 285.35 272.95 284.95 273.8 284.35 274.6 283.8 275.4 283.2 276.15 282.6 276.95 282 277.8 281.4 278.6 280.8 279.4 280.25 280.15 279.6 280.95 279.05 281.8 278.45 282.6 277.85 283.4 277.05 284.15 276.3 284.95 275.3 285.8 274.25 286.6 273.5 287.4 272.7 288.15 271.7 288.95 270.75 289.8 270 290.6 269.15 291.4 268.35 292.2 267.6 292.95 266.4 293.8 265.2 294.6 264.25 295.4 263.25 296.2 262.25 296.95 261.3 297.8 260.05 298.6 258.9 299.4 257.1 300.2 255.3 300.95 253.55 301.8 251.75 302.6 250.2 303.1 248.65 303.65 247.65 303.95 246.6 304.2 245.6 304.45 244.65 304.75 242.65 304.75 240.7 304.75 239.7 304.45 238.7 304.2 237.75 303.95 236.75 303.65 234.35 303.4 232 303.1 230.85 302.9 229.6 302.6 228.45 302.3 227.3 302.1 225.7 301.55 224.1 300.95 222.55 300.2 221 299.4 219.35 298.6 217.8 297.8 216.65 296.95 215.4 296.2 214.45 295.4 213.45 294.6 212.45 293.8 211.45 292.95 210.65 292.2 209.9 291.4 208.5 290.6 207.1 289.8 206.3 288.95 205.55 288.15 204.75 287.4 204 286.6 203.2 285.8 202.35 284.95 201.8 284.15 201.2 283.4 200.65 282.6 200 281.8 199.4 280.95 198.85 280.15 198.25 279.4 197.65 278.6 197.25 277.8 196.85 276.95 196.3 276.15 195.65 275.4 195.3 274.6 194.9 273.8 194.5 272.95 194.05 272.15 193.65 271.4 193.3 270.6 192.9 269.8 192.5 268.95 192.1 268.15 191.7 267.4 191.5 266.6 191.3 265.8 190.95 264.95 190.55 264.15 190.15 263.4 189.7 262.6 189.3 261.75 188.95 260.95 188.55 260.15 188.15 259.4 188 258.6 187.75 257.75 187.35 256.95 187 256.15 186.6 255.4 186.2 254.6 185.8 253.75 185.35 252.95 184.95 252.15 184.6 251.35 184.4 250.6 184.2 249.75 183.8 248.95 183.4 248.15 183 247.35 182.65 246.6 182.25 245.75 181.85 244.95 181.45 244.15 181 243.35 180.85 242.6 180.7 241.75 180.25 240.95 179.85 240.15 179.45 239.35 179.05 238.6 178.65 237.75 178.3 236.95 178.05 236.15 177.9 235.35 177.65 234.6 177.5 233.75 177.1 232.95 176.7 232.15 176.5 231.35 176.35 230.6 176.1 229.75 175.9 228.95 175.7 228.15 175.5 227.35 175.35 226.55 175.1 225.75 174.95 224.95 174.7 224.15 174.55 223.35 174.3 222.55 174.1 221.75 173.95 220.95 173.7 220.15 173.55 219.35 173.55 218.5 173.55 217.75 173.3 216.95 173.15 216.15 172.95 215.3 172.75 214.5 172.75 213.75 172.75 212.95 172.55 212.15 172.35 211.3 172.15 210.5 172 209.75 171.75 208.95 171.55 208.15 171.35 207.3 171.15 206.5 170.75 205.75 170.35 204.95 170.2 204.15 170 203.3 169.8 202.5 169.6 201.75 169.35 200.95 169.2 200.15 169.2 199.3 169.2 198.5 168.95 197.75 168.8 196.95 168.6 196.15 168.4 195.3 168.2 194.5 168 193.75 168 192.95 168 192.15 167.8 191.3 167.65 190.5 167.4 189.75 167.2 188.95 167.2 188.15 167.2 187.3 167 186.5 166.8 185.75 166.8 184.95 166.8 184.15 166.65 183.3 166.4 182.5 166.25 181.7 166 180.95 166 180.15 166 179.3 166 178.5 166 177.7 166 176.95 166 176.1 165.85 175.3 165.65 174.5 165.65 173.7 165.65 172.95 165.65 172.1 165.65 171.3 165.65 170.5 165.65 169.7 165.65 168.95 165.65 168.1 165.65 167.3 165.65 166.5 165.45 165.7 165.25 164.95 165.25 164.1 165.25 163.3 165 162.5 164.85 161.7 164.65 160.95 164.45 160.1 164.25 159.3 164.05 158.5 163.85 157.7 163.65 156.95 163.65 156.1 163.65 155.3 163.65 154.5 163.65 153.7 163.65 152.95 163.65 152.1 163.65 151.3 163.65 150.5 163.65 149.7 163.65 148.85 163.65 148.1 163.65 147.3 163.65 146.5 163.65 145.7
M 217.4 -16
Q 216.4 -15.2 215.4 -14.45 214.85 -13.6 214.25 -12.8 213.6 -12 213.05 -11.2 212.45 -10.45 211.85 -9.6 211.3 -8.8 210.65 -8 210.1 -7.2 209.5 -6.4 208.9 -5.6 208.35 -4.8 207.95 -4 207.55 -3.2 207.1 -2.4 206.7 -1.6 206.55 -0.8 206.3 0 206.15 0.8 205.95 1.6 205.75 2.4 205.55 3.2 205.15 4 204.75 4.85 204.55 5.6 204.35 6.4 204 7.2 203.6 8 203.2 8.85 202.75 9.65 202.35 10.4 201.95 11.2 201.8 12 201.6 12.85 201.4 13.65 201.2 14.4 200.8 15.2 200.4 16 200.2 16.85 200 17.65 200 18.4 200 19.2 199.8 20 199.65 20.85 199.65 21.65 199.65 22.4 199.65 23.2 199.65 24 199.4 24.85 199.25 25.65 199 26.4 198.85 27.2 198.4 28 198 28.85 197.65 29.65 197.25 30.4 197.05 31.2 196.85 32 196.6 32.85 196.45 33.65 196.3 34.4 196.05 35.2 195.85 36 195.65 36.85 195.45 37.65 195.3 38.4 195.3 39.2 195.3 40.05 195.3 40.85 195.3 41.65 195.3 42.4 195.3 43.2 195.3 44.05 195.3 44.85 195.3 45.65 195.3 46.45 198.4 46.7 201.6 47 201.8 46.45 201.95 45.9 201.95 45.15 201.95 44.3 202.2 43.5 202.35 42.7 202.75 41.9 203.2 41.05 204 40.3 204.75 39.5 205.15 38.7 205.55 37.9 205.75 37.05 205.95 36.3 206.3 35.5 206.7 34.7 206.7 33.9 206.7 33.05 206.7 32.3 206.7 31.5 206.7 30.7 206.7 29.9 206.95 29.05 207.1 28.3 207.1 27.5 207.1 26.7 207.55 25.9 207.95 25.05 208.5 24.3 209.1 23.5 209.5 22.7 209.9 21.85 210.3 21.05 210.65 20.3 211.05 19.5 211.45 18.7 211.85 17.85 212.3 17.05 212.45 16.3 212.65 15.5 213.05 14.7 213.45 13.85 213.6 13.05 213.85 12.3 214 11.5 214.25 10.7 214.45 9.85 214.65 9.05 215 8.25 215.4 7.5 215.8 6.7 216.2 5.85 216.8 5.05 217.4 4.25 217.95 3.5 218.6 2.7 219.2 1.85 219.75 1.05 220.35 0.25 221 -0.5 221.55 -1.3 222.15 -2.15 222.7 -2.95 223.3 -3.75 224.3 -4.5 225.35 -5.3 226.65 -6.15 228.05 -6.95 229.45 -7.75 230.85 -8.5 232.25 -9.3 233.6 -10.15 235.35 -10.65 237.15 -11.2 240.1 -11.2 243.05 -11.2 246.25 -11.2 249.4 -11.2 249.4 -11.75 249.4 -12.3 249.4 -13.1 249.4 -13.85 249.4 -14.65 249.4 -15.45 249.2 -16.3 249 -17.1 248.65 -17.85 248.25 -18.65 247.65 -19.45 247 -20.3 246.05 -21.1 245.05 -21.85 237.75 -22.15 230.45 -22.45 230.45 -22.15 230.45 -21.85 229.25 -21.85 228.05 -21.85 226.9 -21.35 225.7 -20.8 224.3 -20 222.95 -19.2 221.55 -18.45 220.15 -17.6 218.8 -16.8 217.4 -16
M 155.95 -43.75
Q 155.2 -43 154.5 -42.3 153.25 -41.55 151.95 -40.8 150.95 -40.1 149.85 -39.35 149.3 -38.65 148.75 -37.9 148.2 -37.15 147.7 -36.45 147.1 -35.7 146.6 -35 146.05 -34.25 145.55 -33.55 144.6 -32.8 143.7 -32.05 142.8 -31.35 141.9 -30.6 141.35 -29.9 140.85 -29.15 140.25 -28.4 139.75 -27.7 139.2 -26.95 138.65 -26.25 138.1 -25.5 137.6 -24.75 137 -24.05 136.5 -23.3 135.95 -22.6 135.45 -21.85 134.85 -21.15 134.35 -20.4 134 -19.65 133.6 -18.95 132.9 -18.2 132.2 -17.5 131.6 -16.75 131.1 -16 130.55 -15.3 130 -14.55 129.8 -13.85 129.65 -13.1 129.45 -12.35 129.3 -11.65 128.8 -10.9 128.2 -10.2 128 -9.45 127.85 -8.75 127.35 -8 126.75 -7.25 126.25 -6.55 125.7 -5.8 125.55 -5.1 125.35 -4.35 125.1 -3.6 124.95 -2.9 124.45 -2.15 123.9 -1.45 123.35 -0.7 122.8 0.05 122.3 0.75 121.7 1.5 121.55 2.2 121.35 2.95 121 3.65 120.65 4.4 120.3 5.15 119.9 5.85 119.55 6.6 119.2 7.3 119.05 8.05 118.85 8.85 118.5 9.5 118.1 10.3 117.75 10.95 117.4 11.75 117.4 12.5 117.4 13.2 117.4 13.95 117.4 14.65 117.4 15.4 117.4 16.1
L 117.4 16.15
Q 117.05 16.6 116.65 17.05 116.3 17.8 115.95 18.5 115.6 19.25 115.25 20 114.85 20.7 114.5 21.45 114.35 22.15 114.15 22.9 114 23.65 113.8 24.35 113.45 25.1 113.05 25.8 112.8904296875 26.1421875 112.7 26.45 112.5404296875 26.8693359375 112.35 27.25 112.2 28 112 28.8 112 29.45 112 30.2 111.85 30.9 111.6 31.65 111.45 32.45 111.25 33.1 110.9 33.9 110.55 34.55 110.2 35.35 109.8 36 109.65 36.8 109.45 37.55 109.1 38.25 108.75 39 108.6 39.7 108.4 40.45 108 41.2 107.65 41.9 107.5 42.65 107.3 43.35 107.15 44.1 106.95 44.85 106.8 45.55 106.55 46.3 106.55 46.8 106.55 47.4 106.55 47.55 106.55 47.75 106.55 48.45 106.55 49.2 106.55 49.95 106.55 50.65 106.4 51.4 106.2 52.1 106.05 52.85 105.85 53.6 105.85 54.3 105.85 55.05 105.7 55.75 105.5 56.5 105.5 57.25 105.5 57.95 105.5 58.7 105.5 59.4 105.35 60.15 105.2 60.85 104.95 61.6 104.75 62.35 104.6 63.05 104.4 63.8 104.05 64.5 103.75 65.25 103.75 66 103.75 66.7 103.55 67.45 103.4 68.15 103.4 68.9 103.4 69.65 103.15 70.35 102.95 71.1 102.8 71.8 102.6 72.55 102.6 73.25 102.6 74 102.45 74.75 102.3 75.45 102.3 76.2 102.3 76.9 102.3 77.65 102.3 78.4 102.1 79.1 101.95 79.85 101.95 80.55 101.95 81.3 101.75 82.05 101.5 82.75 101.5 83.5 101.5 84.2 101.35 84.95 101.15 85.65 101.15 86.4 101.15 87.15 101.15 87.85 101.15 88.6 101.15 89.3 101.15 90.05 101.15 90.8 101.15 91.5 101.15 92.25 101.15 92.95 104.05 92.95 106.95 92.95 107.15 92.25 107.3 91.5 107.5 90.8 107.65 90.05 107.85 89.3 108 88.6 108.2 87.85 108.4 87.15 108.6 86.4 108.75 85.65 109.1 84.95 109.45 84.2 109.65 83.5 109.8 82.75 110 82.05 110.2 81.3 110.4 80.55 110.55 79.85 110.75 79.1 110.9 78.4 111.25 77.65 111.6 76.9 111.85 76.2 112 75.45 112.2 74.75 112.35 74 112.55 73.25 112.7 72.55 112.9 71.8 113.05 71.1 113.25 70.35 113.45 69.65 113.65 68.9 113.8 68.15 114.15 67.45 114.5 66.7 114.7 66 114.85 65.25 115.05 64.5 115.25 63.8 115.45 63.05 115.6 62.35 115.95 61.6 116.3 60.85 116.5 60.15 116.65 59.4 116.9 58.7 117.05 57.95 117.4 57.25 117.75 56.5 118.1 55.75 118.5 55.05 118.7 54.3 118.85 53.6 119.2 52.85 119.55 52.1 119.75 51.4 119.9 50.65 120.3 49.95 120.65 49.2 120.85 48.45 121 47.75 121.2 47 121.35 46.3 121.7 45.55 122.1 44.85 122.3 44.1 122.45 43.35 122.8 42.65 123.15 41.9 123.35 41.2 123.5 40.45 123.9 39.7 124.25 39 124.45 38.25 124.6 37.55 124.95 36.8 125.35 36 125.55 35.35 125.7 34.55 126.05 33.9 126.4 33.1 126.55 32.45 126.75 31.65 126.95625 31.26328125 127.15 30.9 127.33046875 30.5390625 127.5 30.2 127.7 29.45 127.85 28.8 128.2 28 128.55 27.25 128.8 26.55 128.95 25.8 129.3 25.1 129.65 24.35 130 23.65 130.4 22.9 130.75 22.15 131.1 21.45 131.45 20.7 131.8 20 132.2 19.25 132.55 18.5 132.9 17.8 133.25 17.05 133.6 16.35 134 15.6 134.35 14.85 134.7 14.15 135.05 13.4 135.45 12.7 135.6 11.95 135.8 11.25 136.15 10.5 136.5 9.75 136.85 9.05 137.25 8.3 137.6 7.6 137.95 6.85 138.3 6.4 138.65 5.85 139.2 5.15 139.75 4.4 140.25 3.65 140.85 2.95 141.35 2.2 141.9 1.5 142.45 0.75 143 0.05 143.35 -0.7 143.7 -1.45 144.25 -2.15 144.8 -2.9 145.3 -3.6 145.9 -4.35 146.25 -5.1 146.6 -5.8 146.95 -6.55 147.35 -7.25 147.85 -8 148.4 -8.75 148.75 -9.45 149.15 -10.2 149.65 -10.9 150.15 -11.65 150.75 -12.35 151.3 -13.1 151.8 -13.85 152.4 -14.55 152.9 -15.3 153.4 -16 154.2 -16.75 154.85 -17.5 155.55 -18.2 156.3 -18.95 157 -19.65 157.75 -20.4 158.45 -21.15 159.2 -21.85 160.1 -22.6 161 -23.3 161.7 -24.05 162.45 -24.75 163.15 -25.5 163.85 -26.25 164.45 -26.95 164.95 -27.7 165.5 -28.4 166.05 -29.15 166.75 -29.9 167.5 -30.6 168.05 -31.35 168.55 -32.05 169.3 -32.8 170 -33.55 170.95 -34.25 171.8 -35 172.2 -35.4 172.65 -35.8 173.5 -35.65 174.35 -35.5 179 -35.7 183.7 -35.95 184.45 -36.25 185.15 -36.45 186.05 -36.7 186.95 -36.95 187.85 -37.15 188.75 -37.45 189.1 -37.7 189.5 -37.9 190.2 -38.4 190.9 -38.9 192.15 -39.35 193.45 -39.9 193.8 -40.1 194.15 -40.35 194.9 -40.8 195.6 -41.35 197.05 -42.05 198.5 -42.8 199.6 -43.25 200.65 -43.75 201.4 -44 202.05 -44.25 203 -44.45 203.85 -44.75 204.65 -45 205.3 -45.2 206.2 -45.45 207.1 -45.7 208.5 -45.85 209.85 -46.05 210.5 -46.1 211.05 -46.2 211.8 -46.45 212.5 -46.65 213.25 -46.9 213.95 -47.15 214.65 -47.4 215.4 -47.65 216.5 -48.1 217.55 -48.65 218.85 -49.1 220.1 -49.55 221 -49.85 221.9 -50.1 222.8 -50.3 223.7 -50.55 224.4 -50.8 225.15 -51.1 225.85 -51.3 226.6 -51.55 227.3 -51.75 228 -52 228.75 -52.3 229.45 -52.5 230.2 -52.75 230.9 -53 231.65 -53.2 232.35 -53.5 233.05 -53.75 233.8 -53.95 234.65 -54.2 235.6 -54.45 236.3 -54.75 237.05 -54.95 237.9 -55.2 238.85 -55.4 239.7 -55.65 240.65 -55.95 241.5 -56.2 242.45 -56.4 243.15 -56.65 243.9 -56.85 244.6 -57.1 245.35 -57.4 246.75 -57.65 248.2 -57.85 249.1 -57.85 250.1 -57.9 250.4 -57.65 250.75 -57.4 252 -56.65 253.2 -55.95 254.15 -55.2 255 -54.45 256.45 -53.75 257.9 -53 259.2 -52.5 260.45 -52 260.65 -51.75 260.8 -51.55 261.35 -51.1 261.85 -50.55 263.15 -49.85 264.4 -49.1 265.85 -48.35 267.3 -47.65 268.55 -46.9 269.8 -46.2 271.6 -45.45 273.4 -44.75 274.85 -44.25 276.3 -43.75 277.6 -43.25 278.8 -42.8 280.05 -42.3 281.35 -41.8 282.05 -41.35 282.8 -40.8 283.85 -40.1 284.95 -39.35 286.2 -38.65 287.5 -37.9 288.7 -37.15 290 -36.45 291.45 -35.7 292.9 -35 293.95 -34.25 295.05 -33.55 296.15 -32.8 297.2 -32.05 298.1 -31.35 298.95 -30.6 299.9 -29.9 300.85 -29.15 301.7 -28.4 302.65 -27.7 303.65 -26.95 304.75 -26.25 305.65 -25.5 306.55 -24.75 307.65 -24.05 308.7 -23.3 309.8 -22.6 310.85 -21.85 311.95 -21.15 313.05 -20.4 314.1 -19.65 315.2 -18.95 316.3 -18.2 317.35 -17.5 318.45 -16.75 319.55 -16 320.45 -15.3 321.35 -14.55 322.25 -13.85 323.15 -13.1 324.05 -12.35 324.95 -11.65 325.65 -10.9 326.4 -10.2 327.1 -9.45 327.85 -8.75 328.55 -8 329.25 -7.25 329.8 -6.55 330.35 -5.8 330.85 -5.1 331.45 -4.35 331.95 -3.6 332.5 -2.9 333.25 -2.15 333.95 -1.45 335.05 -0.7 336.1 0.05 337 0.75 337.95 1.5 338.65 2.2 339.35 2.95 340.1 3.65 340.8 4.4 341.35 5.15 341.9 5.85 342.4 6.6 342.95 7.3 343.5 8.05 344.05 8.85 344.55 9.5 345.15 10.3 345.65 10.95 346.2 11.75 346.75 12.5 347.3 13.2 347.8 13.95 348.4 14.65 348.9 15.4 349.4 16.1 350 16.85 350.55 17.6 351.2 18.3 352 19.05 352.3 19.75 352.65 20.5 353.25 21.25 353.75 21.95 354.3 22.7 354.9 23.4 355.4 24.15 355.9 24.85 356.45 25.6 357 26.35 357.55 27.05 358.05 27.8 358.65 28.5 359.15 29.25 359.5 30 359.9 30.7 360.25 31.45 360.6 32.15 360.95 32.9 361.3 33.65 361.7 34.35 362.05 35.1 362.4 35.8 362.75 36.55 363.1 37.25 363.5 38 363.85 38.75 364.2 39.45 364.55 40.2 364.95 40.9 365.3 41.65 365.65 42.4 366 43.1 366.35 43.85 366.75 44.55 367.1 45.3 367.45 46.05 367.8 46.75 368.4 47.5 368.9 48.2 369.45 48.95 370 49.65 370.35 50.4 370.7 51.15 370.9 51.85 371.05 52.6 371.25 53.3 371.4 54.05 371.6 54.8 371.8 55.5 372.15 56.25 372.5 56.95 372.7 57.7 372.85 58.45 373.2 59.15 373.6 59.9 373.95 60.6 374.3 61.35 374.65 62.05 375 62.8 375.4 63.55 375.75 64.25 375.9 65 376.1 65.7 376.45 66.45 376.85 67.2 377.35 67.9 377.9 68.65 378.25 69.35 378.65 70.1 378.8 70.8 379 71.55 379.35 72.3 379.7 73 380.05 73.75 380.45 74.45 380.8 75.2 381.15 76 381.5 76.65 381.9 77.45 382.05 78.1 382.25 78.9 382.6 79.65 382.95 80.35 383.1 81.1 383.3 81.8 383.7 82.55 384.05 83.25 384.05 84 384.05 84.75 384.05 85.45 384.05 86.2 384.2 86.9 384.4 87.65 384.55 88.4 384.75 89.1 384.9 89.85 385.1 90.55 385.65 91.3 386.2 92.05 386.55 92.75 386.95 93.5 387.1 94.2 387.3 94.95 387.3 95.65 387.3 96.4 387.3 97.15 387.3 97.85 387.45 98.6 387.65 99.3 387.8 100.05 388 100.8 388.35 101.5 388.75 102.25 388.75 102.95 388.75 103.7 388.9 104.45 389.1 105.15 389.1 105.6 389.1 106.15 389.1 106.85 389.1 107.6 389.6 108.35 390.15 109.05 390.35 109.8 390.55 110.5
L 390.55 111
Q 390.55 111.45 390.55 112
L 390.55 112.45
Q 390.55 112.95 390.55 113.45
L 390.55 113.9
Q 390.55 114.4 390.55 114.9
L 390.55 115.35
Q 390.55 115.85 390.55 116.35 390.55 116.65 390.55 116.85 390.55 117.3 390.55 117.8 390.55 118.55 390.55 119.25 390.55 120 390.55 120.75 390.15 121.45 389.8 122.2 389.6 122.9 389.45 123.65 389.45 124.4 389.45 125.1 389.45 125.85 389.45 126.55 389.45 127.3 389.45 128.05 389.45 128.75 389.45 129.5 389.45 130.2 389.45 130.95 389.25 131.65 389.1 132.4 388.75 133.15 388.35 133.85 388.15 134.6 388 135.3 388 136.05 388 136.8 388 137.5 388 138.25 388 138.95 388 139.7 388 140.4 388 141.15 387.8 141.9 387.65 142.6 387.1 143.35 386.55 144.05 386.55 144.8 386.55 145.55 386.55 146.25 386.55 147 386.55 147.7 386.55 148.45 386.35 149.2 386.2 149.9 385.85 150.65 385.5 151.35 385.3 152.1 385.1 152.8 385.1 153.55 385.1 154.3 385.1 155 385.1 155.75 385.1 156.45 385.1 157.2 385.1 157.95 385.1 158.65 385.1 159.4 385.1 160.1 384.9 160.85 384.75 161.65 384.4 162.3 384.05 163.1 384.05 163.75 384.05 164.55 384.05 165.2 384.05 166 384.05 166.75 384.05 167.45 384.05 168.2 384.05 168.9 383.3 169.65 382.6 170.4 382.6 171.1 382.6 171.85 382.6 172.55 382.6 173.3 382.25 174.05 381.9 174.75 381.5 175.5 381.15 176.2 381.15 176.2861328125 381.15 176.35 381.15 177.0302734375 381.15 177.65 381.15 178.4 381.15 179.15 381.15 179.85 381.15 180.6 381.15 181.3 381.15 182.05 380.8 182.8 380.45 183.5 380.25 184.25 380.05 184.95 380.05 185.7 380.05 186.45 379.85 187.15 379.7 187.9 379.35 188.6 379 189.35 378.8 190.05 378.65 190.8 378.65 191.55 378.65 192.25 378.65 193 378.65 193.7 378.65 194.45 378.65 195.2 378.05 195.9 377.55 196.65 377.55 197.35 377.55 198.1 377.55 198.8 377.55 199.55 377.2 200.3 376.85 201 376.6 201.75 376.45 202.45 376.45 203.2 376.45 203.95 376.1 204.65 375.75 205.4 375.4 206.1 375 206.85 374.8 207.6 374.65 208.3 374.3 209.05 373.95 209.75 373.8 210.5 373.6 211.2 373.45 211.95 373.2 212.7 372.7 213.4 372.15 214.15 372.15 214.85 372.15 215.6 371.8 216.35 371.4 217.05 371.05 217.8 370.7 218.5 370.7 219.25 370.7 220 370.6 220.5 370.45 220.95 370.25 221.4 370 221.95 369.6 222.7 369.25 223.4 369.1 223.6 368.95 223.85
L 368.85 223.95
Q 368.5 224.45 368.15 224.85 367.8 225.6 367.45 226.35 367.1 227.05 366.75 227.8 366.2 228.5 365.65 229.25 365.3 230 364.95 230.7 364.2 231.45 363.5 232.15 362.75 232.9 362.05 233.6 361.5 234.35 360.95 235.1 360.45 235.8 359.9 236.55 359.5 237.25 359.15 238 358.65 238.75 358.05 239.45 357.7 240.2 357.35 240.9 356.85 241.65 356.25 242.4 355.75 243.1 355.2 243.85 354.9 244.55 354.45 245.3 354.1 246 353.75 246.75 353.45 247.5 353 248.2 352.65 248.95 352.3 249.65 352.05 250.25 351.8 250.85 351.1 251.5 350.55 252.1 350 252.85 349.4 253.6 348.9 254.3 348.4 255.05 347.8 255.75 347.3 256.5 346.75 257.2 346.2 257.95 345.5 258.7 344.8 259.4 344.4 260.15 344.05 260.85 343.35 261.6 342.6 262.35 341.9 263.05 341.15 263.8 340.6 264.5 340.1 265.25 339.75 266 339.35 266.7 339 267.45 338.65 268.15 338.3 268.9 337.95 269.6 337.55 270.35 337.2 271.1 336.85 271.8 336.5 272.55 336.3 273.25 336.1 274 336.05 274.35 335.9 274.7 335.5 275.35 335.05 276 334.45 276.7 333.95 277.45 333.4 278.15 332.9 278.9 332.3 279.6 331.8 280.35 331.45 281.1 331.05 281.8 330.35 282.55 329.65 283.25 328.9 284 328.2 284.75 327.45 285.45 326.75 286.2 325.8 286.9 324.95 287.65 323.85 288.4 322.8 289.1 322.05 289.85 321.35 290.55 320.45 291.3 319.55 292 319 292.75 318.45 293.5 318.1 294.2 317.75 294.95 317.2 295.65 316.65 296.4 315.55 297.15 314.5 297.85 313.75 298.6 313.05 299.3 312.3 300.05 311.6 300.8 311.1 301.5 310.5 302.25 310 302.95 309.45 303.7 308.7 304.4 308 305.15 307.1 305.9 306.2 306.6 305.65 307.35 305.1 308.05 304.75 308.8 304.4 309.55 303.65 310.25 303 311 302.4 311.7 301.85 312.45 301.85 313.2 301.85 313.9 301.85 314.65 301.85 315.35 301.85 316.1 301.85 316.8 301.85 317.55 301.85 318.3 302.7 318.35 303.55 318.5 305.4 318.6 307.25 318.8 307.45 318.55 307.65 318.3 308.2 317.8 308.7 317.35 309.3 316.55 309.8 315.9 310.85 315.1 311.95 314.35 312.9 313.65 313.75 312.9 315.2 312.2 316.65 311.45 317.2 310.75 317.75 310 318.65 309.25 319.55 308.55 320.95 307.8 322.4 307.1 323.35 306.35 324.2 305.6 325.15 304.9 326 304.15 326.75 303.45 327.45 302.7 328.35 302 329.25 301.25 330 300.5 330.7 299.8 331.8 299.05 332.9 298.35 333.75 297.6 334.7 296.85 335.4 296.15 336.1 295.4 336.85 294.7 337.55 293.95 338.45 293.2 339.35 292.5 340.25 291.75 341.15 291.05 341.7 290.3 342.25 289.6 342.75 288.85 343.35 288.1 343.85 287.4 344.4 286.65 344.95 285.95 345.5 285.2 346.2 284.45 346.95 283.75 347.3 283 347.65 282.3 348.2 281.55 348.75 280.8 349.25 280.1 349.85 279.35 350.35 278.65 350.85 277.9 351.45 277.2 352 276.45 352.5 275.7 353 275 353.45 274.25 353.75 273.55 354.3 272.8 354.9 272.05 355.2 271.35 355.55 270.6 355.9 270.1 356.3 269.6 356.65 269.35 357 269.15 357.35 268.4 357.7 267.7 358.45 267.2 359.15 266.7 359.15 266.45 359.15 266.25 359.15 265.7 359.15 265.25 359.5 264.5 359.9 263.8 360.45 263.05 360.95 262.35 361.7 261.6 362.4 260.85 362.4 260.15 362.4 259.4 362.95 258.7 363.5 257.95 364.05 257.2 364.55 256.5 365.15 255.75 365.65 255.05 365.85 254.3 366 253.6 366.55 252.85 367.1 252.1 367.3 251.4 367.45 250.65 367.8 250.2 368.2 249.7 368.9 249.2 369.6 248.75 370.2 247.95 370.7 247.2 370.7 246.5 370.7 245.75 370.7 245.55 370.7 245.3 370.9 245 371.05 244.8 371.6 244.1 372.15 243.35 372.5 242.65 372.85 241.9 373.8 241.2 374.65 240.45 375.25 239.7 375.75 239 375.9 238.25 376.1 237.55 376.1 236.8 376.1 236.05 376.85 235.35 377.55 234.6 377.55 233.9 377.55 233.15 378.05 232.45 378.65 231.7 379 230.9 379.35 230.25 379.7 229.45 380.05 228.8 380.45 228 380.8 227.25 380.8 226.55 380.8 225.8 381.3 225.15 381.9 224.35 382.05 223.6 382.25 222.9 382.4 222.15 382.6 221.45 382.95 220.7 383.3 220 383.5 219.25 383.7 218.5 384.05 217.8 384.4 217.05 384.75 216.35 385.1 215.6 385.3 214.85 385.5 214.15 386 213.4 386.55 212.7 386.7 211.95 386.95 211.2 386.95 210.5 386.95 209.75 387.65 209.05 388.35 208.3 388.5 207.6 388.75 206.85 388.75 206.1 388.75 205.4 388.75 204.65 388.75 203.95 389.1 203.2 389.45 202.45 389.8 201.75 390.15 201 390.15 200.3 390.15 199.55 390.15 198.8 390.15 198.1 390.55 197.35 390.9 196.65 391.4 195.9 392 195.2 392 194.45 392 193.7 392 193 392 192.25 392 191.55 392 190.8 392.35 190.05 392.7 189.35 392.886328125 188.9505859375 393.05 188.55 393.236328125 188.2271484375 393.4 187.9 393.4 187.15 393.4 186.45 393.55 185.7 393.8 184.95 394.3 184.25 394.85 183.5 394.85 182.8 394.85 182.05 394.85 181.3 394.85 180.6 394.85 179.85 394.85 179.15 394.85 178.4 394.85 177.65 395.75 177.15 396.65 176.7 396.65 176.4 396.65 176.2 396.65 175.7 396.65 175.2 396.65 174.5 396.65 173.75 396.65 173.05 396.65 172.3 396.65 171.6 396.65 170.85 396.65 170.1 396.65 169.4 396.65 168.65 396.65 167.95 397.05 167.2 397.4 166.45 397.75 165.75 398.1 165 398.1 164.3 398.1 163.55 398.1 162.85 398.1 162.1 398.1 161.35 398.1 160.65 398.25 159.9 398.4 159.2 398.85 158.45 399.2 157.7 399.35 157 399.55 156.25 399.55 155.55 399.55 154.8 399.55 154.05 399.55 153.35 399.55 152.6 399.55 151.9 399.55 151.15 399.55 150.45 399.85 149.7 400.2 148.95 400.65 148.25 401 147.5 401 146.8 401 146.05 401 145.25 401 144.6 401 143.8 401 143.15 401 142.4 401 141.6 401 140.95 401 140.15 401 139.5 401 138.7 401.3 138.05 401.65 137.25 402.1 136.5 402.45 135.8 402.45 135.05 402.45 134.35 402.45 133.6 402.45 132.85 402.45 132.15 402.45 131.4 402.45 130.7 402.45 129.95 402.45 129.2 402.45 128.5 402.45 127.75 402.45 127.05 402.45 126.3 402.45 125.6 402.6 124.85 402.75 124.1 402.75 123.4 402.75 122.65 402.75 121.95 402.75 121.2 402.75 120.45 402.75 119.75 402.75 119 402.75 118.3 402.75 117.55 402.75 116.85 402.75 116.1 402.75 115.35 402.75 114.65 402.75 113.9 402.75 113.2 402.75 112.45 402.75 111.7 402.75 111 402.75 110.25 402.75 109.55 402.75 108.8 402.75 108.05 402.75 107.35 402.75 106.6 402.75 105.9 402.75 105.15 402.75 104.45 402.75 103.7 402.75 102.95 402.75 102.25 402.75 101.5 402.75 100.8 402.75 100.05 402.75 99.3 402.75 98.6 402.75 97.85 402.75 97.15 402.75 96.4 402.75 95.65 402.75 94.95 402.75 94.2 402.75 93.5 402.45 92.75 402.1 92.05 401.65 91.3 401.3 90.55 401.3 89.85 401.3 89.1 401.3 88.4 401.3 87.65 401.3 86.9 401.3 86.2 401.3 85.45 401.3 84.75 401.3 84 401.3 83.25 401.3 82.55 401.3 81.8 401 81.1 400.65 80.35 400.45 79.65 400.2 78.9 400.2 78.1 400.2 77.45 400.2 76.65 400.2 76 400.2 75.2 400.2 74.45 400.2 73.75 400.2 73 400.2 72.3 400.2 71.55 400.2 70.8 400.2 70.1 400.2 69.35 400.2 68.65 400.2 67.9 400.2 67.2 400.2 66.45 400.2 65.7 399.85 65 399.55 64.25 399.2 63.55 398.85 62.8 398.85 62.05 398.85 61.35 398.85 60.6 398.85 59.9 398.85 59.15 398.85 58.45 398.6 57.7 398.4 56.95 398.4 56.25 398.4 55.5 398.25 54.8 398.1 54.05 397.9 53.3 397.75 52.6 397.55 51.85 397.4 51.15 397.4 50.4 397.4 49.65 397.4 48.95 397.4 48.2 397.4 47.5 397.4 46.75 396.8 46.05 396.3 45.3 396.1 44.55 395.95 43.85 395.95 43.1 395.95 42.4 395.6 41.65 395.2 40.9 394.85 40.2 394.5 39.45 394.3 38.75 394.15 38 393.8 37.25 393.4 36.55 393.4 35.8 393.4 35.1 393.2 34.35 393.05 33.65 392.7 32.9 392.35 32.15 392.15 31.45 392 30.7 391.75 30 391.6 29.25 391.05 28.5 390.55 27.8 390.55 27.05 390.55 26.35 390.15 25.6 389.8 24.85 389.45 24.15 389.1 23.4 388.9 22.7 388.75 21.95 388.35 21.25 388 20.5 387.8 19.75 387.65 19.05 387.1 18.3 386.55 17.6 386.55 16.85 386.55 16.1 386.2 15.4 385.85 14.65 385.5 13.95 385.1 13.2 384.75 12.5 384.4 11.75 384.05 10.95 383.7 10.3 383.3 9.5 382.95 8.85 382.6 8.05 382.25 7.3 381.9 6.6 381.5 5.85 381.15 5.15 380.8 4.4 380.45 3.65 380.05 2.95 379.7 2.2 379.35 1.5 379.15 0.75 379 0.05 378.65 -0.7 378.25 -1.45 378.25 -2.15 378.25 -2.9 377.9 -3.6 377.55 -4.35 377.2 -5.1 376.85 -5.8 376.45 -6.55 376.1 -7.25 375.25 -8 374.3 -8.75 373.95 -9.45 373.6 -10.2 373.2 -10.9 372.85 -11.65 372.35 -12.35 371.8 -13.1 371.4 -13.85 371.05 -14.55 370.7 -15.3 370.35 -16 369.8 -16.75 369.25 -17.5 368.75 -18.2 368.15 -18.95 367.65 -19.65 367.1 -20.4 366.55 -21.15 366 -21.85 365.15 -22.6 364.2 -23.3 363.7 -24.05 363.1 -24.75 362.6 -25.5 362.05 -26.25 361.5 -26.95 360.95 -27.7 360.45 -28.4 359.9 -29.15 359.35 -29.9 358.8 -30.6 358.3 -31.35 357.7 -32.05 356.85 -32.8 355.9 -33.55 355.05 -34.05 354.1 -34.5 354.1 -34.7 354.1 -35 353.75 -35.5 353.45 -35.95 352.5 -36.7 351.65 -37.45 350.7 -37.9 349.85 -38.4 349.85 -38.65 349.85 -38.9 349.4 -39.35 349.1 -39.9 348.2 -40.6 347.3 -41.35 346.75 -42.05 346.2 -42.8 345.65 -43.55 345.15 -44.25 344.4 -45 343.7 -45.7 343.15 -46.45 342.6 -47.15 341.9 -47.65 341.15 -48.1 341.15 -48.35 341.15 -48.65 340.8 -49.1 340.45 -49.55 339.5 -50.3 338.65 -51.1 337.7 -51.55 336.85 -52 336.85 -52.5 336.85 -53 336.1 -53.5 335.4 -53.95 335.2 -54.45 335.05 -54.95 334.3 -55.4 333.6 -55.95 333.25 -56.4 332.9 -56.85 331.95 -57.4 331.05 -57.85 330.85 -58.3 330.7 -58.85 329.65 -59.3 328.55 -59.85 328.35 -60.3 328.2 -60.75 327.45 -61.3 326.75 -61.75 326.75 -62 326.75 -62.25 326.4 -62.75 326 -63.2 325.15 -63.95 324.2 -64.7 323 -65.4 321.7 -66.15 321.2 -66.85 320.6 -67.6 320.1 -68.35 319.55 -69.05 319 -69.8 318.45 -70.5 317.55 -71 316.65 -71.5 316.5 -71.95 316.3 -72.45 314.7 -73.15 313.05 -73.9 311.6 -74.4 310.15 -74.9 309.8 -75.35 309.45 -75.9 308.55 -76.35 307.65 -76.8 306.9 -77.35 306.2 -77.8 303.85 -78.35 301.55 -78.8 301.2 -79.25 300.85 -79.8 299.2 -80.25 297.6 -80.7 297.35 -81.25 297.2 -81.7 294.15 -82.2 291.1 -82.7 290.15 -83.15 289.3 -83.65 284.05 -84.15 278.8 -84.65 278.6 -85.1 278.45 -85.6 275.6 -86.1 272.7 -86.55 272.35 -87.1 271.95 -87.55 261.35 -87.8 250.75 -88 250.75 -87.8 250.75 -87.55 242.8 -87.55 234.85 -87.55 234.65 -87.3 234.5 -87.1 233.95 -86.55 233.45 -86.1 228.9 -85.6 224.4 -85.1 221 -84.9 217.55 -84.65 217.05 -84.35 216.5 -84.15 215.95 -83.65 215.4 -83.15 212.85 -82.45 210.35 -81.7 210.35 -81 210.35 -80.25 209.45 -79.8 208.55 -79.25 208.4 -78.8 208.2 -78.35 207.45 -77.8 206.75 -77.35 205.5 -77.1 204.2 -76.8 204.2 -76.35 204.2 -75.9 203 -75.35 201.75 -74.9 201.55 -74.4 201.4 -73.9 200.65 -73.45 199.95 -72.95 199.6 -72.45 199.2 -71.95 198.15 -71.5 197.05 -71 196.5 -70.5 195.95 -70.05 193.8 -69.5 191.65 -69.05 191.45 -68.6 191.3 -68.05 190.9 -67.9 190.55 -67.65 190.35 -67.65 190.2 -67.6 189.5 -67.35 188.75 -67.15 187.45 -66.6 186.25 -66.15 185.15 -65.4 184.05 -64.7 183.15 -63.95 182.25 -63.2 181.35 -62.5 180.45 -61.75 179.75 -61.05 179 -60.3 178.9 -60.25 178.75 -60.1 178.55 -60 178.3 -59.85 177.2 -59.3 176.15 -58.85 175.75 -58.6 175.4 -58.3 175.05 -57.85 174.7 -57.4 173.95 -56.65 173.25 -55.95 172 -55.4 170.7 -54.95 170.2 -54.75 169.65 -54.45 169.3 -53.95 168.9 -53.5 168.4 -52.75 167.85 -52 166.95 -51.55 166.05 -51.1 165.3 -50.55 164.6 -50.1 163.35 -49.55 162.05 -49.1 161.35 -48.65 160.6 -48.1 160.1 -47.4 159.55 -46.65 158.45 -45.9 157.4 -45.2 156.65 -44.45 155.95 -43.75 Z"/>

<path fill="#CCCCCC" stroke="none" d="
M 157.75 -20.4
Q 157 -19.65 156.3 -18.95 155.55 -18.2 154.85 -17.5 154.2 -16.75 153.4 -16 152.9 -15.3 152.4 -14.55 151.8 -13.85 151.3 -13.1 150.75 -12.35 150.15 -11.65 149.65 -10.9 149.15 -10.2 148.75 -9.45 148.4 -8.75 147.85 -8 147.35 -7.25 146.95 -6.55 146.6 -5.8 146.25 -5.1 145.9 -4.35 145.3 -3.6 144.8 -2.9 144.25 -2.15 143.7 -1.45 143.35 -0.7 143 0.05 142.45 0.75 141.9 1.5 141.35 2.2 140.85 2.95 140.25 3.65 139.75 4.4 139.2 5.15 138.65 5.85 138.3 6.4 137.95 6.85 137.6 7.6 137.25 8.3 136.85 9.05 136.5 9.75 136.15 10.5 135.8 11.25 135.6 11.95 135.45 12.7 135.05 13.4 134.7 14.15 134.35 14.85 134 15.6 133.6 16.35 133.25 17.05 132.9 17.8 132.55 18.5 132.2 19.25 131.8 20 131.45 20.7 131.1 21.45 130.75 22.15 130.4 22.9 130 23.65 129.65 24.35 129.3 25.1 128.95 25.8 128.8 26.55 128.55 27.25 128.2 28 127.85 28.8 127.7 29.45 127.5 30.2 127.33046875 30.5390625 127.15 30.9 126.95625 31.26328125 126.75 31.65 126.55 32.45 126.4 33.1 126.05 33.9 125.7 34.55 125.55 35.35 125.35 36 124.95 36.8 124.6 37.55 124.45 38.25 124.25 39 123.9 39.7 123.5 40.45 123.35 41.2 123.15 41.9 122.8 42.65 122.45 43.35 122.3 44.1 122.1 44.85 121.7 45.55 121.35 46.3 121.2 47 121 47.75 120.85 48.45 120.65 49.2 120.3 49.95 119.9 50.65 119.75 51.4 119.55 52.1 119.2 52.85 118.85 53.6 118.7 54.3 118.5 55.05 118.1 55.75 117.75 56.5 117.4 57.25 117.05 57.95 116.9 58.7 116.65 59.4 116.5 60.15 116.3 60.85 115.95 61.6 115.6 62.35 115.45 63.05 115.25 63.8 115.05 64.5 114.85 65.25 114.7 66 114.5 66.7 114.15 67.45 113.8 68.15 113.65 68.9 113.45 69.65 113.25 70.35 113.05 71.1 112.9 71.8 112.7 72.55 112.55 73.25 112.35 74 112.2 74.75 112 75.45 111.85 76.2 111.6 76.9 111.25 77.65 110.9 78.4 110.75 79.1 110.55 79.85 110.4 80.55 110.2 81.3 110 82.05 109.8 82.75 109.65 83.5 109.45 84.2 109.1 84.95 108.75 85.65 108.6 86.4 108.4 87.15 108.2 87.85 108 88.6 107.85 89.3 107.65 90.05 107.5 90.8 107.3 91.5 107.15 92.25 106.95 92.95 104.05 92.95 101.15 92.95 101.15 92.25 101.15 91.5 101.15 90.8 101.15 90.05 101.15 89.3 101.15 88.6 101.15 87.85 101.15 87.15 101.15 86.4 101.15 85.65 101.35 84.95 101.5 84.2 101.5 83.5 101.5 82.75 101.75 82.05 101.95 81.3 101.95 80.55 101.95 79.85 102.1 79.1 102.3 78.4 102.3 77.65 102.3 76.9 102.3 76.2 102.3 75.45 102.45 74.75 102.6 74 102.6 73.25 102.6 72.55 102.8 71.8 102.95 71.1 103.15 70.35 103.4 69.65 103.4 68.9 103.4 68.15 103.55 67.45 103.75 66.7 103.75 66 103.75 65.25 104.05 64.5 104.4 63.8 104.6 63.05 104.75 62.35 104.95 61.6 105.2 60.85 105.35 60.15 105.5 59.4 105.5 58.7 105.5 57.95 105.5 57.25 105.5 56.5 105.7 55.75 105.85 55.05 105.85 54.3 105.85 53.6 106.05 52.85 106.2 52.1 106.4 51.4 106.55 50.65 106.55 49.95 106.55 49.2 106.55 48.45 106.55 47.75 106.55 47.55 106.55 47.4 92.65 86.75 92.65 133.85 92.65 217.4 136.45 276.5 180.2 335.65 242.1 335.65 275.45 335.65 303.55 318.5 302.7 318.35 301.85 318.3 301.85 317.55 301.85 316.8 301.85 316.1 301.85 315.35 301.85 314.65 301.85 313.9 301.85 313.2 301.85 312.45 302.4 311.7 303 311 303.65 310.25 304.4 309.55 304.75 308.8 305.1 308.05 305.65 307.35 306.2 306.6 307.1 305.9 308 305.15 308.7 304.4 309.45 303.7 310 302.95 310.5 302.25 311.1 301.5 311.6 300.8 312.3 300.05 313.05 299.3 313.75 298.6 314.5 297.85 315.55 297.15 316.65 296.4 317.2 295.65 317.75 294.95 318.1 294.2 318.45 293.5 319 292.75 319.55 292 320.45 291.3 321.35 290.55 322.05 289.85 322.8 289.1 323.85 288.4 324.95 287.65 325.8 286.9 326.75 286.2 327.45 285.45 328.2 284.75 328.9 284 329.65 283.25 330.35 282.55 331.05 281.8 331.45 281.1 331.8 280.35 332.3 279.6 332.9 278.9 333.4 278.15 333.95 277.45 334.45 276.7 335.05 276 335.5 275.35 335.9 274.7 336.05 274.35 336.1 274 336.3 273.25 336.5 272.55 336.85 271.8 337.2 271.1 337.55 270.35 337.95 269.6 338.3 268.9 338.65 268.15 339 267.45 339.35 266.7 339.75 266 340.1 265.25 340.6 264.5 341.15 263.8 341.9 263.05 342.6 262.35 343.35 261.6 344.05 260.85 344.4 260.15 344.8 259.4 345.5 258.7 346.2 257.95 346.75 257.2 347.3 256.5 347.8 255.75 348.4 255.05 348.9 254.3 349.4 253.6 350 252.85 350.55 252.1 351.1 251.5 351.8 250.85 352.05 250.25 352.3 249.65 352.65 248.95 353 248.2 353.45 247.5 353.75 246.75 354.1 246 354.45 245.3 354.9 244.55 355.2 243.85 355.75 243.1 356.25 242.4 356.85 241.65 357.35 240.9 357.7 240.2 358.05 239.45 358.65 238.75 359.15 238 359.5 237.25 359.9 236.55 360.45 235.8 360.95 235.1 361.5 234.35 362.05 233.6 362.75 232.9 363.5 232.15 364.2 231.45 364.95 230.7 365.3 230 365.65 229.25 366.2 228.5 366.75 227.8 367.1 227.05 367.45 226.35 367.8 225.6 368.15 224.85 368.5 224.45 368.85 223.95
L 368.95 223.85
Q 369.1 223.6 369.25 223.4 369.6 222.7 370 221.95 370.25 221.4 370.45 220.95 370.6 220.5 370.7 220 370.7 219.25 370.7 218.5 371.05 217.8 371.4 217.05 371.8 216.35 372.15 215.6 372.15 214.85 372.15 214.15 372.7 213.4 373.2 212.7 373.45 211.95 373.6 211.2 373.8 210.5 373.95 209.75 374.3 209.05 374.65 208.3 374.8 207.6 375 206.85 375.4 206.1 375.75 205.4 376.1 204.65 376.45 203.95 376.45 203.2 376.45 202.45 376.6 201.75 376.85 201 377.2 200.3 377.55 199.55 377.55 198.8 377.55 198.1 377.55 197.35 377.55 196.65 378.05 195.9 378.65 195.2 378.65 194.45 378.65 193.7 378.65 193 378.65 192.25 378.65 191.55 378.65 190.8 378.8 190.05 379 189.35 379.35 188.6 379.7 187.9 379.85 187.15 380.05 186.45 380.05 185.7 380.05 184.95 380.25 184.25 380.45 183.5 380.8 182.8 381.15 182.05 381.15 181.3 381.15 180.6 381.15 179.85 381.15 179.15 381.15 178.4 381.15 177.65 381.15 177.0302734375 381.15 176.35 381.15 176.2861328125 381.15 176.2 381.5 175.5 381.9 174.75 382.25 174.05 382.6 173.3 382.6 172.55 382.6 171.85 382.6 171.1 382.6 170.4 383.3 169.65 384.05 168.9 384.05 168.2 384.05 167.45 384.05 166.75 384.05 166 384.05 165.2 384.05 164.55 384.05 163.75 384.05 163.1 384.4 162.3 384.75 161.65 384.9 160.85 385.1 160.1 385.1 159.4 385.1 158.65 385.1 157.95 385.1 157.2 385.1 156.45 385.1 155.75 385.1 155 385.1 154.3 385.1 153.55 385.1 152.8 385.3 152.1 385.5 151.35 385.85 150.65 386.2 149.9 386.35 149.2 386.55 148.45 386.55 147.7 386.55 147 386.55 146.25 386.55 145.55 386.55 144.8 386.55 144.05 387.1 143.35 387.65 142.6 387.8 141.9 388 141.15 388 140.4 388 139.7 388 138.95 388 138.25 388 137.5 388 136.8 388 136.05 388 135.3 388.15 134.6 388.35 133.85 388.75 133.15 389.1 132.4 389.25 131.65 389.45 130.95 389.45 130.2 389.45 129.5 389.45 128.75 389.45 128.05 389.45 127.3 389.45 126.55 389.45 125.85 389.45 125.1 389.45 124.4 389.45 123.65 389.6 122.9 389.8 122.2 390.15 121.45 390.55 120.75 390.55 120 390.55 119.25 390.55 118.55 390.55 117.8 390.55 117.3 390.55 116.85 390.55 116.65 390.55 116.35 390.55 115.85 390.55 115.35
L 390.55 114.9
Q 390.55 114.4 390.55 113.9
L 390.55 113.45
Q 390.55 112.95 390.55 112.45
L 390.55 112
Q 390.55 111.45 390.55 111
L 390.55 110.5
Q 390.35 109.8 390.15 109.05 389.6 108.35 389.1 107.6 389.1 106.85 389.1 106.15 389.1 105.6 389.1 105.15 388.9 104.45 388.75 103.7 388.75 102.95 388.75 102.25 388.35 101.5 388 100.8 387.8 100.05 387.65 99.3 387.45 98.6 387.3 97.85 387.3 97.15 387.3 96.4 387.3 95.65 387.3 94.95 387.1 94.2 386.95 93.5 386.55 92.75 386.2 92.05 385.65 91.3 385.1 90.55 384.9 89.85 384.75 89.1 384.55 88.4 384.4 87.65 384.2 86.9 384.05 86.2 384.05 85.45 384.05 84.75 384.05 84 384.05 83.25 383.7 82.55 383.3 81.8 383.1 81.1 382.95 80.35 382.6 79.65 382.25 78.9 382.05 78.1 381.9 77.45 381.5 76.65 381.15 76 380.8 75.2 380.45 74.45 380.05 73.75 379.7 73 379.35 72.3 379 71.55 378.8 70.8 378.65 70.1 378.25 69.35 377.9 68.65 377.35 67.9 376.85 67.2 376.45 66.45 376.1 65.7 375.9 65 375.75 64.25 375.4 63.55 375 62.8 374.65 62.05 374.3 61.35 373.95 60.6 373.6 59.9 373.2 59.15 372.85 58.45 372.7 57.7 372.5 56.95 372.15 56.25 371.8 55.5 371.6 54.8 371.4 54.05 371.25 53.3 371.05 52.6 370.9 51.85 370.7 51.15 370.35 50.4 370 49.65 369.45 48.95 368.9 48.2 368.4 47.5 367.8 46.75 367.45 46.05 367.1 45.3 366.75 44.55 366.35 43.85 366 43.1 365.65 42.4 365.3 41.65 364.95 40.9 364.55 40.2 364.2 39.45 363.85 38.75 363.5 38 363.1 37.25 362.75 36.55 362.4 35.8 362.05 35.1 361.7 34.35 361.3 33.65 360.95 32.9 360.6 32.15 360.25 31.45 359.9 30.7 359.5 30 359.15 29.25 358.65 28.5 358.05 27.8 357.55 27.05 357 26.35 356.45 25.6 355.9 24.85 355.4 24.15 354.9 23.4 354.3 22.7 353.75 21.95 353.25 21.25 352.65 20.5 352.3 19.75 352 19.05 351.2 18.3 350.55 17.6 350 16.85 349.4 16.1 348.9 15.4 348.4 14.65 347.8 13.95 347.3 13.2 346.75 12.5 346.2 11.75 345.65 10.95 345.15 10.3 344.55 9.5 344.05 8.85 343.5 8.05 342.95 7.3 342.4 6.6 341.9 5.85 341.35 5.15 340.8 4.4 340.1 3.65 339.35 2.95 338.65 2.2 337.95 1.5 337 0.75 336.1 0.05 335.05 -0.7 333.95 -1.45 333.25 -2.15 332.5 -2.9 331.95 -3.6 331.45 -4.35 330.85 -5.1 330.35 -5.8 329.8 -6.55 329.25 -7.25 328.55 -8 327.85 -8.75 327.1 -9.45 326.4 -10.2 325.65 -10.9 324.95 -11.65 324.05 -12.35 323.15 -13.1 322.25 -13.85 321.35 -14.55 320.45 -15.3 319.55 -16 318.45 -16.75 317.35 -17.5 316.3 -18.2 315.2 -18.95 314.1 -19.65 313.05 -20.4 311.95 -21.15 310.85 -21.85 309.8 -22.6 308.7 -23.3 307.65 -24.05 306.55 -24.75 305.65 -25.5 304.75 -26.25 303.65 -26.95 302.65 -27.7 301.7 -28.4 300.85 -29.15 299.9 -29.9 298.95 -30.6 298.1 -31.35 297.2 -32.05 296.15 -32.8 295.05 -33.55 293.95 -34.25 292.9 -35 291.45 -35.7 290 -36.45 288.7 -37.15 287.5 -37.9 286.2 -38.65 284.95 -39.35 283.85 -40.1 282.8 -40.8 282.05 -41.35 281.35 -41.8 280.05 -42.3 278.8 -42.8 277.6 -43.25 276.3 -43.75 274.85 -44.25 273.4 -44.75 271.6 -45.45 269.8 -46.2 268.55 -46.9 267.3 -47.65 265.85 -48.35 264.4 -49.1 263.15 -49.85 261.85 -50.55 261.35 -51.1 260.8 -51.55 260.65 -51.75 260.45 -52 259.2 -52.5 257.9 -53 256.45 -53.75 255 -54.45 254.15 -55.2 253.2 -55.95 252 -56.65 250.75 -57.4 250.4 -57.65 250.1 -57.9 249.1 -57.85 248.2 -57.85 246.75 -57.65 245.35 -57.4 244.6 -57.1 243.9 -56.85 243.15 -56.65 242.45 -56.4 241.5 -56.2 240.65 -55.95 239.7 -55.65 238.85 -55.4 237.9 -55.2 237.05 -54.95 236.3 -54.75 235.6 -54.45 234.65 -54.2 233.8 -53.95 233.05 -53.75 232.35 -53.5 231.65 -53.2 230.9 -53 230.2 -52.75 229.45 -52.5 228.75 -52.3 228 -52 227.3 -51.75 226.6 -51.55 225.85 -51.3 225.15 -51.1 224.4 -50.8 223.7 -50.55 222.8 -50.3 221.9 -50.1 221 -49.85 220.1 -49.55 218.85 -49.1 217.55 -48.65 216.5 -48.1 215.4 -47.65 214.65 -47.4 213.95 -47.15 213.25 -46.9 212.5 -46.65 211.8 -46.45 211.05 -46.2 210.5 -46.1 209.85 -46.05 208.5 -45.85 207.1 -45.7 206.2 -45.45 205.3 -45.2 204.65 -45 203.85 -44.75 203 -44.45 202.05 -44.25 201.4 -44 200.65 -43.75 199.6 -43.25 198.5 -42.8 197.05 -42.05 195.6 -41.35 194.9 -40.8 194.15 -40.35 193.8 -40.1 193.45 -39.9 192.15 -39.35 190.9 -38.9 190.2 -38.4 189.5 -37.9 189.1 -37.7 188.75 -37.45 187.85 -37.15 186.95 -36.95 186.05 -36.7 185.15 -36.45 184.45 -36.25 183.7 -35.95 179 -35.7 174.35 -35.5 173.5 -35.65 172.65 -35.8 172.2 -35.4 171.8 -35 170.95 -34.25 170 -33.55 169.3 -32.8 168.55 -32.05 168.05 -31.35 167.5 -30.6 166.75 -29.9 166.05 -29.15 165.5 -28.4 164.95 -27.7 164.45 -26.95 163.85 -26.25 163.15 -25.5 162.45 -24.75 161.7 -24.05 161 -23.3 160.1 -22.6 159.2 -21.85 158.45 -21.15 157.75 -20.4
M 215.4 -14.45
Q 216.4 -15.2 217.4 -16 218.8 -16.8 220.15 -17.6 221.55 -18.45 222.95 -19.2 224.3 -20 225.7 -20.8 226.9 -21.35 228.05 -21.85 229.25 -21.85 230.45 -21.85 230.45 -22.15 230.45 -22.45 237.75 -22.15 245.05 -21.85 246.05 -21.1 247 -20.3 247.65 -19.45 248.25 -18.65 248.65 -17.85 249 -17.1 249.2 -16.3 249.4 -15.45 249.4 -14.65 249.4 -13.85 249.4 -13.1 249.4 -12.3 249.4 -11.75 249.4 -11.2 246.25 -11.2 243.05 -11.2 240.1 -11.2 237.15 -11.2 235.35 -10.65 233.6 -10.15 232.25 -9.3 230.85 -8.5 229.45 -7.75 228.05 -6.95 226.65 -6.15 225.35 -5.3 224.3 -4.5 223.3 -3.75 222.7 -2.95 222.15 -2.15 221.55 -1.3 221 -0.5 220.35 0.25 219.75 1.05 219.2 1.85 218.6 2.7 217.95 3.5 217.4 4.25 216.8 5.05 216.2 5.85 215.8 6.7 215.4 7.5 215 8.25 214.65 9.05 214.45 9.85 214.25 10.7 214 11.5 213.85 12.3 213.6 13.05 213.45 13.85 213.05 14.7 212.65 15.5 212.45 16.3 212.3 17.05 211.85 17.85 211.45 18.7 211.05 19.5 210.65 20.3 210.3 21.05 209.9 21.85 209.5 22.7 209.1 23.5 208.5 24.3 207.95 25.05 207.55 25.9 207.1 26.7 207.1 27.5 207.1 28.3 206.95 29.05 206.7 29.9 206.7 30.7 206.7 31.5 206.7 32.3 206.7 33.05 206.7 33.9 206.7 34.7 206.3 35.5 205.95 36.3 205.75 37.05 205.55 37.9 205.15 38.7 204.75 39.5 204 40.3 203.2 41.05 202.75 41.9 202.35 42.7 202.2 43.5 201.95 44.3 201.95 45.15 201.95 45.9 201.8 46.45 201.6 47 198.4 46.7 195.3 46.45 195.3 45.65 195.3 44.85 195.3 44.05 195.3 43.2 195.3 42.4 195.3 41.65 195.3 40.85 195.3 40.05 195.3 39.2 195.3 38.4 195.45 37.65 195.65 36.85 195.85 36 196.05 35.2 196.3 34.4 196.45 33.65 196.6 32.85 196.85 32 197.05 31.2 197.25 30.4 197.65 29.65 198 28.85 198.4 28 198.85 27.2 199 26.4 199.25 25.65 199.4 24.85 199.65 24 199.65 23.2 199.65 22.4 199.65 21.65 199.65 20.85 199.8 20 200 19.2 200 18.4 200 17.65 200.2 16.85 200.4 16 200.8 15.2 201.2 14.4 201.4 13.65 201.6 12.85 201.8 12 201.95 11.2 202.35 10.4 202.75 9.65 203.2 8.85 203.6 8 204 7.2 204.35 6.4 204.55 5.6 204.75 4.85 205.15 4 205.55 3.2 205.75 2.4 205.95 1.6 206.15 0.8 206.3 0 206.55 -0.8 206.7 -1.6 207.1 -2.4 207.55 -3.2 207.95 -4 208.35 -4.8 208.9 -5.6 209.5 -6.4 210.1 -7.2 210.65 -8 211.3 -8.8 211.85 -9.6 212.45 -10.45 213.05 -11.2 213.6 -12 214.25 -12.8 214.85 -13.6 215.4 -14.45
M 353.7 159
Q 353.7 159.85 353.7 160.65 353.55 161.45 353.3 162.25 353.15 163 352.95 163.85 352.75 164.65 352.55 165.45 352.3 166.25 352.15 167 351.75 167.85 351.35 168.65 351.15 169.45 350.95 170.25 350.6 171 350.2 171.85 349.95 172.65 349.75 173.45 349.2 174.25 348.6 175 348.2 175.85 347.8 176.65 347.4 177.45 347 178.25 346.4 179 345.85 179.85 345.25 180.65 344.6 181.45 343.85 182.25 343.05 183.05 342.3 183.85 341.5 184.65 340.9 185.45 340.25 186.25 339.7 187.1 339.1 187.85 338.3 188.65 337.55 189.45 337.15 190.25 336.7 191.1 335.95 191.85 335.15 192.65 334.35 193.45 333.6 194.3 332.8 195.1 331.95 195.85 331.6 196.25 331.2 196.65 331.2 197.05 331.2 197.45 331.2 198.3 331.2 199.1 331.2 199.85 331.2 200.65 330.8 201.45 330.4 202.3 330 203.1 329.6 203.85 329 204.65 328.45 205.45 328.05 206.3 327.6 207.1 327.25 207.85 326.85 208.65 326.3 209.45 325.65 210.3 325.05 211.1 324.5 211.85 323.9 212.65 323.25 213.45 322.9 214.3 322.5 215.1 322.1 215.85 321.7 216.65 321.3 217.45 320.95 218.3 320.55 219.1 320.15 219.9 319.75 220.65 319.35 221.45 319.15 222.3 318.9 223.1 318.55 223.9 318.15 224.65 317.95 225.45 317.75 226.3 317.2 227.1 316.6 227.9 316.2 228.65 315.8 229.45 315.4 230.3 315 231.1 314.65 231.9 314.2 232.65 313.8 233.5 313.4 234.3 313 235.1 312.6 235.9 312.6 236.2 312.6 236.45 312.6 237.25 312.6 238 312.6 238.8 312.6 239.6 312.45 240.45 312.25 241.25 312.25 242 312.25 242.8 312 243.6 311.85 244.45 311.6 245.25 311.45 246 311.25 246.8 311.05 247.6 311.05 248.45 311.05 249.25 310.85 250 310.65 250.8 310.3 251.65 309.9 252.45 309.65 253.25 309.45 254 309.05 254.8 308.65 255.65 308.3 256.45 307.9 257.25 307.65 258.05 307.5 258.8 307.1 259.65 306.7 260.45 306.5 261.25 306.3 262.05 305.95 262.8 305.55 263.65 305.1 264.45 304.7 265.25 304.3 266.05 303.95 266.8 303.55 267.65 303.15 268.45 302.75 269.25 302.35 270.05 301.95 270.8 301.6 271.65 301.2 272.45 300.75 273.25 300.35 274.05 299.95 274.8 299.8 275.65 299.6 276.45 299.2 277.25 298.8 278.05 298.4 278.8 298 279.65 297.65 280.45 297.25 281.25 296.85 282.05 296.4 282.8 296 283.65 295.6 284.45 295.25 285.25 294.85 286.05 294.3 286.85 293.65 287.65 293.05 288.45 292.5 289.25 291.9 290.05 291.25 290.9 290.7 291.65 290.1 292.45 289.5 293.25 288.95 294.05 288.3 294.9 287.7 295.65 286.95 296.45 286.15 297.25 285.35 298.05 284.6 298.9 283.6 299.65 282.6 300.45 281.8 301.25 281 302.1 280.25 302.9 279.45 303.65 278.45 304.45 277.45 305.25 276.45 306.1 275.5 306.9 274.5 307.65 273.5 308.45 272.55 309.25 271.55 310.1 270.35 310.9 269.15 311.65 267.6 312.45 266 313.25 264.25 314.1 262.45 314.9 261.45 315.4 260.45 315.95 259.3 316.25 258.1 316.45 257.1 316.75 256.1 317 255.15 317.25 254.15 317.55 253.15 317.8 252.2 318.1 242.9 318.1 233.6 318.1 232.4 317.8 231.25 317.55 230.25 317.25 229.25 317 227.9 316.45 226.5 315.95 224.9 315.4 223.3 314.9 222.15 314.6 221 314.3 219.75 314.1 218.6 313.8 217 313.25 215.4 312.75 213.85 311.95 212.3 311.1 210.65 310.3 209.1 309.55 207.95 308.75 206.7 307.95 205.75 307.1 204.75 306.3 203.75 305.55 202.75 304.75 201.95 303.95 201.2 303.1 200.65 302.3 200 301.55 199.25 300.75 198.4 299.95 197.65 299.1 196.85 298.3 196.05 297.55 195.3 296.75 194.65 295.95 194.05 295.1 193.5 294.3 192.9 293.55 192.35 292.75 191.7 291.95 191.1 291.1 190.55 290.3 189.95 289.55 189.3 288.75 188.95 287.95 188.55 287.1 188 286.3 187.35 285.5 187 284.75 186.6 283.95 186.2 283.1 185.8 282.3 185.35 281.5 184.95 280.75 184.8 279.9 184.6 279.1 184.2 278.3 183.8 277.5 183.4 276.75 183 275.9 182.65 275.1 182.25 274.3 181.85 273.5 181.45 272.75 181.25 271.9 181 271.1 180.7 270.3 180.25 269.5 179.85 268.75 179.45 267.9 179.05 267.1 178.65 266.3 178.3 265.5 177.9 264.75 177.65 263.9 177.5 263.1 177.1 262.3 176.7 261.5 176.35 260.75 175.9 259.9 175.5 259.1 175.1 258.3 174.7 257.5 174.3 256.75 174.1 255.9 173.95 255.1 173.55 254.3 173.15 253.5 172.75 252.65 172.35 251.9 172 251.1 171.55 250.3 171.15 249.5 170.75 248.65 170.6 247.9 170.35 247.1 170 246.3 169.6 245.5 169.35 244.65 169.2 243.9 168.95 243.1 168.8 242.3 168.4 241.5 168 240.65 167.8 239.9 167.65 239.1 167.4 238.3 167.2 237.5 167 236.65 166.8 235.9 166.8 235.1 166.8 234.3 166.65 233.5 166.4 232.65 166.25 231.9 166 231.1 165.85 230.3 165.65 229.45 165.45 228.65 165.25 227.9 165.25 227.1 165.25 226.3 165 225.45 164.85 224.65 164.85 223.9 164.85 223.1 164.65 222.3 164.45 221.45 164.25 220.65 164.05 219.9 163.85 219.1 163.65 218.3 163.65 217.45 163.65 216.65 163.45 215.85 163.3 215.1 163.05 214.3 162.85 213.45 162.65 212.65 162.45 211.85 162.45 211.1 162.45 210.3 162.3 209.45 162.05 208.65 161.9 207.85 161.65 207.1 161.5 206.3 161.3 205.45 161.1 204.65 160.9 203.85 160.9 203.1 160.9 202.3 160.65 201.45 160.5 200.65 160.5 199.85 160.5 199.1 160.3 198.3 160.1 197.45 159.9 196.65 159.7 195.85 159.7 195.1 159.7 194.3 159.5 193.45 159.35 192.65 159.35 191.85 159.35 191.1 159.1 190.25 158.95 189.45 158.95 188.65 158.95 187.85 158.95 187.1 158.95 186.25 158.7 185.45 158.55 184.65 158.55 183.85 158.55 183.05 158.55 182.25 158.55 181.45 158.55 180.65 158.55 179.85 158.55 179 158.55 178.25 158.55 177.45 158.55 176.65 158.3 175.85 158.1 175 158.1 174.25 158.1 173.45 157.95 172.65 157.7 171.85 157.55 171 157.3 170.25 157.3 169.45 157.3 168.65 157.3 167.85 157.3 167 157.3 166.25 157.3 165.45 157.3 164.65 157.3 163.85 157.3 163 157.3 162.25 157.3 161.45 157.3 160.65 157.3 159.85 157.3 159 157.3 158.25 157.3 157.45 157.3 156.65 157.3 155.85 157.3 155 157.3 154.25 157.3 153.45 157.3 152.65 157.3 151.85 157.3 151 157.3 150.25 157.3 149.45 157.3 148.65 157.3 147.85 157.3 147 157.3 146.2 157.3 145.45 157.3 144.65 157.3 143.8 157.3 143 157.3 142.2 157.3 141.45 157.3 140.65 157.3 139.8 157.3 139 157.3 138.2 157.3 137.45 157.3 136.65 157.3 135.8 157.3 135 157.3 134.2 157.3 133.45 157.3 132.65 157.3 131.8 157.3 131 157.3 130.2 157.3 129.45 157.3 128.65 157.3 127.8 157.3 127 157.3 126.2 157.3 125.45 157.3 124.65 157.3 123.8 157.3 123 157.3 122.2 157.55 121.45 157.7 120.65 157.7 119.8 157.7 119 157.7 118.2 157.7 117.45 157.7 116.65 157.7 115.8 157.7 115 157.7 114.2 157.7 113.4 157.7 112.65 157.7 111.8 157.7 111 157.7 110.2 157.7 109.4 157.7 108.65 157.7 107.8 157.7 107 157.7 106.2 157.7 105.4 157.7 104.6 157.7 103.8 157.7 103 157.95 102.2 158.1 101.4 158.1 100.85 158.1 100.35 158.1 100.1 158.1 99.8
L 158.1 98.7
Q 158.1 98.5 158.1 98.2 158.1 97.65 158.1 97.15 158.1 96.35 158.1 95.5 158.1 94.7 158.1 93.95 158.1 93.15 158.1 92.35 158.1 91.5 158.1 90.7 158.1 89.95 158.1 89.15 158.3 88.35 158.55 87.5 158.55 86.7 158.55 85.95 158.55 85.15 158.55 84.35 158.55 83.5 158.55 82.7 158.55 81.95 158.55 81.15 158.55 80.35 158.55 79.5 158.55 78.7 158.55 77.9 158.55 77.35 158.55 76.85 158.55 76.55 158.55 76.35 160.5 76.55 162.45 76.85 162.45 77.65 162.45 78.45 162.45 79.3 162.45 80.05 162.45 80.85 162.45 81.65 162.45 82.45 162.45 83.3 162.45 84.05 162.45 84.85 162.45 85.65 162.45 86.45 162.45 87.3 162.45 88.05 162.45 88.75 162.45 89.45 163.45 89.55 164.45 89.65 164.45 90.5 164.45 91.3 164.45 92.05 164.45 92.85 164.45 93.65 164.45 94.5 164.45 95.3 164.45 96.05 164.25 96.85 164.05 97.65 163.85 98.5 163.65 99.3 163.45 100.05 163.3 100.85 163.3 101.65 163.3 102.5 163.3 103.3 163.3 104.05 163.3 104.85 163.3 105.65 163.3 106.5 163.3 107.3 163.3 108.05 163.3 108.85 163.45 109.65 163.65 110.5 163.85 111.3 164.05 112.05 164.25 112.85 164.45 113.65 164.85 114.5 165.25 115.3 165.25 116.1 165.25 116.85 165.45 117.65 165.65 118.5 165.85 119.3 166 120.1 166.25 120.85 166.4 121.65 166.4 122.5 166.4 123.3 166.65 124.1 166.8 124.85 167.2 125.65 167.65 126.5 167.8 127.3 168 128.1 168.2 128.85 168.4 129.7 168.6 130.5 168.8 131.3 168.95 132.1 169.2 132.85 169.35 133.7 169.6 134.5 169.8 135.3 170 136.1 170.2 136.85 170.35 137.7 170.75 138.5 171.15 139.3 171.55 140.1 172 140.85 172.35 141.7 172.75 142.5 172.95 143.3 173.15 144.1 173.55 144.85 173.95 145.7 174.1 146.5 174.3 147.3 174.7 148.1 175.1 148.85 175.5 149.7 175.9 150.5 176.1 151.3 176.35 152.1 176.7 152.95 177.1 153.7 177.5 154.5 177.9 155.3 178.3 156.1 178.65 156.95 179.3 157.7 179.85 158.5 180.25 159.3 180.7 160.1 181.25 160.95 181.85 161.7 182.25 162.5 182.65 163.3 183 164.1 183.4 164.95 184 165.7 184.6 166.5 185.2 167.3 185.8 168.1 186.2 168.95 186.6 169.7 187.15 170.5 187.75 171.3 188.35 172.1 188.95 172.95 189.7 173.7 190.55 174.5 191.5 175.3 192.5 176.1 193.3 176.95 194.05 177.7 195.05 178.5 196.05 179.3 197.05 180.15 198 180.95 199 181.7 200 182.5 200.95 183.3 201.95 184.15 203 184.95 204 185.75 205.15 186.5 206.3 187.3 207.7 188.15 209.1 188.95 210.5 189.75 211.85 190.5 213.05 191.3 214.25 192.15 215.4 192.95 216.65 193.75 217.8 194.3 218.95 194.8 219.6 195.1 220.15 195.3 221 195.6 221.75 195.85 222.3 196.15 222.95 196.4 223.7 196.65 224.5 196.95 225.1 197.15 225.7 197.45 226.5 197.75 227.3 198 227.9 198.3 228.45 198.5 229.85 198.8 231.25 199.1 232.65 199.3 233.95 199.6 235.35 199.85 236.75 200.15 238.3 200.4 239.95 200.65 243.05 200.95 246.25 201.2 247.85 201.45 249.4 201.75 255.7 202 262.05 202.3 265.2 202.5 268.35 202.8 270 203.1 271.55 203.3 272.3 203.3 273.1 203.3 274.5 203.1 275.9 202.8 277.3 202.5 278.6 202.3 279.45 202 280.25 201.75 280.8 201.45 281.4 201.2 282.2 200.95 282.95 200.65 283.6 200.4 284.2 200.15 284.95 199.85 285.75 199.6 286.35 199.3 286.95 199.1 287.7 198.8 288.55 198.5 289.3 198.3 290.1 198 290.9 197.75 291.65 197.45 292.3 197.15 292.9 196.95 293.65 196.65 294.45 196.4 295.25 196.15 296 195.85 296.85 195.6 297.65 195.3 298.4 195.1 299.2 194.8 299.95 194.5 300.75 194.3 301.35 194 301.95 193.75 303.3 193.15 304.7 192.65 305.95 192.15 307.1 191.6 308.5 191.3 309.9 191.1 311.05 190.5 312.25 190 313.65 189.15 315 188.4 316.35 187.6 317.75 186.8 318.75 186.25 319.75 185.75 320.15 185.45 320.55 185.15 321.7 184.65 322.9 184.15 323.9 183.3 324.9 182.5 325.65 181.7 326.45 180.95 327.45 180.15 328.45 179.3 329.4 178.5 330.4 177.7 331.6 176.95 332.8 176.1 333.75 175.3 334.75 174.5 336.15 173.7 337.55 172.95 338.5 172.1 339.5 171.3 340.25 170.5 341.05 169.7 342.05 168.95 343.05 168.1 343.45 167.3 343.85 166.5 344.45 165.7 345 164.95 345.85 164.1 346.6 163.3 347.65 162.5 348.6 161.7 349.2 160.95 349.75 160.1 350.35 159.6 350.95 159 351.15 158.8 351.35 158.5 352.55 158.8 353.7 159
M 297.25 33.05
Q 297.8 32.3 298.4 31.5 298.95 30.7 299.6 29.9 299.95 29.35 300.35 28.85 302.75 29.05 305.1 29.35 305.1 30.15 305.1 31 305.1 31.75 305.1 32.55 305.1 33.35 305.1 34.15 304.95 35 304.7 35.75 304.15 36.55 303.55 37.35 303 38.15 302.35 39 301.75 39.75 301.2 40.55 300.75 41.35 300.35 42.15 299.95 43 299.6 43.75 299.2 44.55 298.8 45.35 298.4 46.15 298 47 297.8 47.8 297.65 48.55 297.65 49.35 297.65 50.15 297.65 51 297.65 51.8 297.4 52.55 297.25 53.35 296.85 54.15 296.4 55 296.4 55.8 296.4 56.55 296.4 57.35 296.4 58.2 296.4 59 296.4 59.8 296.4 60.55 296.4 61.35 296.85 62.2 297.25 63 297.65 63.8 298 64.55 298.2 65.35 298.4 66.2 298.95 66.7 299.6 67.2 299.95 67.5 300.35 67.8 301.6 68.3 302.75 68.85 303.75 69.15 304.7 69.35 305.7 69.15 306.7 68.85 307.5 68.55 308.3 68.3 309.65 67.8 311.05 67.2 311.25 66.45 311.45 65.65 312 64.85 312.6 64.05 313.65 63.2 314.65 62.45 315.2 61.65 315.8 60.85 315.95 60.05 316.2 59.2 316.6 58.45 316.95 57.65 316.95 56.85 316.95 56.05 316.8 55.2 316.6 54.45 316.2 53.65 315.8 52.85 315.6 52.05 315.4 51.2 315 50.45 314.65 49.65 314.4 48.85 314.2 48.05 313.8 47.2 313.4 46.45 313.25 45.65 313 44.85 312.6 44.05 312.25 43.2 311.85 42.4 311.45 41.65 310.85 40.85 310.3 40.05 310.05 39.2 309.9 38.4 309.3 37.65 308.65 36.85 308.5 36 308.3 35.2 307.65 34.4 307.1 33.65 307.1 32.85 307.1 32 307.1 31.2 307.1 30.4 307.1 29.9 307.1 29.35 307.1 29.05 307.1 28.85 307.1 28.55 307.1 28.3 309.05 28.3 311.05 28.3 312.45 28.85 313.8 29.35 314.65 30.15 315.4 31 316.35 31.75 317.35 32.55 317.95 33.35 318.55 34.15 318.75 35 318.9 35.75 319.35 36.55 319.75 37.35 319.95 38.15 320.15 39 320.55 39.75 320.95 40.55 321.15 41.35 321.3 42.15 321.7 43 322.1 43.75 322.3 44.55 322.5 45.35 322.9 46.15 323.25 47 323.25 47.8 323.25 48.55 323.25 49.35 323.25 50.15 323.25 51 323.25 51.8 323.25 52.55 323.25 53.35 323.25 54.15 323.25 55 323.25 55.8 323.25 56.55 323.25 57.35 323.25 58.2 323.25 59 323.25 59.8 323.25 60.55 323.25 61.35 323.25 62.2 323.25 63 323.25 63.8 323.25 64.55 323.25 65.35 323.25 66.2 322.9 67 322.5 67.8 322.3 68.55 322.1 69.35 321.55 70.2 320.95 71 319.95 71.8 318.9 72.55 318.35 73.35 317.75 74.2 317.6 75 317.35 75.8 316.8 76.35 316.2 76.85 315 77.15 313.8 77.35 312.6 77.9 311.45 78.45 304.55 78.45 297.65 78.45 297 77.9 296.4 77.35 295.25 76.85 294.05 76.35 293.05 75.5 292.05 74.7 291.9 73.9 291.65 73.15 291.25 72.3 290.9 71.5 290.5 70.7 290.1 69.9 290.1 69.15 290.1 68.3 290.1 67.5 290.1 66.7 290.1 65.9 290.1 65.15 290.1 64.3 290.1 63.5 290.1 62.7 290.1 61.9 290.1 61.15 290.1 60.3 290.1 59.5 290.1 58.7 290.1 57.9 290.1 57.15 290.1 56.3 290.1 55.5 290.3 54.7 290.5 53.9 290.5 53.15 290.5 52.3 290.5 51.5 290.5 50.7 290.5 49.9 290.5 49.15 290.7 48.3 290.9 47.5 291.25 46.7 291.65 45.9 291.9 45.15 292.05 44.3 292.3 43.5 292.5 42.7 292.65 41.9 292.9 41.05 293.45 40.3 294.05 39.5 294.3 38.7 294.45 37.9 294.85 37.05 295.25 36.3 295.6 35.5 296 34.7 296.6 33.9 297.25 33.05
M 251.35 47
Q 252.6 47.5 253.75 48.05 254.95 48.85 256.1 49.65 257.3 50.45 258.5 51.2 259.5 52.05 260.45 52.85 261.3 53.65 262.05 54.45 262.85 55.2 263.6 56.05 264 56.85 264.4 57.65 264.8 58.45 265.2 59.2 265.8 60.05 266.4 60.85 266.95 61.65 267.6 62.45 267.8 63.2 267.95 64.05 268.35 64.85 268.75 65.65 268.95 66.45 269.15 67.2 269.55 68.05 270 68.85 270.15 69.65 270.35 70.45 270.75 71.2 271.15 72.05 271.3 72.85 271.55 73.65 271.7 74.45 271.95 75.2 272.15 76.05 272.3 76.85 272.3 77.65 272.3 78.45 272.3 79.3 272.3 80.05 272.3 80.85 272.3 81.65 272.3 82.45 272.3 83.3 272.3 84.05 272.3 84.85 272.3 85.65 272.3 86.45 272.3 87.3 272.3 88.05 272.3 88.85 272.3 89.65 272.3 90.5 272.3 91.3 272.3 92.05 272.3 92.85 272.3 93.36328125 272.3 93.9 272.3 94.1953125 272.3 94.5 272.3 95.3 272.3 96.05 272.3 96.85 272.3 97.65 272.3 98.5 272.3 99.3 272.3 100.05 272.3 100.85 272.15 101.65 271.95 102.5 271.7 103.3 271.55 104.05 271.15 104.85 270.75 105.65 270.55 106.5 270.35 107.3 270 108.05 269.55 108.85 269.35 109.65 269.15 110.5 268.6 111.3 267.95 112.05 267.35 112.85 266.8 113.65 266.2 114.5 265.65 115.3 265 116.1 264.4 116.85 263.85 117.65 263.25 118.5 262.25 119.3 261.3 120.1 259.9 120.85 258.5 121.65 256.7 122.5 254.95 123.3 253.75 124.1 252.6 124.85 251.6 125.45 250.6 125.95 249.2 126.2 247.85 126.5 247.25 126.8 246.6 127 239.95 126.8 233.2 126.5 232.4 125.95 231.65 125.45 229.85 124.85 228.05 124.35 226.9 123.55 225.7 122.75 224.9 121.95 224.1 121.15 223.55 120.35 222.95 119.55 222.7 118.75 222.55 117.95 222.55 117.15 222.55 116.35 222.15 115.55 221.75 114.75 221.55 113.95 221.35 113.15 221.15 112.35 221 111.55 220.75 110.7 220.55 109.95 220.55 109.15 220.55 108.35 220.55 107.5 220.55 106.7 220.55 105.95 220.55 105.15 220.55 104.35 220.55 103.5 220.55 102.7 220.55 101.95 220.55 101.15 220.55 100.35 220.55 99.5 220.55 98.7 220.55 97.95 220.55 97.15 220.55 96.35 220.55 95.5 220.75 94.7 221 93.95 221 93.15 221 92.35 221 91.5 221 90.7 221 89.95 221 89.15 221.15 88.35 221.35 87.5 221.55 86.7 221.75 85.95 221.95 85.15 222.15 84.35 222.55 83.5 222.95 82.7 222.95 81.95 222.95 81.15 223.1 80.35 223.3 79.5 223.55 78.7 223.7 77.9 223.95 77.15 224.1 76.35 224.5 75.5 224.9 74.7 225.35 73.9 225.7 73.15 226.3 72.3 226.9 71.5 227.2146484375 70.8705078125 227.5 70.25 227.575390625 70.0705078125 227.65 69.9 227.65 69.15 227.65 68.3 227.65 67.5 227.65 66.7 227.65 65.9 227.65 65.15 227.65 64.3 227.65 63.5 227.65 62.7 227.65 61.9 227.65 61.15 227.65 60.3 227.9 59.5 228.05 58.7 228.3 57.9 228.45 57.15 228.85 56.3 229.25 55.5 229.6 54.7 230.05 53.9 230.45 53.15 230.85 52.3 231.4 51.5 232 50.7 232.8 49.9 233.6 49.15 234.2 48.55 234.8 48.05 235.2 47.8 235.6 47.5 236.35 47.5 237.15 47.5 237.15 47.2 237.15 47 244.3 47 251.35 47
M 252.2 66.7
Q 251.35 65.9 250.6 65.15 249.4 64.3 248.25 63.5 247 62.7 245.85 61.9 244.65 61.65 243.5 61.35 243.3 61.65 243.05 61.9 242.3 62.7 241.5 63.5 240.7 64.3 239.95 65.15 239.15 65.9 238.3 66.7 237.55 67.5 236.75 68.3 235.75 69.15 234.8 69.9 234.35 70.7 233.95 71.5 233.480078125 72.1833984375 232.95 72.9 232.8875 73.026171875 232.8 73.15 232.4 73.9 232 74.7 231.65 75.5 231.25 76.35 230.65 77.15 230.05 77.9 230.05 78.7 230.05 79.5 229.85 80.35 229.6 81.15 229.25 81.95 228.85 82.7 228.65 83.5 228.45 84.35 228.3 85.15 228.05 85.95 228.05 86.7 228.05 87.5 228.05 88.35 228.05 89.15 228.05 89.95 228.05 90.7 227.9 91.5 227.65 92.35 227.3 93.15 226.9 93.95 226.9 94.7 226.9 95.5 226.9 96.35 226.9 97.15 226.9 97.95 226.9 98.7 226.9 99.5 226.9 100.35 226.9 101.15 226.9 101.95 227.05 102.7 227.3 103.5 227.45 104.35 227.65 105.15 228.05 105.95 228.45 106.7 228.85 107.5 229.25 108.35 229.6 109.15 230.05 109.95 230.65 110.7 231.25 111.55 232 112.35 232.8 113.15 236.15 113.95 239.55 114.75 240.5 114.75 241.5 114.75 242.65 113.95 243.9 113.15 245.05 112.35 246.25 111.55 248 110.7 249.8 109.95 251.2 109.15 252.6 108.35 253.55 107.5 254.55 106.7 255.15 105.95 255.7 105.15 256.3 104.35 256.95 103.5 257.5 102.7 258.1 101.95 258.65 101.15 259.3 100.35 259.9 99.5 260.45 98.7 260.65 97.95 260.9 97.15 261.3 96.35 261.65 95.5 261.85 94.7 262.05 93.95 262.45 93.15 262.85 92.35 263 91.5 263.25 90.7 263.45 89.95 263.6 89.15 263.6 89.04609375 263.6 88.95 263.6 88.239453125 263.6 87.5 263.45 86.7 263.25 85.95 262.85 85.15 262.45 84.35 262.25 83.5 262.05 82.7 261.65 81.95 261.3 81.15 261.05 80.35 260.9 79.5 260.45 78.7 260.05 77.9 259.9 77.15 259.65 76.35 259.3 75.5 258.9 74.7 258.5 73.9 258.1 73.15 257.5 72.3 256.95 71.5 255.95 70.7 254.95 69.9 254.3 69.15 253.75 68.3 253 67.5 252.2 66.7
M 163.65 145.15
Q 163.65 145.4 163.65 145.7 163.65 146.5 163.65 147.3 163.65 148.1 163.65 148.85 163.65 149.7 163.65 150.5 163.65 151.3 163.65 152.1 163.65 152.95 163.65 153.7 163.65 154.5 163.65 155.3 163.65 156.1 163.65 156.95 163.85 157.7 164.05 158.5 164.25 159.3 164.45 160.1 164.65 160.95 164.85 161.7 165 162.5 165.25 163.3 165.25 164.1 165.25 164.95 165.45 165.7 165.65 166.5 165.65 167.3 165.65 168.1 165.65 168.95 165.65 169.7 165.65 170.5 165.65 171.3 165.65 172.1 165.65 172.95 165.65 173.7 165.65 174.5 165.85 175.3 166 176.1 166 176.95 166 177.7 166 178.5 166 179.3 166 180.15 166 180.95 166.25 181.7 166.4 182.5 166.65 183.3 166.8 184.15 166.8 184.95 166.8 185.75 167 186.5 167.2 187.3 167.2 188.15 167.2 188.95 167.4 189.75 167.65 190.5 167.8 191.3 168 192.15 168 192.95 168 193.75 168.2 194.5 168.4 195.3 168.6 196.15 168.8 196.95 168.95 197.75 169.2 198.5 169.2 199.3 169.2 200.15 169.35 200.95 169.6 201.75 169.8 202.5 170 203.3 170.2 204.15 170.35 204.95 170.75 205.75 171.15 206.5 171.35 207.3 171.55 208.15 171.75 208.95 172 209.75 172.15 210.5 172.35 211.3 172.55 212.15 172.75 212.95 172.75 213.75 172.75 214.5 172.95 215.3 173.15 216.15 173.3 216.95 173.55 217.75 173.55 218.5 173.55 219.35 173.7 220.15 173.95 220.95 174.1 221.75 174.3 222.55 174.55 223.35 174.7 224.15 174.95 224.95 175.1 225.75 175.35 226.55 175.5 227.35 175.7 228.15 175.9 228.95 176.1 229.75 176.35 230.6 176.5 231.35 176.7 232.15 177.1 232.95 177.5 233.75 177.65 234.6 177.9 235.35 178.05 236.15 178.3 236.95 178.65 237.75 179.05 238.6 179.45 239.35 179.85 240.15 180.25 240.95 180.7 241.75 180.85 242.6 181 243.35 181.45 244.15 181.85 244.95 182.25 245.75 182.65 246.6 183 247.35 183.4 248.15 183.8 248.95 184.2 249.75 184.4 250.6 184.6 251.35 184.95 252.15 185.35 252.95 185.8 253.75 186.2 254.6 186.6 255.4 187 256.15 187.35 256.95 187.75 257.75 188 258.6 188.15 259.4 188.55 260.15 188.95 260.95 189.3 261.75 189.7 262.6 190.15 263.4 190.55 264.15 190.95 264.95 191.3 265.8 191.5 266.6 191.7 267.4 192.1 268.15 192.5 268.95 192.9 269.8 193.3 270.6 193.65 271.4 194.05 272.15 194.5 272.95 194.9 273.8 195.3 274.6 195.65 275.4 196.3 276.15 196.85 276.95 197.25 277.8 197.65 278.6 198.25 279.4 198.85 280.15 199.4 280.95 200 281.8 200.65 282.6 201.2 283.4 201.8 284.15 202.35 284.95 203.2 285.8 204 286.6 204.75 287.4 205.55 288.15 206.3 288.95 207.1 289.8 208.5 290.6 209.9 291.4 210.65 292.2 211.45 292.95 212.45 293.8 213.45 294.6 214.45 295.4 215.4 296.2 216.65 296.95 217.8 297.8 219.35 298.6 221 299.4 222.55 300.2 224.1 300.95 225.7 301.55 227.3 302.1 228.45 302.3 229.6 302.6 230.85 302.9 232 303.1 234.35 303.4 236.75 303.65 237.75 303.95 238.7 304.2 239.7 304.45 240.7 304.75 242.65 304.75 244.65 304.75 245.6 304.45 246.6 304.2 247.65 303.95 248.65 303.65 250.2 303.1 251.75 302.6 253.55 301.8 255.3 300.95 257.1 300.2 258.9 299.4 260.05 298.6 261.3 297.8 262.25 296.95 263.25 296.2 264.25 295.4 265.2 294.6 266.4 293.8 267.6 292.95 268.35 292.2 269.15 291.4 270 290.6 270.75 289.8 271.7 288.95 272.7 288.15 273.5 287.4 274.25 286.6 275.3 285.8 276.3 284.95 277.05 284.15 277.85 283.4 278.45 282.6 279.05 281.8 279.6 280.95 280.25 280.15 280.8 279.4 281.4 278.6 282 277.8 282.6 276.95 283.2 276.15 283.8 275.4 284.35 274.6 284.95 273.8 285.35 272.95 285.75 272.15 286.15 271.4 286.55 270.6 286.95 269.8 287.3 268.95 287.7 268.15 288.15 267.4 288.55 266.6 288.95 265.8 289.3 264.95 289.7 264.15 290.3 263.4 290.9 262.6 291.5 261.75 292.05 260.95 292.5 260.15 292.9 259.4 293.45 258.6 294.05 257.75 294.45 256.95 294.85 256.15 295.45 255.4 296 254.6 296.85 253.75 297.65 252.95 298 252.15 298.4 251.35 298.4 250.6 298.4 249.75 298.65 248.95 298.8 248.15 298.95 247.35 299.2 246.6 299.6 245.75 299.95 244.95 300.35 244.15 300.75 243.35 300.95 242.6 301.2 241.75 301.35 240.95 301.6 240.15 301.75 239.35 301.95 238.6 302.35 237.75 302.75 236.95 303.15 236.15 303.55 235.35 303.75 234.6 303.95 233.75 304.3 232.95 304.7 232.15 305 231.75 305.35 231.4 305.4 231 305.55 230.6 305.95 229.75 306.3 228.95 306.5 228.15 306.7 227.35 307.1 226.55 307.5 225.75 307.65 224.95 307.9 224.15 308.1 223.35 308.3 222.55 308.5 221.75 308.65 220.95 308.9 220.15 309.05 219.35 309.45 218.5 309.9 217.75 310.05 216.95 310.3 216.15 310.65 215.3 311.05 214.5 311.45 213.75 311.85 212.95 312 212.15 312.25 211.3 312.45 210.5 312.6 209.75 312.6 208.95 312.6 208.15 312.7 207.8 312.85 207.45 312.55 207.5 312.25 207.6 311.6 207.85 311.05 208.15 310.3 208.4 309.45 208.65 308.65 208.95 307.9 209.2 307.1 209.45 306.3 209.75 305.55 210 304.7 210.3 303.95 210.5 303.15 210.8 302.55 211.1 301.95 211.3 301.2 211.6 300.35 211.85 299.6 212.15 298.8 212.45 298 212.65 297.25 212.95 296.6 213.2 296 213.45 295.25 213.75 294.45 214 293.85 214.3 293.3 214.5 292.5 214.8 291.65 215.1 291.1 215.3 290.5 215.6 289.7 215.85 288.95 216.15 287.55 216.45 286.15 216.65 284.75 216.95 283.35 217.2 282 217.45 280.65 217.75 272.55 217.75 264.4 217.75 262.85 217.45 261.3 217.2 258.1 216.95 254.95 216.65 248.65 216.45 242.3 216.15 240.7 215.85 239.15 215.6 237.55 215.3 236 215.1 235.35 214.8 234.8 214.5 233.95 214.3 233.2 214 231.8 213.75 230.45 213.45 228.85 213.2 227.3 212.95 225.9 212.65 224.5 212.45 223.1 212.15 221.75 211.85 220.35 211.6 218.95 211.3 218.35 211.1 217.8 210.8 217 210.5 216.2 210.3 215.65 210 215 209.75 214.25 209.45 213.45 209.2 212.85 208.95 212.3 208.65 210.9 208.15 209.5 207.6 207.95 206.8 206.3 206 205.15 205.2 204 204.4 202.75 203.6 201.6 202.8 200.8 202 200 201.2 199.25 200.4 198.4 199.6 197.25 198.8 196.05 198 195.05 197.15 194.05 196.4 193.1 195.6 192.1 194.8 191.1 194 190.15 193.15 189.15 192.4 188.15 191.6 187.15 190.8 186.2 190 185.2 189.15 184.2 188.4 183.65 187.6 183 186.8 182.65 186 182.25 185.15 181.65 184.4 181 183.6 180.45 182.8 179.85 182 179.3 181.15 178.65 180.35 178.3 179.6 177.9 178.8 177.3 178 176.7 177.15 176.1 176.35 175.5 175.6 175.1 174.8 174.7 174 174.3 173.15 173.95 172.35 173.3 171.6 172.75 170.8 172.35 170 172 169.15 171.75 168.35 171.55 167.6 171.35 166.8 171.15 166 170.75 165.15 170.35 164.35 170 163.6 169.6 162.8 169.35 162 169.2 161.15 168.8 160.35 168.4 159.6 168 158.8 167.65 157.95 167.4 157.15 167.2 156.35 166.8 155.6 166.4 154.8 166.25 153.95 166 153.15 165.65 152.35 165.25 151.6 165 150.8 164.85 149.95 164.65 149.15 164.45 148.35 164.45 147.55 164.45 146.8 164.05 145.95 163.65 145.15 Z"/>
</g>
</g>
</g>
</g>
</g>
</svg>
