
<svg xmlns="http://www.w3.org/2000/svg" version="1.1" xmlns:xlink="http://www.w3.org/1999/xlink" preserveAspectRatio="none" x="0px" y="0px" width="1920px" height="1080px" viewBox="0 0 1920 1080">
<defs/>

<g id="Layer_2"/>

<g id="Layer_1"/>

<g id="Layer_3"/>

<g id="Layer_5"/>

<g id="Layer_4">
<g id="Layer_1" transform="matrix( 3.7142333984375, 0, 0, 3.7142333984375, 158.7,24.7) ">
<g>
<g>
<g>
<path fill="#FF9900" stroke="none" d="
M 431.55 277.5
L 431.55 0 0 0 0 277.5 431.55 277.5
M 398.5 21.25
L 398.5 256.25 33.05 256.25 33.05 21.25 398.5 21.25 Z"/>

<path fill="#FFFF00" stroke="none" d="
M 398.5 256.25
L 398.5 21.25 33.05 21.25 33.05 256.25 398.5 256.25
M 48.5 40.15
L 55.7 40.15
Q 62.7 40.15 65.15 40.8 67.6 41.45 68.9 42.9 70.15 44.35 70.5 46.15 70.8 47.95 70.8 53.2
L 70.8 66.15
Q 70.8 71.15 70.35 72.85 69.85 74.5 68.7 75.45 67.55 76.4 65.8 76.8 64.1 77.15 60.65 77.15
L 48.5 77.15 48.5 40.15
M 84 40.15
L 84 77.15 74.35 77.15 74.35 40.15 84 40.15
M 99.25 48.6
Q 99.25 46.7 98.9 46.15 98.6 45.65 97.8 45.65 96.9 45.65 96.5 46.35 96 47.05 96 48.5 96 50.35 96.5 51.3 97 52.2 99.25 53.55 105.65 57.35 107.35 59.8 109 62.25 109 67.7 109 71.65 108.1 73.5 107.15 75.4 104.5 76.65 101.85 77.95 98.35 77.95 94.45 77.95 91.75 76.45 89 75 88.15 72.75 87.3 70.5 87.3 66.3
L 87.3 63.9 96.25 63.9 96.25 68.4
Q 96.25 70.5 96.65 71.05 97 71.65 97.95 71.65 98.9 71.65 99.4 70.9 99.85 70.15 99.85 68.65 99.85 65.4 98.95 64.4 98.05 63.4 94.45 61.05 90.9 58.65 89.7 57.6 88.55 56.5 87.8 54.6 87 52.7 87 49.8 87 45.55 88.1 43.55 89.2 41.6 91.6 40.5 94.05 39.4 97.45 39.4 101.2 39.4 103.85 40.6 106.5 41.8 107.35 43.65 108.2 45.5 108.2 49.9
L 108.2 51.35 99.25 51.35 99.25 48.6
M 124.45 40.15
L 134.1 40.15 134.1 77.15 124.45 77.15 124.45 61.6 121.6 61.6 121.6 77.15 111.95 77.15 111.95 40.15 121.6 40.15 121.6 53.4 124.45 53.4 124.45 40.15
M 137.95 40.15
L 154 40.15 154 47.55 147.6 47.55 147.6 54.6 153.6 54.6 153.6 61.6 147.6 61.6 147.6 69.75 154.65 69.75 154.65 77.15 137.95 77.15 137.95 40.15
M 168.8 48.6
Q 168.8 46.7 168.45 46.15 168.15 45.65 167.35 45.65 166.45 45.65 166.05 46.35 165.55 47.05 165.55 48.5 165.55 50.35 166.05 51.3 166.55 52.2 168.8 53.55 175.2 57.35 176.9 59.8 178.55 62.25 178.55 67.7 178.55 71.65 177.65 73.5 176.7 75.4 174.05 76.65 171.4 77.95 167.9 77.95 164 77.95 161.3 76.45 158.55 75 157.7 72.75 156.85 70.5 156.85 66.3
L 156.85 63.9 165.8 63.9 165.8 68.4
Q 165.8 70.5 166.2 71.05 166.55 71.65 167.5 71.65 168.45 71.65 168.95 70.9 169.4 70.15 169.4 68.65 169.4 65.4 168.5 64.4 167.6 63.4 164 61.05 160.45 58.65 159.25 57.6 158.1 56.5 157.35 54.6 156.55 52.7 156.55 49.8 156.55 45.55 157.65 43.55 158.75 41.6 161.15 40.5 163.6 39.4 167 39.4 170.75 39.4 173.4 40.6 176.05 41.8 176.9 43.65 177.75 45.5 177.75 49.9
L 177.75 51.35 168.8 51.35 168.8 48.6
M 207.75 41.05
Q 210.5 42.65 211.35 45.1 212.25 47.6 212.25 52.75
L 212.25 56.25 202.6 56.25 202.6 49.85
Q 202.6 47.05 202.3 46.35 202 45.65 200.95 45.65 199.75 45.65 199.45 46.5 199.1 47.35 199.1 50.15
L 199.1 67.35
Q 199.1 70 199.45 70.85 199.75 71.65 200.85 71.65 201.95 71.65 202.3 70.85 202.6 70 202.6 67
L 202.6 62.3 212.25 62.3 212.25 63.75
Q 212.25 69.5 211.45 71.9 210.6 74.3 207.85 76.1 205.05 77.95 201 77.95 196.75 77.95 194 76.4 191.3 74.85 190.4 72.15 189.5 69.45 189.5 64
L 189.5 53.2
Q 189.5 49.2 189.75 47.2 190.05 45.2 191.4 43.35 192.75 41.5 195.2 40.45 197.6 39.4 200.7 39.4 204.95 39.4 207.75 41.05
M 217.25 43.35
Q 218.65 41.45 221 40.4 223.35 39.4 226.45 39.4 229.45 39.4 231.8 40.35 234.15 41.3 235.6 43.25 237.05 45.2 237.35 47.5 237.6 49.8 237.6 55.5
L 237.6 61.8
Q 237.6 67.4 237.35 69.7 237.05 72.05 235.7 73.95 234.3 75.85 231.95 76.9 229.6 77.95 226.45 77.95 223.5 77.95 221.15 76.95 218.75 76 217.35 74.05 215.9 72.1 215.6 69.8 215.35 67.55 215.35 61.8
L 215.35 55.5
Q 215.35 49.9 215.6 47.6 215.85 45.3 217.25 43.35
M 372.3 47.55
L 365.9 47.55 365.9 54.6 371.9 54.6 371.9 61.6 365.9 61.6 365.9 69.75 372.95 69.75 372.95 77.15 356.25 77.15 356.25 40.15 372.3 40.15 372.3 47.55
M 332 47.55
L 325.6 47.55 325.6 54.6 331.6 54.6 331.6 61.6 325.6 61.6 325.6 69.75 332.65 69.75 332.65 77.15 315.95 77.15 315.95 40.15 332 40.15 332 47.55
M 333.05 47.55
L 333.05 40.15 354.1 40.15 354.1 47.55 348.4 47.55 348.4 77.15 338.75 77.15 338.75 47.55 333.05 47.55
M 375.4 53.05
L 382.35 53.05 382.35 60.6 375.4 60.6 375.4 53.05
M 375.4 69.6
L 382.35 69.6 382.35 77.15 375.4 77.15 375.4 69.6
M 293.65 42.55
Q 294.7 43.7 295.1 45.4 295.45 47.05 295.45 50.5
L 295.45 53.75
Q 295.45 57.25 294.7 58.9 294 60.5 292.05 61.4 290.05 62.25 286.9 62.25
L 284.35 62.25 284.35 77.15 274.7 77.15 274.7 40.15 284.4 40.15
Q 288.35 40.15 290.45 40.8 292.55 41.4 293.65 42.55
M 298.15 40.15
L 307.8 40.15 307.8 69.75 313.65 69.75 313.65 77.15 298.15 77.15 298.15 40.15
M 258.35 40.15
L 270.85 40.15 270.85 77.15 262.45 77.15 262.45 52.2 259.1 77.15 253.1 77.15 249.6 52.75 249.6 77.15 241.15 77.15 241.15 40.15 253.6 40.15 256.15 57.45 258.35 40.15
M 286.8 47.05
Q 286.2 46.5 284.35 46.5
L 284.35 55.9 285.05 55.9
Q 286.35 55.9 286.9 55.3 287.4 54.6 287.4 52.55
L 287.4 49.55
Q 287.4 47.65 286.8 47.05
M 226.5 45.65
Q 225.75 45.65 225.4 46.25 224.95 46.8 224.95 49.65
L 224.95 66.95
Q 224.95 70.15 225.25 70.9 225.5 71.65 226.45 71.65 227.45 71.65 227.7 70.8 228 69.95 228 66.65
L 228 49.65
Q 228 47.1 227.7 46.35 227.4 45.65 226.5 45.65
M 60.3 46.85
Q 59.7 46.5 58.15 46.5
L 58.15 70.8
Q 60.2 70.8 60.7 70 61.2 69.15 61.2 65.45
L 61 47.85
Q 60.85 47.15 60.3 46.85 Z"/>

<path fill="#000000" stroke="none" d="
M 270.85 40.15
L 258.35 40.15 256.15 57.45 253.6 40.15 241.15 40.15 241.15 77.15 249.6 77.15 249.6 52.75 253.1 77.15 259.1 77.15 262.45 52.2 262.45 77.15 270.85 77.15 270.85 40.15
M 307.8 40.15
L 298.15 40.15 298.15 77.15 313.65 77.15 313.65 69.75 307.8 69.75 307.8 40.15
M 295.1 45.4
Q 294.7 43.7 293.65 42.55 292.55 41.4 290.45 40.8 288.35 40.15 284.4 40.15
L 274.7 40.15 274.7 77.15 284.35 77.15 284.35 62.25 286.9 62.25
Q 290.05 62.25 292.05 61.4 294 60.5 294.7 58.9 295.45 57.25 295.45 53.75
L 295.45 50.5
Q 295.45 47.05 295.1 45.4
M 284.35 46.5
Q 286.2 46.5 286.8 47.05 287.4 47.65 287.4 49.55
L 287.4 52.55
Q 287.4 54.6 286.9 55.3 286.35 55.9 285.05 55.9
L 284.35 55.9 284.35 46.5
M 382.35 69.6
L 375.4 69.6 375.4 77.15 382.35 77.15 382.35 69.6
M 382.35 53.05
L 375.4 53.05 375.4 60.6 382.35 60.6 382.35 53.05
M 333.05 40.15
L 333.05 47.55 338.75 47.55 338.75 77.15 348.4 77.15 348.4 47.55 354.1 47.55 354.1 40.15 333.05 40.15
M 325.6 47.55
L 332 47.55 332 40.15 315.95 40.15 315.95 77.15 332.65 77.15 332.65 69.75 325.6 69.75 325.6 61.6 331.6 61.6 331.6 54.6 325.6 54.6 325.6 47.55
M 365.9 47.55
L 372.3 47.55 372.3 40.15 356.25 40.15 356.25 77.15 372.95 77.15 372.95 69.75 365.9 69.75 365.9 61.6 371.9 61.6 371.9 54.6 365.9 54.6 365.9 47.55
M 221 40.4
Q 218.65 41.45 217.25 43.35 215.85 45.3 215.6 47.6 215.35 49.9 215.35 55.5
L 215.35 61.8
Q 215.35 67.55 215.6 69.8 215.9 72.1 217.35 74.05 218.75 76 221.15 76.95 223.5 77.95 226.45 77.95 229.6 77.95 231.95 76.9 234.3 75.85 235.7 73.95 237.05 72.05 237.35 69.7 237.6 67.4 237.6 61.8
L 237.6 55.5
Q 237.6 49.8 237.35 47.5 237.05 45.2 235.6 43.25 234.15 41.3 231.8 40.35 229.45 39.4 226.45 39.4 223.35 39.4 221 40.4
M 225.4 46.25
Q 225.75 45.65 226.5 45.65 227.4 45.65 227.7 46.35 228 47.1 228 49.65
L 228 66.65
Q 228 69.95 227.7 70.8 227.45 71.65 226.45 71.65 225.5 71.65 225.25 70.9 224.95 70.15 224.95 66.95
L 224.95 49.65
Q 224.95 46.8 225.4 46.25
M 211.35 45.1
Q 210.5 42.65 207.75 41.05 204.95 39.4 200.7 39.4 197.6 39.4 195.2 40.45 192.75 41.5 191.4 43.35 190.05 45.2 189.75 47.2 189.5 49.2 189.5 53.2
L 189.5 64
Q 189.5 69.45 190.4 72.15 191.3 74.85 194 76.4 196.75 77.95 201 77.95 205.05 77.95 207.85 76.1 210.6 74.3 211.45 71.9 212.25 69.5 212.25 63.75
L 212.25 62.3 202.6 62.3 202.6 67
Q 202.6 70 202.3 70.85 201.95 71.65 200.85 71.65 199.75 71.65 199.45 70.85 199.1 70 199.1 67.35
L 199.1 50.15
Q 199.1 47.35 199.45 46.5 199.75 45.65 200.95 45.65 202 45.65 202.3 46.35 202.6 47.05 202.6 49.85
L 202.6 56.25 212.25 56.25 212.25 52.75
Q 212.25 47.6 211.35 45.1
M 168.45 46.15
Q 168.8 46.7 168.8 48.6
L 168.8 51.35 177.75 51.35 177.75 49.9
Q 177.75 45.5 176.9 43.65 176.05 41.8 173.4 40.6 170.75 39.4 167 39.4 163.6 39.4 161.15 40.5 158.75 41.6 157.65 43.55 156.55 45.55 156.55 49.8 156.55 52.7 157.35 54.6 158.1 56.5 159.25 57.6 160.45 58.65 164 61.05 167.6 63.4 168.5 64.4 169.4 65.4 169.4 68.65 169.4 70.15 168.95 70.9 168.45 71.65 167.5 71.65 166.55 71.65 166.2 71.05 165.8 70.5 165.8 68.4
L 165.8 63.9 156.85 63.9 156.85 66.3
Q 156.85 70.5 157.7 72.75 158.55 75 161.3 76.45 164 77.95 167.9 77.95 171.4 77.95 174.05 76.65 176.7 75.4 177.65 73.5 178.55 71.65 178.55 67.7 178.55 62.25 176.9 59.8 175.2 57.35 168.8 53.55 166.55 52.2 166.05 51.3 165.55 50.35 165.55 48.5 165.55 47.05 166.05 46.35 166.45 45.65 167.35 45.65 168.15 45.65 168.45 46.15
M 154 40.15
L 137.95 40.15 137.95 77.15 154.65 77.15 154.65 69.75 147.6 69.75 147.6 61.6 153.6 61.6 153.6 54.6 147.6 54.6 147.6 47.55 154 47.55 154 40.15
M 134.1 40.15
L 124.45 40.15 124.45 53.4 121.6 53.4 121.6 40.15 111.95 40.15 111.95 77.15 121.6 77.15 121.6 61.6 124.45 61.6 124.45 77.15 134.1 77.15 134.1 40.15
M 98.9 46.15
Q 99.25 46.7 99.25 48.6
L 99.25 51.35 108.2 51.35 108.2 49.9
Q 108.2 45.5 107.35 43.65 106.5 41.8 103.85 40.6 101.2 39.4 97.45 39.4 94.05 39.4 91.6 40.5 89.2 41.6 88.1 43.55 87 45.55 87 49.8 87 52.7 87.8 54.6 88.55 56.5 89.7 57.6 90.9 58.65 94.45 61.05 98.05 63.4 98.95 64.4 99.85 65.4 99.85 68.65 99.85 70.15 99.4 70.9 98.9 71.65 97.95 71.65 97 71.65 96.65 71.05 96.25 70.5 96.25 68.4
L 96.25 63.9 87.3 63.9 87.3 66.3
Q 87.3 70.5 88.15 72.75 89 75 91.75 76.45 94.45 77.95 98.35 77.95 101.85 77.95 104.5 76.65 107.15 75.4 108.1 73.5 109 71.65 109 67.7 109 62.25 107.35 59.8 105.65 57.35 99.25 53.55 97 52.2 96.5 51.3 96 50.35 96 48.5 96 47.05 96.5 46.35 96.9 45.65 97.8 45.65 98.6 45.65 98.9 46.15
M 84 77.15
L 84 40.15 74.35 40.15 74.35 77.15 84 77.15
M 55.7 40.15
L 48.5 40.15 48.5 77.15 60.65 77.15
Q 64.1 77.15 65.8 76.8 67.55 76.4 68.7 75.45 69.85 74.5 70.35 72.85 70.8 71.15 70.8 66.15
L 70.8 53.2
Q 70.8 47.95 70.5 46.15 70.15 44.35 68.9 42.9 67.6 41.45 65.15 40.8 62.7 40.15 55.7 40.15
M 58.15 46.5
Q 59.7 46.5 60.3 46.85 60.85 47.15 61 47.85
L 61.2 65.45
Q 61.2 69.15 60.7 70 60.2 70.8 58.15 70.8
L 58.15 46.5 Z"/>
</g>
</g>
</g>
</g>
</g>
</svg>
