
<svg xmlns="http://www.w3.org/2000/svg" version="1.1" xmlns:xlink="http://www.w3.org/1999/xlink" preserveAspectRatio="none" x="0px" y="0px" width="1920px" height="1080px" viewBox="0 0 1920 1080">
<defs/>

<g id="Layer_2"/>

<g id="Layer_1"/>

<g id="Layer_3"/>

<g id="Layer_5"/>

<g id="Layer_4">
<g id="Layer_1" transform="matrix( 5.583251953125, 0, 0, 5.583251953125, 26.25,324.8) ">
<g>
<g>
<g>
<path fill="#999999" stroke="none" d="
M 325.75 22.5
Q 325.25 21.95 324.7 21.4 324.15 20.85 323.6 20.3 322.85 19.7 322.15 19.15 321.25 18.6 320.35 18 319.6 17.5 318.9 16.95 318.15 16.4 317.45 15.8 316.35 15.25 315.25 14.7 314.7 14.15 314.15 13.55 312.55 13.2 310.9 12.8 309.8 12.45 308.7 12 307.65 11.45 306.55 10.95 305.45 10.35 304.35 9.8 303.3 9.25 302.2 8.65 300.35 8.1 298.55 7.5 297.1 6.9 295.65 6.4 292.95 5.95 290.2 5.55 288.6 5.15 286.95 4.8 284.25 4.35 281.5 3.95 279.9 3.55 278.25 3.15 272.1 2.7 265.9 2.25 264.65 2 263.35 1.85 262.85 1.65 262.3 1.4 261.55 1.25 260.85 1.05 246.3 0.65 231.8 0.2 226.75 0.1 221.65 0 221.65 0.2 221.65 0.35 220.75 0.35 219.85 0.35 218.95 0.5 218 0.65 216.2 0.8 214.4 1 191 0.75 167.6 0.55 165.05 0.7 162.5 0.8 161.6 0.95 160.7 1.1 159.8 1.3 158.9 1.5 155.05 1.75 151.25 2.05 150.2 2.4 149.1 2.75 145.3 2.7 141.45 2.6 134.6 2.65 127.7 2.75 126.6 3.05 125.5 3.45 116.25 3.3 107 3.15 104.1 3.25 101.2 3.4 100.1 3.7 99 4.05 92.65 4.35 86.3 4.55 84.85 4.9 83.4 5.2 81.95 5.2 80.5 5.15 76.15 5.3 71.8 5.4 70.7 5.75 69.65 6.1 69.1 6.05 68.55 6.05 64.9 6.2 61.3 6.3 60.2 6.65 59.1 7 55.1 7.3 51.15 7.55 50.05 7.95 48.95 8.25 46.6 8.45 44.25 8.55 44.05 8.75 43.9 8.9 42.6 9.05 41.35 9.25 39.9 9.35 38.45 9.55 37.7 9.85 37 10.2 34.25 10.55 31.55 10.85 30.65 11.2 29.75 11.55 27.9 11.9 26.1 12.2 25.35 12.55 24.65 12.9 22.85 13.25 21 13.6 20.3 13.9 19.55 14.25 18.65 14.8 17.75 15.35 15.75 15.7 13.75 16 13.4 16.15 13.05 16.35 12.7 16.7 12.3 17.1 11.75 17.6 11.2 18.1 9.6 18.5 7.95 18.8 7.4 19.15 6.85 19.5 6.35 20.05 5.8 20.55 4.35 21.1 2.9 21.6 2.35 22.15 1.8 22.7 1.45 23.25 1.05 23.75 0.5 24.3 0 24.8 0 25.35 0 25.9 0 26.45 0 27 0 27.55 0 28.05 0 28.6 0 29.15 0 29.7 0 30.25 0 30.8 0 31.35 0 31.9 0 32.45 0 32.95 0 33.5 0.15 34.05 0.35 34.65 0.7 35.2 1.05 35.75 1.25 36.3 1.45 36.85 2.15 37.4 2.9 37.9 3.4 38.5 3.95 39.05 4.15 39.6 4.35 40.15 4.9 40.7 5.4 41.25 6.5 41.65 7.6 42 7.8 42.2 7.95 42.35 8.3 42.75 8.7 43.1 9.25 43.7 9.75 44.25 10.85 44.6 11.95 45 12.15 45.2 12.3 45.4 12.7 45.75 13.05 46.1 14.15 46.65 15.2 47.25 17.05 47.8 18.85 48.4 19.95 48.75 21 49.15 23.2 49.5 25.35 49.95 26.8 50.35 28.3 50.7 30.1 51.1 31.9 51.5 33.15 51.9 34.45 52.25 36.8 52.65 39.15 53.1 40.45 53.45 41.7 53.85 46.6 54.3 51.5 54.75 53.15 55.15 54.75 55.5 59.65 55.95 64.55 56.45 66.35 56.8 68.2 57.2 70.7 57.35 73.15 57.5 73.2 57.6 73.25 57.65 74 58.05 74.7 58.4 74.7 58.75 74.7 59.1 76 59.55 77.25 59.9 78 60.1 78.7 60.3 78.7 60.65 78.7 61.05 80.15 61.4 81.6 61.8 81.6 62 81.6 62.2 81.6 62.55 81.6 62.9 82.15 63.45 82.7 64 83.6 64.35 84.5 64.75 84.5 65.15 84.5 65.5 86.15 65.85 87.75 66.25 88.15 66.65 88.5 67 91.75 67.4 95.05 67.8 95.2 68 95.4 68.25 95.75 68.6 96.1 68.95 98.3 69.35 100.45 69.75 100.85 70.1 101.2 70.5 107.35 70.95 113.55 71.45 114.25 71.6 115 71.8 115.7 72.2 116.45 72.55 123.5 73.05 130.6 73.55 130.95 73.9 131.3 74.25 138.2 74.75 145.1 75.25 145.45 75.6 145.8 75.95 167.95 76.55 190.1 77.1 191 76.75 191.9 76.4 199.5 76.2 207.15 75.95 207.85 75.55 208.6 75.25 213.1 74.95 217.65 74.7 218.2 74.3 218.75 73.95 224.9 73.7 231.1 73.5 231.1 73.1 231.1 72.75 233.25 72.4 235.45 72.1 235.8 71.7 236.15 71.35 237.25 71.05 238.35 70.7 239.05 70.3 239.8 70 239.95 69.45 240.15 68.9 240.35 68.35 240.5 67.85 240.5 67.55 240.5 67.25 240.9 67.15 241.25 67.1 241.6 66.9 241.95 66.75 242.85 66.6 243.8 66.45 244.3 66.05 244.85 65.7 246.7 65.2 248.5 64.7 250.5 64.35 252.5 64.05 253.2 63.85 253.95 63.65 254.3 63.55 254.65 63.35 255.4 63 256.1 62.65 257.2 62.15 258.3 61.6 259 61.05 259.75 60.5 260.5 60.4 261.2 60.2 261.9 60 262.65 59.85 263.35 59.7 264.1 59.5 269.15 59.45 274.25 59.35 276.05 59 277.9 58.7 280.6 58.35 283.3 58.05 285.3 57.9 287.3 57.75 288.6 57.55 289.85 57.45 290.6 57.25 291.3 57.05 292.05 56.95 292.75 56.75 295.1 56.6 297.45 56.5 298.75 56.15 300 55.75 302.35 55.45 304.75 55.15 305.25 54.95 305.8 54.8 306.7 54.45 307.65 54.1 309.8 53.8 312 53.5 312.7 53.3 313.45 53.1 314.15 52.75 314.9 52.45 315.95 51.9 317.05 51.35 318.9 51.05 320.7 50.75 321.4 50.35 322.15 50 323.6 49.7 325.05 49.3 325.6 49.15 326.15 48.95 326.5 48.65 326.85 48.3 327.4 47.75 327.95 47.2 329.05 46.7 330.1 46.15 330.85 45.6 331.6 45.05 332.1 44.6 332.65 44.05 332.85 43.5 333.05 42.95 333.2 42.4 333.4 41.85 333.75 41.3 334.1 40.75 334.3 40.2 334.5 39.7 334.5 39.15 334.5 38.6 334.5 38.05 334.5 37.5 334.5 36.95 334.5 36.4 334.5 35.85 334.5 35.3 334.5 34.8 334.5 34.25 334.5 33.7 334.5 33.15 334.5 32.6 334.5 32.05 334.5 31.5 334.5 30.95 333.75 30.45 333.05 29.9 332.85 29.35 332.65 28.8 332.5 28.25 332.3 27.7 331.75 27.1 331.2 26.55 330.65 26 330.1 25.5 329.05 25.1 327.95 24.7 327.75 24.5 327.6 24.35 327.2 24 326.85 23.6 326.3 23.05 325.75 22.5
M 201.7 68.6
Q 194.25 68.85 186.8 69.05 185.9 69.4 185 69.8 168.85 69.65 152.7 69.55 152.15 69.2 151.65 68.8 145.1 68.35 138.55 67.85 137.85 67.5 137.1 67.1 130.4 66.65 123.7 66.15 122.6 65.8 121.5 65.4 117.5 65.15 113.55 64.9 110.45 64.85 107.35 64.8 106.8 64.4 106.3 64.05 103.2 63.45 100.1 62.85 97.05 62.45 93.95 62 93.4 61.65 92.85 61.3 91.2 60.85 89.6 60.45 89.6 60.1 89.6 59.75 89 59.45 88.45 59.15 88.3 59.05 88.15 59 88 58.95 87.85 58.9 88.15 58.95 88.5 59 105.9 59.5 123.35 59.95 124.05 60.15 124.8 60.4 125.5 60.55 126.25 60.75 127.5 61 128.75 61.15 165.8 61.8 202.8 62.45 204.4 62.3 206.05 62.15 206.75 61.95 207.5 61.8 208.2 61.65 208.95 61.45 218.95 61.5 228.9 61.6 229.35 61.6 229.8 61.6 229.35 61.9 228.9 62.2 227.45 62.5 226 62.85 225.65 63.2 225.3 63.6 225.3 64.15 225.3 64.7 225.3 65 225.3 65.3 224.95 65.3 224.55 65.35 224.55 65.7 224.55 66.1 218.75 66.35 212.95 66.6 212.4 66.95 211.85 67.35 207.3 67.6 202.8 67.9 202.25 68.25 201.7 68.6
M 325.75 35.15
Q 325.6 35.7 325.4 36.25 325.05 36.8 324.7 37.35 323.95 37.9 323.25 38.4 322.3 38.75 321.4 39.1 321.25 39.3 321.05 39.5 320.7 39.85 320.35 40.15 319.6 40.7 318.9 41.25 317.45 41.55 316 41.9 315.25 42.3 314.5 42.6 312.9 42.95 311.25 43.25 310.55 43.65 309.8 44 308.7 44.5 307.65 45.05 306.55 45.4 305.45 45.7 304 45.9 302.55 46 302 46.2 301.45 46.4 299.65 46.5 297.85 46.7 295.3 47 292.75 47.3 291.5 47.65 290.2 48 288.05 48.15 285.85 48.3 285.3 48.45 284.75 48.6 284.05 48.8 283.3 49 280.25 49.1 277.15 49.25
L 276.95 49.2
Q 272.5 48.95 268.1 48.7 268.1 48.85 268.1 49.05 267.2 49.05 266.25 49.05 265.9 49.25 265.55 49.35 264.8 49.75 264.1 50.1 263.95 50.15 263.8 50.2 260.3 50.25 256.85 50.3 256.1 50.5 255.4 50.65 254.65 50.85 253.95 51 252.5 51.15 251.05 51.3 245.95 51.4 240.9 51.5 240.15 51.7 239.4 51.8 238.7 52 237.95 52.2 236.5 52.3 235.05 52.5 218.4 52.35 201.7 52.25 200.95 52.45 200.25 52.6 199.5 52.8 198.8 52.95 197.35 53.1 195.9 53.25 166.15 52.75 136.4 52.25 134.95 52 133.5 51.85 132.75 51.6 132.05 51.4 131.3 51.25 130.6 51.05 113.35 50.55 96.1 50.1 94.3 49.7 92.5 49.25 84.15 48.8 75.8 48.3 74 47.9 72.15 47.45 67.3 47.05 62.4 46.6 60.75 46.2 59.1 45.8 54.2 45.35 49.3 44.95 48.25 44.5 47.15 44.15 44.6 43.75 42.05 43.35 40.95 42.95 39.9 42.55 38.05 42.2 36.25 41.8 34.6 41.35 33 41 31 40.6 29 40.2 27.9 39.8 26.8 39.45 25.75 39.05 24.65 38.7 23.9 38.5 23.2 38.25 22.45 37.9 21.75 37.55 21.2 37 20.65 36.45 19.75 36.05 18.85 35.7 18.5 35.5 18.1 35.3 17.75 34.95 17.4 34.55 16.85 34 16.3 33.45 15.4 33.1 14.5 32.7 13.95 32.3 13.4 31.95 13.2 31.4 13.05 30.85 13.05 30.3 13.05 29.75 13.4 29.25 13.75 28.7 14.3 28.15 14.85 27.65 16.85 27.1 18.85 26.6 19.4 26.05 19.95 25.5 20.5 25.05 21 24.5 22.45 24.1 23.9 23.8 24.1 23.65 24.3 23.45 24.65 23.1 25 22.7 25.9 22.15 26.8 21.7 29 21.3 31.2 21 31.55 20.65 31.9 20.3 34.1 19.8 36.25 19.3 37.35 18.95 38.45 18.6 40.6 18.5 42.8 18.3 43.5 18 44.25 17.65 46.05 17.25 47.85 16.95 48.6 16.75 49.3 16.65 49.5 16.3 49.7 15.9 52.2 15.6 54.75 15.25 55.85 14.9 56.95 14.55 60.95 14.3 64.9 14 65.65 13.8 66.35 13.6 67.1 13.3 67.8 12.95 71.1 12.65 74.35 12.3 75.6 12 76.9 11.65 78.7 11.35 80.5 10.95 81.2 10.95 81.9 10.95 84.65 10.85 87.4 10.75 88.85 10.4 90.3 10.1 96.65 9.8 103 9.55 103.9 9.4 104.85 9.25 105.55 8.9 106.3 8.5 117.5 8.35 128.75 8.2 130.05 7.9 131.3 7.5 136.4 7.25 141.45 6.95 142.9 7.15 144.35 7.35 145.1 7.75 145.8 8.15 149.8 8.2 153.8 8.3 156.15 8.15 158.5 7.95 159.6 7.85 160.7 7.65 162.7 7.5 164.7 7.4 165.6 7.2 166.5 7.05 167.05 7.05 167.6 7.1 193.35 7.5 219.1 7.95 220.9 7.8 222.75 7.65 223.65 7.5 224.55 7.3 225.45 7.15 226.35 7 229.1 6.85 231.8 6.75 244.7 7.1 257.55 7.55 259.4 7.9 261.2 8.3 267.35 8.8 273.55 9.25 275.15 9.65 276.8 10 279.5 10.45 282.25 10.85 283.85 11.25 285.5 11.6 287.7 11.85 289.85 12.1 290.4 12.25 290.95 12.45 291.85 12.85 292.75 13.2 293.65 13.75 294.55 14.35 295.5 14.9 296.4 15.45 297.45 16.05 298.55 16.6 299.65 17.15 300.75 17.7 301.5185546875 18.084375 302.25 18.45 302.58359375 18.634375 302.9 18.8 304 19.2 305.1 19.6 306.35 19.8 307.65 20 307.8 20.2 308 20.35 308.35 20.75 308.7 21.1 309.35 21.4544921875 310 21.8 310.45 22.025 310.9 22.25 311.6 22.75 312.35 23.35 313.05 23.9 313.8 24.45 314.7 25.05 315.6 25.6 316.35 26.15 317.05 26.7 317.6 27.25 318.15 27.8 318.7 28.35 319.25 28.9 319.8 29.45 320.35 30 320.85 30.6 321.4 31.15 322.5 31.5 323.6 31.9 323.8 32.1 323.95 32.25 324.3 32.65 324.7 33 325.25 33.55 325.75 34.1 325.75 34.65 325.75 35.15
M 289.5 24.25
Q 289.5 23.75 289.5 23.35 289.5 22.8 289.5 22.25 289.5 21.7 289.5 21.15 289.5 20.6 289.5 20.05 287.3 19.45 285.15 18.85 284.05 18.5 282.95 18.15 278.95 18.05 275 18 275 18.2 275 18.35 273.7 18.3 272.45 18.3 271.9 17.95 271.35 17.55 268.1 17.3 264.8 17.05 264.3 17.25 263.75 17.45 262.85 17.6 261.9 17.75 261.35 18.1 260.85 18.45 260.85 19 260.85 19.55 260.85 20.1 260.85 20.65 261 21.2 261.2 21.75 262.85 22.35 264.45 22.9 265.55 23.4 266.65 24 269.15 24.45 271.7 24.85 272.1 25.2 272.45 25.55 275.5 26 278.6 26.4 278.6 26.55 278.6 26.75 262.45 26.65 246.3 26.55 245.6 26.95 244.85 27.25 242.925 27.2333984375 241 27.2 219.725 27.029296875 198.45 26.8 197.7 26.45 197 26.1 189.2 25.75 181.4 25.4 180.45 25.8 179.55 26.15 141.3 25.8 103 25.5 101.0515625 25.4744140625 99.1 25.45 93.4388671875 25.3615234375 87.75 25.25 87.05 24.9 86.3 24.5 77.25 24.15 68.2 23.85 66.75 23.85 65.3 23.8 62.4 23.75 59.5 23.7 59.65 23.5 59.85 23.3 62.2 23.2 64.55 23.05 64.9 22.7 65.3 22.35 66.6 22.2 67.95 22 69.15 21.8 70.35 21.7 70.7 21.35 71.1 21 73.65 20.65 76.15 20.35 76.55 20 76.9 19.65 78.571484375 19.325 80.25 19 80.371484375 18.975 80.5 18.95 80.9 18.6 81.25 18.3 83.05 17.9 84.85 17.6 85.25 17.25 85.6 16.9 86.7 17.05 87.75 17.3 89.75 17.35 91.75 17.35 91.75 17 91.75 16.6 91.75 16.05 91.75 15.5 91.75 15 91.75 14.45 91.4 13.9 91.05 13.35 90.5 12.8 89.95 12.25 85.95 12 81.95 11.75 81.95 11.95 81.95 12.1 81.6 12.3 81.25 12.45 79.6 12.8 78 13.1 77.45 13.45 76.9 13.8 75.25 14.2 73.65 14.5 73.1 14.85 72.55 15.2 70 15.55 67.45 15.85 67.1 16.2 66.75 16.6 64.2 16.9 61.65 17.2 61.3 17.55 60.95 17.95 58.4 18.25 55.85 18.55 55.6953125 18.7046875 55.5 18.85 55.3232421875 19.0767578125 55.1 19.3 52.6 19.6 50.05 19.9 49.7 20.25 49.3 20.65 47.5 21.1 45.7 21.6 45.5 22.15 45.35 22.7 45.35 23.25 45.35 23.8 45.35 24.35 45.35 24.9 45.35 25.45 45.35 25.95 45.35 26.5 45.35 27.05 46.25 27.4 47.15 27.85 47.3 28.2 47.5 28.55 57.85 29.05 68.2 29.65 74.35 29.9 80.5 30.2 80.9625 30.4466796875 81.4 30.65 81.681640625 30.8158203125 81.95 30.95 92.5 31.5 103 32.05 143.85 32.75 184.65 33.45 185.35 33.15 186.1 32.75 188.25 32.65 190.45 32.45 191.15 32.85 191.9 33.25 221.1 33.9 250.3 34.6 250.85 34.25 251.4 33.9 268.1 33.8 284.75 33.75 285.0392578125 33.496875 285.3 33.2 285.403125 33.1107421875 285.5 33 288.75 32.75 292.05 32.45 292.05 32.1 292.05 31.7 292.05 31.2 292.05 30.65 292.05 30.1 292.05 29.55 292.05 29 292.05 28.45 292.05 27.9 292.05 27.35 292.05 26.8 292.05 26.3 291.3 25.85 290.6 25.5 290.6 25.15 290.6 24.8 290.05 24.5 289.5 24.25 Z"/>

<path fill="#FFFFFF" stroke="none" d="
M 325.4 36.25
Q 325.6 35.7 325.75 35.15 325.75 34.65 325.75 34.1 325.25 33.55 324.7 33 324.3 32.65 323.95 32.25 323.8 32.1 323.6 31.9 322.5 31.5 321.4 31.15 320.85 30.6 320.35 30 319.8 29.45 319.25 28.9 318.7 28.35 318.15 27.8 317.6 27.25 317.05 26.7 316.35 26.15 315.6 25.6 314.7 25.05 313.8 24.45 313.05 23.9 312.35 23.35 311.6 22.75 310.9 22.25 310.45 22.025 310 21.8 309.35 21.4544921875 308.7 21.1 308.35 20.75 308 20.35 307.8 20.2 307.65 20 306.35 19.8 305.1 19.6 304 19.2 302.9 18.8 302.58359375 18.634375 302.25 18.45 301.5185546875 18.084375 300.75 17.7 299.65 17.15 298.55 16.6 297.45 16.05 296.4 15.45 295.5 14.9 294.55 14.35 293.65 13.75 292.75 13.2 291.85 12.85 290.95 12.45 290.4 12.25 289.85 12.1 287.7 11.85 285.5 11.6 283.85 11.25 282.25 10.85 279.5 10.45 276.8 10 275.15 9.65 273.55 9.25 267.35 8.8 261.2 8.3 259.4 7.9 257.55 7.55 244.7 7.1 231.8 6.75 229.1 6.85 226.35 7 225.45 7.15 224.55 7.3 223.65 7.5 222.75 7.65 220.9 7.8 219.1 7.95 193.35 7.5 167.6 7.1 167.05 7.05 166.5 7.05 165.6 7.2 164.7 7.4 162.7 7.5 160.7 7.65 159.6 7.85 158.5 7.95 156.15 8.15 153.8 8.3 149.8 8.2 145.8 8.15 145.1 7.75 144.35 7.35 142.9 7.15 141.45 6.95 136.4 7.25 131.3 7.5 130.05 7.9 128.75 8.2 117.5 8.35 106.3 8.5 105.55 8.9 104.85 9.25 103.9 9.4 103 9.55 96.65 9.8 90.3 10.1 88.85 10.4 87.4 10.75 84.65 10.85 81.9 10.95 81.2 10.95 80.5 10.95 78.7 11.35 76.9 11.65 75.6 12 74.35 12.3 71.1 12.65 67.8 12.95 67.1 13.3 66.35 13.6 65.65 13.8 64.9 14 60.95 14.3 56.95 14.55 55.85 14.9 54.75 15.25 52.2 15.6 49.7 15.9 49.5 16.3 49.3 16.65 48.6 16.75 47.85 16.95 46.05 17.25 44.25 17.65 43.5 18 42.8 18.3 40.6 18.5 38.45 18.6 37.35 18.95 36.25 19.3 34.1 19.8 31.9 20.3 31.55 20.65 31.2 21 29 21.3 26.8 21.7 25.9 22.15 25 22.7 24.65 23.1 24.3 23.45 24.1 23.65 23.9 23.8 22.45 24.1 21 24.5 20.5 25.05 19.95 25.5 19.4 26.05 18.85 26.6 16.85 27.1 14.85 27.65 14.3 28.15 13.75 28.7 13.4 29.25 13.05 29.75 13.05 30.3 13.05 30.85 13.2 31.4 13.4 31.95 13.95 32.3 14.5 32.7 15.4 33.1 16.3 33.45 16.85 34 17.4 34.55 17.75 34.95 18.1 35.3 18.5 35.5 18.85 35.7 19.75 36.05 20.65 36.45 21.2 37 21.75 37.55 22.45 37.9 23.2 38.25 23.9 38.5 24.65 38.7 25.75 39.05 26.8 39.45 27.9 39.8 29 40.2 31 40.6 33 41 34.6 41.35 36.25 41.8 38.05 42.2 39.9 42.55 40.95 42.95 42.05 43.35 44.6 43.75 47.15 44.15 48.25 44.5 49.3 44.95 54.2 45.35 59.1 45.8 60.75 46.2 62.4 46.6 67.3 47.05 72.15 47.45 74 47.9 75.8 48.3 84.15 48.8 92.5 49.25 94.3 49.7 96.1 50.1 113.35 50.55 130.6 51.05 131.3 51.25 132.05 51.4 132.75 51.6 133.5 51.85 134.95 52 136.4 52.25 166.15 52.75 195.9 53.25 197.35 53.1 198.8 52.95 199.5 52.8 200.25 52.6 200.95 52.45 201.7 52.25 218.4 52.35 235.05 52.5 236.5 52.3 237.95 52.2 238.7 52 239.4 51.8 240.15 51.7 240.9 51.5 245.95 51.4 251.05 51.3 252.5 51.15 253.95 51 254.65 50.85 255.4 50.65 256.1 50.5 256.85 50.3 260.3 50.25 263.8 50.2 263.95 50.15 264.1 50.1 264.8 49.75 265.55 49.35 265.9 49.25 266.25 49.05 267.2 49.05 268.1 49.05 268.1 48.85 268.1 48.7 272.5 48.95 276.95 49.2
L 277.15 49.25
Q 280.25 49.1 283.3 49 284.05 48.8 284.75 48.6 285.3 48.45 285.85 48.3 288.05 48.15 290.2 48 291.5 47.65 292.75 47.3 295.3 47 297.85 46.7 299.65 46.5 301.45 46.4 302 46.2 302.55 46 304 45.9 305.45 45.7 306.55 45.4 307.65 45.05 308.7 44.5 309.8 44 310.55 43.65 311.25 43.25 312.9 42.95 314.5 42.6 315.25 42.3 316 41.9 317.45 41.55 318.9 41.25 319.6 40.7 320.35 40.15 320.7 39.85 321.05 39.5 321.25 39.3 321.4 39.1 322.3 38.75 323.25 38.4 323.95 37.9 324.7 37.35 325.05 36.8 325.4 36.25
M 289.5 23.35
Q 289.5 23.75 289.5 24.25 290.05 24.5 290.6 24.8 290.6 25.15 290.6 25.5 291.3 25.85 292.05 26.3 292.05 26.8 292.05 27.35 292.05 27.9 292.05 28.45 292.05 29 292.05 29.55 292.05 30.1 292.05 30.65 292.05 31.2 292.05 31.7 292.05 32.1 292.05 32.45 288.75 32.75 285.5 33 285.403125 33.1107421875 285.3 33.2 285.0392578125 33.496875 284.75 33.75 268.1 33.8 251.4 33.9 250.85 34.25 250.3 34.6 221.1 33.9 191.9 33.25 191.15 32.85 190.45 32.45 188.25 32.65 186.1 32.75 185.35 33.15 184.65 33.45 143.85 32.75 103 32.05 92.5 31.5 81.95 30.95 81.681640625 30.8158203125 81.4 30.65 80.9625 30.4466796875 80.5 30.2 74.35 29.9 68.2 29.65 57.85 29.05 47.5 28.55 47.3 28.2 47.15 27.85 46.25 27.4 45.35 27.05 45.35 26.5 45.35 25.95 45.35 25.45 45.35 24.9 45.35 24.35 45.35 23.8 45.35 23.25 45.35 22.7 45.5 22.15 45.7 21.6 47.5 21.1 49.3 20.65 49.7 20.25 50.05 19.9 52.6 19.6 55.1 19.3 55.3232421875 19.0767578125 55.5 18.85 55.6953125 18.7046875 55.85 18.55 58.4 18.25 60.95 17.95 61.3 17.55 61.65 17.2 64.2 16.9 66.75 16.6 67.1 16.2 67.45 15.85 70 15.55 72.55 15.2 73.1 14.85 73.65 14.5 75.25 14.2 76.9 13.8 77.45 13.45 78 13.1 79.6 12.8 81.25 12.45 81.6 12.3 81.95 12.1 81.95 11.95 81.95 11.75 85.95 12 89.95 12.25 90.5 12.8 91.05 13.35 91.4 13.9 91.75 14.45 91.75 15 91.75 15.5 91.75 16.05 91.75 16.6 91.75 17 91.75 17.35 89.75 17.35 87.75 17.3 86.7 17.05 85.6 16.9 85.25 17.25 84.85 17.6 83.05 17.9 81.25 18.3 80.9 18.6 80.5 18.95 80.371484375 18.975 80.25 19 78.571484375 19.325 76.9 19.65 76.55 20 76.15 20.35 73.65 20.65 71.1 21 70.7 21.35 70.35 21.7 69.15 21.8 67.95 22 66.6 22.2 65.3 22.35 64.9 22.7 64.55 23.05 62.2 23.2 59.85 23.3 59.65 23.5 59.5 23.7 62.4 23.75 65.3 23.8 66.75 23.85 68.2 23.85 77.25 24.15 86.3 24.5 87.05 24.9 87.75 25.25 93.4388671875 25.3615234375 99.1 25.45 101.0515625 25.4744140625 103 25.5 141.3 25.8 179.55 26.15 180.45 25.8 181.4 25.4 189.2 25.75 197 26.1 197.7 26.45 198.45 26.8 219.725 27.029296875 241 27.2 242.925 27.2333984375 244.85 27.25 245.6 26.95 246.3 26.55 262.45 26.65 278.6 26.75 278.6 26.55 278.6 26.4 275.5 26 272.45 25.55 272.1 25.2 271.7 24.85 269.15 24.45 266.65 24 265.55 23.4 264.45 22.9 262.85 22.35 261.2 21.75 261 21.2 260.85 20.65 260.85 20.1 260.85 19.55 260.85 19 260.85 18.45 261.35 18.1 261.9 17.75 262.85 17.6 263.75 17.45 264.3 17.25 264.8 17.05 268.1 17.3 271.35 17.55 271.9 17.95 272.45 18.3 273.7 18.3 275 18.35 275 18.2 275 18 278.95 18.05 282.95 18.15 284.05 18.5 285.15 18.85 287.3 19.45 289.5 20.05 289.5 20.6 289.5 21.15 289.5 21.7 289.5 22.25 289.5 22.8 289.5 23.35
M 186.8 69.05
Q 194.25 68.85 201.7 68.6 202.25 68.25 202.8 67.9 207.3 67.6 211.85 67.35 212.4 66.95 212.95 66.6 218.75 66.35 224.55 66.1 224.55 65.7 224.55 65.35 224.95 65.3 225.3 65.3 225.3 65 225.3 64.7 225.3 64.15 225.3 63.6 225.65 63.2 226 62.85 227.45 62.5 228.9 62.2
L 228.9 61.6
Q 218.95 61.5 208.95 61.45 208.2 61.65 207.5 61.8 206.75 61.95 206.05 62.15 204.4 62.3 202.8 62.45 165.8 61.8 128.75 61.15 127.5 61 126.25 60.75 125.5 60.55 124.8 60.4 124.05 60.15 123.35 59.95 105.9 59.5 88.5 59
L 88.45 59.15
Q 89 59.45 89.6 59.75 89.6 60.1 89.6 60.45 91.2 60.85 92.85 61.3 93.4 61.65 93.95 62 97.05 62.45 100.1 62.85 103.2 63.45 106.3 64.05 106.8 64.4 107.35 64.8 110.45 64.85 113.55 64.9 117.5 65.15 121.5 65.4 122.6 65.8 123.7 66.15 130.4 66.65 137.1 67.1 137.85 67.5 138.55 67.85 145.1 68.35 151.65 68.8 152.15 69.2 152.7 69.55 168.85 69.65 185 69.8 185.9 69.4 186.8 69.05 Z"/>
</g>
</g>
</g>
</g>
</g>
</svg>
