
<svg xmlns="http://www.w3.org/2000/svg" version="1.1" xmlns:xlink="http://www.w3.org/1999/xlink" preserveAspectRatio="none" x="0px" y="0px" width="1920px" height="1080px" viewBox="0 0 1920 1080">
<defs/>

<g id="Layer_2"/>

<g id="Layer_1"/>

<g id="Layer_3"/>

<g id="Layer_5"/>

<g id="Layer_4">
<g id="Layer_1" transform="matrix( 4.5909271240234375, 0, 0, 4.5909271240234375, 529.4,28.85) ">
<g>
<g>
<g>
<path fill="#000000" stroke="none" d="
M 164.55 5.85
Q 163.85 5.5 163.15 5.15 162.65 4.8 162.1 4.45 161.25 4.15 160.4 3.8 159.9 3.45 159.35 3.1 158.35 2.75 157.3 2.4 156.95 2.05 156.6 1.7 155.6 1.35 154.55 1.05 154.05 0.7 153.5 0.35 144.55 0.15 135.6 0 135.3 0 134.95 0 134.95 0.15 134.95 0.35 133.55 0.35 132.2 0.35 131.9 0.5 131.6 0.7 131.35 0.7 131.15 0.7 129.95 1.05 128.75 1.35 127.7 1.55 126.65 1.7 126.35 1.9 126 2.05 124.95 2.4 123.9 2.75 122.9 3.25 121.85 3.8 120.65 4.3 119.45 4.8 118.4 5.35 117.4 5.85 116.35 6.35 115.3 6.9 114.6 7.4 113.95 7.9 113.25 8.45 112.55 8.95 111.85 9.45 111.2 10 110.5 10.5 109.8 11 109.1 11.55 108.45 12.05 107.55 12.55 106.7 13.1 106.2 13.6 105.65 14.1 105.15 14.6 104.65 15.15 104.15 15.65 103.6 16.15 103.45 16.35 103.3 16.55 103.1 16.7 102.9 16.85 102.25 17.4 101.55 17.9 101.2 18.35 100.9 18.9 100.7 19.05 100.5 19.25 100.35 19.45 100.2 19.65 100 19.8 99.8 19.95 99.3 20.5 98.8 21 98.25 21.5 97.75 22 97.6 22.55 97.4 23.05 97.05 23.55 96.75 24.1 96.55 24.6 96.4 25.1 96.2 25.65 96.05 26.15 95.85 26.65 95.7 27.2 95.5 27.7 95.35 28.2 95.2 28.75 95 29.25 94.65 29.75 94.3 30.3 94.15 30.8 93.95 31.3 93.65 31.85 93.3 32.35 93.1 32.85 92.95 33.4 92.75 33.9 92.6 34.4 92.6 34.95 92.6 35.45 92.6 35.95 92.6 36.5 92.6 37 92.6 37.5 92.6 38.05 92.6 38.55 92.6 39.05 92.6 39.6 92.4 39.05 92.25 38.55 91.9 38.05 91.55 37.5 91.2 37 90.85 36.5 90.7 35.95 90.55 35.45 90 34.95 89.5 34.4 89.3 33.9 89.15 33.4 88.65 32.85 88.1 32.35 87.8 31.85 87.45 31.3 87.1 30.8 86.75 30.3 85.9 29.75 85 29.25 84.7 28.75 84.35 28.2 84.15 27.7 84 27.2 83.3 26.85 82.6 26.5 82.1 26.15 81.6 25.8 80.7 25.3 79.85 24.8 79.35 24.25 78.85 23.75 78.3 23.25 77.8 22.7 76.95 22.35 76.05 22 75.9 21.85 75.75 21.7 75.55 21.35 75.4 21 74.35 20.65 73.3 20.3 73 19.95 72.65 19.6 71.1 19.25 69.55 18.95 68.35 18.75 67.1 18.6 66.45 18.25 65.75 17.9 64.35 17.55 63 17.2 62.8 16.85 62.65 16.5 60.75 16.15 58.85 15.85 58.5 15.65 58.15 15.5 58 15.15 57.85 14.8 43.55 14.6 29.25 14.45 28.9 14.8 28.55 15.15 27.35 15.5 26.15 15.85 25.8 16.15 25.5 16.5 24.95 17.05 24.45 17.55 23.75 18.05 23.05 18.6 22.2 19.1 21.35 19.6 20.5 20.15 19.6 20.65 18.75 21.15 17.9 21.7 17.2 22.2 16.55 22.7 16.2 23.25 15.85 23.75 15.5 24.25 15.15 24.8 14.65 25.3 14.1 25.8 13.6 26.35 13.1 26.85 12.55 27.35 12.05 27.9 11.7 28.4 11.35 28.9 10.85 29.4 10.35 29.95 9.65 30.45 8.95 30.95 8.8 31.5 8.6 32 7.9 32.5 7.25 33.05 7.05 33.55 6.9 34.05 6.55 34.6 6.2 35.1 6.05 35.6 5.85 36.15 5.85 36.65 5.85 37.15 5.5 37.7 5.15 38.2 5 38.7 4.8 39.25 4.8 39.75 4.8 40.25 4.65 40.8 4.5 41.3 4.15 41.8 3.8 42.35 3.6 42.85 3.45 43.35 3.45 43.9 3.45 44.4 3.45 44.9 3.45 45.45 3.45 45.95 3.45 46.45 3.45 47 3.45 47.5 3.45 48 3.45 48.55 3.1 49.05 2.75 49.55 2.6 50.1 2.4 50.6 2.4 51.1 2.4 51.65 2.4 52.15 2.4 52.65 2.25 53.15 2.05 53.7 1.9 54.2 1.75 54.7 1.4 55.25 1.05 55.75 1.05 56.25 1.05 56.8 1.05 57.3 1.05 57.8 1.05 58.35 1.05 58.85 1.05 59.35 1.05 59.9 1.05 60.4 1.05 60.9 1.05 61.45 1.05 61.95 0.85 62.45 0.7 63 0.35 63.5 0 64 0 64.55 0 65.05 0 65.55 0 66.1 0 66.6 0 67.1 0 67.65 0 68.15 0 68.65 0 69.2 0 69.7 0 70.2 0 70.75 0 71.25 0 71.75 0 72.3 0 72.8 0 73.3 0 73.85 0 74.35 0 74.85 0 75.4 0 75.9 0 76.4 0 76.9 0 77.45 0 77.95 0 78.45 0 79 0 79.5 0 80 0 80.55 0 81.05 0 81.55 0 82.1 0 82.6 0.2 83.1 0.35 83.65 1.05 84.15 1.75 84.65 1.75 85.2 1.75 85.7 2.05 86.2 2.4 86.75 2.75 87.25 3.1 87.75 3.25 88.3 3.45 88.8 3.8 89.3 4.15 89.85 4.3 90.35 4.5 90.85 4.8 91.4 5.15 91.9 5.35 92.4 5.5 92.95 5.7 93.45 5.85 93.95 6.2 94.5 6.55 95 6.9 95.5 7.25 96.05 7.4 96.55 7.6 97.05 7.9 97.6 8.25 98.1 8.45 98.6 8.6 99.15 8.8 99.65 8.95 100.15 9.3 100.65 9.65 101.2 9.8 101.7 10 102.2 10.15 102.75 10.35 103.25 10.85 103.75 11.35 104.3 11.9 104.8 12.4 105.3 12.55 105.85 12.75 106.35 12.9 106.85 13.1 107.4 13.6 107.9 14.1 108.4 14.3 108.95 14.45 109.45 14.65 109.95 14.8 110.5 15.3 111 15.85 111.5 16.35 112.05 16.85 112.55 17.05 113.05 17.2 113.6 17.4 114.1 17.55 114.6 17.9 115.15 18.25 115.65 18.95 116.15 19.6 116.7 20.15 117.2 20.65 117.7 21.15 118.25 21.7 118.75 21.85 119.25 22.05 119.8 22.55 120.3 23.05 120.8 23.6 121.35 24.1 121.85 25.15 122.2 26.15 122.55 26.35 122.7 26.5 122.9 26.85 123.2 27.2 123.55 27.7 124.1 28.25 124.6 28.75 125.1 29.25 125.65 29.8 126.15 30.3 126.65 30.8 127.2 31.35 127.7 31.85 128.2 32.35 128.75 34.1 129.05 35.8 129.4 36.15 129.75 36.5 130.1 37 130.6 37.5 131.15 38.2 131.65 38.9 132.15 39.75 132.7 40.6 133.2 41.3 133.7 42 134.25 42.5 134.75 43.05 135.25 43.55 135.8 44.05 136.3 44.6 136.8 45.1 137.35 45.95 137.85 46.8 138.35 47.7 138.9 48.55 139.4 49.4 139.9 50.25 140.45 50.95 140.95 51.65 141.45 52.5 142 53.35 142.5 54.05 143 54.75 143.55 55.25 144.05 55.75 144.55 56.3 145.1 56.8 145.6 57.3 146.1 57.85 146.65 58.7 147.15 59.55 147.65 60.4 148.15 61.25 148.7 62.8 149.05 64.35 149.4 64.9 149.7 65.4 150.05 66.25 150.6 67.1 151.1 67.65 151.6 68.15 152.15 68.65 152.65 69.2 153.15 69.7 153.7 70.2 154.2 70.75 154.7 71.25 155.25 71.75 155.75 72.3 156.25 72.8 156.8 73.3 157.3 73.85 157.8 74.35 158.35 74.5 158.85 74.7 159.35 74.85 159.9 75.05 160.4 75.55 160.9 76.05 161.45 76.6 161.95 77.1 162.45 77.6 162.95 78.15 163.5 78.5 164 78.85 164.5 79.15 165.05 79.5 165.55 79.7 166.05 79.85 166.6 80.05 167.1 80.2 167.6 80.4 168.15 80.55 168.65 81.25 169.15 81.9 169.7 82.6 170.2 83.3 170.7 83.8 171.25 84.35 171.75 84.85 172.25 85.35 172.8 85.7 173.3 86.05 173.8 86.4 174.35 86.75 174.85 86.9 175.35 87.1 175.9 87.6 176.4 88.1 176.9 88.65 177.45 89.15 177.95 89.65 178.45 90.2 179 90.7 179.5 91.2 180 91.75 180.55 92.25 181.05 92.95 181.55 93.65 182.1 94.3 182.6 95 183.1 95.5 183.65 96.05 184.15 96.2 184.65 96.4 185.2 96.75 185.7 97.05 186.2 97.4 186.7 97.75 187.25 98.25 187.75 98.8 188.25 99.3 188.8 99.8 189.3 100.35 189.8 100.85 190.35 101.05 190.85 101.2 191.35 101.35 191.9 101.55 192.4 101.55 192.9 101.55 193.45 101.9 193.95 102.25 194.45 102.6 195 102.9 195.5 103.25 196 103.6 196.55 103.95 197.05 104.3 197.55 104.65 198.1 105 198.6 105.5 199.1 106 199.65 106.35 200.15 106.7 200.65 106.9 201.2 107.05 201.7 107.05 202.2 107.05 202.75 107.2 203.25 107.4 203.75 107.9 204.3 108.45 204.8 108.95 205.3 109.45 205.85 110 206.35 110.5 206.85 111 207.4 111.55 207.9 111.85 208.4 112.2 208.95 112.9 209.45 113.6 209.95 113.75 210.45 113.95 211 114.1 211.5 114.3 212 114.6 212.55 114.95 213.05 115.15 213.55 115.3 214.1 116 214.6 116.7 215.1 116.7 215.65 116.7 216.15 116.85 216.65 117.05 217.2 117.4 217.7 117.7 218.2 117.7 218.75 117.7 219.25 117.9 219.75 118.05 220.3 118.25 220.8 118.4 221.3 118.95 221.85 119.45 222.35 122.55 222.5 125.65 222.7 125.65 222.5 125.65 222.35 125.65 222 125.65 221.65 125.65 221.15 125.65 220.65 125.65 220.1 125.65 219.6 125.65 219.1 125.65 218.55 125.65 218.05 125.65 217.55 125.65 217 125.65 216.5 125.65 216 125.65 215.45 124.95 215.1 124.25 214.8 124.25 214.6 124.25 214.45 124.25 214.1 124.25 213.75 124.25 213.25 124.25 212.7 124.25 212.2 124.25 211.7 123.75 211.15 123.25 210.65 123.05 210.15 122.9 209.6 122.7 209.1 122.55 208.6 122.35 208.05 122.2 207.55 122.2 207.05 122.2 206.5 122.35 206 122.55 205.5 122.55 204.95 122.55 204.45 123.05 203.95 123.55 203.4 123.75 202.9 123.9 202.4 123.9 201.85 123.9 201.35 123.9 200.85 123.9 200.3 124.1 199.8 124.25 199.3 124.25 198.75 124.25 198.25 124.25 197.75 124.25 197.2 124.45 196.7 124.6 196.2 124.95 195.65 125.3 195.15 125.45 194.65 125.65 194.15 125.65 193.6 125.65 193.1 126 192.6 126.35 192.05 126.5 191.55 126.65 191.05 126.85 190.5 127 190 127.2 189.5 127.35 188.95 127.35 188.45 127.35 187.95 127.35 187.4 127.35 186.9 127.35 186.4 127.35 185.85 127.35 185.35 127.35 184.85 127.7 184.3 128.05 183.8 128.4 183.3 128.75 182.75 128.9 182.25 129.1 181.75 129.1 181.2 129.1 180.7 129.1 180.2 129.1 179.65 129.1 179.15 129.1 178.65 129.1 178.1 129.1 177.6 129.25 177.1 129.4 176.55 129.4 176.05 129.4 175.55 129.4 175 129.4 174.5 129.75 174 130.1 173.45 130.3 172.95 130.45 172.45 130.65 171.9 130.8 171.4 130.8 170.9 130.8 170.4 131.3 169.85 131.85 169.35 132 168.85 132.2 168.3 132.35 167.8 132.5 167.3 132.5 166.75 132.5 166.25 133.05 165.75 133.55 165.2 134.05 164.7 134.6 164.2 134.75 163.65 134.95 163.15 135.1 162.65 135.3 162.1 135.3 161.6 135.3 161.1 135.6 160.55 135.95 160.05 136.3 159.55 136.65 159 136.65 158.5 136.65 158 137 157.45 137.35 156.95 137.7 156.45 138.05 155.9 138.2 155.4 138.35 154.9 138.7 154.35 139.05 153.85 139.25 153.35 139.4 152.8 139.75 152.3 140.1 151.8 140.25 151.25 140.45 150.75 140.6 150.25 140.8 149.7 141.3 149.2 141.8 148.7 142.35 148.15 142.85 147.65 143.2 147.15 143.55 146.65 143.7 146.1 143.9 145.6 143.9 145.1 143.9 144.55 144.4 144.05 144.9 143.55 145.1 143 145.25 142.5 145.45 142 145.6 141.45 146.1 140.95 146.65 140.45 147 139.9 147.3 139.4 147.65 138.9 148 138.35 148 137.85 148 137.35 148.35 136.8 148.7 136.3 149.05 135.8 149.4 135.25 149.75 134.75 150.1 134.25 150.4 133.7 150.75 133.2 151.1 132.7 151.45 132.15 151.95 131.65 152.5 131.15 153 130.6 153.5 130.1 153.7 129.6 153.85 129.05 154.55 128.55 155.25 128.05 155.95 127.5 156.6 127 157.15 126.5 157.65 125.95 158.15 125.45 158.7 124.95 158.85 124.4 159.05 123.9 159.2 123.4 159.35 122.9 159.9 122.35 160.4 121.85 160.9 121.35 161.45 120.8 162.1 120.3 162.8 119.8 163.65 119.25 164.55 118.75 165.2 118.25 165.9 117.7 166.45 117.2 166.95 116.7 167.1 116.15 167.3 115.65 167.45 115.15 167.65 114.6 168.15 114.1 168.65 113.6 169.2 113.05 169.7 112.55 170.55 112.2 171.4 111.85 171.75 111.5 172.1 111.15 172.8 110.65 173.5 110.15 174 109.6 174.5 109.1 175.05 108.6 175.55 108.05 175.9 107.55 176.25 107.05 176.6 106.55 176.9 106 177.1 105.5 177.25 105 177.45 104.45 177.6 103.95 178.15 103.45 178.65 102.9 178.8 102.4 179 101.9 179.15 101.35 179.35 100.85 179.7 100.35 180 99.8 180.2 99.3 180.35 98.8 180.7 98.25 181.05 97.75 181.4 97.25 181.75 96.7 181.75 96.2 181.75 95.7 182.1 95.15 182.45 94.65 182.8 94.15 183.1 93.6 183.3 93.1 183.45 92.6 183.45 92.05 183.45 91.55 183.45 91.05 183.45 90.5 183.45 90 183.45 89.5 183.8 88.95 184.15 88.45 184.5 87.95 184.85 87.4 184.85 86.9 184.85 86.4 184.85 85.85 184.85 85.35 184.85 84.85 184.85 84.3 185 83.8 185.2 83.3 185.55 82.8 185.85 82.25 186.05 81.75 186.2 81.25 186.2 80.7 186.2 80.2 186.2 79.7 186.2 79.15 186.2 78.65 186.2 78.15 186.2 77.6 186.2 77.1 186.55 76.6 186.9 76.05 187.1 75.55 187.25 75.05 187.4 74.5 187.6 74 187.6 73.5 187.6 72.95 187.6 72.45 187.6 71.95 187.6 71.4 187.6 70.9 187.6 70.4 187.6 69.85 187.6 69.35 187.6 68.85 187.6 68.3 187.6 67.8 187.6 67.3 187.6 66.75 187.6 66.25 187.6 65.75 187.6 65.2 187.6 64.7 187.6 64.2 187.6 63.65 187.6 63.15 187.6 62.65 187.6 62.1 187.6 61.6 187.6 61.1 187.6 60.6 187.6 60.05 187.6 59.55 187.4 59.05 187.25 58.5 187.25 58 187.25 57.5 186.9 56.95 186.55 56.45 186.55 55.95 186.55 55.4 186.55 54.9 186.55 54.4 186.2 53.85 185.85 53.35 185.55 52.85 185.2 52.3 185.2 51.8 185.2 51.3 185.2 50.75 185.2 50.25 185.2 49.75 185.2 49.2 185.2 48.7 185.2 48.2 185.2 47.65 185.2 47.15 184.85 46.65 184.5 46.1 184.15 45.6 183.8 45.1 183.8 44.55 183.8 44.05 183.8 43.55 183.8 43 183.8 42.5 183.8 42 183.8 41.45 183.8 40.95 183.65 40.45 183.45 39.9 183.1 39.4 182.8 38.9 182.6 38.35 182.45 37.85 182.45 37.35 182.45 36.85 182.45 36.3 182.45 35.8 182.45 35.3 182.45 34.75 182.1 34.25 181.75 33.75 181.4 33.2 181.05 32.7 180.9 32.2 180.7 31.65 180.35 31.15 180 30.65 179.85 30.1 179.7 29.6 179.7 29.1 179.7 28.55 179.5 28.05 179.35 27.55 179 27 178.65 26.5 178.45 26 178.3 25.45 178.3 24.95 178.3 24.45 178.15 23.9 177.95 23.4 177.6 22.9 177.25 22.35 177.1 21.85 176.9 21.35 176.75 20.8 176.6 20.3 176.05 19.8 175.55 19.25 175.05 18.75 174.5 18.25 174 17.7 173.5 17.2 173.15 16.7 172.8 16.15 172.6 15.65 172.45 15.15 172.1 14.6 171.75 14.1 171.25 13.6 170.75 13.1 170.4 12.55 170.05 12.05 169.85 11.55 169.7 11 169.2 10.5 168.65 10 167.65 9.45 166.6 8.95 166.1 8.45 165.55 7.9 165.05 7.4 164.55 6.9 164.55 6.35 164.55 5.85
M 162.8 31.3
Q 163.35 31.85 163.85 32.35 164.2 32.85 164.55 33.4 164.55 33.9 164.55 34.4 164.9 34.95 165.2 35.45 165.55 35.95 165.9 36.5 165.9 37 165.9 37.5 165.9 38.05 165.9 38.55 166.45 39.05 166.95 39.6 167.1 40.1 167.3 40.6 167.3 41.15 167.3 41.65 167.3 42.15 167.3 42.7 167.65 43.2 167.95 43.7 168.3 44.25 168.65 44.75 168.65 45.25 168.65 45.75 169.2 46.3 169.7 46.8 169.85 47.3 170.05 47.85 170.05 48.35 170.05 48.85 170.05 49.4 170.05 49.9 170.05 50.4 170.05 50.95 170.4 51.45 170.75 51.95 171.05 52.5 171.4 53 171.4 53.5 171.4 54.05 171.4 54.55 171.4 55.05 171.4 55.6 171.4 56.1 171.4 56.6 171.4 57.15 171.6 57.65 171.75 58.15 172.1 58.7 172.45 59.2 172.6 59.7 172.8 60.25 172.8 60.75 172.8 61.25 172.8 61.8 172.8 62.3 172.8 62.8 172.8 63.35 172.8 63.85 172.8 64.35 173.15 64.9 173.5 65.4 173.65 65.9 173.85 66.45 174 66.95 174.15 67.45 174.15 68 174.15 68.5 174.35 69 174.5 69.5 174.35 70.05 174.15 70.55 173.85 71.05 173.5 71.6 173.3 72.1 173.15 72.6 173.15 73.15 173.15 73.65 173.15 74.15 173.15 74.7 173.15 75.2 173.15 75.7 172.8 76.25 172.45 76.75 172.1 77.25 171.75 77.8 171.75 78.3 171.75 78.8 171.75 79.35 171.75 79.85 171.75 80.35 171.75 80.9 171.75 81.4 171.75 81.9 171.75 82.45 171.75 82.95 171.6 83.45 171.4 84 171.05 84.5 170.75 85 170.55 85.55 170.4 86.05 170.05 86.55 169.7 87.1 169.5 87.6 169.35 88.1 169 88.65 168.65 89.15 168.3 89.65 167.95 90.2 167.95 90.7 167.95 91.2 167.65 91.75 167.3 92.25 166.95 92.75 166.6 93.25 166.45 93.8 166.25 94.3 165.9 94.8 165.55 95.35 165.4 95.85 165.2 96.35 164.55 96.9 163.85 97.4 163.35 97.9 162.8 98.45 162.3 98.95 161.8 99.45 161.45 100 161.1 100.5 160.55 101 160.05 101.55 159.55 102.05 159.05 102.55 158.5 103.1 158 103.6 157.65 104.1 157.3 104.65 157.15 105.15 156.95 105.65 156.6 106.2 156.25 106.7 155.75 107.2 155.25 107.75 154.4 108.25 153.5 108.75 152.65 109.3 151.8 109.8 151.3 110.3 150.75 110.85 150.25 111.35 149.75 111.85 149.4 112.4 149.05 112.9 148.85 113.4 148.7 113.95 148.35 114.45 148 114.95 147.5 115.5 147 116 146.45 116.5 145.95 117 145.6 117.55 145.25 118.05 144.9 118.55 144.55 119.1 144.2 119.6 143.9 120.1 143.35 120.65 142.85 121.15 142.35 121.65 141.8 122.2 141.45 122.7 141.15 123.2 140.95 123.75 140.8 124.25 140.25 124.75 139.75 125.3 139.6 125.8 139.4 126.3 138.9 126.85 138.35 127.35 138.35 127.85 138.35 128.4 138.2 128.9 138.05 129.4 137.7 129.95 137.35 130.45 136.8 130.95 136.3 131.5 135.95 132 135.6 132.5 135.45 133.05 135.3 133.55 134.95 134.05 134.6 134.6 134.4 135.1 134.25 135.6 134.25 136.15 134.25 136.65 134.25 137.15 134.25 137.7 134.05 138.2 133.9 138.7 133.4 139.25 132.85 139.75 132.35 140.25 131.85 140.75 131.65 141.3 131.5 141.8 131.3 142.3 131.15 142.85 130.8 143.35 130.45 143.85 130.3 144.4 130.1 144.9 129.75 145.4 129.4 145.95 129.25 146.45 129.1 146.95 128.75 147.5 128.4 148 128.05 148.5 127.7 149.05 127.7 149.55 127.7 150.05 127.35 150.6 127 151.1 126.65 151.6 126.35 152.15 126.35 152.65 126.35 153.15 126.15 153.7 126 154.2 125.8 154.7 125.65 155.25 125.1 155.75 124.6 156.25 124.1 156.8 123.55 157.3 123.55 157.8 123.55 158.35 123.4 158.85 123.25 159.35 123.05 159.9 122.9 160.4 122.7 160.9 122.55 161.45 122.55 161.95 122.55 162.45 122.55 162.95 122.55 163.5 122.35 164 122.2 164.5 121.85 165.05 121.5 165.55 121.35 166.05 121.15 166.6 121.15 167.1 121.15 167.6 121.15 168.15 121.15 168.65 121.15 169.15 121.15 169.7 121.15 170.2 121.15 170.7 121.15 171.25 121.15 171.75 121.15 172.25 121.15 172.8 121.15 173.3 121.15 173.8 121.15 174.35 121.15 174.85 121 175.35 120.8 175.9 120.5 176.4 120.15 176.9 120.15 177.45 120.15 177.95 120.15 178.45 120.15 179 120.15 179.5 120.15 180 120.15 180.55 120.15 181.05 120.15 181.55 120.15 182.1 120.15 182.6 120.15 183.1 119.95 183.65 119.8 184.15 119.6 184.65 119.45 185.2 119.45 185.7 119.45 186.2 119.45 186.7 119.45 187.25 119.45 187.75 119.45 188.25 119.25 188.8 119.1 189.3 118.6 189.8 118.05 190.35 118.05 190.85 118.05 191.35 118.05 191.9 118.05 192.4 118.05 192.9 118.05 193.45 118.05 193.95 118.05 194.45 118.05 195 118.05 195.5 118.05 196 118.05 196.55 118.05 197.05 118.05 197.55 117.7 198.1 117.4 198.6 117.2 199.1 117.05 199.65 116.85 200 116.7 200.3 116.35 200.15 116 200 115.5 199.45 114.95 198.95 114.45 198.45 113.95 197.9 113.6 197.4 113.25 196.9 113.25 196.35 113.25 195.85 113.05 195.35 112.9 194.8 112.75 194.3 112.55 193.8 112.05 193.25 111.55 192.75 111 192.25 110.5 191.7 110.15 191.2 109.8 190.7 109.65 190.15 109.45 189.65 109.1 189.15 108.75 188.6 108.45 188.1 108.1 187.6 107.9 187.05 107.75 186.55 107.55 186.05 107.4 185.5 107.2 185 107.05 184.5 106.7 183.95 106.35 183.45 105.85 182.95 105.35 182.4 104.8 181.9 104.3 181.4 103.95 180.85 103.6 180.35 103.25 179.85 102.9 179.3 102.6 178.8 102.25 178.3 101.9 177.8 101.55 177.25 101.05 176.75 100.5 176.25 100.15 175.7 99.8 175.2 99.5 174.7 99.15 174.15 98.6 173.65 98.1 173.15 97.6 172.6 97.05 172.1 96.55 171.6 96.05 171.05 95.5 170.55 95 170.05 94.5 169.5 93.95 169 93.8 168.5 93.65 167.95 93.3 167.45 92.95 166.95 92.6 166.4 92.25 165.9 91.75 165.4 91.2 164.85 90.7 164.35 90.2 163.85 89.65 163.3 89.15 162.8 88.8 162.3 88.45 161.75 88.1 161.25 87.8 160.75 87.8 160.2 87.8 159.7 87.6 159.2 87.45 158.65 87.1 158.15 86.75 157.65 86.55 157.1 86.4 156.6 85.9 156.1 85.35 155.55 84.85 155.05 84.35 154.55 83.8 154.05 83.3 153.5 82.8 153 82.25 152.5 82.25 151.95 82.25 151.45 81.9 150.95 81.6 150.4 81.05 149.9 80.55 149.4 80.05 148.85 79.5 148.35 79 147.85 78.5 147.3 77.95 146.8 77.45 146.3 76.95 145.75 76.4 145.25 75.9 144.75 75.4 144.2 74.7 143.7 74 143.2 73.3 142.65 72.65 142.15 71.6 141.65 70.55 141.1 69.7 140.6 68.85 140.1 68.15 139.55 67.45 139.05 66.6 138.55 65.75 138 65.25 137.5 64.7 137 64.2 136.45 63.7 135.95 63.15 135.45 62.65 134.9 61.95 134.4 61.25 133.9 60.25 133.35 59.2 132.85 58.7 132.35 58.15 131.8 57.85 131.3 57.5 130.8 56.95 130.3 56.45 129.75 55.6 129.25 54.75 128.75 54.05 128.2 53.35 127.7 52.85 127.2 52.3 126.65 51.8 126.15 51.3 125.65 50.75 125.1 50.25 124.6 49.4 124.1 48.55 123.55 47.7 123.05 46.8 122.55 46.3 122 45.8 121.5 45.25 121 44.75 120.45 43.35 120.1 42 119.8 41.5 119.6 40.95 119.45 40.6 119.1 40.3 118.75 39.75 118.25 39.25 117.7 38.75 117.2 38.2 116.7 37.7 116.15 37.2 115.65 36.65 115.15 36.15 114.6 35.65 114.1 35.1 113.6 34.25 113.25 33.4 112.9 33.05 112.7 32.7 112.55 32.35 112.2 32 111.85 31.5 111.35 31 110.85 30.8 110.3 30.65 109.8 30.45 109.3 30.3 108.75 30.1 108.25 29.95 107.75 29.45 107.2 28.9 106.7 28.4 106.2 27.9 105.65 27.35 105.15 26.85 104.65 26.85 104.1 26.85 103.6 26.5 103.1 26.15 102.55 25.65 102.05 25.15 101.55 24.6 101 24.1 100.5 24.1 100 24.1 99.45 23.75 98.95 23.4 98.45 23.05 97.9 22.7 97.4 22.55 96.9 22.4 96.35 22.05 95.85 21.7 95.35 21.15 94.8 20.65 94.3 20.3 93.8 19.95 93.25 19.8 92.75 19.6 92.25 19.3 91.75 18.95 91.2 18.95 90.7 18.95 90.2 18.95 89.65 18.95 89.15 18.75 88.65 18.6 88.1 18.4 87.6 18.25 87.1 17.9 86.55 17.55 86.05 17.4 85.55 17.2 85 16.85 84.5 16.55 84 16.35 83.45 16.2 82.95 15.85 82.45 15.5 81.9 15.15 81.4 14.8 80.9 14.65 80.35 14.45 79.85 14.3 79.35 14.1 78.8 13.75 78.3 13.45 77.8 13.25 77.25 13.1 76.75 12.75 76.25 12.4 75.7 12.2 75.2 12.05 74.7 12.05 74.15 12.05 73.65 12.2 73.15 12.4 72.6 12.4 72.1 12.4 71.6 12.4 71.05 12.4 70.55 12.4 70.05 12.4 69.5 12.4 69 12.4 68.5 12.55 68 12.75 67.45 13.1 66.95 13.45 66.45 13.6 65.9 13.75 65.4 13.95 64.9 14.1 64.35 14.1 63.85 14.1 63.35 14.1 62.8 14.1 62.3 14.3 61.8 14.45 61.25 14.8 60.75 15.15 60.25 15.3 59.7 15.5 59.2 15.5 58.7 15.5 58.15 15.5 57.65 15.5 57.15 15.5 56.6 15.5 56.1 15.65 55.6 15.85 55.05 16.2 54.55 16.55 54.05 16.85 53.5 17.2 53 17.2 52.5 17.2 51.95 17.2 51.45 17.2 50.95 17.55 50.4 17.9 49.9 18.25 49.4 18.6 48.85 19.1 48.35 19.6 47.85 19.8 47.3 19.95 46.8 20.5 46.3 21 45.75 21.35 45.25 21.7 44.75 22.05 44.25 22.4 43.7 23.25 43.2 24.1 42.7 24.25 42.15 24.45 41.65 24.95 41.15 25.5 40.6 26 40.1 26.5 39.6 27 39.05 27.55 38.55 28.05 38.05 28.55 37.5 29.45 37 30.3 36.5 31 35.95 31.65 35.45 32.55 34.95 33.4 34.4 34.25 33.9 35.1 33.4 36.15 32.85 37.2 32.35 38.2 31.85 39.25 31.3 40.3 30.8 41.3 30.3 42.5 29.95 43.7 29.6 44.05 29.4 44.4 29.25 45 29.15 45.55 29 47.75 29.3 49.9 29.6 49.9 29.95 49.9 30.3 51.3 30.65 52.65 30.95 53.2 31.3 53.7 31.65 57.3 32.2 60.95 32.7 61.95 33.05 63 33.4 63.15 33.55 63.35 33.75 64.05 33.9 64.7 34.05 65.55 34.4 66.45 34.75 67.65 35.1 68.85 35.45 68.85 35.8 68.85 36.15 69.7 36.5 70.55 36.85 70.75 37 70.9 37.15 71.45 37.5 71.95 37.85 72.45 38.35 73 38.9 73.85 39.4 74.7 39.9 75.55 40.25 76.4 40.6 76.6 40.8 76.75 40.95 77.3 41.3 77.8 41.65 78.5 42.15 79.15 42.7 79.7 43.2 80.2 43.7 80.9 44.25 81.6 44.75 81.9 45.25 82.25 45.75 82.95 46.3 83.65 46.8 84 47.3 84.35 47.85 84.7 48.35 85 48.85 85.7 49.4 86.4 49.9 86.75 50.4 87.1 50.95 87.95 51.3 88.8 51.65 89.15 51.95 89.5 52.3 89.65 52.85 89.85 53.35 90.35 53.85 90.85 54.4 91.4 54.9 91.9 55.4 92.4 55.95 92.95 56.45 93.3 56.95 93.65 57.5 93.95 58 94.3 58.5 95.2 58.85 96.05 59.2 96.05 59.55 96.05 59.9 96.9 60.25 97.75 60.6 97.75 60.9 97.75 61.25 97.75 61.8 97.75 62.3 98.1 62.8 98.45 63.35 98.8 63.85 99.15 64.35 99.65 64.9 100.15 65.4 100.5 65.9 100.85 66.45 101.35 66.95 101.9 67.45 104.45 67.65 107.05 67.8 107.05 67.65 107.05 67.45 107.05 67.1 107.05 66.75 107.05 66.25 107.05 65.75 107.05 65.2 107.05 64.7 107.05 64.2 107.05 63.65 106.9 63.15 106.7 62.65 106.2 62.1 105.65 61.6 105.5 61.1 105.35 60.6 105 60.05 104.65 59.55 104.65 59.05 104.65 58.5 104.15 58 103.6 57.5 103.45 56.95 103.25 56.45 103.25 55.95 103.25 55.4 103.1 54.9 102.9 54.4 102.6 53.85 102.25 53.35 102 53 101.75 52.6 102.15 52.45 102.6 52.3 102.6 51.95 102.6 51.65 102.75 51.1 102.9 50.6 102.9 50.1 102.9 49.55 102.9 49.05 102.9 48.55 102.9 48 102.9 47.5 102.9 47 102.9 46.45 102.9 45.95 102.9 45.45 102.9 44.9 102.9 44.4 103.1 43.9 103.25 43.35 103.6 42.85 103.95 42.35 104.15 41.8 104.3 41.3 104.65 40.8 105 40.25 105.15 39.75 105.35 39.25 105.5 38.7 105.65 38.2 105.85 37.7 106 37.15 106.1 36.85 106.25 36.55 107 36.15 107.75 35.8 108.45 35.3 109.1 34.75 110 34.25 110.85 33.75 111.7 33.2 112.55 32.7 113.05 32.2 113.6 31.65 114.45 31.15 115.3 30.65 116 30.1 116.7 29.6 117.4 29.1 118.05 28.55 118.6 28.05 119.1 27.55 119.6 27 120.15 26.5 120.65 26 121.15 25.45 122.55 24.95 123.9 24.45 124.6 23.9 125.3 23.4 125.8 22.9 126.35 22.35 127 21.85 127.7 21.35 128.55 20.8 129.4 20.3 129.95 19.9 130.55 19.5 131.35 19.35 132.2 19.25 133.05 19.1 133.9 18.95 134.4 18.75 134.95 18.6 137.5 18.75 140.1 18.95 141.65 19.45 143.2 19.95 144.55 20.5 145.95 21 147 21.5 148 22 149.05 22.55 150.1 23.05 151.1 23.55 152.15 24.1 153.15 24.45 154.2 24.8 154.4 24.95 154.55 25.1 154.9 25.45 155.25 25.8 156.25 26.35 157.3 26.85 158.15 27.35 159.05 27.9 159.75 28.05 160.45 28.25 160.55 28.8 160.75 29.25 161.1 29.75 161.45 30.3 162.1 30.8 162.8 31.3
M 39.95 76.75
Q 38.4 77.1 36.85 77.45 35.45 77.95 34.1 78.45 29.6 78.65 25.15 78.8 25 78.8 24.8 78.75 24.8 79.15 24.8 79.5 24.8 80 24.8 80.55 24.8 81.05 24.8 81.55 24.8 82.1 24.8 82.6 25.3 83.1 25.8 83.65 26 84.15 26.15 84.65 26.15 85.2 26.15 85.7 26.15 86.2 26.15 86.75 26.5 87.25 26.85 87.75 27.2 88.3 27.55 88.8 27.9 89.3 28.25 89.85 28.75 90.35 29.25 90.85 29.25 91.4 29.25 91.9 29.45 92.4 29.6 92.95 29.95 93.45 30.3 93.95 30.45 94.5 30.65 95 31.35 95.5 32 96.05 32.9 96.35 33.75 96.7 33.75 96.9 33.75 97.05 33.75 97.4 33.75 97.75 34.1 98.25 34.4 98.8 34.95 99.3 35.45 99.8 36.15 100.15 36.85 100.5 36.85 100.85 36.85 101.2 37.7 101.7 38.55 102.2 39.75 102.55 40.95 102.9 41.15 103.25 41.3 103.6 41.5 104.1 41.65 104.65 42.7 104.8 43.7 105 43.9 105.15 44.05 105.3 44.4 105.65 44.75 106 45.45 106.55 46.15 107.05 47 107.55 47.85 108.05 48.55 108.4 49.25 108.75 49.25 109.1 49.25 109.45 50.1 109.8 50.95 110.15 50.95 110.3 50.95 110.5 51.1 110.85 51.3 111.15 52 111.7 52.65 112.2 53.2 112.7 53.7 113.25 53.85 113.75 54.05 114.25 54.75 114.8 55.4 115.3 56.3 115.65 57.15 116 57.15 116.35 57.15 116.7 58 117.2 58.85 117.7 59.7 118.05 60.6 118.4 60.75 118.75 60.95 119.1 61.45 119.6 61.95 120.1 62.8 120.65 63.7 121.15 64.55 121.5 65.4 121.85 66.25 122.2 67.1 122.55 69.9 122.55 72.65 122.55 72.65 122 72.65 121.5 72.65 121 72.65 120.45 72.65 119.95 72.65 119.45 72.65 118.9 72.65 118.4 71.95 117.9 71.25 117.35 70.2 116.85 69.2 116.35 69 115.8 68.85 115.3 68.15 114.8 67.45 114.25 66.95 113.75 66.45 113.25 66.45 112.7 66.45 112.2 65.75 111.85 65.05 111.5 65.05 111.35 65.05 111.15 65.05 110.85 65.05 110.5 64.55 109.95 64.05 109.45 63.7 108.95 63.35 108.4 63.15 107.9 63 107.4 62.3 107.05 61.6 106.7 61.6 106.35 61.6 106 61.25 105.5 60.95 105 60.6 104.45 60.25 103.95 59.9 103.45 59.55 102.9 59.4 102.4 59.2 101.9 58.85 101.35 58.5 100.85 58.35 100.35 58.15 99.8 57.5 99.3 56.8 98.8 56.3 98.25 55.75 97.75 55.6 97.25 55.4 96.7 54.75 96.35 54.05 96.05 53.85 95.85 53.7 95.7 53.35 95.35 53 95 52.5 94.5 52 93.95 51.8 93.45 51.65 92.95 51.45 92.4 51.3 91.9 50.45 91.55 49.55 91.2 49.4 90.85 49.25 90.5 48.9 90 48.55 89.5 48.35 88.95 48.2 88.45 47.85 87.95 47.5 87.4 47.35 86.9 47.15 86.4 46.65 85.85 46.15 85.35 45.95 84.85 45.8 84.3 45.45 83.8 45.1 83.3 44.75 82.8 44.4 82.25 44.05 81.75 43.7 81.25 43.35 80.7 43.05 80.2 42.7 79.7 42.35 79.15 42.35 78.65 42.35 78.15 42.35 77.6 42.35 77.1 42.1 76.85 41.85 76.6 40.9 76.7 39.95 76.75
M 36.85 51.3
Q 36.85 50.75 36.85 50.25 30.45 50.1 24.1 49.9 24.1 50.1 24.1 50.25 23.95 50.4 23.75 50.6 23.6 51.1 23.4 51.65 23.4 52.15 23.4 52.65 23.4 53.15 23.4 53.7 23.4 54.2 23.4 54.7 23.4 55.25 23.4 55.75 23.4 56.25 23.4 56.8 23.4 57.3 23.4 57.8 23.4 58.35 23.4 58.85 23.4 59.35 23.4 59.9 23.4 60.4 23.4 60.9 23.4 61.45 23.4 61.95 23.4 62.45 23.4 63 23.4 63.5 23.4 64 23.4 64.55 23.4 65.05 23.4 65.55 23.4 66.1 23.4 66.6 23.4 67.1 23.4 67.65 23.4 68.15 23.4 68.65 23.4 69.2 23.4 69.45 23.4 69.75 26 69.45 28.55 69.2 29.6 68.85 30.65 68.5 31.65 68.3 32.7 68.15 35.3 67.8 37.85 67.45 38.2 67.35 38.55 67.25 38.55 67 38.55 66.75 38.55 66.25 38.55 65.75 38.55 65.2 38.55 64.7 38.55 64.2 38.55 63.65 38.4 63.15 38.2 62.65 37.7 62.1 37.2 61.6 37.2 61.1 37.2 60.6 37.2 60.05 37.2 59.55 37.2 59.05 37.2 58.5 37.2 58 37.2 57.5 37.2 56.95 37.2 56.45 37.2 55.95 37.2 55.4 37.2 54.9 37.2 54.4 37.2 53.85 37.2 53.35 37.2 52.85 37.2 52.3 37 51.8 36.85 51.3 Z"/>

<path fill="#FF0000" stroke="none" d="
M 163.85 32.35
Q 163.35 31.85 162.8 31.3 162.1 30.8 161.45 30.3 161.1 29.75 160.75 29.25 160.55 28.8 160.45 28.25 159.75 28.05 159.05 27.9 158.15 27.35 157.3 26.85 156.25 26.35 155.25 25.8 154.9 25.45 154.55 25.1 154.4 24.95 154.2 24.8 153.15 24.45 152.15 24.1 151.1 23.55 150.1 23.05 149.05 22.55 148 22 147 21.5 145.95 21 144.55 20.5 143.2 19.95 141.65 19.45 140.1 18.95 137.5 18.75 134.95 18.6 134.4 18.75 133.9 18.95 133.05 19.1 132.2 19.25 131.35 19.35 130.55 19.5 129.95 19.9 129.4 20.3 128.55 20.8 127.7 21.35 127 21.85 126.35 22.35 125.8 22.9 125.3 23.4 124.6 23.9 123.9 24.45 122.55 24.95 121.15 25.45 120.65 26 120.15 26.5 119.6 27 119.1 27.55 118.6 28.05 118.05 28.55 117.4 29.1 116.7 29.6 116 30.1 115.3 30.65 114.45 31.15 113.6 31.65 113.05 32.2 112.55 32.7 111.7 33.2 110.85 33.75 110 34.25 109.1 34.75 108.45 35.3 107.75 35.8 107 36.15 106.25 36.55 106.1 36.85 106 37.15 105.85 37.7 105.65 38.2 105.5 38.7 105.35 39.25 105.15 39.75 105 40.25 104.65 40.8 104.3 41.3 104.15 41.8 103.95 42.35 103.6 42.85 103.25 43.35 103.1 43.9 102.9 44.4 102.9 44.9 102.9 45.45 102.9 45.95 102.9 46.45 102.9 47 102.9 47.5 102.9 48 102.9 48.55 102.9 49.05 102.9 49.55 102.9 50.1 102.9 50.6 102.75 51.1 102.6 51.65 102.6 51.95 102.6 52.3 102.15 52.45 101.75 52.6 102 53 102.25 53.35 102.6 53.85 102.9 54.4 103.1 54.9 103.25 55.4 103.25 55.95 103.25 56.45 103.45 56.95 103.6 57.5 104.15 58 104.65 58.5 104.65 59.05 104.65 59.55 105 60.05 105.35 60.6 105.5 61.1 105.65 61.6 106.2 62.1 106.7 62.65 106.9 63.15 107.05 63.65 107.05 64.2 107.05 64.7 107.05 65.2 107.05 65.75 107.05 66.25 107.05 66.75 107.05 67.1 107.05 67.45 107.05 67.65 107.05 67.8 104.45 67.65 101.9 67.45 101.35 66.95 100.85 66.45 100.5 65.9 100.15 65.4 99.65 64.9 99.15 64.35 98.8 63.85 98.45 63.35 98.1 62.8 97.75 62.3 97.75 61.8 97.75 61.25 97.75 60.9 97.75 60.6 96.9 60.25 96.05 59.9 96.05 59.55 96.05 59.2 95.2 58.85 94.3 58.5 93.95 58 93.65 57.5 93.3 56.95 92.95 56.45 92.4 55.95 91.9 55.4 91.4 54.9 90.85 54.4 90.35 53.85 89.85 53.35 89.65 52.85 89.5 52.3 89.15 51.95 88.8 51.65 87.95 51.3 87.1 50.95 86.75 50.4 86.4 49.9 85.7 49.4 85 48.85 84.7 48.35 84.35 47.85 84 47.3 83.65 46.8 82.95 46.3 82.25 45.75 81.9 45.25 81.6 44.75 80.9 44.25 80.2 43.7 79.7 43.2 79.15 42.7 78.5 42.15 77.8 41.65 77.3 41.3 76.75 40.95 76.6 40.8 76.4 40.6 75.55 40.25 74.7 39.9 73.85 39.4 73 38.9 72.45 38.35 71.95 37.85 71.45 37.5 70.9 37.15 70.75 37 70.55 36.85 69.7 36.5 68.85 36.15 68.85 35.8 68.85 35.45 67.65 35.1 66.45 34.75 65.55 34.4 64.7 34.05 64.05 33.9 63.35 33.75 63.15 33.55 63 33.4 61.95 33.05 60.95 32.7 57.3 32.2 53.7 31.65 53.2 31.3 52.65 30.95 51.3 30.65 49.9 30.3 49.9 29.95 49.9 29.6 47.75 29.3 45.55 29 45 29.15 44.4 29.25 44.05 29.4 43.7 29.6 42.5 29.95 41.3 30.3 40.3 30.8 39.25 31.3 38.2 31.85 37.2 32.35 36.15 32.85 35.1 33.4 34.25 33.9 33.4 34.4 32.55 34.95 31.65 35.45 31 35.95 30.3 36.5 29.45 37 28.55 37.5 28.05 38.05 27.55 38.55 27 39.05 26.5 39.6 26 40.1 25.5 40.6 24.95 41.15 24.45 41.65 24.25 42.15 24.1 42.7 23.25 43.2 22.4 43.7 22.05 44.25 21.7 44.75 21.35 45.25 21 45.75 20.5 46.3 19.95 46.8 19.8 47.3 19.6 47.85 19.1 48.35 18.6 48.85 18.25 49.4 17.9 49.9 17.55 50.4 17.2 50.95 17.2 51.45 17.2 51.95 17.2 52.5 17.2 53 16.85 53.5 16.55 54.05 16.2 54.55 15.85 55.05 15.65 55.6 15.5 56.1 15.5 56.6 15.5 57.15 15.5 57.65 15.5 58.15 15.5 58.7 15.5 59.2 15.3 59.7 15.15 60.25 14.8 60.75 14.45 61.25 14.3 61.8 14.1 62.3 14.1 62.8 14.1 63.35 14.1 63.85 14.1 64.35 13.95 64.9 13.75 65.4 13.6 65.9 13.45 66.45 13.1 66.95 12.75 67.45 12.55 68 12.4 68.5 12.4 69 12.4 69.5 12.4 70.05 12.4 70.55 12.4 71.05 12.4 71.6 12.4 72.1 12.4 72.6 12.2 73.15 12.05 73.65 12.05 74.15 12.05 74.7 12.2 75.2 12.4 75.7 12.75 76.25 13.1 76.75 13.25 77.25 13.45 77.8 13.75 78.3 14.1 78.8 14.3 79.35 14.45 79.85 14.65 80.35 14.8 80.9 15.15 81.4 15.5 81.9 15.85 82.45 16.2 82.95 16.35 83.45 16.55 84 16.85 84.5 17.2 85 17.4 85.55 17.55 86.05 17.9 86.55 18.25 87.1 18.4 87.6 18.6 88.1 18.75 88.65 18.95 89.15 18.95 89.65 18.95 90.2 18.95 90.7 18.95 91.2 19.3 91.75 19.6 92.25 19.8 92.75 19.95 93.25 20.3 93.8 20.65 94.3 21.15 94.8 21.7 95.35 22.05 95.85 22.4 96.35 22.55 96.9 22.7 97.4 23.05 97.9 23.4 98.45 23.75 98.95 24.1 99.45 24.1 100 24.1 100.5 24.6 101 25.15 101.55 25.65 102.05 26.15 102.55 26.5 103.1 26.85 103.6 26.85 104.1 26.85 104.65 27.35 105.15 27.9 105.65 28.4 106.2 28.9 106.7 29.45 107.2 29.95 107.75 30.1 108.25 30.3 108.75 30.45 109.3 30.65 109.8 30.8 110.3 31 110.85 31.5 111.35 32 111.85 32.35 112.2 32.7 112.55 33.05 112.7 33.4 112.9 34.25 113.25 35.1 113.6 35.65 114.1 36.15 114.6 36.65 115.15 37.2 115.65 37.7 116.15 38.2 116.7 38.75 117.2 39.25 117.7 39.75 118.25 40.3 118.75 40.6 119.1 40.95 119.45 41.5 119.6 42 119.8 43.35 120.1 44.75 120.45 45.25 121 45.8 121.5 46.3 122 46.8 122.55 47.7 123.05 48.55 123.55 49.4 124.1 50.25 124.6 50.75 125.1 51.3 125.65 51.8 126.15 52.3 126.65 52.85 127.2 53.35 127.7 54.05 128.2 54.75 128.75 55.6 129.25 56.45 129.75 56.95 130.3 57.5 130.8 57.85 131.3 58.15 131.8 58.7 132.35 59.2 132.85 60.25 133.35 61.25 133.9 61.95 134.4 62.65 134.9 63.15 135.45 63.7 135.95 64.2 136.45 64.7 137 65.25 137.5 65.75 138 66.6 138.55 67.45 139.05 68.15 139.55 68.85 140.1 69.7 140.6 70.55 141.1 71.6 141.65 72.65 142.15 73.3 142.65 74 143.2 74.7 143.7 75.4 144.2 75.9 144.75 76.4 145.25 76.95 145.75 77.45 146.3 77.95 146.8 78.5 147.3 79 147.85 79.5 148.35 80.05 148.85 80.55 149.4 81.05 149.9 81.6 150.4 81.9 150.95 82.25 151.45 82.25 151.95 82.25 152.5 82.8 153 83.3 153.5 83.8 154.05 84.35 154.55 84.85 155.05 85.35 155.55 85.9 156.1 86.4 156.6 86.55 157.1 86.75 157.65 87.1 158.15 87.45 158.65 87.6 159.2 87.8 159.7 87.8 160.2 87.8 160.75 88.1 161.25 88.45 161.75 88.8 162.3 89.15 162.8 89.65 163.3 90.2 163.85 90.7 164.35 91.2 164.85 91.75 165.4 92.25 165.9 92.6 166.4 92.95 166.95 93.3 167.45 93.65 167.95 93.8 168.5 93.95 169 94.5 169.5 95 170.05 95.5 170.55 96.05 171.05 96.55 171.6 97.05 172.1 97.6 172.6 98.1 173.15 98.6 173.65 99.15 174.15 99.5 174.7 99.8 175.2 100.15 175.7 100.5 176.25 101.05 176.75 101.55 177.25 101.9 177.8 102.25 178.3 102.6 178.8 102.9 179.3 103.25 179.85 103.6 180.35 103.95 180.85 104.3 181.4 104.8 181.9 105.35 182.4 105.85 182.95 106.35 183.45 106.7 183.95 107.05 184.5 107.2 185 107.4 185.5 107.55 186.05 107.75 186.55 107.9 187.05 108.1 187.6 108.45 188.1 108.75 188.6 109.1 189.15 109.45 189.65 109.65 190.15 109.8 190.7 110.15 191.2 110.5 191.7 111 192.25 111.55 192.75 112.05 193.25 112.55 193.8 112.75 194.3 112.9 194.8 113.05 195.35 113.25 195.85 113.25 196.35 113.25 196.9 113.6 197.4 113.95 197.9 114.45 198.45 114.95 198.95 115.5 199.45 116 200 116.35 200.15 116.7 200.3 116.85 200 117.05 199.65 117.2 199.1 117.4 198.6 117.7 198.1 118.05 197.55 118.05 197.05 118.05 196.55 118.05 196 118.05 195.5 118.05 195 118.05 194.45 118.05 193.95 118.05 193.45 118.05 192.9 118.05 192.4 118.05 191.9 118.05 191.35 118.05 190.85 118.05 190.35 118.6 189.8 119.1 189.3 119.25 188.8 119.45 188.25 119.45 187.75 119.45 187.25 119.45 186.7 119.45 186.2 119.45 185.7 119.45 185.2 119.6 184.65 119.8 184.15 119.95 183.65 120.15 183.1 120.15 182.6 120.15 182.1 120.15 181.55 120.15 181.05 120.15 180.55 120.15 180 120.15 179.5 120.15 179 120.15 178.45 120.15 177.95 120.15 177.45 120.15 176.9 120.5 176.4 120.8 175.9 121 175.35 121.15 174.85 121.15 174.35 121.15 173.8 121.15 173.3 121.15 172.8 121.15 172.25 121.15 171.75 121.15 171.25 121.15 170.7 121.15 170.2 121.15 169.7 121.15 169.15 121.15 168.65 121.15 168.15 121.15 167.6 121.15 167.1 121.15 166.6 121.35 166.05 121.5 165.55 121.85 165.05 122.2 164.5 122.35 164 122.55 163.5 122.55 162.95 122.55 162.45 122.55 161.95 122.55 161.45 122.7 160.9 122.9 160.4 123.05 159.9 123.25 159.35 123.4 158.85 123.55 158.35 123.55 157.8 123.55 157.3 124.1 156.8 124.6 156.25 125.1 155.75 125.65 155.25 125.8 154.7 126 154.2 126.15 153.7 126.35 153.15 126.35 152.65 126.35 152.15 126.65 151.6 127 151.1 127.35 150.6 127.7 150.05 127.7 149.55 127.7 149.05 128.05 148.5 128.4 148 128.75 147.5 129.1 146.95 129.25 146.45 129.4 145.95 129.75 145.4 130.1 144.9 130.3 144.4 130.45 143.85 130.8 143.35 131.15 142.85 131.3 142.3 131.5 141.8 131.65 141.3 131.85 140.75 132.35 140.25 132.85 139.75 133.4 139.25 133.9 138.7 134.05 138.2 134.25 137.7 134.25 137.15 134.25 136.65 134.25 136.15 134.25 135.6 134.4 135.1 134.6 134.6 134.95 134.05 135.3 133.55 135.45 133.05 135.6 132.5 135.95 132 136.3 131.5 136.8 130.95 137.35 130.45 137.7 129.95 138.05 129.4 138.2 128.9 138.35 128.4 138.35 127.85 138.35 127.35 138.9 126.85 139.4 126.3 139.6 125.8 139.75 125.3 140.25 124.75 140.8 124.25 140.95 123.75 141.15 123.2 141.45 122.7 141.8 122.2 142.35 121.65 142.85 121.15 143.35 120.65 143.9 120.1 144.2 119.6 144.55 119.1 144.9 118.55 145.25 118.05 145.6 117.55 145.95 117 146.45 116.5 147 116 147.5 115.5 148 114.95 148.35 114.45 148.7 113.95 148.85 113.4 149.05 112.9 149.4 112.4 149.75 111.85 150.25 111.35 150.75 110.85 151.3 110.3 151.8 109.8 152.65 109.3 153.5 108.75 154.4 108.25 155.25 107.75 155.75 107.2 156.25 106.7 156.6 106.2 156.95 105.65 157.15 105.15 157.3 104.65 157.65 104.1 158 103.6 158.5 103.1 159.05 102.55 159.55 102.05 160.05 101.55 160.55 101 161.1 100.5 161.45 100 161.8 99.45 162.3 98.95 162.8 98.45 163.35 97.9 163.85 97.4 164.55 96.9 165.2 96.35 165.4 95.85 165.55 95.35 165.9 94.8 166.25 94.3 166.45 93.8 166.6 93.25 166.95 92.75 167.3 92.25 167.65 91.75 167.95 91.2 167.95 90.7 167.95 90.2 168.3 89.65 168.65 89.15 169 88.65 169.35 88.1 169.5 87.6 169.7 87.1 170.05 86.55 170.4 86.05 170.55 85.55 170.75 85 171.05 84.5 171.4 84 171.6 83.45 171.75 82.95 171.75 82.45 171.75 81.9 171.75 81.4 171.75 80.9 171.75 80.35 171.75 79.85 171.75 79.35 171.75 78.8 171.75 78.3 171.75 77.8 172.1 77.25 172.45 76.75 172.8 76.25 173.15 75.7 173.15 75.2 173.15 74.7 173.15 74.15 173.15 73.65 173.15 73.15 173.15 72.6 173.3 72.1 173.5 71.6 173.85 71.05 174.15 70.55 174.35 70.05 174.5 69.5 174.35 69 174.15 68.5 174.15 68 174.15 67.45 174 66.95 173.85 66.45 173.65 65.9 173.5 65.4 173.15 64.9 172.8 64.35 172.8 63.85 172.8 63.35 172.8 62.8 172.8 62.3 172.8 61.8 172.8 61.25 172.8 60.75 172.8 60.25 172.6 59.7 172.45 59.2 172.1 58.7 171.75 58.15 171.6 57.65 171.4 57.15 171.4 56.6 171.4 56.1 171.4 55.6 171.4 55.05 171.4 54.55 171.4 54.05 171.4 53.5 171.4 53 171.05 52.5 170.75 51.95 170.4 51.45 170.05 50.95 170.05 50.4 170.05 49.9 170.05 49.4 170.05 48.85 170.05 48.35 170.05 47.85 169.85 47.3 169.7 46.8 169.2 46.3 168.65 45.75 168.65 45.25 168.65 44.75 168.3 44.25 167.95 43.7 167.65 43.2 167.3 42.7 167.3 42.15 167.3 41.65 167.3 41.15 167.3 40.6 167.1 40.1 166.95 39.6 166.45 39.05 165.9 38.55 165.9 38.05 165.9 37.5 165.9 37 165.9 36.5 165.55 35.95 165.2 35.45 164.9 34.95 164.55 34.4 164.55 33.9 164.55 33.4 164.2 32.85 163.85 32.35
M 36.85 50.25
Q 36.85 50.75 36.85 51.3 37 51.8 37.2 52.3 37.2 52.85 37.2 53.35 37.2 53.85 37.2 54.4 37.2 54.9 37.2 55.4 37.2 55.95 37.2 56.45 37.2 56.95 37.2 57.5 37.2 58 37.2 58.5 37.2 59.05 37.2 59.55 37.2 60.05 37.2 60.6 37.2 61.1 37.2 61.6 37.7 62.1 38.2 62.65 38.4 63.15 38.55 63.65 38.55 64.2 38.55 64.7 38.55 65.2 38.55 65.75 38.55 66.25 38.55 66.75 38.55 67 38.55 67.25 38.2 67.35 37.85 67.45 35.3 67.8 32.7 68.15 31.65 68.3 30.65 68.5 29.6 68.85 28.55 69.2 26 69.45 23.4 69.75 23.4 69.45 23.4 69.2 23.4 68.65 23.4 68.15 23.4 67.65 23.4 67.1 23.4 66.6 23.4 66.1 23.4 65.55 23.4 65.05 23.4 64.55 23.4 64 23.4 63.5 23.4 63 23.4 62.45 23.4 61.95 23.4 61.45 23.4 60.9 23.4 60.4 23.4 59.9 23.4 59.35 23.4 58.85 23.4 58.35 23.4 57.8 23.4 57.3 23.4 56.8 23.4 56.25 23.4 55.75 23.4 55.25 23.4 54.7 23.4 54.2 23.4 53.7 23.4 53.15 23.4 52.65 23.4 52.15 23.4 51.65 23.6 51.1 23.75 50.6 23.95 50.4 24.1 50.25 24.1 50.1 24.1 49.9 30.45 50.1 36.85 50.25
M 36.85 77.45
Q 38.4 77.1 39.95 76.75 40.9 76.7 41.85 76.6 42.1 76.85 42.35 77.1 42.35 77.6 42.35 78.15 42.35 78.65 42.35 79.15 42.7 79.7 43.05 80.2 43.35 80.7 43.7 81.25 44.05 81.75 44.4 82.25 44.75 82.8 45.1 83.3 45.45 83.8 45.8 84.3 45.95 84.85 46.15 85.35 46.65 85.85 47.15 86.4 47.35 86.9 47.5 87.4 47.85 87.95 48.2 88.45 48.35 88.95 48.55 89.5 48.9 90 49.25 90.5 49.4 90.85 49.55 91.2 50.45 91.55 51.3 91.9 51.45 92.4 51.65 92.95 51.8 93.45 52 93.95 52.5 94.5 53 95 53.35 95.35 53.7 95.7 53.85 95.85 54.05 96.05 54.75 96.35 55.4 96.7 55.6 97.25 55.75 97.75 56.3 98.25 56.8 98.8 57.5 99.3 58.15 99.8 58.35 100.35 58.5 100.85 58.85 101.35 59.2 101.9 59.4 102.4 59.55 102.9 59.9 103.45 60.25 103.95 60.6 104.45 60.95 105 61.25 105.5 61.6 106 61.6 106.35 61.6 106.7 62.3 107.05 63 107.4 63.15 107.9 63.35 108.4 63.7 108.95 64.05 109.45 64.55 109.95 65.05 110.5 65.05 110.85 65.05 111.15 65.05 111.35 65.05 111.5 65.75 111.85 66.45 112.2 66.45 112.7 66.45 113.25 66.95 113.75 67.45 114.25 68.15 114.8 68.85 115.3 69 115.8 69.2 116.35 70.2 116.85 71.25 117.35 71.95 117.9 72.65 118.4 72.65 118.9 72.65 119.45 72.65 119.95 72.65 120.45 72.65 121 72.65 121.5 72.65 122 72.65 122.55 69.9 122.55 67.1 122.55 66.25 122.2 65.4 121.85 64.55 121.5 63.7 121.15 62.8 120.65 61.95 120.1 61.45 119.6 60.95 119.1 60.75 118.75 60.6 118.4 59.7 118.05 58.85 117.7 58 117.2 57.15 116.7 57.15 116.35 57.15 116 56.3 115.65 55.4 115.3 54.75 114.8 54.05 114.25 53.85 113.75 53.7 113.25 53.2 112.7 52.65 112.2 52 111.7 51.3 111.15 51.1 110.85 50.95 110.5 50.95 110.3 50.95 110.15 50.1 109.8 49.25 109.45 49.25 109.1 49.25 108.75 48.55 108.4 47.85 108.05 47 107.55 46.15 107.05 45.45 106.55 44.75 106 44.4 105.65 44.05 105.3 43.9 105.15 43.7 105 42.7 104.8 41.65 104.65 41.5 104.1 41.3 103.6 41.15 103.25 40.95 102.9 39.75 102.55 38.55 102.2 37.7 101.7 36.85 101.2 36.85 100.85 36.85 100.5 36.15 100.15 35.45 99.8 34.95 99.3 34.4 98.8 34.1 98.25 33.75 97.75 33.75 97.4 33.75 97.05 33.75 96.9 33.75 96.7 32.9 96.35 32 96.05 31.35 95.5 30.65 95 30.45 94.5 30.3 93.95 29.95 93.45 29.6 92.95 29.45 92.4 29.25 91.9 29.25 91.4 29.25 90.85 28.75 90.35 28.25 89.85 27.9 89.3 27.55 88.8 27.2 88.3 26.85 87.75 26.5 87.25 26.15 86.75 26.15 86.2 26.15 85.7 26.15 85.2 26.15 84.65 26 84.15 25.8 83.65 25.3 83.1 24.8 82.6 24.8 82.1 24.8 81.55 24.8 81.05 24.8 80.55 24.8 80 24.8 79.5 24.8 79.15 24.8 78.75 25 78.8 25.15 78.8 29.6 78.65 34.1 78.45 35.45 77.95 36.85 77.45 Z"/>
</g>
</g>
</g>
</g>
</g>
</svg>
