
<svg xmlns="http://www.w3.org/2000/svg" version="1.1" xmlns:xlink="http://www.w3.org/1999/xlink" preserveAspectRatio="none" x="0px" y="0px" width="1920px" height="1080px" viewBox="0 0 1920 1080">
<defs/>

<g id="Layer_2"/>

<g id="Layer_1"/>

<g id="Layer_3"/>

<g id="Layer_5"/>

<g id="Layer_4">
<g id="Layer_1" transform="matrix( 4.5909271240234375, 0, 0, 4.5909271240234375, 529.4,28.85) ">
<g>
<g>
<g>
<path fill="#FFFFFF" stroke="none" d="
M 120.15 182.15
Q 120.15 182.62734375 120.15 183.1 119.95 183.65 119.8 184.15 119.6 184.65 119.45 185.2 119.45 185.7 119.45 186.2 119.45 186.7 119.45 187.25 119.45 187.75 119.45 188.25 119.25 188.8 119.1 189.3 118.6 189.8 118.05 190.35 118.05 190.85 118.05 191.35 118.05 191.9 118.05 192.4 118.05 192.9 118.05 193.45 118.05 193.95 118.05 194.45 118.05 195 118.05 195.5 118.05 196 118.05 196.55 118.05 197.05 118.05 197.55 117.7 198.1 117.4 198.6 117.2 199.1 117.05 199.65 116.85 200 116.7 200.3 116.35 200.15 116 200 115.5 199.45 114.95 198.95 114.45 198.45 113.95 197.9 113.6 197.4 113.25 196.9 113.25 196.35 113.25 195.85 113.05 195.35 112.9 194.8 112.75 194.3 112.55 193.8 112.05 193.25 111.55 192.75 111 192.25 110.5 191.7 110.15 191.2 109.8 190.7 109.789453125 190.6615234375 109.75 190.6 109.185546875 192.5373046875 108.2 194.5 106.9365234375 197.007421875 105.35 199 105.691015625 199.31015625 106 199.65 106.35 200.15 106.7 200.65 106.9 201.2 107.05 201.7 107.05 202.2 107.05 202.75 107.2 203.25 107.4 203.75 107.9 204.3 108.45 204.8 108.95 205.3 109.45 205.85 110 206.35 110.5 206.85 111 207.4 111.55 207.9 111.85 208.4 112.2 208.95 112.9 209.45 113.6 209.95 113.75 210.45 113.95 211 114.1 211.5 114.3 212 114.6 212.55 114.95 213.05 115.15 213.55 115.3 214.1 116 214.6 116.7 215.1 116.7 215.65 116.7 216.15 116.85 216.65 117.05 217.2 117.4 217.7 117.7 218.2 117.7 218.75 117.7 219.25 117.9 219.75 118.05 220.3 118.25 220.8 118.4 221.3 118.95 221.85 119.45 222.35 122.55 222.5 125.65 222.7 125.65 222.5 125.65 222.35 125.65 222 125.65 221.65 125.65 221.15 125.65 220.65 125.65 220.1 125.65 219.6 125.65 219.1 125.65 218.55 125.65 218.05 125.65 217.55 125.65 217 125.65 216.5 125.65 216 125.65 215.45 124.95 215.1 124.25 214.8 124.25 214.6 124.25 214.45 124.25 214.1 124.25 213.75 124.25 213.25 124.25 212.7 124.25 212.2 124.25 211.7 123.75 211.15 123.25 210.65 123.05 210.15 122.9 209.6 122.7 209.1 122.55 208.6 122.35 208.05 122.2 207.55 122.2 207.05 122.2 206.5 122.35 206 122.55 205.5 122.55 204.95 122.55 204.45 123.05 203.95 123.55 203.4 123.75 202.9 123.9 202.4 123.9 201.85 123.9 201.35 123.9 200.85 123.9 200.3 124.1 199.8 124.25 199.3 124.25 198.75 124.25 198.25 124.25 197.75 124.25 197.2 124.45 196.7 124.6 196.2 124.95 195.65 125.3 195.15 125.45 194.65 125.65 194.15 125.65 193.6 125.65 193.1 126 192.6 126.35 192.05 126.5 191.55 126.65 191.05 126.85 190.5 127 190 127.2 189.5 127.35 188.95 127.35 188.45 127.35 187.95 127.35 187.7416015625 127.35 187.55 123.3779296875 185.12421875 120.15 182.15
M 131.15 142.85
Q 130.8 143.35 130.45 143.85 130.3 144.4 130.1 144.9 129.75 145.4 129.4 145.95 129.25 146.45 129.1 146.95 128.75 147.5 128.4 148 128.05 148.5 127.7 149.05 127.7 149.55 127.7 150.05 127.35 150.6 127 151.1 126.8830078125 151.2669921875 126.75 151.45 126.5498046875 151.7837890625 126.35 152.15 126.35 152.65 126.35 153.15 126.15 153.7 126 154.2 125.8 154.7 125.65 155.25 125.1 155.75 124.6 156.25 124.1 156.8 123.55 157.3 123.55 157.8 123.55 158.35 123.4 158.85 123.25 159.35 123.05 159.9 122.9 160.4 122.7 160.9 122.55 161.45 122.55 161.6130859375 122.55 161.75 122.6 161.812890625 122.65 161.85 127.4453125 165.419140625 131.55 169.6 131.7029296875 169.48359375 131.85 169.35 132 168.85 132.2 168.3 132.35 167.8 132.5 167.3 132.5 166.75 132.5 166.25 133.05 165.75 133.55 165.2 134.05 164.7 134.6 164.2 134.75 163.65 134.95 163.15 135.1 162.65 135.3 162.1 135.3 161.6 135.3 161.1 135.6 160.55 135.95 160.05 136.3 159.55 136.65 159 136.65 158.5 136.65 158 136.7845703125 157.788671875 136.9 157.55 137.1345703125 157.2578125 137.35 156.95 137.7 156.45 138.05 155.9 138.2 155.4 138.35 154.9 138.7 154.35 139.05 153.85 139.25 153.35 139.4 152.8 139.75 152.3 140.1 151.8 140.25 151.25 140.45 150.75 140.6 150.25 140.8 149.7 141.3 149.2 141.8 148.7 142.35 148.15 142.85 147.65 143.2 147.15 143.55 146.65 143.694140625 146.1212890625 143.85 145.65 137.708984375 143.4833984375 132.5 140.05 132.18515625 140.41484375 131.85 140.75 131.65 141.3 131.5 141.8 131.3 142.3 131.15 142.85
M 77.8 163.15
Q 77.9849609375 163.3349609375 78.15 163.5 78.5 164 78.85 164.5 79.15 165.05 79.5 165.55 79.7 166.05 79.85 166.6 80.05 167.1 80.2 167.6 80.4 168.15 80.55 168.65 81.25 169.15 81.9 169.7 82.6 170.2 83.3 170.7 83.8 171.25 84.35 171.75 84.85 172.25 85.35 172.8 85.7 173.3 86.05 173.8 86.4 174.35 86.75 174.85 86.9 175.35 87.1 175.9 87.6 176.4 88.1 176.9 88.65 177.45 89.15 177.95 89.65 178.45 90.2 179 90.7 179.5 91.2 180 91.75 180.55 92.25 181.05 92.95 181.55 93.65 182.1 93.91015625 182.3001953125 94.15 182.5 98.24921875 180.2306640625 102.8 179.2 102.562109375 178.745703125 102.25 178.3 101.9 177.8 101.55 177.25 101.05 176.75 100.5 176.25 100.15 175.7 99.8 175.2 99.5 174.7 99.15 174.15 98.6 173.65 98.1 173.15 97.6 172.6 97.05 172.1 96.55 171.6 96.05 171.05 95.5 170.55 95 170.05 94.5 169.5 93.95 169 93.8 168.5 93.65 167.95 93.3 167.45 92.95 166.95 92.6 166.4 92.25 165.9 91.75 165.4 91.2 164.85 90.7 164.35 90.2 163.85 89.65 163.3 89.15 162.8 88.8 162.3 88.45 161.75 88.1 161.25 87.8 160.75 87.8 160.2 87.8 159.7 87.6 159.2 87.45 158.65 87.1 158.15 86.75 157.65 86.55 157.1 86.4 156.6 85.9 156.1 85.35 155.55 84.85 155.05 84.35 154.55 84.32265625 154.5251953125 84.3 154.5 83.30390625 156.48828125 81.85 158.55 79.98515625 161.19296875 77.8 163.15
M 171.7 90.8
Q 169.792578125 90.8298828125 167.95 90.7 167.95 90.948046875 167.95 91.2 167.65 91.75 167.3 92.25 166.95 92.75 166.6 93.25 166.45 93.8 166.25 94.3 165.9 94.8 165.55 95.35 165.4 95.85 165.2 96.35 164.55 96.9 163.85 97.4 163.35 97.9 162.8 98.45 162.3 98.95 161.8 99.45 161.45 100 161.1 100.5 160.55 101 160.05 101.55 159.55 102.05 159.05 102.55 158.5 103.1 158 103.6 157.65 104.1 157.3 104.65 157.15 105.15 156.95 105.65 156.6 106.2 156.25 106.7 155.75 107.2 155.25 107.75 154.4 108.25 153.5 108.75 152.65 109.3 151.8 109.8 151.3 110.3 150.75 110.85 150.25 111.35 149.75 111.85 149.4 112.4 149.05 112.9 148.85 113.4 148.7 113.95 148.35 114.45 148 114.95 147.5 115.5 147 116 146.45 116.5 145.95 117 145.6 117.55 145.25 118.05 144.9 118.55 144.55 119.1 144.2 119.6 143.9 120.1 143.55625 120.44375 143.2 120.75 145.0939453125 121.303125 146.95 122 152.2546875 123.9677734375 157.25 126.35 157.4705078125 126.1474609375 157.65 125.95 158.15 125.45 158.7 124.95 158.7953125 124.60078125 158.9 124.25 158.976953125 124.082421875 159.05 123.9 159.2 123.4 159.35 122.9 159.9 122.35 160.4 121.85 160.9 121.35 161.45 120.8 162.1 120.3 162.8 119.8 163.65 119.25 164.55 118.75 165.2 118.25 165.9 117.7 166.45 117.2 166.95 116.7 167.1 116.15 167.3 115.65 167.45 115.15 167.65 114.6 168.15 114.1 168.65 113.6 169.2 113.05 169.7 112.55 170.55 112.2 171.4 111.85 171.75 111.5 172.1 111.15 172.8 110.65 173.5 110.15 174 109.6 174.5 109.1 175.05 108.6 175.55 108.05 175.9 107.55 176.25 107.05 176.6 106.55 176.9 106 177.1 105.5 177.25 105 177.45 104.45 177.6 103.95 178.15 103.45 178.65 102.9 178.8 102.4 179 101.9 179.15 101.35 179.35 100.85 179.7 100.35 180 99.8 180.2 99.3 180.35 98.8 180.7 98.25 181.05 97.75 181.4 97.25 181.75 96.7 181.75 96.2 181.75 95.7 182.1 95.15 182.45 94.65 182.8 94.15 183.1 93.6 183.3 93.1 183.45 92.6 183.45 92.05 183.45 91.55 183.45 91.0654296875 183.45 90.5 177.5908203125 90.70859375 171.7 90.8
M 42 119.8
Q 41.5 119.6 40.95 119.45 40.6 119.1 40.3 118.75 39.75 118.25 39.25 117.7 38.75 117.2 38.2 116.7 37.7 116.15 37.2 115.65 36.65 115.15 36.15 114.6 35.71171875 114.16171875 35.2 113.7 28.951953125 117.144921875 22.5 120.25 22.78046875 120.53046875 23.05 120.8 23.6 121.35 24.1 121.85 25.15 122.2 26.15 122.55 26.35 122.7 26.5 122.9 26.85 123.2 27.2 123.55 27.7 124.1 28.25 124.6 28.75 125.1 29.25 125.65 29.8 126.15 30.3 126.65 30.8 127.2 31.35 127.7 31.85 128.2 32.35 128.75 34.1 129.05 35.8 129.4 36.15 129.75 36.5 130.1 37 130.6 37.5 131.15 38.2 131.65 38.9 132.15 39.75 132.7 40.6 133.2 41.3 133.7 42 134.25 42.5 134.75 43.05 135.25 43.55 135.8 44.05 136.3 44.6 136.8 45.1 137.35 45.95 137.85 46.8 138.35 47.7 138.9 48.55 139.4 49.4 139.9 50.25 140.45 50.95 140.95 51.65 141.45 52.5 142 53.35 142.5 54.05 143 54.75 143.55 55.25 144.05 55.75 144.55 56.3 145.1 56.8 145.6 57.3 146.1 57.85 146.65 58.2443359375 146.88203125 58.65 147.1 59.1515625 146.5740234375 59.7 146.05 63.6787109375 142.1873046875 68 139.45 67.740234375 139.2572265625 67.45 139.05 66.6 138.55 65.75 138 65.25 137.5 64.7 137 64.2 136.45 63.7 135.95 63.15 135.45 62.65 134.9 61.95 134.4 61.25 133.9 60.25 133.35 59.2 132.85 58.7 132.35 58.15 131.8 57.85 131.3 57.5 130.8 56.95 130.3 56.45 129.75 55.6 129.25 54.75 128.75 54.05 128.2 53.35 127.7 52.85 127.2 52.3 126.65 51.8 126.15 51.3 125.65 50.75 125.1 50.25 124.6 49.4 124.1 48.55 123.55 47.7 123.05 46.8 122.55 46.3 122 45.8 121.5 45.25 121 44.75 120.45 43.35 120.1 42 119.8
M 171.75 47.5
Q 170.8603515625 47.5787109375 169.95 47.6 170.010546875 47.741796875 170.05 47.85 170.05 48.35 170.05 48.85 170.05 49.4 170.05 49.9 170.05 50.4 170.05 50.95 170.4 51.45 170.75 51.95 171.05 52.5 171.4 53 171.4 53.5 171.4 54.05 171.4 54.55 171.4 55.05 171.4 55.6 171.4 56.1 171.4 56.6 171.4 57.15 171.6 57.65 171.75 58.15 172.1 58.7 172.45 59.2 172.6 59.7 172.8 60.25 172.8 60.75 172.8 61.25 172.8 61.8 172.8 62.3 172.8 62.8 172.8 63.35 172.8 63.85 172.8 64.35 173.15 64.9 173.5 65.4 173.65 65.9 173.85 66.45 174 66.95 174.15 67.45 174.15 67.98359375 174.15 68.45 181.06484375 68.6244140625 187.6 69.95 187.6 69.905078125 187.6 69.85 187.6 69.35 187.6 68.85 187.6 68.3 187.6 67.8 187.6 67.3 187.6 66.75 187.6 66.25 187.6 65.75 187.6 65.2 187.6 64.7 187.6 64.2 187.6 63.65 187.6 63.15 187.6 62.65 187.6 62.1 187.6 61.6 187.6 61.1 187.6 60.6 187.6 60.05 187.6 59.55 187.4 59.05 187.25 58.5 187.25 58 187.25 57.5 186.9 56.95 186.55 56.45 186.55 55.95 186.55 55.4 186.55 54.9 186.55 54.4 186.2 53.85 185.85 53.35 185.55 52.85 185.2 52.3 185.2 51.8 185.2 51.3 185.2 50.75 185.2 50.25 185.2 49.75 185.2 49.2 185.2 48.7 185.2 48.2 185.2 47.65 185.2 47.15 184.85 46.65 184.5 46.1 184.15 45.6 183.8 45.1 183.8 44.9166015625 183.8 44.75 178.0119140625 46.759375 171.75 47.5
M 164.55 5.85
Q 163.85 5.5 163.15 5.15 162.65 4.8 162.1 4.45 161.25 4.15 160.4 3.8 159.9 3.45 159.35 3.1 158.35 2.75 157.3 2.4 156.95 2.05 156.6 1.7 155.6 1.35 154.55 1.05 154.05 0.7 153.5 0.35 144.55 0.15 135.6 0 135.3 0 134.95 0 134.95 0.15 134.95 0.35 133.55 0.35 132.2 0.35 131.9 0.5 131.6 0.7 131.35 0.7 131.15 0.7 129.95 1.05 128.75 1.35 127.7 1.55 126.65 1.7 126.35 1.9 126 2.05 124.95 2.4 123.9 2.75 122.9 3.25 121.85 3.8 120.65 4.3 119.45 4.8 118.4 5.35 117.4 5.85 116.994140625 6.0431640625 116.6 6.25 117.964453125 7.2162109375 119.3 8.35 125.4927734375 13.5724609375 129.8 20 130.1625 19.7583984375 130.55 19.5 131.35 19.35 132.2 19.25 133.05 19.1 133.9 18.95 134.4 18.75 134.95 18.6 137.5 18.75 140.1 18.95 141.65 19.45 143.2 19.95 144.55 20.5 145.95 21 147 21.5 148 22 149.05 22.55 150.1 23.05 151.1 23.55 152.15 24.1 153.15 24.45 154.2 24.8 154.4 24.95 154.55 25.1 154.9 25.45 155.25 25.8 156.25 26.35 157.3 26.85 158.15 27.35 159.05 27.9 159.6775390625 28.0345703125 160.3 28.2 161.997265625 25.0078125 163.85 21.9 166.7990234375 16.9376953125 170.55 12.75 170.2958984375 12.4013671875 170.05 12.05 169.85 11.55 169.7 11 169.2 10.5 168.65 10 167.65 9.45 166.6 8.95 166.1 8.45 165.55 7.9 165.05 7.4 164.55 6.9 164.55 6.35 164.55 5.85
M 0 66.25
Q 0 66.6740234375 0 67.1 0 67.65 0 68.15 0 68.65 0 69.2 0 69.7 0 70.2 0 70.75 0 71.25 0 71.75 0 72.3 0 72.8 0 73.3 0 73.85 0 74.35 0 74.85 0 75.4 0 75.9 0 76.4 0 76.9 0 77.45 0 77.95 0 78.45 0 79 0 79.5 0 80 0 80.55 0 81.05 0 81.55 0 82.1 0 82.6 0.2 83.1 0.35 83.65 1.05 84.15 1.75 84.65 1.75 85.2 1.75 85.7 2.05 86.2 2.4 86.75 2.75 87.25 3.1 87.75 3.25 88.3 3.45 88.8 3.8 89.3 4.15 89.85 4.3 90.35 4.5 90.85 4.8 91.4 5.15 91.9 5.35 92.4 5.5 92.95 5.7 93.45 5.85 93.95 6.2 94.5 6.55 95 6.9 95.5 7.25 96.05 7.4 96.55 7.6 97.05 7.9 97.6 8.25 98.1 8.45 98.6 8.6 99.15 8.8 99.65 8.95 100.15 9.3 100.65 9.65 101.2 9.687890625 101.3259765625 9.7 101.45 11.0353515625 100.96640625 12.35 100.5 17.4701171875 98.6306640625 22.6 97.05 22.5033203125 96.7287109375 22.4 96.35 22.05 95.85 21.7 95.35 21.15 94.8 20.65 94.3 20.3 93.8 19.95 93.25 19.8 92.75 19.6 92.25 19.3 91.75 18.95 91.2 18.95 90.7 18.95 90.2 18.95 89.65 18.95 89.15 18.75 88.65 18.6 88.1 18.4 87.6 18.25 87.1 17.9 86.55 17.55 86.05 17.4 85.55 17.2 85 16.85 84.5 16.55 84 16.35 83.45 16.2 82.95 15.85 82.45 15.5 81.9 15.15 81.4 14.8 80.9 14.65 80.35 14.45 79.85 14.3 79.35 14.1 78.8 13.75 78.3 13.45 77.8 13.25 77.25 13.1 76.75 12.75 76.25 12.4 75.7 12.2 75.2 12.05 74.7 12.05 74.15 12.05 73.65 12.2 73.15 12.4 72.6 12.4 72.1 12.4 71.6 12.4 71.05 12.4 70.55 12.4 70.05 12.4 69.5 12.4 69 12.4 68.5 12.55 68 12.75 67.45 13.1 66.95 13.45 66.45 13.498828125 66.2708984375 13.55 66.1 6.7587890625 66.6716796875 0 66.25
M 60.3 16.1
Q 59.5888671875 15.9666015625 58.85 15.85 58.5 15.65 58.15 15.5 58 15.15 57.85 14.8 43.55 14.6 29.25 14.45 28.9 14.8 28.55 15.15 27.35 15.5 26.15 15.85 25.8 16.15 25.5 16.5 24.95 17.05 24.45 17.55 23.75 18.05 23.05 18.6 22.2 19.1 21.35 19.6 20.5 20.15 19.6 20.65 18.75 21.15 17.9 21.7 17.2 22.2 16.55 22.7 16.2 23.25 15.85 23.75 15.5 24.25 15.15 24.8 14.65 25.3 14.1 25.8 13.6 26.35 13.1 26.85 12.55 27.35 12.05 27.9 11.7 28.4 11.35 28.9 10.85 29.4 10.35 29.95 9.65 30.45 8.95 30.95 8.8 31.5 8.6 32 7.9 32.5 7.25 33.05 7.05 33.55 6.9 34.05 6.55 34.6 6.2 35.1 6.05 35.6 5.85 36.15 5.85 36.65 5.85 37.15 5.5 37.7 5.15 38.2 5 38.7 4.8 39.25 4.8 39.75 4.8 40.25 4.723828125 40.5294921875 4.65 40.8 5.5751953125 41.059765625 6.5 41.35 13.489453125 43.622265625 19.85 47.05 19.91015625 46.9328125 19.95 46.8 20.5 46.3 21 45.75 21.35 45.25 21.7 44.75 22.05 44.25 22.4 43.7 23.25 43.2 24.1 42.7 24.25 42.15 24.45 41.65 24.95 41.15 25.5 40.6 26 40.1 26.5 39.6 27 39.05 27.55 38.55 28.05 38.05 28.55 37.5 29.45 37 30.3 36.5 31 35.95 31.65 35.45 32.55 34.95 33.4 34.4 34.25 33.9 35.1 33.4 36.15 32.85 37.2 32.35 38.2 31.85 39.25 31.3 40.3 30.8 41.3 30.3 42.5 29.95 43.7 29.6 44.05 29.4 44.4 29.25 45 29.15 45.55 29 47.75 29.3 49.9 29.6 49.9 29.95 49.9 30.3 51.3 30.65 52.65 30.95 52.75078125 31.0140625 52.85 31.05 53.32421875 29.841796875 53.9 28.6 56.850390625 22.1982421875 60.3 16.1
M 100.2 19.65
Q 100 19.8 99.8 19.95 99.3 20.5 98.8 21 98.25 21.5 97.75 22 97.6 22.55 97.4 23.05 97.05 23.55 96.75 24.1 96.55 24.6 96.4 25.1 96.2 25.65 96.05 26.15 95.85 26.65 95.7 27.2 95.5 27.7 95.35 28.2 95.2 28.75 95 29.25 94.65 29.75 94.3 30.3 94.15 30.8 93.95 31.3 93.65 31.85 93.3 32.35 93.1 32.85 92.95 33.4 92.75 33.9 92.6 34.4 92.6 34.95 92.6 35.45 92.6 35.95 92.6 36.5 92.6 37 92.6 37.5 92.6 38.05 92.6 38.55 92.6 39.05 92.6 39.6 92.4 39.05 92.25 38.55 91.9 38.05 91.55 37.5 91.2 37 90.85 36.5 90.7 35.95 90.55 35.45 90 34.95 89.5 34.4 89.3 33.9 89.15 33.4 88.65 32.85 88.1 32.35 87.8 31.85 87.45 31.3 87.1 30.8 86.75 30.3 85.9 29.75 85 29.25 84.7 28.75 84.35 28.2 84.15 27.7 84 27.2 83.3 26.85 82.6 26.5 82.1 26.15 81.6 25.8 80.7 25.3 79.85 24.8 79.35 24.25 78.85 23.75 78.3 23.25 77.8 22.7 77.5513671875 22.59765625 77.3 22.5 76.065234375 28.1302734375 73.6 33.65 72.6806640625 35.723828125 71.6 37.6 71.7892578125 37.7375 71.95 37.85 72.45 38.35 73 38.9 73.85 39.4 74.7 39.9 75.55 40.25 76.4 40.6 76.6 40.8 76.75 40.95 77.3 41.3 77.8 41.65 78.5 42.15 79.15 42.7 79.7 43.2 80.2 43.7 80.9 44.25 81.6 44.75 81.9 45.25 82.25 45.75 82.95 46.3 83.65 46.8 84 47.3 84.35 47.85 84.7 48.35 85 48.85 85.7 49.4 86.4 49.9 86.75 50.4 87.1 50.95 87.95 51.3 88.8 51.65 89.15 51.95 89.5 52.3 89.65 52.85 89.85 53.35 90.35 53.85 90.85 54.4 91.4 54.9 91.9 55.4 92.4 55.95 92.95 56.45 93.3 56.95 93.65 57.5 93.95 58 94.3 58.5 95.2 58.85 96.05 59.2 96.05 59.55 96.05 59.9 96.9 60.25 97.75 60.6 97.75 60.9 97.75 61.25 97.75 61.8 97.75 62.3 98.1 62.8 98.45 63.35 98.8 63.85 99.15 64.35 99.65 64.9 100.15 65.4 100.5 65.9 100.85 66.45 101.35 66.95 101.9 67.45 104.45 67.65 107.05 67.8 107.05 67.65 107.05 67.45 107.05 67.1 107.05 66.75 107.05 66.25 107.05 65.75 107.05 65.2 107.05 64.7 107.05 64.2 107.05 63.65 106.9 63.15 106.7 62.65 106.2 62.1 105.65 61.6 105.5 61.1 105.35 60.6 105 60.05 104.65 59.55 104.65 59.05 104.65 58.5 104.15 58 103.6 57.5 103.45 56.95 103.25 56.45 103.25 55.95 103.25 55.4 103.1 54.9 102.9 54.4 102.6 53.85 102.25 53.35 102 53 101.75 52.6 102.15 52.45 102.6 52.3 102.6 51.95 102.6 51.65 102.75 51.1 102.9 50.6 102.9 50.1 102.9 49.55 102.9 49.05 102.9 48.55 102.9 48 102.9 47.5 102.9 47 102.9 46.45 102.9 45.95 102.9 45.45 102.9 44.9 102.9 44.4 103.1 43.9 103.25 43.35 103.6 42.85 103.95 42.35 104.15 41.8 104.3 41.3 104.65 40.8 105 40.25 105.15 39.75 105.35 39.25 105.5 38.7 105.65 38.2 105.85 37.7 106 37.15 106.1 36.85 106.25 36.55 107 36.15 107.75 35.8 108.45 35.3 109.1 34.75 110 34.25 110.85 33.75 111.7 33.2 112.55 32.7 113.05 32.2 113.6 31.65 113.760546875 31.5556640625 113.9 31.45
L 113.9 31.45
Q 104.5876953125 26.3833984375 100.5 19.2
L 100.5 19.25
Q 100.35 19.45 100.2 19.65 Z"/>
</g>
</g>
</g>
</g>
</g>
</svg>
